<?xml version="1.0" encoding="UTF-8"?>
<svg id="Layer_1" xmlns="http://www.w3.org/2000/svg" xmlns:xlink="http://www.w3.org/1999/xlink" version="1.1" viewBox="0 0 1920 1080">
  <!-- Generator: Adobe Illustrator 30.4.0, SVG Export Plug-In . SVG Version: 2.1.4 Build 226)  -->
  <defs>
    <style>
      .st0 {
        fill: none;
      }

      .st1 {
        fill: #e31c78;
      }

      .st2 {
        fill: #ff007a;
      }

      .st3 {
        fill: #ffa4f6;
        stroke-width: 5.2px;
      }

      .st3, .st4, .st5 {
        stroke: #ff007a;
        stroke-miterlimit: 10;
      }

      .st4 {
        stroke-width: 5.4px;
      }

      .st4, .st5 {
        fill: #fff;
      }

      .st5 {
        stroke-width: 5.2px;
      }

      .st6 {
        clip-path: url(#clippath);
      }
    </style>
    <clipPath id="clippath">
      <path class="st0" d="M1073.9,456.3c-8.9,1.3-21.6,1.1-36.3.9-21.7-.8-45.9,1.1-63-3.9-8.5-2.8-9.3-8.7-1.9-11.8,15.6-5.5,34.3-3,57-3.2,23.7.3,44.2.2,53.2,4.4,9.8,4.3,4.7,11.8-8.1,13.4h-.9ZM845.9,455.9c8.9,1.4,21.6,1.3,36.3,1.2,21.7-.6,45.9,1.5,63-3.3,8.6-2.7,9.5-8.6,2.2-11.8-15.5-5.6-34.2-3.3-56.9-3.7-23.7.1-44.2-.2-53.3,4-9.9,4.3-5,11.8,7.7,13.5h.9Z"/>
    </clipPath>
  </defs>
  <path id="captcha-body" class="st5" d="M1284.2,447.7c.7,0,2.4,0,4.3.7,4.7,1.8,7.7,6.3,8.4,9.9,5.7,29.9,6.8,138.4-1.1,162.8-2,6.3-11.3,8.9-22.4,9.9-13.2,1.2-572.8.3-582.6.9-18.4,1.1-21-.5-36.2,0,0,0-5.7.2-13.5-1-3.9-.6-5.7-1.1-7.4-1.9-.8-.4-4.8-2.4-7.6-6.5-3-4.5-3-9.1-3.1-12.1-.1-8.1-1.9-16.1-2.3-24.2-.8-15.7-4.9-118.7.7-126.4,7.1-9.8,8.6-11.5,44.9-11.8,16.4-.2,583.6,0,617.8-.3Z"/>
  <path id="captcha-checkbox" class="st5" d="M1227.6,498.2c.7,0,2.4,0,4.3.7,4.7,1.8,8.4,6.2,8.4,9.9-.1,30.8.2,34.1-1,58.3-.7,15-29,13.6-53.1,13.6,0,0-5.7.2-13.5-1-3.9-.6-5.7-1.1-7.4-1.9-.8-.4-4.8-2.4-7.6-6.5-3-4.5-3-9.1-3.1-12.1-.1-8.1-1.2-34.3-1.5-44.4-.3-12.1,8.5-15.9,44.7-16.3,16.4-.2-4.6,0,29.7-.3Z"/>
  <g id="captcha-uhuman_x5F_txt">
    <g>
      <path class="st1" d="M718.5,553.5c-2.6,0-4.6-.5-6.2-1.5-1.5-1-2.7-2.5-3.4-4.4-.7-1.9-1.1-4.1-1.1-6.7s0-1.9,0-2.8c0-.9,0-1.7,0-2.4s0-1.7,0-2.3-.1-1-.2-1.4c0-.4-.1-.7-.2-1.1,0-.3,0-.7,0-1.1,0-.8.2-1.4.7-1.8.4-.4,1.1-.5,1.9-.5s1.4.2,2,.5c.6.4,1,1,1.4,1.9s.5,2.2.5,3.8,0,1.5,0,2.3c0,.9-.1,1.7-.2,2.6s0,1.7,0,2.4c0,1.8.2,3.2.5,4.2s.9,1.7,1.6,2c.7.4,1.5.6,2.5.6,1.4,0,2.5-.4,3.2-1.3s1.1-2.4,1.1-4.5,0-2.5,0-3.5c0-1,0-2-.1-3,0-1,0-2.1,0-3.4s.3-2.5.8-3.4c.5-.9,1.4-1.3,2.6-1.3s1.4.2,1.8.6c.5.4.7,1,.7,1.8s0,.8-.1,1.2c0,.4-.1.9-.2,1.4,0,.5,0,1.2,0,2,0,1.3,0,2.5.1,3.8,0,1.3.1,2.6.1,4.1,0,2.2-.3,4.1-1,5.8s-1.7,3-3.1,3.9c-1.4.9-3.2,1.4-5.4,1.4Z"/>
      <path class="st1" d="M748.7,544.1c-1.3,0-2.3-.1-3-.4-.7-.3-1.3-.7-1.6-1.1s-.4-1-.4-1.5,0-.7.2-1c.2-.3.5-.5,1-.6,1.8-.5,3.6-.8,5.5-1,1.8-.2,3.7-.4,5.6-.4,1.9,0,3.7,0,5.6,0s2,.1,2.8.4c.8.3,1.3.7,1.7,1.2s.6,1,.6,1.6-.1,1-.4,1.3-.7.5-1.3.5c-2.6,0-4.7,0-6.5.2-1.8.1-3.3.2-4.5.4-1.2.1-2.2.3-3,.4s-1.5.2-2.1.2ZM748.9,553.5c-1,0-1.8-.4-2.5-1.1-.7-.7-1-1.8-.9-3.3,0-1.1,0-2.3,0-3.6s0-2.7,0-4.1c0-1.4,0-2.8,0-4.1s0-2.6,0-3.7c0-1.1,0-2.1,0-2.8s.2-1.6.6-2.2c.4-.6,1.1-.8,2-.8s1.8.4,2.4,1.1c.6.7.9,1.8.9,3.3,0,2.4,0,4.8,0,7,0,2.3,0,4.4,0,6.5,0,2,0,3.8,0,5.4s-.2,1.5-.6,1.9c-.4.4-1,.6-1.7.6ZM763.3,553.4c-1,0-1.8-.3-2.4-.9-.6-.6-1.1-1.6-1.4-2.9s-.4-3-.4-5c0-3.3,0-6.1.1-8.4,0-2.2.1-4.1.1-5.5s.2-1.6.6-2.1c.4-.5,1-.7,1.8-.7s1.8.4,2.3,1.2c.5.8.8,2.1.8,3.7s0,2.7,0,4.1c0,1.4,0,2.8-.1,4.2,0,1.3,0,2.5,0,3.6,0,1,0,1.8.2,2.5,0,.7.2,1.3.3,1.9s.2,1.2.2,1.9c0,.7-.2,1.3-.5,1.8-.4.4-.9.7-1.5.7Z"/>
      <path class="st1" d="M780.7,553.5c-2.6,0-4.6-.5-6.2-1.5-1.6-1-2.7-2.5-3.4-4.4-.7-1.9-1.1-4.1-1.1-6.7s0-1.9,0-2.8c0-.9,0-1.7,0-2.4s0-1.7,0-2.3c0-.6-.1-1-.2-1.4,0-.4-.1-.7-.2-1.1,0-.3,0-.7,0-1.1,0-.8.2-1.4.7-1.8.4-.4,1.1-.5,1.9-.5s1.4.2,2,.5c.6.4,1,1,1.4,1.9.4.9.5,2.2.5,3.8s0,1.5,0,2.3c0,.9-.1,1.7-.2,2.6,0,.9,0,1.7,0,2.4,0,1.8.2,3.2.5,4.2.4,1,.9,1.7,1.6,2,.7.4,1.5.6,2.5.6,1.4,0,2.5-.4,3.2-1.3.7-.9,1.1-2.4,1.1-4.5s0-2.5,0-3.5c0-1,0-2-.1-3,0-1,0-2.1,0-3.4s.3-2.5.8-3.4,1.4-1.3,2.6-1.3,1.4.2,1.8.6.7,1,.7,1.8,0,.8-.1,1.2c0,.4-.1.9-.2,1.4s0,1.2,0,2c0,1.3,0,2.5.1,3.8,0,1.3.1,2.6.1,4.1,0,2.2-.3,4.1-1,5.8s-1.7,3-3.1,3.9c-1.4.9-3.2,1.4-5.4,1.4Z"/>
      <path class="st1" d="M797.7,553.5c-.7,0-1.3-.2-1.8-.7-.5-.5-.8-1.3-1.1-2.4s-.4-2.7-.4-4.8,0-2,0-2.9c0-.9.1-1.8.2-2.6,0-.8,0-1.6,0-2.4s0-1.2,0-1.7-.1-1-.2-1.4c0-.4-.2-.8-.2-1.2,0-.4,0-.7,0-1,0-.7.2-1.2.5-1.6.3-.4.8-.6,1.6-.6s1.3.2,1.8.6c.5.4.9,1,1.2,1.6.3.7.4,1.4.5,2.1l-.9.4c.5-1.4,1.1-2.7,1.7-3.8.6-1.1,1.3-1.9,2.1-2.5.7-.6,1.5-.9,2.3-.9s1.1.2,1.6.5c.5.3.9.8,1.2,1.5.4.7.7,1.6,1,2.7s.6,2.4.9,4c.3,1.6.6,2.9.8,4.1.2,1.2.4,2.2.6,3.2.2.9.5,1.9,1,2.8l-2.1-1c.4-.9.7-1.9,1-3,.3-1.1.6-2.2,1-3.3.3-1.1.7-2.2,1.1-3.3.4-1.1.8-2.1,1.2-3,.5-1,1-1.9,1.5-2.7.5-.8,1.1-1.4,1.8-1.9.7-.5,1.5-.7,2.4-.7s1.3.1,1.9.4c.6.3,1.1.8,1.5,1.4.4.7.8,1.5,1.1,2.6.3,1.1.5,2.4.7,4,.2,1.7.4,3.4.6,5.1s.5,3.2.8,4.7c.3,1.5.7,2.8,1.2,3.9.4,1,.5,1.9,0,2.6-.4.7-1.1,1.1-2.2,1.1s-1.6-.2-2.1-.7c-.6-.4-1.1-1.1-1.6-2.1-.4-.7-.7-1.6-.9-2.6-.2-1-.5-2.1-.6-3.3-.2-1.1-.3-2.3-.4-3.4-.1-1.1-.2-2.1-.3-3.1,0-.8-.1-1.5-.2-2.1-.1-.6-.2-1.3-.4-1.8-.2-.6-.4-1.2-.7-1.7l1.8.8c-.7.8-1.2,1.8-1.7,3-.5,1.2-1,2.6-1.4,4.1-.5,1.5-.9,3.2-1.5,5s-1.2,3.7-2,5.8c-.3.7-.6,1.3-1,1.6s-.9.5-1.6.5-1.1-.1-1.5-.4-.8-.7-1.1-1.2c-.7-1.2-1.3-2.6-1.8-4.2-.5-1.6-.8-3.6-1.2-5.9-.2-1.5-.4-2.8-.6-4-.2-1.1-.5-2.2-1-3.2h.6c-1.5,2.3-2.5,4.8-3,7.5-.5,2.7-.9,5.7-1.1,9,0,.9-.3,1.5-.7,1.9-.4.4-1,.6-1.7.6Z"/>
      <path class="st1" d="M833.3,547.1c-1.2,0-2-.2-2.5-.7-.5-.5-.8-1-.8-1.8s.2-.9.5-1.2c.3-.3.8-.6,1.5-.8,2.5-.7,5.4-1.3,8.7-1.8,3.3-.5,6.9-.7,11-.7s2.4.2,2.9.6c.5.4.8,1,.8,1.8s-.4,1.6-1.1,2.2c-.7.6-1.7.9-3,.9-1.8,0-3.4,0-5,.2-1.5.1-2.9.2-4.1.4-1.3.2-2.4.3-3.5.5-1,.2-2,.3-2.9.4s-1.7.2-2.4.2ZM852.5,553.4c-.7,0-1.4-.2-2-.6-.6-.4-1.1-1-1.7-1.9-.5-.8-1-1.8-1.4-3.1-.4-1.3-.7-2.6-1-4-.2-1.4-.4-2.7-.6-4-.2-1.5-.3-2.7-.4-3.6-.1-.9-.3-1.6-.4-2-.1-.5-.3-.8-.4-.9-.2-.2-.3-.2-.6-.2-.6,0-1.2.4-1.8,1.3-.6.8-1.3,2.1-1.9,3.6-.6,1.6-1.2,3.5-1.8,5.8-.5,2.2-1,4.7-1.4,7.5,0,.7-.3,1.3-.6,1.6-.3.3-.8.5-1.4.5-1,0-1.8-.4-2.4-1.2-.5-.8-.8-2.1-.8-4s.1-2.9.3-4.2c.2-1.3.4-2.6.7-3.8.3-1.2.5-2.4.7-3.6.2-1.2.3-2.4.3-3.6,0-.4.1-.8.4-1,.3-.3.7-.4,1.2-.4s1,.1,1.5.4c.5.2,1,.7,1.4,1.3l-2.1.7c1-1.9,2.1-3.4,3.5-4.5,1.4-1.1,2.9-1.7,4.5-1.7s3,.4,3.9,1.3c.9.8,1.7,2.2,2.2,4,.5,1.8.9,4.2,1.3,7.1.2,1.7.4,3.2.8,4.4.3,1.2.7,2.3,1.1,3.1.4.8.7,1.6.9,2.2.2.6.4,1.2.4,1.7s-.2,1.1-.5,1.5c-.4.3-.9.5-1.6.5Z"/>
      <path class="st1" d="M861,553.6c-.9,0-1.5-.2-1.9-.6-.4-.4-.6-.9-.6-1.5s0-1,.1-1.5c0-.5.2-1.1.3-1.8.1-.7.2-1.6.3-2.8,0-1.2.1-2.7.1-4.5s0-2.1,0-3.2c0-1.1-.1-2.2-.2-3.2s-.1-1.9-.2-2.6c0-.8,0-1.3,0-1.6,0-.7.2-1.3.7-1.8.4-.5,1.1-.8,1.9-.8s2,.3,2.9.8c.9.5,1.7,1.2,2.5,2.1.8.9,1.5,1.9,2.2,3,.7,1.1,1.3,2.3,1.9,3.5.6,1.2,1.2,2.4,1.8,3.6s1.2,2.3,1.7,3.3c.5,1,1.1,1.9,1.7,2.6s1.1,1.3,1.7,1.6l-3,1.4c.3-.2.6-.5.9-.8s.6-.8.8-1.4c.2-.6.3-1.5.3-2.5s0-2.8-.1-4.1c0-1.3-.2-2.6-.2-3.8s0-2.4,0-3.5c0-1.2.2-2.3.5-3.5.2-.9.5-1.5.9-1.8.4-.4.9-.6,1.4-.6.9,0,1.5.2,2,.7.4.4.7,1,.8,1.6.1.6.1,1.1,0,1.6-.2,1.1-.4,2.2-.4,3.2,0,1,0,2,0,3,0,1,0,2,.1,3.1,0,1.1,0,2.3,0,3.6s-.1,3.4-.3,4.8c-.2,1.4-.7,2.5-1.4,3.3-.7.8-1.8,1.2-3.2,1.2s-1.7-.2-2.5-.6c-.7-.4-1.4-1-2-1.8-.6-.8-1.2-1.6-1.8-2.6-.5-1-1.1-2.1-1.6-3.2-.5-1.2-1.1-2.3-1.7-3.6-.6-1.2-1.2-2.4-1.9-3.6-.7-1.2-1.4-2.3-2.3-3.4l1-.2c.1,1,.3,1.8.3,2.5,0,.7.1,1.4.1,1.9,0,.6,0,1.2,0,1.9,0,2.2,0,4.3-.3,6.1-.2,1.8-.5,3.4-.9,4.7-.2.6-.5,1.1-.9,1.4s-1,.5-1.8.5Z"/>
      <path class="st1" d="M894,544.9c-.8,0-1.6-.2-2.2-.6-.6-.4-1.1-.9-1.5-1.5-.4-.6-.5-1.3-.5-2s0-.8.2-1.1c.1-.3.3-.7.6-1.1.3-.4.7-.8,1.2-1.1s1.2-.8,2-1.2c.8-.4,1.4-.7,1.7-1,.4-.3.6-.5.7-.7s.2-.4.2-.6c0-.4-.2-.7-.6-.9-.4-.2-1.2-.3-2.3-.3s-2.1.1-2.8.3c-.7.2-1.3.4-1.8.6-.5.2-1,.3-1.5.3s-1.3-.2-1.8-.7c-.5-.4-.8-1.1-.8-2s.1-1.1.4-1.5c.2-.4.6-.7,1.2-1,.9-.5,2-.8,3.3-1.1,1.3-.3,2.5-.4,3.6-.4,2,0,3.6.3,4.9.8,1.3.5,2.3,1.2,2.9,2.2.7,1,1,2.1,1,3.4s-.2,1.6-.5,2.3c-.3.7-.8,1.3-1.4,1.8-.6.5-1.3,1-2.1,1.4-.8.4-1.5.8-1.9,1-.4.3-.7.5-.9.6-.1.2-.2.3-.2.5s0,.3.1.4c0,.1.2.2.3.4s.2.3.3.5c0,.2.1.4.1.6,0,.4-.2.8-.5,1.1s-.8.5-1.5.5ZM893.6,553.5c-1.1,0-2.1-.3-2.7-.8-.7-.5-1-1.3-1-2.3s.3-1.7.8-2.2c.5-.5,1.2-.7,2.1-.7,1.4,0,2.4.3,3,1,.6.7.9,1.4.9,2.3s-.3,1.5-.8,1.9-1.3.7-2.3.7Z"/>
    </g>
    <g>
      <path class="st2" d="M718.5,553.5c-2.6,0-4.6-.5-6.2-1.5-1.5-1-2.7-2.5-3.4-4.4-.7-1.9-1.1-4.1-1.1-6.7s0-1.9,0-2.8c0-.9,0-1.7,0-2.4s0-1.7,0-2.3-.1-1-.2-1.4c0-.4-.1-.7-.2-1.1,0-.3,0-.7,0-1.1,0-.8.2-1.4.7-1.8.4-.4,1.1-.5,1.9-.5s1.4.2,2,.5c.6.4,1,1,1.4,1.9s.5,2.2.5,3.8,0,1.5,0,2.3c0,.9-.1,1.7-.2,2.6s0,1.7,0,2.4c0,1.8.2,3.2.5,4.2s.9,1.7,1.6,2c.7.4,1.5.6,2.5.6,1.4,0,2.5-.4,3.2-1.3s1.1-2.4,1.1-4.5,0-2.5,0-3.5c0-1,0-2-.1-3,0-1,0-2.1,0-3.4s.3-2.5.8-3.4c.5-.9,1.4-1.3,2.6-1.3s1.4.2,1.8.6c.5.4.7,1,.7,1.8s0,.8-.1,1.2c0,.4-.1.9-.2,1.4,0,.5,0,1.2,0,2,0,1.3,0,2.5.1,3.8,0,1.3.1,2.6.1,4.1,0,2.2-.3,4.1-1,5.8s-1.7,3-3.1,3.9c-1.4.9-3.2,1.4-5.4,1.4Z"/>
      <path class="st2" d="M748.7,544.1c-1.3,0-2.3-.1-3-.4-.7-.3-1.3-.7-1.6-1.1s-.4-1-.4-1.5,0-.7.2-1c.2-.3.5-.5,1-.6,1.8-.5,3.6-.8,5.5-1,1.8-.2,3.7-.4,5.6-.4,1.9,0,3.7,0,5.6,0s2,.1,2.8.4c.8.3,1.3.7,1.7,1.2s.6,1,.6,1.6-.1,1-.4,1.3-.7.5-1.3.5c-2.6,0-4.7,0-6.5.2-1.8.1-3.3.2-4.5.4-1.2.1-2.2.3-3,.4s-1.5.2-2.1.2ZM748.9,553.5c-1,0-1.8-.4-2.5-1.1-.7-.7-1-1.8-.9-3.3,0-1.1,0-2.3,0-3.6s0-2.7,0-4.1c0-1.4,0-2.8,0-4.1s0-2.6,0-3.7c0-1.1,0-2.1,0-2.8s.2-1.6.6-2.2c.4-.6,1.1-.8,2-.8s1.8.4,2.4,1.1c.6.7.9,1.8.9,3.3,0,2.4,0,4.8,0,7,0,2.3,0,4.4,0,6.5,0,2,0,3.8,0,5.4s-.2,1.5-.6,1.9c-.4.4-1,.6-1.7.6ZM763.3,553.4c-1,0-1.8-.3-2.4-.9-.6-.6-1.1-1.6-1.4-2.9s-.4-3-.4-5c0-3.3,0-6.1.1-8.4,0-2.2.1-4.1.1-5.5s.2-1.6.6-2.1c.4-.5,1-.7,1.8-.7s1.8.4,2.3,1.2c.5.8.8,2.1.8,3.7s0,2.7,0,4.1c0,1.4,0,2.8-.1,4.2,0,1.3,0,2.5,0,3.6,0,1,0,1.8.2,2.5,0,.7.2,1.3.3,1.9s.2,1.2.2,1.9c0,.7-.2,1.3-.5,1.8-.4.4-.9.7-1.5.7Z"/>
      <path class="st2" d="M780.7,553.5c-2.6,0-4.6-.5-6.2-1.5-1.6-1-2.7-2.5-3.4-4.4-.7-1.9-1.1-4.1-1.1-6.7s0-1.9,0-2.8c0-.9,0-1.7,0-2.4s0-1.7,0-2.3c0-.6-.1-1-.2-1.4,0-.4-.1-.7-.2-1.1,0-.3,0-.7,0-1.1,0-.8.2-1.4.7-1.8.4-.4,1.1-.5,1.9-.5s1.4.2,2,.5c.6.4,1,1,1.4,1.9.4.9.5,2.2.5,3.8s0,1.5,0,2.3c0,.9-.1,1.7-.2,2.6,0,.9,0,1.7,0,2.4,0,1.8.2,3.2.5,4.2.4,1,.9,1.7,1.6,2,.7.4,1.5.6,2.5.6,1.4,0,2.5-.4,3.2-1.3.7-.9,1.1-2.4,1.1-4.5s0-2.5,0-3.5c0-1,0-2-.1-3,0-1,0-2.1,0-3.4s.3-2.5.8-3.4,1.4-1.3,2.6-1.3,1.4.2,1.8.6.7,1,.7,1.8,0,.8-.1,1.2c0,.4-.1.9-.2,1.4s0,1.2,0,2c0,1.3,0,2.5.1,3.8,0,1.3.1,2.6.1,4.1,0,2.2-.3,4.1-1,5.8s-1.7,3-3.1,3.9c-1.4.9-3.2,1.4-5.4,1.4Z"/>
      <path class="st2" d="M797.7,553.5c-.7,0-1.3-.2-1.8-.7-.5-.5-.8-1.3-1.1-2.4s-.4-2.7-.4-4.8,0-2,0-2.9c0-.9.1-1.8.2-2.6,0-.8,0-1.6,0-2.4s0-1.2,0-1.7-.1-1-.2-1.4c0-.4-.2-.8-.2-1.2,0-.4,0-.7,0-1,0-.7.2-1.2.5-1.6.3-.4.8-.6,1.6-.6s1.3.2,1.8.6c.5.4.9,1,1.2,1.6.3.7.4,1.4.5,2.1l-.9.4c.5-1.4,1.1-2.7,1.7-3.8.6-1.1,1.3-1.9,2.1-2.5.7-.6,1.5-.9,2.3-.9s1.1.2,1.6.5c.5.3.9.8,1.2,1.5.4.7.7,1.6,1,2.7s.6,2.4.9,4c.3,1.6.6,2.9.8,4.1.2,1.2.4,2.2.6,3.2.2.9.5,1.9,1,2.8l-2.1-1c.4-.9.7-1.9,1-3,.3-1.1.6-2.2,1-3.3.3-1.1.7-2.2,1.1-3.3.4-1.1.8-2.1,1.2-3,.5-1,1-1.9,1.5-2.7.5-.8,1.1-1.4,1.8-1.9.7-.5,1.5-.7,2.4-.7s1.3.1,1.9.4c.6.3,1.1.8,1.5,1.4.4.7.8,1.5,1.1,2.6.3,1.1.5,2.4.7,4,.2,1.7.4,3.4.6,5.1s.5,3.2.8,4.7c.3,1.5.7,2.8,1.2,3.9.4,1,.5,1.9,0,2.6-.4.7-1.1,1.1-2.2,1.1s-1.6-.2-2.1-.7c-.6-.4-1.1-1.1-1.6-2.1-.4-.7-.7-1.6-.9-2.6-.2-1-.5-2.1-.6-3.3-.2-1.1-.3-2.3-.4-3.4-.1-1.1-.2-2.1-.3-3.1,0-.8-.1-1.5-.2-2.1-.1-.6-.2-1.3-.4-1.8-.2-.6-.4-1.2-.7-1.7l1.8.8c-.7.8-1.2,1.8-1.7,3-.5,1.2-1,2.6-1.4,4.1-.5,1.5-.9,3.2-1.5,5s-1.2,3.7-2,5.8c-.3.7-.6,1.3-1,1.6s-.9.5-1.6.5-1.1-.1-1.5-.4-.8-.7-1.1-1.2c-.7-1.2-1.3-2.6-1.8-4.2-.5-1.6-.8-3.6-1.2-5.9-.2-1.5-.4-2.8-.6-4-.2-1.1-.5-2.2-1-3.2h.6c-1.5,2.3-2.5,4.8-3,7.5-.5,2.7-.9,5.7-1.1,9,0,.9-.3,1.5-.7,1.9-.4.4-1,.6-1.7.6Z"/>
      <path class="st2" d="M833.3,547.1c-1.2,0-2-.2-2.5-.7-.5-.5-.8-1-.8-1.8s.2-.9.5-1.2c.3-.3.8-.6,1.5-.8,2.5-.7,5.4-1.3,8.7-1.8,3.3-.5,6.9-.7,11-.7s2.4.2,2.9.6c.5.4.8,1,.8,1.8s-.4,1.6-1.1,2.2c-.7.6-1.7.9-3,.9-1.8,0-3.4,0-5,.2-1.5.1-2.9.2-4.1.4-1.3.2-2.4.3-3.5.5-1,.2-2,.3-2.9.4s-1.7.2-2.4.2ZM852.5,553.4c-.7,0-1.4-.2-2-.6-.6-.4-1.1-1-1.7-1.9-.5-.8-1-1.8-1.4-3.1-.4-1.3-.7-2.6-1-4-.2-1.4-.4-2.7-.6-4-.2-1.5-.3-2.7-.4-3.6-.1-.9-.3-1.6-.4-2-.1-.5-.3-.8-.4-.9-.2-.2-.3-.2-.6-.2-.6,0-1.2.4-1.8,1.3-.6.8-1.3,2.1-1.9,3.6-.6,1.6-1.2,3.5-1.8,5.8-.5,2.2-1,4.7-1.4,7.5,0,.7-.3,1.3-.6,1.6-.3.3-.8.5-1.4.5-1,0-1.8-.4-2.4-1.2-.5-.8-.8-2.1-.8-4s.1-2.9.3-4.2c.2-1.3.4-2.6.7-3.8.3-1.2.5-2.4.7-3.6.2-1.2.3-2.4.3-3.6,0-.4.1-.8.4-1,.3-.3.7-.4,1.2-.4s1,.1,1.5.4c.5.2,1,.7,1.4,1.3l-2.1.7c1-1.9,2.1-3.4,3.5-4.5,1.4-1.1,2.9-1.7,4.5-1.7s3,.4,3.9,1.3c.9.8,1.7,2.2,2.2,4,.5,1.8.9,4.2,1.3,7.1.2,1.7.4,3.2.8,4.4.3,1.2.7,2.3,1.1,3.1.4.8.7,1.6.9,2.2.2.6.4,1.2.4,1.7s-.2,1.1-.5,1.5c-.4.3-.9.5-1.6.5Z"/>
      <path class="st2" d="M861,553.6c-.9,0-1.5-.2-1.9-.6-.4-.4-.6-.9-.6-1.5s0-1,.1-1.5c0-.5.2-1.1.3-1.8.1-.7.2-1.6.3-2.8,0-1.2.1-2.7.1-4.5s0-2.1,0-3.2c0-1.1-.1-2.2-.2-3.2s-.1-1.9-.2-2.6c0-.8,0-1.3,0-1.6,0-.7.2-1.3.7-1.8.4-.5,1.1-.8,1.9-.8s2,.3,2.9.8c.9.5,1.7,1.2,2.5,2.1.8.9,1.5,1.9,2.2,3,.7,1.1,1.3,2.3,1.9,3.5.6,1.2,1.2,2.4,1.8,3.6s1.2,2.3,1.7,3.3c.5,1,1.1,1.9,1.7,2.6s1.1,1.3,1.7,1.6l-3,1.4c.3-.2.6-.5.9-.8s.6-.8.8-1.4c.2-.6.3-1.5.3-2.5s0-2.8-.1-4.1c0-1.3-.2-2.6-.2-3.8s0-2.4,0-3.5c0-1.2.2-2.3.5-3.5.2-.9.5-1.5.9-1.8.4-.4.9-.6,1.4-.6.9,0,1.5.2,2,.7.4.4.7,1,.8,1.6.1.6.1,1.1,0,1.6-.2,1.1-.4,2.2-.4,3.2,0,1,0,2,0,3,0,1,0,2,.1,3.1,0,1.1,0,2.3,0,3.6s-.1,3.4-.3,4.8c-.2,1.4-.7,2.5-1.4,3.3-.7.8-1.8,1.2-3.2,1.2s-1.7-.2-2.5-.6c-.7-.4-1.4-1-2-1.8-.6-.8-1.2-1.6-1.8-2.6-.5-1-1.1-2.1-1.6-3.2-.5-1.2-1.1-2.3-1.7-3.6-.6-1.2-1.2-2.4-1.9-3.6-.7-1.2-1.4-2.3-2.3-3.4l1-.2c.1,1,.3,1.8.3,2.5,0,.7.1,1.4.1,1.9,0,.6,0,1.2,0,1.9,0,2.2,0,4.3-.3,6.1-.2,1.8-.5,3.4-.9,4.7-.2.6-.5,1.1-.9,1.4s-1,.5-1.8.5Z"/>
      <path class="st2" d="M894,544.9c-.8,0-1.6-.2-2.2-.6-.6-.4-1.1-.9-1.5-1.5-.4-.6-.5-1.3-.5-2s0-.8.2-1.1c.1-.3.3-.7.6-1.1.3-.4.7-.8,1.2-1.1s1.2-.8,2-1.2c.8-.4,1.4-.7,1.7-1,.4-.3.6-.5.7-.7s.2-.4.2-.6c0-.4-.2-.7-.6-.9-.4-.2-1.2-.3-2.3-.3s-2.1.1-2.8.3c-.7.2-1.3.4-1.8.6-.5.2-1,.3-1.5.3s-1.3-.2-1.8-.7c-.5-.4-.8-1.1-.8-2s.1-1.1.4-1.5c.2-.4.6-.7,1.2-1,.9-.5,2-.8,3.3-1.1,1.3-.3,2.5-.4,3.6-.4,2,0,3.6.3,4.9.8,1.3.5,2.3,1.2,2.9,2.2.7,1,1,2.1,1,3.4s-.2,1.6-.5,2.3c-.3.7-.8,1.3-1.4,1.8-.6.5-1.3,1-2.1,1.4-.8.4-1.5.8-1.9,1-.4.3-.7.5-.9.6-.1.2-.2.3-.2.5s0,.3.1.4c0,.1.2.2.3.4s.2.3.3.5c0,.2.1.4.1.6,0,.4-.2.8-.5,1.1s-.8.5-1.5.5ZM893.6,553.5c-1.1,0-2.1-.3-2.7-.8-.7-.5-1-1.3-1-2.3s.3-1.7.8-2.2c.5-.5,1.2-.7,2.1-.7,1.4,0,2.4.3,3,1,.6.7.9,1.4.9,2.3s-.3,1.5-.8,1.9-1.3.7-2.3.7Z"/>
    </g>
  </g>
  <path id="captcha-dontshow_x5F_checkmark" class="st3" d="M1178.2,523.8c2,3.3,13.1,28,25.2,17.8,16.1-13.6,44.1-40.8,44.1-40.8,0,0,6-8.1,7,4.1,1,12.2-39.3,45.3-51.1,54.2-11.8,8.9-21.1,10.3-27.5-3.7-6.4-14.1-10.7-20.8-8.2-27.4,2.5-6.6,8.5-7.5,10.5-4.3h0Z"/>
  <path id="captcha-eye_x5F_R" class="st4" d="M1073.9,456.3c-8.9,1.3-21.6,1.1-36.3.9-21.7-.8-45.9,1.1-63-3.9-8.5-2.8-9.3-8.7-1.9-11.8,15.6-5.5,34.3-3,57-3.2,23.7.3,44.2.2,53.2,4.4,9.8,4.3,4.7,11.8-8.1,13.4h-.9Z"/>
  <path id="captcha--eye_x5F_L" class="st4" d="M845.9,455.9c8.9,1.4,21.6,1.3,36.3,1.2,21.7-.6,45.9,1.5,63-3.3,8.6-2.7,9.5-8.6,2.2-11.8-15.5-5.6-34.2-3.3-56.9-3.7-23.7.1-44.2-.2-53.3,4-9.9,4.3-5,11.8,7.7,13.5h.9Z"/>
  <g id="captcha-pupils_x5F_mask">
    <g class="st6">
      <g id="captcha-pupil_x5F_R">
        <path class="st2" d="M997.7,463.3c8.3.6,21.1-4.1,21.9-14.3.8-10.2-11.5-16.2-20.7-16.9-9.1-.7-19.1,4.4-19.9,15.1-.8,10.6,10.4,15.5,18.7,16.1Z"/>
        <path class="st2" d="M997.7,463.3c8.3.6,21.1-4.1,21.9-14.3.8-10.2-11.5-16.2-20.7-16.9-9.1-.7-19.1,4.4-19.9,15.1-.8,10.6,10.4,15.5,18.7,16.1Z"/>
      </g>
      <g id="captcha-pupil_x5F_L">
        <path class="st2" d="M916.2,466.1c8.3.6,21.2-5.1,22.1-17.3.9-12.1-11.3-19-20.5-19.7-9.1-.7-19.2,5.5-20.2,18.2-.9,12.6,10.2,18.2,18.5,18.8Z"/>
        <path class="st2" d="M916.2,466.1c8.3.6,21.2-5.1,22.1-17.3.9-12.1-11.3-19-20.5-19.7-9.1-.7-19.2,5.5-20.2,18.2-.9,12.6,10.2,18.2,18.5,18.8Z"/>
      </g>
    </g>
  </g>
</svg>