<?xml version="1.0" encoding="UTF-8"?>
<svg id="Layer_1" xmlns="http://www.w3.org/2000/svg" xmlns:xlink="http://www.w3.org/1999/xlink" version="1.1" viewBox="0 0 1920 1080">
  <!-- Generator: Adobe Illustrator 30.4.0, SVG Export Plug-In . SVG Version: 2.1.4 Build 226)  -->
  <defs>
    <style>
      .st0, .st1, .st2 {
        fill: none;
      }

      .st1, .st2, .st3, .st4, .st5 {
        stroke-miterlimit: 10;
      }

      .st1, .st2, .st4, .st5 {
        stroke: #ff007a;
      }

      .st1, .st3, .st4 {
        stroke-width: 5.2px;
      }

      .st2 {
        stroke-width: 4.6px;
      }

      .st6, .st3 {
        fill: #ffa4f6;
      }

      .st7 {
        fill: #e31c78;
      }

      .st3 {
        stroke: #ffa4f6;
      }

      .st8 {
        fill: #ff007a;
      }

      .st9, .st4, .st5 {
        fill: #fff;
      }

      .st10 {
        fill: #ffe1fe;
      }

      .st5 {
        stroke-width: 5.3px;
      }

      .st11 {
        clip-path: url(#clippath);
      }
    </style>
    <clipPath id="clippath">
      <path class="st0" d="M717.8,519.1c13.1-1.1,30.1-1.5,44.4.7,6,1.1,10.8,2.7,14.5,6.2,4.1,3.7,4,9.9-.3,13.1-6.3,4.9-16.3,4.6-24.2,5.2-12.7.7-26.1,1-38.4,0-4.2-.3-8.7-.8-12.7-2.2-7.6-2.3-11.4-10.3-5.4-16.4,5.4-5.3,14.9-5.9,22-6.6h.2ZM621.6,519.1c-7,.8-16.6,1.3-22,6.6-6,6.1-2.2,14.1,5.4,16.4,3.9,1.4,8.4,1.9,12.7,2.2,12.2.9,25.6.6,38.4,0,7.9-.6,17.9-.3,24.2-5.2,4.3-3.3,4.4-9.4.3-13.1-3.7-3.5-8.5-5-14.5-6.2-14.2-2.2-31.3-1.7-44.4-.7h-.2Z"/>
    </clipPath>
  </defs>
  <path id="cookies-accept_x5F_button_x5F_fill" class="st3" d="M915.6,518.4c-3.4,0-6.1-.1-8.8-.2-3-.1-6-.3-9.8-.3s-3.9,0-6.3.1h-.7c-1.6,0-5.7,0-11-.9-3.3-.5-4-.8-4.5-1-.2-.1-2.2-1.1-3.5-3-1.2-1.8-1.2-4-1.3-6.2,0-4.9-.5-15.3-.8-25.3-.3-7.8-.5-15.3-.7-19.7,0-1.3.1-1.7.1-1.7,1-.9,6.6-3.6,34.4-3.8,7.6,0,78.8,0,154.1-.1,87.2,0,186.1,0,204.6-.2,0,0,.5,0,.6,0,.7.3,1.3.8,1.7,1.2v10.7c-.1,20.4-.1,27.9-1,46.7-1.7.7-5.4,1.7-13.1,2.4-7.1.6-109.6.6-148.2.6h-101.9c-50.3,0-70,0-72.9.2-4.2.3-7.9.4-11.3.4Z"/>
  <path id="cookies-accept_x5F_button_x5F_body" class="st1" d="M1261.7,445.6c.7,0,2.4,0,4.3.7,4.7,1.8,8.5,6.3,8.4,10-.1,30.9,0,37-1.1,61.3-.3,6.7-11.3,9-22.5,10-13.2,1.2-313.5.3-323.4.9-18.5,1.1-21.1-.5-36.4,0,0,0-5.7.2-13.6-1-3.9-.6-5.7-1.1-7.4-1.9-.8-.4-4.9-2.4-7.7-6.6-3-4.5-3-9.2-3.1-12.2-.1-8.1-1.2-34.5-1.5-44.6-.3-12.1,8.5-16,44.9-16.3,16.4-.2,324.4,0,358.8-.3Z"/>
  <path id="cookies-deny_x5F_button_x5F_body" class="st1" d="M1261.7,547.8c.7,0,2.4,0,4.3.7,4.7,1.7,8.5,5.9,8.4,9.4-.1,29.1,0,34.8-1.1,57.7-.3,6.3-11.3,8.4-22.5,9.4-13.2,1.1-313.5.3-323.4.8-18.5,1-21.1-.5-36.4,0,0,0-5.7.2-13.6-.9-3.9-.6-5.7-1.1-7.4-1.8-.8-.4-4.9-2.3-7.7-6.2-3-4.2-3-8.6-3.1-11.4-.1-7.7-1.2-32.4-1.5-41.9-.3-11.4,8.5-15,44.9-15.4,16.4-.2,324.4,0,358.8-.3Z"/>
  <g id="cookies-accept_x5F_txt">
    <g>
      <path class="st7" d="M1002.1,493.4c-1.2,0-2-.2-2.5-.7-.5-.5-.8-1-.8-1.8s.2-.9.5-1.2c.3-.3.8-.6,1.5-.8,2.5-.7,5.4-1.3,8.7-1.8,3.3-.5,6.9-.7,11-.7s2.4.2,2.9.6c.5.4.8,1,.8,1.8s-.4,1.6-1.1,2.2c-.7.6-1.7.9-3,.9-1.8,0-3.4,0-5,.2-1.5.1-2.9.2-4.1.4-1.3.2-2.4.3-3.5.5-1,.2-2,.3-2.9.4-.9.1-1.7.2-2.4.2ZM1021.3,499.8c-.7,0-1.4-.2-2-.6-.6-.4-1.1-1-1.7-1.9-.5-.8-1-1.8-1.4-3.1s-.7-2.6-1-4c-.2-1.4-.4-2.7-.6-4-.2-1.5-.3-2.7-.4-3.6-.1-.9-.3-1.6-.4-2-.1-.5-.3-.8-.4-.9-.2-.2-.3-.2-.6-.2-.6,0-1.2.4-1.8,1.3-.6.8-1.3,2.1-1.9,3.6-.6,1.6-1.2,3.5-1.8,5.8-.5,2.2-1,4.7-1.4,7.5,0,.7-.3,1.3-.6,1.6-.3.3-.8.5-1.4.5-1,0-1.8-.4-2.4-1.2-.5-.8-.8-2.1-.8-4s.1-2.9.3-4.2c.2-1.3.4-2.6.7-3.8.3-1.2.5-2.4.7-3.6.2-1.2.3-2.4.3-3.6,0-.4.1-.8.4-1s.7-.4,1.2-.4,1,.1,1.5.4c.5.2,1,.7,1.4,1.3l-2.1.7c1-1.9,2.1-3.4,3.5-4.5,1.4-1.1,2.9-1.7,4.5-1.7s3,.4,3.9,1.3c.9.8,1.7,2.2,2.2,4,.5,1.8.9,4.2,1.3,7.1.2,1.7.4,3.2.8,4.4.3,1.2.7,2.3,1.1,3.1.4.8.7,1.6.9,2.2.2.6.4,1.2.4,1.7s-.2,1.1-.5,1.5-.9.5-1.6.5Z"/>
      <path class="st7" d="M1037.2,499.8c-2.2,0-4.1-.5-5.7-1.4-1.5-1-2.7-2.3-3.5-4-.8-1.7-1.2-3.6-1.2-5.7s.4-3.8,1.1-5.5c.7-1.8,1.7-3.3,2.9-4.7,1.2-1.4,2.7-2.5,4.3-3.3,1.6-.8,3.3-1.2,5.1-1.2s2.2.2,2.9.5,1.3.8,1.6,1.5c.3.6.5,1.4.5,2.3s-.1,1.4-.3,2.1c-.2.6-.6,1.2-1,1.6-.5.4-1,.6-1.7.6s-.6,0-.9-.2-.4-.3-.5-.6c-.1-.2-.2-.5-.2-.8s0-.4-.1-.6-.2-.3-.4-.4c-.2,0-.5-.1-.9-.1-1,0-2,.3-2.8.8s-1.6,1.2-2.2,2c-.6.8-1.1,1.8-1.4,2.8s-.5,2.1-.5,3.2c0,1.9.5,3.3,1.4,4.3.9,1,2.2,1.5,3.8,1.5s1.5,0,2.1-.3c.5-.2,1-.4,1.3-.6.3-.3.6-.5.9-.7.3-.2.6-.4.9-.6.3-.2.7-.3,1.1-.3.7,0,1.1.2,1.4.6.3.4.4.9.4,1.6s-.2,1.3-.6,2c-.4.7-.9,1.3-1.6,1.8-.7.5-1.6,1-2.7,1.3-1,.3-2.2.5-3.6.5Z"/>
      <path class="st7" d="M1058.4,499.8c-2.2,0-4.1-.5-5.7-1.4-1.5-1-2.7-2.3-3.5-4-.8-1.7-1.2-3.6-1.2-5.7s.4-3.8,1.1-5.5c.7-1.8,1.7-3.3,2.9-4.7,1.2-1.4,2.7-2.5,4.3-3.3,1.6-.8,3.3-1.2,5.1-1.2s3.1.4,3.9,1.1,1.2,1.8,1.2,3.1-.1,1.4-.3,2.1c-.2.6-.6,1.2-1,1.6-.5.4-1,.6-1.7.6s-.6,0-.9-.2-.4-.3-.5-.6c-.1-.2-.2-.5-.2-.8s0-.4-.1-.6-.2-.3-.4-.4c-.2,0-.5-.1-.9-.1-1,0-2,.3-2.8.8s-1.6,1.2-2.2,2c-.6.8-1.1,1.8-1.4,2.8s-.5,2.1-.5,3.2c0,1.9.5,3.3,1.4,4.3.9,1,2.2,1.5,3.8,1.5s1.5,0,2.1-.3c.5-.2,1-.4,1.3-.6.3-.3.6-.5.9-.7.3-.2.6-.4.9-.6.3-.2.7-.3,1.1-.3.7,0,1.1.2,1.4.6.3.4.4.9.4,1.6s-.2,1.3-.6,2c-.4.7-.9,1.3-1.6,1.8-.7.5-1.6,1-2.7,1.3-1,.3-2.2.5-3.6.5Z"/>
      <path class="st7" d="M1073.5,480.5c-1.2,0-2.1-.3-2.8-.8-.6-.5-1-1.2-1-2s.1-.8.3-1.1c.2-.4.7-.7,1.4-.8,1.5-.4,3.2-.7,5-1s3.5-.4,5.1-.6c1.6-.1,3-.2,4.1-.2,1.6,0,2.8.3,3.4.8.7.5,1,1.2,1,2.1s-.2,1.2-.6,1.7c-.4.5-1,.7-1.8.7-1.6,0-3.1,0-4.5.2-1.5.1-2.8.3-4,.5-1.2.2-2.3.3-3.3.4-.9.1-1.7.2-2.2.2ZM1080.6,499.6c-1.8,0-3.3-.3-4.6-.8-1.3-.5-2.4-1.3-3.3-2.3-.9-1-1.5-2.1-1.9-3.4-.4-1.3-.6-2.7-.6-4.2s0-1.7.2-2.6c.1-.9.3-1.9.6-2.9.2-1,.5-2,.9-3,.3-.9.7-1.7,1.4-2.2.6-.5,1.3-.8,2.2-.8s.8,0,1.2.3c.3.2.6.4.7.7.2.3.2.7.2,1.2-.1.6-.4,1.4-.6,2.4s-.5,2-.8,3.2c-.2,1.2-.3,2.4-.3,3.8s.2,1.9.6,2.7,1,1.4,1.7,1.9c.7.5,1.6.7,2.6.7s1.9,0,2.7-.2c.8-.1,1.4-.3,2-.4.6-.2,1.1-.3,1.5-.5s.8-.2,1.1-.2c.7,0,1.2.2,1.5.5.3.3.5.8.5,1.5,0,1-.4,1.8-1.1,2.5-.7.7-1.8,1.3-3.2,1.6-1.4.4-3.1.6-5,.6ZM1074.6,490.5c-.5.1-1,0-1.3-.1-.3-.2-.5-.5-.6-1-.1-.4-.2-.9-.2-1.4s.2-1.3.7-1.8c.4-.5,1-.8,1.7-1,.6-.1,1.3-.3,2-.4.7-.1,1.5-.2,2.3-.3.8-.1,1.7-.2,2.6-.3.9,0,2-.1,3.1-.2,1,0,1.7.2,2.2.6.4.4.6.9.6,1.5,0,1-.3,1.7-.9,2.3-.6.5-1.4.8-2.3.9-1.1,0-2.1.1-3,.2-.9,0-1.8.2-2.6.3-.8.1-1.5.2-2.2.4-.7.1-1.3.3-1.9.4Z"/>
      <path class="st7" d="M1097.4,499.8c-.9,0-1.6-.3-2.3-1s-1-1.9-1-3.5,0-2.9-.2-4.1c-.2-1.1-.4-2.2-.6-3.1-.2-.9-.4-1.8-.5-2.6-.2-.8-.2-1.7-.2-2.7,0-1.7.3-3.3,1-4.6.7-1.3,1.7-2.3,3.2-3,1.5-.7,3.4-1.1,5.9-1.1s2.5.2,3.6.5c1.1.4,2.1.9,3,1.6.9.7,1.5,1.6,2,2.6.5,1,.7,2.2.7,3.5s-.3,2.7-.9,3.9c-.6,1.2-1.4,2.3-2.4,3.3-1,.9-2.2,1.7-3.5,2.2s-2.7.8-4.2.8-2-.2-2.9-.6c-.8-.4-1.5-.8-2-1.4-.5-.6-.7-1.2-.7-1.9s.2-1.1.6-1.5c.4-.3.8-.5,1.4-.5s.6,0,.8.2c.3.1.6.2.9.3.4.1.9.2,1.6.2,1.1,0,2-.2,2.9-.7s1.6-1.1,2.1-1.9c.5-.8.8-1.6.8-2.4s-.2-1.1-.6-1.5c-.4-.4-.9-.7-1.5-.9-.6-.2-1.2-.3-1.9-.3-1.5,0-2.7.3-3.5.8-.8.5-1.2,1.3-1.2,2.4s0,1.9.3,2.9c.2,1,.4,2,.6,3s.4,2.2.6,3.5c.2,1.3.3,2.7.3,4.3s-.1,1.8-.4,2.4c-.3.6-.9.9-1.9.9Z"/>
      <path class="st7" d="M1129.3,479.7h-3.5c-1.1,0-2.1,0-3.1,0-1,0-2,0-3-.1-1,0-2-.1-3-.2-1,0-1.8-.3-2.3-.5-.5-.3-.9-.6-1.2-1.1-.2-.5-.4-1-.4-1.7s.2-1,.5-1.4c.3-.4.9-.6,1.6-.6s2.1,0,3,0,1.8,0,2.6.1c.8,0,1.7,0,2.5.1.8,0,1.7,0,2.6,0s1.6,0,2.2,0c.7,0,1.3-.1,2-.2.7,0,1.4,0,2.3,0s1.2.2,1.6.5c.3.3.5.8.5,1.4,0,.9-.2,1.6-.7,2.1-.5.5-1.1,1-1.9,1.2-.8.3-1.5.4-2.3.4ZM1124,499.9c-.7,0-1.4-.2-2-.7s-1.1-1.4-1.5-2.8c-.2-.9-.4-1.9-.5-2.9-.1-1-.2-2.2-.2-3.5s0-2.9.2-4.7c.1-1.8.3-4,.5-6.5,0-.7.3-1.3.7-1.7.4-.4.9-.7,1.6-.7,1.3,0,2.2.3,2.6,1,.5.7.7,1.8.6,3.4-.1,2.5-.2,4.6-.3,6.3,0,1.7,0,3.2,0,4.3,0,1.1.1,2.1.2,2.8,0,.7.1,1.3.2,1.8s.1,1,.1,1.4c0,.9-.2,1.5-.6,1.8-.4.3-1,.5-1.8.5Z"/>
    </g>
    <g>
      <path class="st9" d="M1002.1,493.4c-1.2,0-2-.2-2.5-.7-.5-.5-.8-1-.8-1.8s.2-.9.5-1.2c.3-.3.8-.6,1.5-.8,2.5-.7,5.4-1.3,8.7-1.8,3.3-.5,6.9-.7,11-.7s2.4.2,2.9.6c.5.4.8,1,.8,1.8s-.4,1.6-1.1,2.2c-.7.6-1.7.9-3,.9-1.8,0-3.4,0-5,.2-1.5.1-2.9.2-4.1.4-1.3.2-2.4.3-3.5.5-1,.2-2,.3-2.9.4-.9.1-1.7.2-2.4.2ZM1021.3,499.8c-.7,0-1.4-.2-2-.6-.6-.4-1.1-1-1.7-1.9-.5-.8-1-1.8-1.4-3.1s-.7-2.6-1-4c-.2-1.4-.4-2.7-.6-4-.2-1.5-.3-2.7-.4-3.6-.1-.9-.3-1.6-.4-2-.1-.5-.3-.8-.4-.9-.2-.2-.3-.2-.6-.2-.6,0-1.2.4-1.8,1.3-.6.8-1.3,2.1-1.9,3.6-.6,1.6-1.2,3.5-1.8,5.8-.5,2.2-1,4.7-1.4,7.5,0,.7-.3,1.3-.6,1.6-.3.3-.8.5-1.4.5-1,0-1.8-.4-2.4-1.2-.5-.8-.8-2.1-.8-4s.1-2.9.3-4.2c.2-1.3.4-2.6.7-3.8.3-1.2.5-2.4.7-3.6.2-1.2.3-2.4.3-3.6,0-.4.1-.8.4-1s.7-.4,1.2-.4,1,.1,1.5.4c.5.2,1,.7,1.4,1.3l-2.1.7c1-1.9,2.1-3.4,3.5-4.5,1.4-1.1,2.9-1.7,4.5-1.7s3,.4,3.9,1.3c.9.8,1.7,2.2,2.2,4,.5,1.8.9,4.2,1.3,7.1.2,1.7.4,3.2.8,4.4.3,1.2.7,2.3,1.1,3.1.4.8.7,1.6.9,2.2.2.6.4,1.2.4,1.7s-.2,1.1-.5,1.5-.9.5-1.6.5Z"/>
      <path class="st9" d="M1037.2,499.8c-2.2,0-4.1-.5-5.7-1.4-1.5-1-2.7-2.3-3.5-4-.8-1.7-1.2-3.6-1.2-5.7s.4-3.8,1.1-5.5c.7-1.8,1.7-3.3,2.9-4.7,1.2-1.4,2.7-2.5,4.3-3.3,1.6-.8,3.3-1.2,5.1-1.2s2.2.2,2.9.5,1.3.8,1.6,1.5c.3.6.5,1.4.5,2.3s-.1,1.4-.3,2.1c-.2.6-.6,1.2-1,1.6-.5.4-1,.6-1.7.6s-.6,0-.9-.2-.4-.3-.5-.6c-.1-.2-.2-.5-.2-.8s0-.4-.1-.6-.2-.3-.4-.4c-.2,0-.5-.1-.9-.1-1,0-2,.3-2.8.8s-1.6,1.2-2.2,2c-.6.8-1.1,1.8-1.4,2.8s-.5,2.1-.5,3.2c0,1.9.5,3.3,1.4,4.3.9,1,2.2,1.5,3.8,1.5s1.5,0,2.1-.3c.5-.2,1-.4,1.3-.6.3-.3.6-.5.9-.7.3-.2.6-.4.9-.6.3-.2.7-.3,1.1-.3.7,0,1.1.2,1.4.6.3.4.4.9.4,1.6s-.2,1.3-.6,2c-.4.7-.9,1.3-1.6,1.8-.7.5-1.6,1-2.7,1.3-1,.3-2.2.5-3.6.5Z"/>
      <path class="st9" d="M1058.4,499.8c-2.2,0-4.1-.5-5.7-1.4-1.5-1-2.7-2.3-3.5-4-.8-1.7-1.2-3.6-1.2-5.7s.4-3.8,1.1-5.5c.7-1.8,1.7-3.3,2.9-4.7,1.2-1.4,2.7-2.5,4.3-3.3,1.6-.8,3.3-1.2,5.1-1.2s3.1.4,3.9,1.1,1.2,1.8,1.2,3.1-.1,1.4-.3,2.1c-.2.6-.6,1.2-1,1.6-.5.4-1,.6-1.7.6s-.6,0-.9-.2-.4-.3-.5-.6c-.1-.2-.2-.5-.2-.8s0-.4-.1-.6-.2-.3-.4-.4c-.2,0-.5-.1-.9-.1-1,0-2,.3-2.8.8s-1.6,1.2-2.2,2c-.6.8-1.1,1.8-1.4,2.8s-.5,2.1-.5,3.2c0,1.9.5,3.3,1.4,4.3.9,1,2.2,1.5,3.8,1.5s1.5,0,2.1-.3c.5-.2,1-.4,1.3-.6.3-.3.6-.5.9-.7.3-.2.6-.4.9-.6.3-.2.7-.3,1.1-.3.7,0,1.1.2,1.4.6.3.4.4.9.4,1.6s-.2,1.3-.6,2c-.4.7-.9,1.3-1.6,1.8-.7.5-1.6,1-2.7,1.3-1,.3-2.2.5-3.6.5Z"/>
      <path class="st9" d="M1073.5,480.5c-1.2,0-2.1-.3-2.8-.8-.6-.5-1-1.2-1-2s.1-.8.3-1.1c.2-.4.7-.7,1.4-.8,1.5-.4,3.2-.7,5-1s3.5-.4,5.1-.6c1.6-.1,3-.2,4.1-.2,1.6,0,2.8.3,3.4.8.7.5,1,1.2,1,2.1s-.2,1.2-.6,1.7c-.4.5-1,.7-1.8.7-1.6,0-3.1,0-4.5.2-1.5.1-2.8.3-4,.5-1.2.2-2.3.3-3.3.4-.9.1-1.7.2-2.2.2ZM1080.6,499.6c-1.8,0-3.3-.3-4.6-.8-1.3-.5-2.4-1.3-3.3-2.3-.9-1-1.5-2.1-1.9-3.4-.4-1.3-.6-2.7-.6-4.2s0-1.7.2-2.6c.1-.9.3-1.9.6-2.9.2-1,.5-2,.9-3,.3-.9.7-1.7,1.4-2.2.6-.5,1.3-.8,2.2-.8s.8,0,1.2.3c.3.2.6.4.7.7.2.3.2.7.2,1.2-.1.6-.4,1.4-.6,2.4s-.5,2-.8,3.2c-.2,1.2-.3,2.4-.3,3.8s.2,1.9.6,2.7,1,1.4,1.7,1.9c.7.5,1.6.7,2.6.7s1.9,0,2.7-.2c.8-.1,1.4-.3,2-.4.6-.2,1.1-.3,1.5-.5s.8-.2,1.1-.2c.7,0,1.2.2,1.5.5.3.3.5.8.5,1.5,0,1-.4,1.8-1.1,2.5-.7.7-1.8,1.3-3.2,1.6-1.4.4-3.1.6-5,.6ZM1074.6,490.5c-.5.1-1,0-1.3-.1-.3-.2-.5-.5-.6-1-.1-.4-.2-.9-.2-1.4s.2-1.3.7-1.8c.4-.5,1-.8,1.7-1,.6-.1,1.3-.3,2-.4.7-.1,1.5-.2,2.3-.3.8-.1,1.7-.2,2.6-.3.9,0,2-.1,3.1-.2,1,0,1.7.2,2.2.6.4.4.6.9.6,1.5,0,1-.3,1.7-.9,2.3-.6.5-1.4.8-2.3.9-1.1,0-2.1.1-3,.2-.9,0-1.8.2-2.6.3-.8.1-1.5.2-2.2.4-.7.1-1.3.3-1.9.4Z"/>
      <path class="st9" d="M1097.4,499.8c-.9,0-1.6-.3-2.3-1s-1-1.9-1-3.5,0-2.9-.2-4.1c-.2-1.1-.4-2.2-.6-3.1-.2-.9-.4-1.8-.5-2.6-.2-.8-.2-1.7-.2-2.7,0-1.7.3-3.3,1-4.6.7-1.3,1.7-2.3,3.2-3,1.5-.7,3.4-1.1,5.9-1.1s2.5.2,3.6.5c1.1.4,2.1.9,3,1.6.9.7,1.5,1.6,2,2.6.5,1,.7,2.2.7,3.5s-.3,2.7-.9,3.9c-.6,1.2-1.4,2.3-2.4,3.3-1,.9-2.2,1.7-3.5,2.2s-2.7.8-4.2.8-2-.2-2.9-.6c-.8-.4-1.5-.8-2-1.4-.5-.6-.7-1.2-.7-1.9s.2-1.1.6-1.5c.4-.3.8-.5,1.4-.5s.6,0,.8.2c.3.1.6.2.9.3.4.1.9.2,1.6.2,1.1,0,2-.2,2.9-.7s1.6-1.1,2.1-1.9c.5-.8.8-1.6.8-2.4s-.2-1.1-.6-1.5c-.4-.4-.9-.7-1.5-.9-.6-.2-1.2-.3-1.9-.3-1.5,0-2.7.3-3.5.8-.8.5-1.2,1.3-1.2,2.4s0,1.9.3,2.9c.2,1,.4,2,.6,3s.4,2.2.6,3.5c.2,1.3.3,2.7.3,4.3s-.1,1.8-.4,2.4c-.3.6-.9.9-1.9.9Z"/>
      <path class="st9" d="M1129.3,479.7h-3.5c-1.1,0-2.1,0-3.1,0-1,0-2,0-3-.1-1,0-2-.1-3-.2-1,0-1.8-.3-2.3-.5-.5-.3-.9-.6-1.2-1.1-.2-.5-.4-1-.4-1.7s.2-1,.5-1.4c.3-.4.9-.6,1.6-.6s2.1,0,3,0,1.8,0,2.6.1c.8,0,1.7,0,2.5.1.8,0,1.7,0,2.6,0s1.6,0,2.2,0c.7,0,1.3-.1,2-.2.7,0,1.4,0,2.3,0s1.2.2,1.6.5c.3.3.5.8.5,1.4,0,.9-.2,1.6-.7,2.1-.5.5-1.1,1-1.9,1.2-.8.3-1.5.4-2.3.4ZM1124,499.9c-.7,0-1.4-.2-2-.7s-1.1-1.4-1.5-2.8c-.2-.9-.4-1.9-.5-2.9-.1-1-.2-2.2-.2-3.5s0-2.9.2-4.7c.1-1.8.3-4,.5-6.5,0-.7.3-1.3.7-1.7.4-.4.9-.7,1.6-.7,1.3,0,2.2.3,2.6,1,.5.7.7,1.8.6,3.4-.1,2.5-.2,4.6-.3,6.3,0,1.7,0,3.2,0,4.3,0,1.1.1,2.1.2,2.8,0,.7.1,1.3.2,1.8s.1,1,.1,1.4c0,.9-.2,1.5-.6,1.8-.4.3-1,.5-1.8.5Z"/>
    </g>
  </g>
  <g id="cookies-deny_x5F_txt">
    <g>
      <path class="st7" d="M1027.1,598.2c-1,0-1.8-.3-2.4-.9s-1.1-1.4-1.5-2.4c-.3-1-.5-2.2-.5-3.6,0-2.1,0-4,0-5.9,0-1.9.1-3.8.2-5.7,0-.7.3-1.2.6-1.5.4-.3,1-.4,1.9-.4s1.3.2,1.8.7c.5.4.8,1,.8,1.6,0,1.1,0,2.2,0,3.4,0,1.2,0,2.4-.1,3.6,0,1.2,0,2.5,0,3.7s0,1.4.2,1.9c.1.6.4,1.2.8,1.8l-3.6-.8c1.8-.3,3.5-.7,4.9-1.4s2.6-1.4,3.5-2.3,1.7-1.9,2.2-2.9c.5-1.1.7-2.2.7-3.3s-.2-1.7-.5-2.4c-.3-.7-.9-1.2-1.7-1.5s-1.8-.5-3-.5-2,0-2.7.2c-.8.1-1.4.3-2,.5-.6.2-1.1.4-1.6.5s-.9.2-1.4.2c-.8,0-1.4-.2-2-.5-.5-.3-.9-.7-1.2-1.2-.3-.5-.4-1-.4-1.5s.1-.8.3-1.1c.2-.4.6-.6,1.1-.8.6-.2,1.2-.4,2-.5.8-.2,1.6-.3,2.5-.5.9-.1,1.8-.3,2.7-.4s1.8-.1,2.6-.1c2.3,0,4.2.4,5.8,1.3,1.6.8,2.8,2,3.6,3.4.8,1.4,1.2,3,1.2,4.8s-.3,3.3-.9,4.8c-.6,1.5-1.4,2.8-2.4,4.1-1,1.2-2.1,2.3-3.4,3.1-1.3.9-2.6,1.5-4,2-1.4.5-2.8.7-4.2.7Z"/>
      <path class="st7" d="M1048.6,580.1c-1.1,0-2-.3-2.6-.8s-.9-1.1-.9-1.9.1-.7.3-1.1c.2-.4.6-.6,1.3-.8,1.5-.4,3-.7,4.7-.9,1.7-.2,3.2-.4,4.8-.5,1.5-.1,2.8-.2,3.8-.2,1.5,0,2.6.2,3.2.7s.9,1.1.9,2-.2,1.2-.6,1.6-.9.6-1.7.6c-1.5,0-2.9,0-4.2.2-1.4.1-2.6.3-3.8.4-1.2.2-2.2.3-3.1.4-.9.1-1.6.2-2.1.2ZM1055.3,598.1c-1.7,0-3.1-.3-4.3-.8-1.2-.5-2.2-1.2-3.1-2.2-.8-.9-1.4-2-1.8-3.2s-.6-2.5-.6-3.9,0-1.6.2-2.5c.1-.9.3-1.8.5-2.8.2-1,.5-1.9.8-2.8.3-.9.7-1.6,1.3-2,.6-.5,1.3-.7,2.1-.7s.8,0,1.1.2c.3.2.5.4.7.7.2.3.2.7.2,1.1-.1.6-.3,1.3-.6,2.2-.3.9-.5,1.9-.7,3-.2,1.1-.3,2.3-.3,3.5s.2,1.8.6,2.6c.4.8.9,1.3,1.6,1.8.7.4,1.5.6,2.5.6s1.8,0,2.5-.2c.7-.1,1.4-.3,1.9-.4.5-.2,1-.3,1.4-.4.4-.1.7-.2,1.1-.2.6,0,1.1.2,1.4.5s.5.8.5,1.4c0,.9-.3,1.7-1,2.4s-1.7,1.2-3,1.5-2.9.5-4.7.5ZM1049.6,589.5c-.5.1-.9,0-1.2-.1-.3-.2-.5-.5-.6-.9-.1-.4-.2-.9-.2-1.3s.2-1.2.6-1.6.9-.8,1.6-.9c.6-.1,1.2-.3,1.9-.4.7-.1,1.4-.2,2.2-.3.8-.1,1.6-.2,2.5-.3.9,0,1.8-.1,2.9-.2,1,0,1.6.2,2,.5.4.3.6.8.6,1.4,0,.9-.3,1.6-.9,2.1-.6.5-1.3.8-2.2.8-1,0-2,.1-2.9.2s-1.7.2-2.4.3c-.8.1-1.4.2-2.1.3-.6.1-1.2.3-1.8.4Z"/>
      <path class="st7" d="M1069.6,598.4c-.8,0-1.4-.2-1.8-.6-.4-.4-.5-.9-.5-1.4s0-.9.1-1.4c0-.5.2-1,.3-1.7s.2-1.5.3-2.6c0-1.1.1-2.5.1-4.3s0-2,0-3c0-1-.1-2-.2-3,0-1-.1-1.8-.2-2.5s0-1.2,0-1.5c0-.7.2-1.2.6-1.7.4-.5,1-.7,1.8-.7s1.9.2,2.7.7c.8.5,1.6,1.1,2.4,2,.7.8,1.4,1.8,2.1,2.8.6,1.1,1.2,2.2,1.8,3.3.6,1.1,1.1,2.3,1.7,3.4.5,1.1,1.1,2.2,1.6,3.1.5,1,1,1.8,1.6,2.5.5.7,1.1,1.2,1.6,1.5l-2.8,1.3c.3-.2.5-.5.8-.8.3-.3.5-.8.7-1.3.2-.6.3-1.4.3-2.4s0-2.6-.1-3.8c0-1.2-.2-2.4-.2-3.5,0-1.1,0-2.2,0-3.3,0-1.1.2-2.2.5-3.3.2-.8.5-1.4.9-1.7.3-.3.8-.5,1.4-.5.8,0,1.4.2,1.8.6.4.4.7.9.8,1.5.1.6.1,1.1,0,1.5-.2,1.1-.4,2.1-.4,3,0,1,0,1.9,0,2.8,0,.9,0,1.9.1,2.9,0,1,0,2.2,0,3.4s-.1,3.2-.3,4.5c-.2,1.3-.7,2.3-1.3,3.1-.7.8-1.7,1.1-3,1.1s-1.6-.2-2.3-.6c-.7-.4-1.3-1-1.9-1.7-.6-.7-1.1-1.5-1.6-2.5s-1-2-1.5-3c-.5-1.1-1-2.2-1.6-3.4s-1.1-2.3-1.8-3.4c-.6-1.1-1.3-2.2-2.1-3.2l.9-.2c.1.9.2,1.7.3,2.3s.1,1.3.1,1.8c0,.6,0,1.2,0,1.8,0,2.1,0,4-.3,5.7-.2,1.7-.4,3.2-.8,4.5-.2.6-.4,1-.9,1.4-.4.3-1,.5-1.7.5Z"/>
      <path class="st7" d="M1101.8,589.3c-.4,0-.8,0-1.1-.3s-.6-.4-.8-.8c-.8-1.3-1.5-2.3-2-3.1-.6-.8-1.1-1.5-1.5-2.1-.5-.6-.9-1.1-1.4-1.6s-1-1.2-1.5-2c-.3-.5-.6-.9-.8-1.4s-.3-1-.3-1.6.2-1.3.6-1.8c.4-.4.9-.7,1.5-.7s.9,0,1.3.3c.4.2.8.6,1.2,1.2.5.9.9,1.6,1.3,2.2.4.6.8,1.1,1.2,1.6.4.5.8,1,1.2,1.5.4.5.8,1.1,1.3,1.8.4.7.9,1.5,1.5,2.5.2.4.3.8.3,1.3,0,.5,0,.9-.2,1.3s-.4.8-.7,1.1c-.3.3-.7.4-1.1.4ZM1099.5,598.4c-1,0-1.7-.4-2.1-1.2-.4-.8-.5-1.9-.2-3.3.3-1.4.8-3,1.4-4.7.6-1.7,1.5-3.4,2.4-5.1,1-1.7,2-3.4,3.2-5,1.2-1.6,2.5-2.9,3.9-4.1.5-.4.9-.7,1.2-.8.3-.1.7-.2,1-.2.6,0,1.1.2,1.5.7.4.5.5,1.1.5,1.9s0,.7-.1,1.1c0,.3-.3.7-.5,1-.2.3-.6.7-1,1.2-1.6,1.4-3,3.1-4.2,4.9-1.2,1.8-2.2,3.7-3,5.7-.8,2-1.4,4-1.8,5.9-.2.9-.5,1.4-.8,1.8-.3.3-.8.5-1.4.5Z"/>
    </g>
    <g>
      <path class="st6" d="M1027.1,598.2c-1,0-1.8-.3-2.4-.9s-1.1-1.4-1.5-2.4c-.3-1-.5-2.2-.5-3.6,0-2.1,0-4,0-5.9,0-1.9.1-3.8.2-5.7,0-.7.3-1.2.6-1.5.4-.3,1-.4,1.9-.4s1.3.2,1.8.7c.5.4.8,1,.8,1.6,0,1.1,0,2.2,0,3.4,0,1.2,0,2.4-.1,3.6,0,1.2,0,2.5,0,3.7s0,1.4.2,1.9c.1.6.4,1.2.8,1.8l-3.6-.8c1.8-.3,3.5-.7,4.9-1.4s2.6-1.4,3.5-2.3,1.7-1.9,2.2-2.9c.5-1.1.7-2.2.7-3.3s-.2-1.7-.5-2.4c-.3-.7-.9-1.2-1.7-1.5s-1.8-.5-3-.5-2,0-2.7.2c-.8.1-1.4.3-2,.5-.6.2-1.1.4-1.6.5s-.9.2-1.4.2c-.8,0-1.4-.2-2-.5-.5-.3-.9-.7-1.2-1.2-.3-.5-.4-1-.4-1.5s.1-.8.3-1.1c.2-.4.6-.6,1.1-.8.6-.2,1.2-.4,2-.5.8-.2,1.6-.3,2.5-.5.9-.1,1.8-.3,2.7-.4s1.8-.1,2.6-.1c2.3,0,4.2.4,5.8,1.3,1.6.8,2.8,2,3.6,3.4.8,1.4,1.2,3,1.2,4.8s-.3,3.3-.9,4.8c-.6,1.5-1.4,2.8-2.4,4.1-1,1.2-2.1,2.3-3.4,3.1-1.3.9-2.6,1.5-4,2-1.4.5-2.8.7-4.2.7Z"/>
      <path class="st6" d="M1048.6,580.1c-1.1,0-2-.3-2.6-.8s-.9-1.1-.9-1.9.1-.7.3-1.1c.2-.4.6-.6,1.3-.8,1.5-.4,3-.7,4.7-.9,1.7-.2,3.2-.4,4.8-.5,1.5-.1,2.8-.2,3.8-.2,1.5,0,2.6.2,3.2.7s.9,1.1.9,2-.2,1.2-.6,1.6-.9.6-1.7.6c-1.5,0-2.9,0-4.2.2-1.4.1-2.6.3-3.8.4-1.2.2-2.2.3-3.1.4-.9.1-1.6.2-2.1.2ZM1055.3,598.1c-1.7,0-3.1-.3-4.3-.8-1.2-.5-2.2-1.2-3.1-2.2-.8-.9-1.4-2-1.8-3.2s-.6-2.5-.6-3.9,0-1.6.2-2.5c.1-.9.3-1.8.5-2.8.2-1,.5-1.9.8-2.8.3-.9.7-1.6,1.3-2,.6-.5,1.3-.7,2.1-.7s.8,0,1.1.2c.3.2.5.4.7.7.2.3.2.7.2,1.1-.1.6-.3,1.3-.6,2.2-.3.9-.5,1.9-.7,3-.2,1.1-.3,2.3-.3,3.5s.2,1.8.6,2.6c.4.8.9,1.3,1.6,1.8.7.4,1.5.6,2.5.6s1.8,0,2.5-.2c.7-.1,1.4-.3,1.9-.4.5-.2,1-.3,1.4-.4.4-.1.7-.2,1.1-.2.6,0,1.1.2,1.4.5s.5.8.5,1.4c0,.9-.3,1.7-1,2.4s-1.7,1.2-3,1.5-2.9.5-4.7.5ZM1049.6,589.5c-.5.1-.9,0-1.2-.1-.3-.2-.5-.5-.6-.9-.1-.4-.2-.9-.2-1.3s.2-1.2.6-1.6.9-.8,1.6-.9c.6-.1,1.2-.3,1.9-.4.7-.1,1.4-.2,2.2-.3.8-.1,1.6-.2,2.5-.3.9,0,1.8-.1,2.9-.2,1,0,1.6.2,2,.5.4.3.6.8.6,1.4,0,.9-.3,1.6-.9,2.1-.6.5-1.3.8-2.2.8-1,0-2,.1-2.9.2s-1.7.2-2.4.3c-.8.1-1.4.2-2.1.3-.6.1-1.2.3-1.8.4Z"/>
      <path class="st6" d="M1069.6,598.4c-.8,0-1.4-.2-1.8-.6-.4-.4-.5-.9-.5-1.4s0-.9.1-1.4c0-.5.2-1,.3-1.7s.2-1.5.3-2.6c0-1.1.1-2.5.1-4.3s0-2,0-3c0-1-.1-2-.2-3,0-1-.1-1.8-.2-2.5s0-1.2,0-1.5c0-.7.2-1.2.6-1.7.4-.5,1-.7,1.8-.7s1.9.2,2.7.7c.8.5,1.6,1.1,2.4,2,.7.8,1.4,1.8,2.1,2.8.6,1.1,1.2,2.2,1.8,3.3.6,1.1,1.1,2.3,1.7,3.4.5,1.1,1.1,2.2,1.6,3.1.5,1,1,1.8,1.6,2.5.5.7,1.1,1.2,1.6,1.5l-2.8,1.3c.3-.2.5-.5.8-.8.3-.3.5-.8.7-1.3.2-.6.3-1.4.3-2.4s0-2.6-.1-3.8c0-1.2-.2-2.4-.2-3.5,0-1.1,0-2.2,0-3.3,0-1.1.2-2.2.5-3.3.2-.8.5-1.4.9-1.7.3-.3.8-.5,1.4-.5.8,0,1.4.2,1.8.6.4.4.7.9.8,1.5.1.6.1,1.1,0,1.5-.2,1.1-.4,2.1-.4,3,0,1,0,1.9,0,2.8,0,.9,0,1.9.1,2.9,0,1,0,2.2,0,3.4s-.1,3.2-.3,4.5c-.2,1.3-.7,2.3-1.3,3.1-.7.8-1.7,1.1-3,1.1s-1.6-.2-2.3-.6c-.7-.4-1.3-1-1.9-1.7-.6-.7-1.1-1.5-1.6-2.5s-1-2-1.5-3c-.5-1.1-1-2.2-1.6-3.4s-1.1-2.3-1.8-3.4c-.6-1.1-1.3-2.2-2.1-3.2l.9-.2c.1.9.2,1.7.3,2.3s.1,1.3.1,1.8c0,.6,0,1.2,0,1.8,0,2.1,0,4-.3,5.7-.2,1.7-.4,3.2-.8,4.5-.2.6-.4,1-.9,1.4-.4.3-1,.5-1.7.5Z"/>
      <path class="st6" d="M1101.8,589.3c-.4,0-.8,0-1.1-.3s-.6-.4-.8-.8c-.8-1.3-1.5-2.3-2-3.1-.6-.8-1.1-1.5-1.5-2.1-.5-.6-.9-1.1-1.4-1.6s-1-1.2-1.5-2c-.3-.5-.6-.9-.8-1.4s-.3-1-.3-1.6.2-1.3.6-1.8c.4-.4.9-.7,1.5-.7s.9,0,1.3.3c.4.2.8.6,1.2,1.2.5.9.9,1.6,1.3,2.2.4.6.8,1.1,1.2,1.6.4.5.8,1,1.2,1.5.4.5.8,1.1,1.3,1.8.4.7.9,1.5,1.5,2.5.2.4.3.8.3,1.3,0,.5,0,.9-.2,1.3s-.4.8-.7,1.1c-.3.3-.7.4-1.1.4ZM1099.5,598.4c-1,0-1.7-.4-2.1-1.2-.4-.8-.5-1.9-.2-3.3.3-1.4.8-3,1.4-4.7.6-1.7,1.5-3.4,2.4-5.1,1-1.7,2-3.4,3.2-5,1.2-1.6,2.5-2.9,3.9-4.1.5-.4.9-.7,1.2-.8.3-.1.7-.2,1-.2.6,0,1.1.2,1.5.7.4.5.5,1.1.5,1.9s0,.7-.1,1.1c0,.3-.3.7-.5,1-.2.3-.6.7-1,1.2-1.6,1.4-3,3.1-4.2,4.9-1.2,1.8-2.2,3.7-3,5.7-.8,2-1.4,4-1.8,5.9-.2.9-.5,1.4-.8,1.8-.3.3-.8.5-1.4.5Z"/>
    </g>
  </g>
  <path id="cookies-body" class="st2" d="M1314.7,393.7c.7,0,2.4,0,4.3.6,4.7,1.4,7.7,4.8,8.4,7.6,5.7,22.7,6.8,257.3-1.1,275.9-2.1,4.8-11.3,6.8-22.5,7.6-13.2.9-565.5.2-575.4.7-18.5.8-21.1-.4-36.4,0,0,0-5.7.1-13.6-.7-3.9-.4-5.7-.9-7.4-1.5-.8-.3-4.9-1.8-7.7-5-3-3.4-3-6.9-3.1-9.2-.1-6.2-1.9-12.3-2.3-18.4-.9-11.9-4.9-242.3.7-248.2,7.2-7.4,8.7-8.7,45.1-9,16.4-.1,576.4,0,610.8-.2Z"/>
  <path id="cookies-cookie" class="st4" d="M590.1,510.6c-2.9,13.1-3.2,27.2.8,41,13.5,46.6,54.6,81.8,117.5,81.8,57.5,0,83.3-50.5,90.4-61.4,17.1-26.2,12.2-58.6,9-72.4-.5-2.1-3.4-2.4-4.3-.4-9.1,18.7-25.8,6.6-30.3,2.8-1.1-.9-32,16.5-30.4-16.5,0-.8-.4-1.6-1.1-2-31.3-19.3-7-38.3,1-43.5,1.2-.8,1.6-2.7.4-3.5-11.5-8.3-28.4-14.3-53-11.5-36.6,4.3-88.1,32.2-99.9,85.5Z"/>
  <path id="cookies-cookie_x5F_chocolate" class="st10" d="M641.2,510.5c-21.6-.5-24.4-9-12.4-28.9,12-19.9,33.7-6,41.2,4.1,7.5,10.1-7.2,25.3-28.8,24.8ZM706.6,605.6c-1.2,6.9,7.2,13.4,14.9,12.9,7.9-.4,19-5,22-12.6,1.7-7.7-10-19-17.4-22.5-12.1-5.9-17,12.4-19.3,21.6v.7ZM670.2,450.2c-3.3,6.1-.8,11.5,11.7,12.1,8,.4,6.7-8.2,4.8-16.7-1.8-8.2-13.3-1.6-16.5,4.6ZM720.8,511c8.3-3.5,10.3-10.9-1.9-21.8-7.7-6.9-13.4,2.8-18.5,12.9-4.9,9.7,12.1,12.4,20.4,8.9ZM675.5,548.3c-.8,9,4.8,14.2,20.2,8.5,9.7-3.6,3.8-13.2-2.7-22.4-6.3-8.8-16.7,4.8-17.5,13.8ZM770.7,583.1c5.6-5.6,4.7-12.3-8.9-17.1-8.6-3-10,6.8-10.7,16.7-.7,9.5,14,6.1,19.6.4Z"/>
  <path id="cookies-eye_x5F_R" class="st5" d="M717.8,519.1c13.1-1.1,30.1-1.5,44.4.7,6,1.1,10.8,2.7,14.5,6.2,4.1,3.7,4,9.9-.3,13.1-6.3,4.9-16.3,4.6-24.2,5.2-12.7.7-26.1,1-38.4,0-4.2-.3-8.7-.8-12.7-2.2-7.6-2.3-11.4-10.3-5.4-16.4,5.4-5.3,14.9-5.9,22-6.6h.2Z"/>
  <path id="cookies-eye_x5F_L" class="st5" d="M621.8,519.1c13.1-1.1,30.1-1.5,44.4.7,6,1.1,10.8,2.7,14.5,6.2,4.1,3.7,4,9.9-.3,13.1-6.3,4.9-16.3,4.6-24.2,5.2-12.7.7-26.1,1-38.4,0-4.2-.3-8.7-.8-12.7-2.2-7.6-2.3-11.4-10.3-5.4-16.4,5.4-5.3,14.9-5.9,22-6.6h.2Z"/>
  <g id="cookies-pupils_x5F_mask">
    <g class="st11">
      <g id="cookies-pupil_x5F_R">
        <path class="st8" d="M765.9,541.8c8.3.6,21.1-4.1,21.9-14.3.8-10.2-11.5-16.2-20.7-16.9-9.1-.7-19.1,4.4-19.9,15.1-.8,10.6,10.4,15.5,18.7,16.1Z"/>
        <path class="st8" d="M765.9,541.8c8.3.6,21.1-4.1,21.9-14.3.8-10.2-11.5-16.2-20.7-16.9-9.1-.7-19.1,4.4-19.9,15.1-.8,10.6,10.4,15.5,18.7,16.1Z"/>
      </g>
      <g id="cookies-pupil_x5F_L">
        <path class="st8" d="M665.4,543.1c8.3.6,21.2-5.1,22.1-17.3.9-12.1-11.3-19-20.5-19.7-9.1-.7-19.2,5.5-20.2,18.2-.9,12.6,10.2,18.2,18.5,18.8Z"/>
        <path class="st8" d="M665.4,543.1c8.3.6,21.2-5.1,22.1-17.3.9-12.1-11.3-19-20.5-19.7-9.1-.7-19.2,5.5-20.2,18.2-.9,12.6,10.2,18.2,18.5,18.8Z"/>
      </g>
    </g>
  </g>
</svg>