<?xml version="1.0" encoding="UTF-8"?>
<svg id="Layer_1" xmlns="http://www.w3.org/2000/svg" version="1.1" viewBox="0 0 1920 1080">
  <!-- Generator: Adobe Illustrator 30.4.0, SVG Export Plug-In . SVG Version: 2.1.4 Build 226)  -->
  <defs>
    <style>
      .st0 {
        fill: #e31c78;
      }

      .st1 {
        fill: #ffa4f6;
        stroke: #ffa4f6;
      }

      .st1, .st2 {
        stroke-width: 5.2px;
      }

      .st1, .st2, .st3 {
        stroke-miterlimit: 10;
      }

      .st4, .st2, .st3 {
        fill: #fff;
      }

      .st2, .st3 {
        stroke: #ff007a;
      }

      .st3 {
        stroke-width: 5.2px;
      }
    </style>
  </defs>
  <path id="dead-body" class="st3" d="M1284.2,417.7c.7,0,2.4,0,4.3.7,4.7,1.8,7.7,6.3,8.4,9.9,5.7,29.9,6.8,198.4-1.1,222.8-2,6.3-11.3,8.9-22.4,9.9-13.2,1.2-572.8.3-582.6.9-18.4,1.1-21-.5-36.2,0,0,0-5.7.2-13.5-1-3.9-.6-5.7-1.1-7.4-1.9-.8-.4-4.8-2.4-7.6-6.5-3-4.5-3-9.1-3.1-12.1-.1-8.1-1.9-16.1-2.3-24.2-.8-15.7-4.9-178.7.7-186.4,7.1-9.8,8.6-11.5,44.9-11.8,16.4-.2,583.6,0,617.8-.3Z"/>
  <path id="dead-button_x5F_body" class="st2" d="M1064.9,559.3c.7,0,2.3,0,4.1.7,4.5,1.7,7.9,5.9,7.9,9.4-.1,29.1,0,34.8-1,57.7-.3,6.3-10.6,8.4-21.2,9.4-12.4,1.1-97.1.3-106.3.8-17.4,1-59.8-.5-74.2,0,0,0-5.4.2-12.7-.9-3.7-.6-5.4-1.1-7-1.8-.8-.4-4.6-2.3-7.2-6.2-2.8-4.2-2.8-8.6-2.9-11.4-.1-7.7-1.1-32.4-1.4-41.9-.3-11.4,8-15,42.3-15.4,15.5-.2,147.3,0,179.6-.3Z"/>
  <path id="dead-button_x5F_fill" class="st1" d="M937.2,627.6c-3.1,0-45.6-.1-48.2-.2-2.7-.1-5.6-.2-9.2-.2s-3.8,0-5.9.1c0,0-.3,0-.6,0-1.5,0-5.4,0-10.3-.8-3.1-.5-3.8-.8-4.1-1-.2-.1-2.1-1-3.2-2.7-1.1-1.7-1.1-3.7-1.2-5.8v-.3c0-4.4-.4-14-.8-23.4-.3-7.5-.5-14.5-.6-18.7,0-.8,0-1.2,0-1.4,1.3-1.1,7.2-3.4,32.3-3.7,7.2,0,62.2,0,79.5-.1,20,0,82.8,0,100.1-.2h0c.1,0,.3,0,.4,0,.6.2,1.2.7,1.5,1,0,3.7,0,7,0,10,0,19.2,0,26.2-.9,43.9-1.6.6-5,1.6-12.2,2.2-5.6.5-59.5.6-70.9.6s-6.6,0-9.8,0c-3,0-5.9,0-8.6,0-9.3,0-14.1,0-16.7.2-4,.2-7.4.4-10.6.4Z"/>
  <g id="dead-TXT_x5F_RELOAD">
    <g>
      <path class="st0" d="M892.2,611c-.9,0-1.7-.4-2.4-1.2-.7-.8-1-2-1-3.6s.1-2.1.4-3.3c.3-1.2.8-2.6,1.4-4.1,0-1.2,0-2.3-.2-3.2-.2-1-.4-1.9-.6-2.8-.3-.9-.6-2-.9-3.1-.3-1-.2-1.7,0-2.2.3-.5,1-.8,2-.8s2.1.4,2.8,1.2c.7.8,1.2,2.3,1.6,4.4h-1c.9-1.5,1.9-2.8,3-3.8,1.1-1,2.3-1.9,3.7-2.4,1.3-.6,2.7-.8,4.1-.8s2.1.2,2.9.5c.8.3,1.4.8,1.9,1.3.5.6.9,1.2,1.1,2,.2.8.4,1.6.4,2.5s-.2,2.2-.7,3.2c-.5,1-1.2,2-2.1,3-.9.9-2.1,1.8-3.5,2.5-1.4.8-2.9,1.4-4.7,2,1.4.8,2.9,1.5,4.5,2.1,1.6.6,3.2,1.2,4.8,1.6,1.1.3,1.9.6,2.3.9.4.3.6.8.6,1.3,0,.9-.3,1.5-.9,2-.6.5-1.5.7-2.6.7s-1.5-.1-2.6-.4c-1.1-.3-2.2-.7-3.5-1.2-1.3-.5-2.5-1.1-3.7-1.8-1.2-.7-2.3-1.4-3.4-2.1-1-.7-1.8-1.5-2.4-2.2-.3-.4-.4-.9-.4-1.4s.1-1.1.4-1.6c.3-.5.6-.8,1.1-.9,2.1-.5,3.9-1.1,5.4-1.8,1.5-.7,2.6-1.4,3.5-2.1.9-.7,1.5-1.4,1.9-2,.4-.6.6-1.2.6-1.6s0-.7-.3-.9c-.2-.2-.5-.3-1-.3s-.9.1-1.5.4c-.6.2-1.3.6-2.1,1.2-.8.5-1.5,1.3-2.3,2.2-.8.9-1.5,2-2.1,3.3s-1.1,2.8-1.5,4.6c-.4,1.8-.6,3.8-.6,6s0,1.2-.3,1.6-.4.7-.8.9-.8.3-1.3.3Z"/>
      <path class="st0" d="M918.6,591.7c-1.2,0-2.1-.3-2.8-.8-.6-.5-1-1.2-1-2s.1-.8.3-1.1c.2-.4.7-.7,1.4-.8,1.5-.4,3.2-.7,5-1,1.8-.3,3.5-.4,5.1-.6,1.6-.1,3-.2,4.1-.2,1.6,0,2.8.3,3.4.8.7.5,1,1.2,1,2.1s-.2,1.2-.6,1.7c-.4.5-1,.7-1.8.7-1.6,0-3.1,0-4.5.2-1.5.1-2.8.3-4,.5-1.2.2-2.3.3-3.3.4-.9.1-1.7.2-2.2.2ZM925.7,610.8c-1.8,0-3.3-.3-4.6-.8-1.3-.5-2.4-1.3-3.3-2.3-.9-1-1.5-2.1-1.9-3.4-.4-1.3-.6-2.7-.6-4.2s0-1.7.2-2.6c.1-.9.3-1.9.6-2.9.2-1,.5-2,.9-3,.3-.9.7-1.7,1.4-2.2.6-.5,1.3-.8,2.2-.8s.8,0,1.2.2c.3.2.6.4.7.7s.2.7.2,1.2c-.1.6-.4,1.4-.6,2.4s-.5,2-.8,3.2c-.2,1.2-.3,2.4-.3,3.8s.2,1.9.6,2.7,1,1.4,1.7,1.9c.7.5,1.6.7,2.6.7s1.9,0,2.7-.2c.8-.1,1.4-.3,2-.4.6-.2,1.1-.3,1.5-.5.4-.1.8-.2,1.1-.2.7,0,1.2.2,1.5.5s.5.8.5,1.5c0,1-.4,1.8-1.1,2.5-.7.7-1.8,1.3-3.2,1.6s-3.1.6-5,.6ZM919.7,601.6c-.5.1-1,0-1.3-.1s-.5-.5-.6-1-.2-.9-.2-1.4.2-1.3.7-1.8c.4-.5,1-.8,1.7-1,.6-.1,1.3-.3,2-.4.7-.1,1.5-.2,2.3-.3.8-.1,1.7-.2,2.6-.3.9,0,2-.1,3.1-.2,1,0,1.7.2,2.2.6.4.4.6.9.6,1.5,0,1-.3,1.7-.9,2.3-.6.5-1.4.8-2.3.9-1.1,0-2.1.1-3,.2-.9,0-1.8.2-2.6.3-.8.1-1.5.2-2.2.4-.7.1-1.3.3-1.9.4Z"/>
      <path class="st0" d="M946.4,610.9c-2.9,0-5-.8-6.5-2.3-1.5-1.6-2.2-3.9-2.2-7s.1-3.5.4-5.1.6-3.1.9-4.6c.3-1.5.4-2.8.4-4.1s.2-1.4.6-1.9c.4-.5,1-.8,1.9-.8s1.3.2,1.8.6c.5.4.8.9,1.1,1.4.2.6.4,1.2.4,1.8,0,1.2-.1,2.4-.3,3.7-.2,1.2-.4,2.4-.7,3.6-.3,1.2-.5,2.2-.7,3.2-.2,1-.3,1.9-.3,2.6,0,1.1.3,2,.8,2.6.5.6,1.4.9,2.6.9s1.8-.1,2.4-.3,1.1-.4,1.5-.7c.4-.2.8-.5,1.2-.7.4-.2.8-.3,1.3-.3s.9.2,1.3.7c.3.4.5.9.5,1.5s-.1,1.3-.4,1.9c-.2.6-.7,1.1-1.2,1.6-.8.6-1.9,1.1-3.1,1.4-1.2.3-2.4.4-3.6.4Z"/>
      <path class="st0" d="M967.4,610.9c-1.6,0-3.1-.2-4.4-.8-1.3-.5-2.5-1.2-3.5-2.2-1-1-1.8-2.1-2.3-3.4-.5-1.3-.8-2.8-.8-4.4s.2-2.7.6-4c.4-1.2,1-2.3,1.6-3.3.7-1,1.4-1.8,2.1-2.5.8-.7,1.5-1.2,2.2-1.6.7-.4,1.2-.6,1.7-.6s.9,0,1.3.2c.3.2.6.4.9.9.5.7.6,1.3.4,1.8-.2.6-.6,1-1.2,1.4-1,.7-1.8,1.4-2.4,2.2-.6.8-1.1,1.6-1.4,2.4-.3.9-.4,1.9-.4,3s.2,2.1.7,3c.5.8,1.1,1.5,2,1.9.9.4,1.8.7,2.9.7s2.3-.3,3.3-.8c1-.5,1.8-1.2,2.4-2.1.6-.9.9-1.9.9-3s-.2-2.2-.5-3.3c-.3-1.1-.7-2.1-1.3-3-.5-.9-1.2-1.6-1.8-2.2-.7-.5-1.4-.8-2.2-.8s-.5.1-.6.3c-.1.2-.2.5-.2.8,0,.5-.1.9-.4,1.2-.3.3-.6.4-1.1.4s-1.1-.2-1.6-.5c-.5-.3-1-.8-1.3-1.4s-.5-1.4-.5-2.3.2-1.3.6-1.9c.4-.6,1-1.1,1.7-1.4.8-.4,1.7-.6,2.7-.6,1.8,0,3.4.4,4.9,1.2,1.5.8,2.7,1.9,3.8,3.3,1.1,1.4,1.9,3,2.5,4.7.6,1.7.9,3.6.9,5.4s-.3,3-.9,4.4c-.6,1.3-1.5,2.5-2.6,3.5-1.1,1-2.4,1.8-3.9,2.3-1.5.6-3,.8-4.7.8Z"/>
      <path class="st0" d="M985.5,604.6c-1.2,0-2-.2-2.5-.7-.5-.5-.8-1-.8-1.8s.2-.9.5-1.2c.3-.3.8-.6,1.5-.8,2.5-.7,5.4-1.3,8.7-1.8,3.3-.5,6.9-.7,11-.7s2.4.2,2.9.6c.5.4.8,1,.8,1.8s-.4,1.6-1.1,2.2c-.7.6-1.7.9-3,.9-1.8,0-3.4,0-5,.2-1.5.1-2.9.2-4.1.4-1.3.2-2.4.3-3.5.5-1,.2-2,.3-2.9.4s-1.7.2-2.4.2ZM1004.7,610.9c-.7,0-1.4-.2-2-.6-.6-.4-1.1-1-1.7-1.9-.5-.8-1-1.8-1.4-3.1s-.7-2.6-1-4c-.2-1.4-.4-2.7-.6-4-.2-1.5-.3-2.7-.4-3.6-.1-.9-.3-1.6-.4-2-.1-.5-.3-.8-.4-.9-.2-.2-.3-.2-.6-.2-.6,0-1.2.4-1.8,1.3-.6.8-1.3,2.1-1.9,3.6-.6,1.6-1.2,3.5-1.8,5.8-.5,2.2-1,4.7-1.4,7.5,0,.7-.3,1.3-.6,1.6-.3.3-.8.5-1.4.5-1,0-1.8-.4-2.4-1.2-.5-.8-.8-2.1-.8-4s.1-2.9.3-4.2c.2-1.3.4-2.6.7-3.8.3-1.2.5-2.4.7-3.6.2-1.2.3-2.4.3-3.6,0-.4.1-.8.4-1s.7-.4,1.2-.4,1,.1,1.5.4c.5.2,1,.7,1.4,1.3l-2.1.7c1-1.9,2.1-3.4,3.5-4.5s2.9-1.7,4.5-1.7,3,.4,3.9,1.3c.9.8,1.7,2.2,2.2,4,.5,1.8.9,4.2,1.3,7.1.2,1.7.4,3.2.8,4.4.3,1.2.7,2.3,1.1,3.1.4.8.7,1.6.9,2.2.2.6.4,1.2.4,1.7s-.2,1.1-.5,1.5c-.4.3-.9.5-1.6.5Z"/>
      <path class="st0" d="M1015.8,610.9c-1,0-1.9-.3-2.6-.9-.7-.6-1.2-1.5-1.6-2.6-.4-1.1-.5-2.4-.5-3.8,0-2.2,0-4.3,0-6.3,0-2,.1-4,.2-6.1,0-.8.3-1.3.7-1.6.4-.3,1.1-.5,2-.5s1.4.2,1.9.7c.5.5.8,1,.8,1.7,0,1.1,0,2.3,0,3.6s0,2.6-.1,3.9c0,1.3,0,2.6,0,3.9s0,1.4.2,2.1c.1.6.4,1.3.9,1.9l-3.8-.9c2-.3,3.7-.8,5.2-1.4,1.5-.7,2.8-1.5,3.8-2.4,1-.9,1.8-2,2.3-3.1s.8-2.3.8-3.5-.2-1.9-.6-2.6c-.4-.7-1-1.3-1.8-1.6-.8-.4-1.9-.6-3.2-.6s-2.1,0-2.9.2c-.8.1-1.5.3-2.1.5-.6.2-1.2.4-1.7.5-.5.1-1,.2-1.5.2-.8,0-1.5-.2-2.1-.5-.6-.3-1-.8-1.3-1.3s-.4-1.1-.4-1.6.1-.8.3-1.2.6-.7,1.1-.8c.8-.3,1.8-.5,2.9-.7,1.1-.2,2.4-.4,3.7-.6,1.3-.2,2.6-.3,3.8-.3,2.4,0,4.5.4,6.2,1.3,1.7.9,3,2.1,3.8,3.6.9,1.5,1.3,3.2,1.3,5.1s-.3,3.5-.9,5.1-1.5,3-2.5,4.3c-1.1,1.3-2.3,2.4-3.6,3.3-1.4.9-2.8,1.6-4.3,2.1-1.5.5-3,.8-4.4.8Z"/>
    </g>
    <g>
      <path class="st4" d="M892.2,611c-.9,0-1.7-.4-2.4-1.2-.7-.8-1-2-1-3.6s.1-2.1.4-3.3c.3-1.2.8-2.6,1.4-4.1,0-1.2,0-2.3-.2-3.2-.2-1-.4-1.9-.6-2.8-.3-.9-.6-2-.9-3.1-.3-1-.2-1.7,0-2.2.3-.5,1-.8,2-.8s2.1.4,2.8,1.2c.7.8,1.2,2.3,1.6,4.4h-1c.9-1.5,1.9-2.8,3-3.8,1.1-1,2.3-1.9,3.7-2.4,1.3-.6,2.7-.8,4.1-.8s2.1.2,2.9.5c.8.3,1.4.8,1.9,1.3.5.6.9,1.2,1.1,2,.2.8.4,1.6.4,2.5s-.2,2.2-.7,3.2c-.5,1-1.2,2-2.1,3-.9.9-2.1,1.8-3.5,2.5-1.4.8-2.9,1.4-4.7,2,1.4.8,2.9,1.5,4.5,2.1,1.6.6,3.2,1.2,4.8,1.6,1.1.3,1.9.6,2.3.9.4.3.6.8.6,1.3,0,.9-.3,1.5-.9,2-.6.5-1.5.7-2.6.7s-1.5-.1-2.6-.4c-1.1-.3-2.2-.7-3.5-1.2-1.3-.5-2.5-1.1-3.7-1.8-1.2-.7-2.3-1.4-3.4-2.1-1-.7-1.8-1.5-2.4-2.2-.3-.4-.4-.9-.4-1.4s.1-1.1.4-1.6c.3-.5.6-.8,1.1-.9,2.1-.5,3.9-1.1,5.4-1.8,1.5-.7,2.6-1.4,3.5-2.1.9-.7,1.5-1.4,1.9-2,.4-.6.6-1.2.6-1.6s0-.7-.3-.9c-.2-.2-.5-.3-1-.3s-.9.1-1.5.4c-.6.2-1.3.6-2.1,1.2-.8.5-1.5,1.3-2.3,2.2-.8.9-1.5,2-2.1,3.3s-1.1,2.8-1.5,4.6c-.4,1.8-.6,3.8-.6,6s0,1.2-.3,1.6-.4.7-.8.9-.8.3-1.3.3Z"/>
      <path class="st4" d="M918.6,591.7c-1.2,0-2.1-.3-2.8-.8-.6-.5-1-1.2-1-2s.1-.8.3-1.1c.2-.4.7-.7,1.4-.8,1.5-.4,3.2-.7,5-1,1.8-.3,3.5-.4,5.1-.6,1.6-.1,3-.2,4.1-.2,1.6,0,2.8.3,3.4.8.7.5,1,1.2,1,2.1s-.2,1.2-.6,1.7c-.4.5-1,.7-1.8.7-1.6,0-3.1,0-4.5.2-1.5.1-2.8.3-4,.5-1.2.2-2.3.3-3.3.4-.9.1-1.7.2-2.2.2ZM925.7,610.8c-1.8,0-3.3-.3-4.6-.8-1.3-.5-2.4-1.3-3.3-2.3-.9-1-1.5-2.1-1.9-3.4-.4-1.3-.6-2.7-.6-4.2s0-1.7.2-2.6c.1-.9.3-1.9.6-2.9.2-1,.5-2,.9-3,.3-.9.7-1.7,1.4-2.2.6-.5,1.3-.8,2.2-.8s.8,0,1.2.2c.3.2.6.4.7.7s.2.7.2,1.2c-.1.6-.4,1.4-.6,2.4s-.5,2-.8,3.2c-.2,1.2-.3,2.4-.3,3.8s.2,1.9.6,2.7,1,1.4,1.7,1.9c.7.5,1.6.7,2.6.7s1.9,0,2.7-.2c.8-.1,1.4-.3,2-.4.6-.2,1.1-.3,1.5-.5.4-.1.8-.2,1.1-.2.7,0,1.2.2,1.5.5s.5.8.5,1.5c0,1-.4,1.8-1.1,2.5-.7.7-1.8,1.3-3.2,1.6s-3.1.6-5,.6ZM919.7,601.6c-.5.1-1,0-1.3-.1s-.5-.5-.6-1-.2-.9-.2-1.4.2-1.3.7-1.8c.4-.5,1-.8,1.7-1,.6-.1,1.3-.3,2-.4.7-.1,1.5-.2,2.3-.3.8-.1,1.7-.2,2.6-.3.9,0,2-.1,3.1-.2,1,0,1.7.2,2.2.6.4.4.6.9.6,1.5,0,1-.3,1.7-.9,2.3-.6.5-1.4.8-2.3.9-1.1,0-2.1.1-3,.2-.9,0-1.8.2-2.6.3-.8.1-1.5.2-2.2.4-.7.1-1.3.3-1.9.4Z"/>
      <path class="st4" d="M946.4,610.9c-2.9,0-5-.8-6.5-2.3-1.5-1.6-2.2-3.9-2.2-7s.1-3.5.4-5.1.6-3.1.9-4.6c.3-1.5.4-2.8.4-4.1s.2-1.4.6-1.9c.4-.5,1-.8,1.9-.8s1.3.2,1.8.6c.5.4.8.9,1.1,1.4.2.6.4,1.2.4,1.8,0,1.2-.1,2.4-.3,3.7-.2,1.2-.4,2.4-.7,3.6-.3,1.2-.5,2.2-.7,3.2-.2,1-.3,1.9-.3,2.6,0,1.1.3,2,.8,2.6.5.6,1.4.9,2.6.9s1.8-.1,2.4-.3,1.1-.4,1.5-.7c.4-.2.8-.5,1.2-.7.4-.2.8-.3,1.3-.3s.9.2,1.3.7c.3.4.5.9.5,1.5s-.1,1.3-.4,1.9c-.2.6-.7,1.1-1.2,1.6-.8.6-1.9,1.1-3.1,1.4-1.2.3-2.4.4-3.6.4Z"/>
      <path class="st4" d="M967.4,610.9c-1.6,0-3.1-.2-4.4-.8-1.3-.5-2.5-1.2-3.5-2.2-1-1-1.8-2.1-2.3-3.4-.5-1.3-.8-2.8-.8-4.4s.2-2.7.6-4c.4-1.2,1-2.3,1.6-3.3.7-1,1.4-1.8,2.1-2.5.8-.7,1.5-1.2,2.2-1.6.7-.4,1.2-.6,1.7-.6s.9,0,1.3.2c.3.2.6.4.9.9.5.7.6,1.3.4,1.8-.2.6-.6,1-1.2,1.4-1,.7-1.8,1.4-2.4,2.2-.6.8-1.1,1.6-1.4,2.4-.3.9-.4,1.9-.4,3s.2,2.1.7,3c.5.8,1.1,1.5,2,1.9.9.4,1.8.7,2.9.7s2.3-.3,3.3-.8c1-.5,1.8-1.2,2.4-2.1.6-.9.9-1.9.9-3s-.2-2.2-.5-3.3c-.3-1.1-.7-2.1-1.3-3-.5-.9-1.2-1.6-1.8-2.2-.7-.5-1.4-.8-2.2-.8s-.5.1-.6.3c-.1.2-.2.5-.2.8,0,.5-.1.9-.4,1.2-.3.3-.6.4-1.1.4s-1.1-.2-1.6-.5c-.5-.3-1-.8-1.3-1.4s-.5-1.4-.5-2.3.2-1.3.6-1.9c.4-.6,1-1.1,1.7-1.4.8-.4,1.7-.6,2.7-.6,1.8,0,3.4.4,4.9,1.2,1.5.8,2.7,1.9,3.8,3.3,1.1,1.4,1.9,3,2.5,4.7.6,1.7.9,3.6.9,5.4s-.3,3-.9,4.4c-.6,1.3-1.5,2.5-2.6,3.5-1.1,1-2.4,1.8-3.9,2.3-1.5.6-3,.8-4.7.8Z"/>
      <path class="st4" d="M985.5,604.6c-1.2,0-2-.2-2.5-.7-.5-.5-.8-1-.8-1.8s.2-.9.5-1.2c.3-.3.8-.6,1.5-.8,2.5-.7,5.4-1.3,8.7-1.8,3.3-.5,6.9-.7,11-.7s2.4.2,2.9.6c.5.4.8,1,.8,1.8s-.4,1.6-1.1,2.2c-.7.6-1.7.9-3,.9-1.8,0-3.4,0-5,.2-1.5.1-2.9.2-4.1.4-1.3.2-2.4.3-3.5.5-1,.2-2,.3-2.9.4s-1.7.2-2.4.2ZM1004.7,610.9c-.7,0-1.4-.2-2-.6-.6-.4-1.1-1-1.7-1.9-.5-.8-1-1.8-1.4-3.1s-.7-2.6-1-4c-.2-1.4-.4-2.7-.6-4-.2-1.5-.3-2.7-.4-3.6-.1-.9-.3-1.6-.4-2-.1-.5-.3-.8-.4-.9-.2-.2-.3-.2-.6-.2-.6,0-1.2.4-1.8,1.3-.6.8-1.3,2.1-1.9,3.6-.6,1.6-1.2,3.5-1.8,5.8-.5,2.2-1,4.7-1.4,7.5,0,.7-.3,1.3-.6,1.6-.3.3-.8.5-1.4.5-1,0-1.8-.4-2.4-1.2-.5-.8-.8-2.1-.8-4s.1-2.9.3-4.2c.2-1.3.4-2.6.7-3.8.3-1.2.5-2.4.7-3.6.2-1.2.3-2.4.3-3.6,0-.4.1-.8.4-1s.7-.4,1.2-.4,1,.1,1.5.4c.5.2,1,.7,1.4,1.3l-2.1.7c1-1.9,2.1-3.4,3.5-4.5s2.9-1.7,4.5-1.7,3,.4,3.9,1.3c.9.8,1.7,2.2,2.2,4,.5,1.8.9,4.2,1.3,7.1.2,1.7.4,3.2.8,4.4.3,1.2.7,2.3,1.1,3.1.4.8.7,1.6.9,2.2.2.6.4,1.2.4,1.7s-.2,1.1-.5,1.5c-.4.3-.9.5-1.6.5Z"/>
      <path class="st4" d="M1015.8,610.9c-1,0-1.9-.3-2.6-.9-.7-.6-1.2-1.5-1.6-2.6-.4-1.1-.5-2.4-.5-3.8,0-2.2,0-4.3,0-6.3,0-2,.1-4,.2-6.1,0-.8.3-1.3.7-1.6.4-.3,1.1-.5,2-.5s1.4.2,1.9.7c.5.5.8,1,.8,1.7,0,1.1,0,2.3,0,3.6s0,2.6-.1,3.9c0,1.3,0,2.6,0,3.9s0,1.4.2,2.1c.1.6.4,1.3.9,1.9l-3.8-.9c2-.3,3.7-.8,5.2-1.4,1.5-.7,2.8-1.5,3.8-2.4,1-.9,1.8-2,2.3-3.1s.8-2.3.8-3.5-.2-1.9-.6-2.6c-.4-.7-1-1.3-1.8-1.6-.8-.4-1.9-.6-3.2-.6s-2.1,0-2.9.2c-.8.1-1.5.3-2.1.5-.6.2-1.2.4-1.7.5-.5.1-1,.2-1.5.2-.8,0-1.5-.2-2.1-.5-.6-.3-1-.8-1.3-1.3s-.4-1.1-.4-1.6.1-.8.3-1.2.6-.7,1.1-.8c.8-.3,1.8-.5,2.9-.7,1.1-.2,2.4-.4,3.7-.6,1.3-.2,2.6-.3,3.8-.3,2.4,0,4.5.4,6.2,1.3,1.7.9,3,2.1,3.8,3.6.9,1.5,1.3,3.2,1.3,5.1s-.3,3.5-.9,5.1-1.5,3-2.5,4.3c-1.1,1.3-2.3,2.4-3.6,3.3-1.4.9-2.8,1.6-4.3,2.1-1.5.5-3,.8-4.4.8Z"/>
    </g>
  </g>
</svg>