<?xml version="1.0" encoding="UTF-8"?>
<svg id="demo" xmlns="http://www.w3.org/2000/svg" xmlns:xlink="http://www.w3.org/1999/xlink" version="1.1" viewBox="0 0 1920 1080">
  <!-- Generator: Adobe Illustrator 30.4.0, SVG Export Plug-In . SVG Version: 2.1.4 Build 226)  -->
  <defs>
    <style>
      .st0, .st1 {
        fill: none;
      }

      .st1, .st2, .st3, .st4 {
        stroke: #ff007a;
        stroke-miterlimit: 10;
        stroke-width: 5.2px;
      }

      .st5, .st3 {
        fill: #ffa4f6;
      }

      .st6 {
        fill: #ff007a;
      }

      .st2 {
        stroke-linecap: round;
      }

      .st2, .st4 {
        fill: #fff;
      }

      .st7 {
        clip-path: url(#clippath);
      }
    </style>
    <clipPath id="clippath">
      <path class="st0" d="M1095.8,471.4c-10.6,2.3-25.7,1.9-43.3,1.6-25.8-1.5-54.7,1.9-75-6.8-10.1-5-11.1-15.4-2.3-21,18.6-9.7,40.9-5.2,67.9-5.7,28.3.6,52.7.3,63.3,7.8,11.7,7.7,5.6,20.9-9.6,23.8l-1,.2h0ZM824,470.7c10.6,2.5,25.7,2.3,43.3,2.2,25.8-1.1,54.7,2.6,75.1-5.9,10.2-4.9,11.4-15.3,2.7-21-18.4-9.9-40.8-5.8-67.8-6.5-28.3.2-52.7-.3-63.5,7-11.8,7.5-6,20.9,9.2,23.9l1,.2h0Z"/>
    </clipPath>
  </defs>
  <path id="demo-body_x5F_fill" class="st5" d="M1289.2,468.5c-.3-1.2-1.5-3.3-3.5-4h-.4l-1-.2h0c-18.1,0-189,0-339.9.2h-277.9c-30,.3-32.9.9-37.9,7.7l-.3.4v.5c-3.3,13.1-1.2,92,.4,121.4.2,3.3.6,6.7,1.1,10.3.6,4.6,1.2,9.3,1.3,14.5,0,2.4,0,5.2,1.7,7.6,1.7,2.5,4.2,3.7,4.5,3.8.8.4,1.8.8,5.2,1.3,5.4.8,9.7.9,11.3.9h.7c6.6-.2,11.3,0,15.6,0h.5c2.6,0,5.3.2,8.5.2s7.1,0,11.4-.4c2.3,0,24.7-.2,128.7-.2h188.4c70.1,0,256.3,0,265.2-.6,9.8-.9,13.5-2.7,14.9-3.7l.7-.5.2-.8c7.1-23.4,6.5-128,.7-158.5h0Z"/>
  <path id="demo-body" class="st1" d="M1284.2,456.5c.7,0,2.4,0,4.3.7,4.7,1.8,7.7,6.3,8.4,9.9,5.7,29.9,6.8,138.4-1.1,162.8-2,6.3-11.3,8.9-22.4,9.9-13.2,1.2-572.8.3-582.6.9-18.4,1.1-21-.5-36.2,0,0,0-5.7.2-13.5-1-3.9-.6-5.7-1.1-7.4-1.9-.8-.4-4.8-2.4-7.6-6.5-3-4.5-3-9.1-3.1-12.1,0-8.1-1.9-16.1-2.3-24.2-.8-15.7-4.9-118.7.7-126.4,7.1-9.8,8.6-11.5,44.9-11.8,16.4-.2,583.6,0,617.8-.3h0Z"/>
  <path id="demo-box" class="st4" d="M1227.6,507c.7,0,2.4,0,4.3.7,4.7,1.8,8.4,6.2,8.4,9.9,0,30.8.2,34.1-1,58.3-.7,15-29,13.6-53.1,13.6,0,0-5.7.2-13.5-1-3.9-.6-5.7-1.1-7.4-1.9-.8-.4-4.8-2.4-7.6-6.5-3-4.5-3-9.1-3.1-12.1,0-8.1-1.2-34.3-1.5-44.4-.3-12.1,8.5-15.9,44.7-16.3,16.4-.2-4.6,0,29.7-.3h0Z"/>
  <g id="demo-text">
    <g>
      <path class="st5" d="M709.9,555.9c-1.2,0-2-.2-2.5-.7s-.8-1-.8-1.8.2-.9.5-1.2.8-.6,1.5-.8c2.5-.7,5.4-1.3,8.6-1.8,3.2-.5,6.9-.7,10.9-.7s2.4.2,2.9.6.8,1,.8,1.7-.4,1.6-1.1,2.2-1.7.9-3,.9-3.4,0-4.9.2c-1.5,0-2.9.2-4.1.4-1.2.2-2.4.3-3.4.5s-2,.3-2.9.4c-.9,0-1.7.2-2.4.2h0ZM729,562.2c-.7,0-1.4-.2-2-.6s-1.1-1-1.7-1.9c-.5-.8-1-1.8-1.4-3.1-.4-1.2-.7-2.6-1-4-.2-1.4-.4-2.7-.6-4-.2-1.5-.3-2.7-.4-3.6,0-.9-.3-1.6-.4-2,0-.5-.3-.8-.4-.9s-.3-.2-.6-.2c-.6,0-1.2.4-1.8,1.2s-1.3,2-1.9,3.6c-.6,1.6-1.2,3.5-1.8,5.7-.5,2.2-1,4.7-1.4,7.5,0,.7-.3,1.3-.6,1.6s-.8.5-1.4.5c-1,0-1.8-.4-2.4-1.2s-.8-2.1-.8-4,0-2.9.3-4.2.4-2.6.7-3.8.5-2.4.7-3.6c.2-1.2.3-2.4.3-3.6s0-.8.4-1,.7-.4,1.2-.4,1,0,1.5.4c.5.2,1,.7,1.4,1.3l-2.1.7c.9-1.9,2.1-3.4,3.5-4.5s2.9-1.7,4.4-1.7,3,.4,3.9,1.3c.9.8,1.7,2.2,2.2,4s.9,4.2,1.2,7.1c.2,1.7.4,3.2.8,4.4.3,1.2.7,2.3,1.1,3.1s.7,1.6.9,2.2c.2.6.4,1.2.4,1.7s-.2,1.1-.5,1.5c-.4.3-.9.5-1.6.5h-.1Z"/>
      <path class="st5" d="M738.1,562.3c-.9,0-1.7-.4-2.4-1.2s-1-2-1-3.6,0-2.1.4-3.3c.3-1.2.8-2.6,1.4-4.1,0-1.2,0-2.3-.2-3.2s-.4-1.9-.6-2.8c-.3-.9-.6-2-.9-3-.3-.9-.2-1.7,0-2.2s1-.8,2-.8,2.1.4,2.8,1.2,1.2,2.3,1.6,4.4h-1c.9-1.5,1.9-2.8,3-3.8s2.3-1.8,3.6-2.4c1.3-.6,2.7-.8,4.1-.8s2.1.2,2.8.5c.8.3,1.4.8,1.9,1.3.5.6.9,1.2,1.1,2,.2.8.4,1.6.4,2.5s-.2,2.2-.7,3.2-1.2,2-2.1,2.9c-.9.9-2.1,1.8-3.4,2.5-1.4.8-2.9,1.4-4.7,2,1.4.8,2.9,1.5,4.4,2.1,1.6.6,3.2,1.2,4.8,1.6,1.1.3,1.9.6,2.3.9.4.3.6.8.6,1.3,0,.9-.3,1.5-.9,2-.6.5-1.5.7-2.6.7s-1.5,0-2.5-.4c-1.1-.3-2.2-.7-3.5-1.2-1.2-.5-2.5-1.1-3.7-1.8s-2.3-1.4-3.3-2.1c-1-.7-1.8-1.5-2.4-2.2-.3-.4-.4-.8-.4-1.4s0-1.1.4-1.6.6-.8,1.1-.9c2.1-.5,3.9-1.1,5.3-1.8s2.6-1.4,3.5-2.1c.9-.7,1.5-1.4,1.9-2s.6-1.2.6-1.6,0-.7-.3-.9c-.2-.2-.5-.3-1-.3s-.9,0-1.5.4c-.6.2-1.3.6-2.1,1.2-.8.5-1.5,1.3-2.3,2.2s-1.5,2-2.1,3.3-1.1,2.8-1.5,4.6-.6,3.8-.6,6,0,1.2-.3,1.6c-.2.4-.4.7-.8.9-.3.2-.8.3-1.3.3h.1Z"/>
      <path class="st5" d="M764.3,543.1c-1.2,0-2.1-.3-2.8-.8-.6-.5-1-1.2-1-2s0-.8.3-1.1c.2-.4.7-.7,1.4-.8,1.5-.4,3.2-.7,4.9-1,1.8-.2,3.4-.4,5-.6,1.6,0,2.9-.2,4-.2,1.6,0,2.7.3,3.4.8s1,1.2,1,2.1-.2,1.2-.6,1.7c-.4.5-1,.7-1.8.7-1.5,0-3,0-4.5.2-1.4,0-2.8.3-4,.5s-2.3.3-3.3.4c-.9,0-1.7.2-2.2.2h.2,0ZM771.4,562.1c-2.3,0-4.3-.5-5.8-1.4s-2.7-2.3-3.5-3.9c-.8-1.6-1.2-3.4-1.2-5.4s0-2.6.4-4.1c.3-1.5.7-3,1.2-4.4.3-.9.7-1.6,1.4-2.2.6-.5,1.3-.8,2.2-.8s.8,0,1.2.2c.3.2.6.4.7.7.2.3.2.7.2,1.2s-.4,1.4-.6,2.4c-.3,1-.5,2-.8,3.2-.2,1.2-.3,2.4-.3,3.7s.2,1.9.6,2.7,1,1.4,1.7,1.9,1.6.7,2.6.7,1.9,0,2.7-.2c.8,0,1.4-.3,2-.4s1.1-.3,1.5-.5.8-.2,1.1-.2c.7,0,1.2.2,1.5.5s.5.8.5,1.5-.4,1.8-1.1,2.5c-.7.7-1.8,1.3-3.1,1.6-1.4.4-3,.6-5,.6h-.1ZM765.4,553h-1.3c-.3-.2-.5-.5-.6-1,0-.4-.2-.9-.2-1.4s.2-1.2.7-1.7,1-.8,1.7-1c.6,0,1.3-.3,2-.4.7,0,1.5-.2,2.3-.3s1.7-.2,2.6-.3c.9,0,2,0,3-.2,1,0,1.7.2,2.2.6.4.4.6.9.6,1.5,0,1-.3,1.7-.9,2.2-.6.5-1.4.8-2.3.9-1.5,0-2.8.2-4,.3s-2.2.3-3.1.4c-.9.2-1.8.3-2.6.5h-.1Z"/>
      <path class="st5" d="M804.8,552.8c-.4,0-.8,0-1.1-.3-.3-.2-.6-.5-.8-.9-.8-1.4-1.5-2.5-2.2-3.3-.6-.9-1.2-1.6-1.6-2.2-.5-.6-1-1.2-1.4-1.7s-1-1.3-1.6-2.1c-.4-.5-.6-1-.8-1.5s-.3-1-.3-1.7.2-1.4.6-1.9c.4-.5.9-.7,1.5-.7s1,0,1.4.3c.4.2.9.6,1.3,1.3.5.9,1,1.7,1.4,2.3.5.6.9,1.2,1.3,1.7.4.5.8,1.1,1.2,1.6.4.6.9,1.2,1.3,1.9.5.7,1,1.6,1.5,2.7.2.4.3.8.3,1.3s0,1-.2,1.4c-.2.5-.4.8-.7,1.1s-.7.4-1.2.4v.3h0ZM802.3,562.4c-1,0-1.8-.4-2.2-1.3-.4-.9-.5-2.1-.2-3.5.3-1.5.8-3.2,1.5-5s1.5-3.6,2.5-5.4c1-1.8,2.2-3.6,3.4-5.2,1.3-1.7,2.7-3.1,4.1-4.3.5-.4,1-.7,1.3-.9s.7-.2,1-.2c.7,0,1.2.2,1.6.7.4.5.6,1.1.6,2v1.1c0,.3-.3.7-.5,1.1-.2.4-.6.8-1.1,1.2-1.7,1.5-3.2,3.2-4.4,5.2-1.3,1.9-2.3,3.9-3.2,6s-1.5,4.2-1.9,6.2c-.2.9-.5,1.5-.9,1.9-.4.3-.9.5-1.5.5h0Z"/>
      <path class="st5" d="M827.1,562.2c-1.6,0-3.1-.2-4.4-.7-1.3-.5-2.5-1.2-3.5-2.2-1-.9-1.8-2.1-2.3-3.4-.5-1.3-.8-2.8-.8-4.4s.2-2.7.6-4c.4-1.2,1-2.3,1.6-3.3.7-1,1.4-1.8,2.1-2.5.8-.7,1.5-1.2,2.2-1.6.7-.4,1.2-.6,1.7-.6s.9,0,1.3.2.6.4.9.9c.5.7.6,1.3.4,1.8-.2.6-.6,1-1.2,1.4-1,.7-1.8,1.4-2.4,2.2-.6.7-1.1,1.6-1.4,2.4-.3.9-.4,1.8-.4,2.9s.2,2.1.7,2.9c.5.8,1.1,1.4,2,1.9.9.4,1.8.7,2.9.7s2.3-.3,3.3-.8,1.8-1.2,2.4-2.1c.6-.9.9-1.9.9-3s-.2-2.2-.5-3.3-.7-2.1-1.3-3c-.5-.9-1.1-1.6-1.8-2.2-.7-.5-1.4-.8-2.2-.8s-.5,0-.6.3-.2.5-.2.8c0,.5,0,.9-.4,1.2s-.6.4-1.1.4-1.1-.2-1.6-.5-.9-.8-1.3-1.4c-.3-.6-.5-1.4-.5-2.3s.2-1.3.6-1.9c.4-.6,1-1.1,1.7-1.4.7-.4,1.7-.6,2.7-.6,1.8,0,3.4.4,4.8,1.2,1.4.8,2.7,1.9,3.8,3.3,1.1,1.4,1.9,2.9,2.4,4.7.6,1.7.9,3.5.9,5.4s-.3,3-.9,4.4c-.6,1.3-1.5,2.5-2.6,3.5s-2.4,1.8-3.9,2.3c-1.5.6-3,.8-4.7.8v.4h0Z"/>
      <path class="st5" d="M853.6,562.3c-2.6,0-4.6-.5-6.2-1.5-1.5-1-2.7-2.5-3.4-4.4s-1-4.1-1-6.7v-7.4c0-.5,0-1-.2-1.4,0-.4,0-.7-.2-1v-1.1c0-.8.2-1.4.7-1.7.4-.4,1.1-.5,1.9-.5s1.4.2,2,.5c.6.4,1,1,1.4,1.9s.5,2.2.5,3.8v2.3c0,.9,0,1.7-.2,2.6v2.4c0,1.8.2,3.2.5,4.2.4,1,.9,1.7,1.6,2,.7.4,1.5.6,2.5.6s2.5-.4,3.2-1.3c.7-.9,1-2.3,1-4.5v-9.8c0-1.2.3-2.5.8-3.3s1.4-1.3,2.6-1.3,1.4.2,1.8.6c.5.4.7,1,.7,1.7v1.2c0,.4,0,.9-.2,1.4v9.9c0,2.2-.3,4.1-1,5.8s-1.7,3-3.1,3.9c-1.4.9-3.2,1.4-5.4,1.4l-.3-.3h0Z"/>
      <path class="st5" d="M881.6,555.9c-1.2,0-2-.2-2.5-.7s-.8-1-.8-1.8.2-.9.5-1.2.8-.6,1.5-.8c2.5-.7,5.4-1.3,8.6-1.8,3.2-.5,6.9-.7,10.9-.7s2.4.2,2.9.6c.5.4.8,1,.8,1.7s-.4,1.6-1.1,2.2c-.7.6-1.7.9-3,.9s-3.4,0-4.9.2c-1.5,0-2.9.2-4.1.4-1.2.2-2.4.3-3.4.5s-2,.3-2.9.4c-.9,0-1.7.2-2.4.2h0ZM900.8,562.2c-.7,0-1.4-.2-2-.6s-1.1-1-1.7-1.9c-.5-.8-1-1.8-1.4-3.1-.4-1.2-.7-2.6-1-4-.2-1.4-.4-2.7-.6-4-.2-1.5-.3-2.7-.4-3.6,0-.9-.3-1.6-.4-2,0-.5-.3-.8-.4-.9-.2-.2-.3-.2-.6-.2-.6,0-1.2.4-1.8,1.2s-1.3,2-1.9,3.6c-.6,1.6-1.2,3.5-1.8,5.7-.5,2.2-1,4.7-1.4,7.5,0,.7-.3,1.3-.6,1.6s-.8.5-1.4.5c-1,0-1.8-.4-2.4-1.2-.5-.8-.8-2.1-.8-4s0-2.9.3-4.2.4-2.6.7-3.8.5-2.4.7-3.6c.2-1.2.3-2.4.3-3.6s0-.8.4-1c.3-.3.7-.4,1.2-.4s1,0,1.5.4c.5.2,1,.7,1.4,1.3l-2.1.7c.9-1.9,2.1-3.4,3.5-4.5s2.9-1.7,4.4-1.7,3,.4,3.9,1.3c.9.8,1.7,2.2,2.2,4s.9,4.2,1.2,7.1c.2,1.7.4,3.2.8,4.4.3,1.2.7,2.3,1.1,3.1.4.8.7,1.6.9,2.2.2.6.4,1.2.4,1.7s-.2,1.1-.5,1.5-.9.5-1.6.5h-.1Z"/>
      <path class="st5" d="M923.2,552.9c-1.3,0-2.3,0-3-.4-.7-.3-1.3-.7-1.5-1.1-.3-.5-.4-1-.4-1.5s0-.7.2-1,.5-.5,1-.6c1.8-.5,3.6-.8,5.5-1s3.7-.4,5.5-.4h5.6c1.9,0,2,0,2.8.4.7.3,1.3.7,1.7,1.2s.6,1,.6,1.6,0,1-.4,1.3c-.3.3-.7.5-1.3.5-2.5,0-4.7,0-6.5.2-1.8,0-3.3.2-4.5.4-1.2,0-2.2.3-3,.4s-1.5.2-2.1.2l-.2-.2h0ZM923.5,562.3c-1,0-1.8-.4-2.5-1.1-.7-.7-1-1.8-.9-3.3v-18.3c0-.7.2-1.6.6-2.2s1.1-.8,2-.8,1.8.4,2.4,1c.6.7.9,1.8.9,3.3v18.7c0,1.5-.2,1.5-.6,1.9s-1,.6-1.7.6l-.2.2h0ZM937.8,562.2c-1,0-1.8-.3-2.4-.9s-1.1-1.6-1.4-2.9c-.3-1.3-.4-2.9-.4-5v-13.8c0-1.5.2-1.6.6-2.1s1-.7,1.8-.7,1.8.4,2.3,1.2.8,2,.8,3.7v11.9c0,.9,0,1.8.2,2.4,0,.7.2,1.3.3,1.9s.2,1.2.2,1.9-.2,1.3-.5,1.8c-.4.4-.9.7-1.5.7h0Z"/>
      <path class="st5" d="M955.1,562.3c-2.6,0-4.6-.5-6.2-1.5-1.5-1-2.7-2.5-3.4-4.4s-1-4.1-1-6.7v-7.4c0-.6,0-1-.2-1.4,0-.4,0-.7-.2-1v-1.1c0-.8.2-1.4.7-1.7.4-.4,1.1-.5,1.9-.5s1.4.2,2,.5c.6.4,1,1,1.4,1.9s.5,2.2.5,3.8v2.3c0,.8,0,1.7-.2,2.6v2.4c0,1.8.2,3.2.5,4.2s.9,1.7,1.6,2c.7.4,1.5.6,2.5.6s2.5-.4,3.2-1.3c.7-.9,1-2.3,1-4.5v-9.8c0-1.2.3-2.5.8-3.3.5-.9,1.4-1.3,2.6-1.3s1.4.2,1.8.6c.5.4.7,1,.7,1.7v1.2c0,.4,0,.9-.2,1.4v9.9c0,2.2-.3,4.1-1,5.8s-1.7,3-3.1,3.9c-1.4.9-3.2,1.4-5.4,1.4l-.3-.3h0Z"/>
      <path class="st5" d="M972,562.3c-.7,0-1.3-.2-1.8-.7s-.8-1.3-1.1-2.4c-.2-1.1-.4-2.7-.4-4.8v-2.9c0-.9,0-1.8.2-2.6s0-1.6,0-2.4v-1.7c0-.5,0-1-.2-1.4,0-.4-.2-.8-.2-1.2v-1c0-.7.2-1.2.5-1.6s.8-.6,1.6-.6,1.3.2,1.8.6c.5.4.9,1,1.2,1.6.3.7.4,1.4.5,2.1l-.9.4c.5-1.4,1.1-2.7,1.7-3.8.6-1.1,1.3-1.9,2-2.5s1.5-.9,2.3-.9,1.1.2,1.6.5.9.8,1.2,1.5.7,1.6,1,2.7c.3,1.1.6,2.4.9,4,.3,1.5.6,2.9.7,4.1.2,1.2.4,2.2.6,3.2.2.9.5,1.9,1,2.8l-2.1-1c.4-.9.7-1.9,1-3s.6-2.2,1-3.3c.3-1.1.7-2.2,1-3.3.4-1.1.8-2.1,1.2-3,.5-1,1-1.9,1.5-2.7s1.1-1.4,1.8-1.9,1.4-.7,2.3-.7,1.3,0,1.9.4c.6.3,1.1.8,1.5,1.4s.8,1.5,1.1,2.6.5,2.4.7,4c.2,1.7.4,3.4.6,5.1.2,1.6.5,3.2.8,4.7s.7,2.8,1.2,3.9c.4,1,.5,1.9,0,2.6-.4.7-1.1,1-2.2,1s-1.5-.2-2.1-.7c-.6-.4-1.1-1.1-1.6-2-.4-.7-.7-1.6-.9-2.6s-.5-2.1-.6-3.2-.3-2.3-.4-3.4c0-1.1-.2-2.1-.3-3,0-.8,0-1.5-.2-2.1s-.2-1.3-.4-1.8-.4-1.2-.7-1.7l1.8.8c-.7.8-1.2,1.8-1.7,3s-1,2.6-1.4,4.1c-.5,1.5-.9,3.2-1.5,5-.5,1.8-1.2,3.7-2,5.7-.3.7-.6,1.3-1,1.6s-.9.5-1.5.5-1.1,0-1.5-.4-.8-.7-1.1-1.2c-.7-1.2-1.3-2.6-1.7-4.2-.5-1.6-.8-3.6-1.2-5.8-.2-1.5-.4-2.8-.6-4s-.5-2.2-1-3.2h.6c-1.4,2.3-2.4,4.7-3,7.4-.5,2.7-.9,5.7-1.1,9,0,.9-.3,1.5-.7,1.9s-1,.6-1.7.6h0Z"/>
      <path class="st5" d="M1007.4,555.9c-1.2,0-2-.2-2.5-.7s-.8-1-.8-1.8.2-.9.5-1.2.8-.6,1.5-.8c2.5-.7,5.4-1.3,8.6-1.8,3.2-.5,6.9-.7,10.9-.7s2.4.2,2.9.6.8,1,.8,1.7-.4,1.6-1.1,2.2-1.7.9-3,.9-3.4,0-4.9.2c-1.5,0-2.9.2-4.1.4-1.2.2-2.4.3-3.4.5s-2,.3-2.9.4c-.9,0-1.7.2-2.4.2h0ZM1026.5,562.2c-.7,0-1.4-.2-2-.6s-1.1-1-1.7-1.9c-.5-.8-1-1.8-1.4-3.1-.4-1.2-.7-2.6-1-4-.2-1.4-.4-2.7-.6-4-.2-1.5-.3-2.7-.4-3.6,0-.9-.3-1.6-.4-2,0-.5-.3-.8-.4-.9s-.3-.2-.6-.2c-.6,0-1.2.4-1.8,1.2s-1.3,2-1.9,3.6c-.6,1.6-1.2,3.5-1.8,5.7-.5,2.2-1,4.7-1.4,7.5,0,.7-.3,1.3-.6,1.6s-.8.5-1.4.5c-1,0-1.8-.4-2.4-1.2s-.8-2.1-.8-4,0-2.9.3-4.2.4-2.6.7-3.8.5-2.4.7-3.6c.2-1.2.3-2.4.3-3.6s0-.8.4-1,.7-.4,1.2-.4,1,0,1.5.4c.5.2,1,.7,1.4,1.3l-2.1.7c.9-1.9,2.1-3.4,3.5-4.5s2.9-1.7,4.4-1.7,3,.4,3.9,1.3c.9.8,1.7,2.2,2.2,4s.9,4.2,1.2,7.1c.2,1.7.4,3.2.8,4.4.3,1.2.7,2.3,1.1,3.1s.7,1.6.9,2.2c.2.6.4,1.2.4,1.7s-.2,1.1-.5,1.5c-.4.3-.9.5-1.6.5h-.1Z"/>
      <path class="st5" d="M1034.9,562.4c-.9,0-1.5-.2-1.9-.6-.4-.4-.6-.9-.6-1.5v-1.5c0-.5.2-1.1.3-1.8,0-.7.2-1.6.3-2.8v-7.7c0-1.1,0-2.2-.2-3.2s0-1.9-.2-2.6v-1.5c0-.7.2-1.3.7-1.8.4-.5,1.1-.7,1.9-.7s2,.3,2.9.8,1.7,1.2,2.5,2.1c.8.9,1.5,1.9,2.2,3s1.3,2.3,1.9,3.5,1.2,2.4,1.8,3.6,1.1,2.3,1.7,3.3c.5,1,1.1,1.9,1.7,2.6s1.1,1.3,1.7,1.6l-3,1.4c.3-.2.6-.5.9-.8s.6-.8.8-1.4c.2-.6.3-1.4.3-2.5v-4.1c0-1.3-.2-2.5-.2-3.7v-3.5c0-1.1.2-2.3.5-3.5.2-.9.5-1.5.9-1.8s.8-.6,1.4-.6c.9,0,1.5.2,2,.7s.7,1,.8,1.5v1.6c-.2,1.1-.4,2.2-.4,3.2v9.7c0,1.3,0,3.4-.3,4.7s-.7,2.5-1.4,3.3c-.7.8-1.8,1.2-3.2,1.2s-1.7-.2-2.5-.6c-.7-.4-1.4-1-2-1.8s-1.2-1.6-1.7-2.6-1.1-2.1-1.6-3.2c-.5-1.2-1.1-2.3-1.7-3.6-.6-1.2-1.2-2.4-1.9-3.6-.7-1.2-1.4-2.3-2.2-3.4l1-.2c0,.9.2,1.8.3,2.5v3.8c0,2.2,0,4.3-.3,6.1-.2,1.8-.5,3.4-.9,4.7-.2.6-.5,1.1-.9,1.4-.4.3-1,.5-1.8.5v-.2h.4,0Z"/>
      <path class="st5" d="M1067.8,553.7c-.8,0-1.6-.2-2.2-.6-.6-.4-1.1-.9-1.5-1.5s-.5-1.3-.5-2,0-.8.2-1.1c0-.3.3-.7.6-1.1.3-.4.7-.8,1.2-1.1.5-.4,1.2-.8,2-1.2s1.4-.7,1.7-1c.4-.3.6-.5.7-.7s.2-.4.2-.6c0-.4-.2-.7-.6-.9s-1.2-.3-2.2-.3-2.1,0-2.7.3c-.7.2-1.3.4-1.8.6-.5.2-1,.3-1.5.3s-1.3-.2-1.8-.7c-.5-.4-.8-1.1-.8-2s0-1.1.4-1.5.6-.7,1.2-1c.9-.5,2-.8,3.3-1.1s2.5-.4,3.5-.4c1.9,0,3.6.3,4.9.8s2.3,1.2,2.9,2.2c.7.9,1,2.1,1,3.4s-.2,1.6-.5,2.3-.8,1.3-1.4,1.8-1.3,1-2.1,1.4c-.8.4-1.5.8-1.9,1s-.7.5-.9.6c0,.2-.2.3-.2.5v.4s.2.2.3.4c0,0,.2.3.3.5v.6c0,.4-.2.8-.5,1.1-.3.4-.8.5-1.5.5h.2ZM1067.4,562.3c-1.1,0-2-.3-2.7-.8s-1-1.3-1-2.2.3-1.7.8-2.2,1.2-.7,2.1-.7c1.4,0,2.4.3,3,1s.9,1.4.9,2.3-.3,1.4-.8,1.9-1.3.7-2.3.7Z"/>
    </g>
    <g>
      <path class="st5" d="M709.9,555.9c-1.2,0-2-.2-2.5-.7s-.8-1-.8-1.8.2-.9.5-1.2.8-.6,1.5-.8c2.5-.7,5.4-1.3,8.6-1.8,3.2-.5,6.9-.7,10.9-.7s2.4.2,2.9.6.8,1,.8,1.7-.4,1.6-1.1,2.2-1.7.9-3,.9-3.4,0-4.9.2c-1.5,0-2.9.2-4.1.4-1.2.2-2.4.3-3.4.5s-2,.3-2.9.4c-.9,0-1.7.2-2.4.2h0ZM729,562.2c-.7,0-1.4-.2-2-.6s-1.1-1-1.7-1.9c-.5-.8-1-1.8-1.4-3.1-.4-1.2-.7-2.6-1-4-.2-1.4-.4-2.7-.6-4-.2-1.5-.3-2.7-.4-3.6,0-.9-.3-1.6-.4-2,0-.5-.3-.8-.4-.9s-.3-.2-.6-.2c-.6,0-1.2.4-1.8,1.2s-1.3,2-1.9,3.6c-.6,1.6-1.2,3.5-1.8,5.7-.5,2.2-1,4.7-1.4,7.5,0,.7-.3,1.3-.6,1.6s-.8.5-1.4.5c-1,0-1.8-.4-2.4-1.2s-.8-2.1-.8-4,0-2.9.3-4.2.4-2.6.7-3.8.5-2.4.7-3.6c.2-1.2.3-2.4.3-3.6s0-.8.4-1,.7-.4,1.2-.4,1,0,1.5.4c.5.2,1,.7,1.4,1.3l-2.1.7c.9-1.9,2.1-3.4,3.5-4.5s2.9-1.7,4.4-1.7,3,.4,3.9,1.3c.9.8,1.7,2.2,2.2,4s.9,4.2,1.2,7.1c.2,1.7.4,3.2.8,4.4.3,1.2.7,2.3,1.1,3.1s.7,1.6.9,2.2c.2.6.4,1.2.4,1.7s-.2,1.1-.5,1.5c-.4.3-.9.5-1.6.5h-.1Z"/>
      <path class="st5" d="M738.1,562.3c-.9,0-1.7-.4-2.4-1.2s-1-2-1-3.6,0-2.1.4-3.3c.3-1.2.8-2.6,1.4-4.1,0-1.2,0-2.3-.2-3.2s-.4-1.9-.6-2.8c-.3-.9-.6-2-.9-3-.3-.9-.2-1.7,0-2.2s1-.8,2-.8,2.1.4,2.8,1.2,1.2,2.3,1.6,4.4h-1c.9-1.5,1.9-2.8,3-3.8s2.3-1.8,3.6-2.4c1.3-.6,2.7-.8,4.1-.8s2.1.2,2.8.5c.8.3,1.4.8,1.9,1.3.5.6.9,1.2,1.1,2,.2.8.4,1.6.4,2.5s-.2,2.2-.7,3.2-1.2,2-2.1,2.9c-.9.9-2.1,1.8-3.4,2.5-1.4.8-2.9,1.4-4.7,2,1.4.8,2.9,1.5,4.4,2.1,1.6.6,3.2,1.2,4.8,1.6,1.1.3,1.9.6,2.3.9.4.3.6.8.6,1.3,0,.9-.3,1.5-.9,2-.6.5-1.5.7-2.6.7s-1.5,0-2.5-.4c-1.1-.3-2.2-.7-3.5-1.2-1.2-.5-2.5-1.1-3.7-1.8s-2.3-1.4-3.3-2.1c-1-.7-1.8-1.5-2.4-2.2-.3-.4-.4-.8-.4-1.4s0-1.1.4-1.6.6-.8,1.1-.9c2.1-.5,3.9-1.1,5.3-1.8s2.6-1.4,3.5-2.1c.9-.7,1.5-1.4,1.9-2s.6-1.2.6-1.6,0-.7-.3-.9c-.2-.2-.5-.3-1-.3s-.9,0-1.5.4c-.6.2-1.3.6-2.1,1.2-.8.5-1.5,1.3-2.3,2.2s-1.5,2-2.1,3.3-1.1,2.8-1.5,4.6-.6,3.8-.6,6,0,1.2-.3,1.6c-.2.4-.4.7-.8.9-.3.2-.8.3-1.3.3h.1Z"/>
      <path class="st5" d="M764.3,543.1c-1.2,0-2.1-.3-2.8-.8-.6-.5-1-1.2-1-2s0-.8.3-1.1c.2-.4.7-.7,1.4-.8,1.5-.4,3.2-.7,4.9-1,1.8-.2,3.4-.4,5-.6,1.6,0,2.9-.2,4-.2,1.6,0,2.7.3,3.4.8s1,1.2,1,2.1-.2,1.2-.6,1.7c-.4.5-1,.7-1.8.7-1.5,0-3,0-4.5.2-1.4,0-2.8.3-4,.5s-2.3.3-3.3.4c-.9,0-1.7.2-2.2.2h.2,0ZM771.4,562.1c-2.3,0-4.3-.5-5.8-1.4s-2.7-2.3-3.5-3.9c-.8-1.6-1.2-3.4-1.2-5.4s0-2.6.4-4.1c.3-1.5.7-3,1.2-4.4.3-.9.7-1.6,1.4-2.2.6-.5,1.3-.8,2.2-.8s.8,0,1.2.2c.3.2.6.4.7.7.2.3.2.7.2,1.2s-.4,1.4-.6,2.4c-.3,1-.5,2-.8,3.2-.2,1.2-.3,2.4-.3,3.7s.2,1.9.6,2.7,1,1.4,1.7,1.9,1.6.7,2.6.7,1.9,0,2.7-.2c.8,0,1.4-.3,2-.4s1.1-.3,1.5-.5.8-.2,1.1-.2c.7,0,1.2.2,1.5.5s.5.8.5,1.5-.4,1.8-1.1,2.5c-.7.7-1.8,1.3-3.1,1.6-1.4.4-3,.6-5,.6h-.1ZM765.4,553h-1.3c-.3-.2-.5-.5-.6-1,0-.4-.2-.9-.2-1.4s.2-1.2.7-1.7,1-.8,1.7-1c.6,0,1.3-.3,2-.4.7,0,1.5-.2,2.3-.3s1.7-.2,2.6-.3c.9,0,2,0,3-.2,1,0,1.7.2,2.2.6.4.4.6.9.6,1.5,0,1-.3,1.7-.9,2.2-.6.5-1.4.8-2.3.9-1.5,0-2.8.2-4,.3s-2.2.3-3.1.4c-.9.2-1.8.3-2.6.5h-.1Z"/>
      <path class="st5" d="M804.8,552.8c-.4,0-.8,0-1.1-.3-.3-.2-.6-.5-.8-.9-.8-1.4-1.5-2.5-2.2-3.3-.6-.9-1.2-1.6-1.6-2.2-.5-.6-1-1.2-1.4-1.7s-1-1.3-1.6-2.1c-.4-.5-.6-1-.8-1.5s-.3-1-.3-1.7.2-1.4.6-1.9c.4-.5.9-.7,1.5-.7s1,0,1.4.3c.4.2.9.6,1.3,1.3.5.9,1,1.7,1.4,2.3.5.6.9,1.2,1.3,1.7.4.5.8,1.1,1.2,1.6.4.6.9,1.2,1.3,1.9.5.7,1,1.6,1.5,2.7.2.4.3.8.3,1.3s0,1-.2,1.4c-.2.5-.4.8-.7,1.1s-.7.4-1.2.4v.3h0ZM802.3,562.4c-1,0-1.8-.4-2.2-1.3-.4-.9-.5-2.1-.2-3.5.3-1.5.8-3.2,1.5-5s1.5-3.6,2.5-5.4c1-1.8,2.2-3.6,3.4-5.2,1.3-1.7,2.7-3.1,4.1-4.3.5-.4,1-.7,1.3-.9s.7-.2,1-.2c.7,0,1.2.2,1.6.7.4.5.6,1.1.6,2v1.1c0,.3-.3.7-.5,1.1-.2.4-.6.8-1.1,1.2-1.7,1.5-3.2,3.2-4.4,5.2-1.3,1.9-2.3,3.9-3.2,6s-1.5,4.2-1.9,6.2c-.2.9-.5,1.5-.9,1.9-.4.3-.9.5-1.5.5h0Z"/>
      <path class="st5" d="M827.1,562.2c-1.6,0-3.1-.2-4.4-.7-1.3-.5-2.5-1.2-3.5-2.2-1-.9-1.8-2.1-2.3-3.4-.5-1.3-.8-2.8-.8-4.4s.2-2.7.6-4c.4-1.2,1-2.3,1.6-3.3.7-1,1.4-1.8,2.1-2.5.8-.7,1.5-1.2,2.2-1.6.7-.4,1.2-.6,1.7-.6s.9,0,1.3.2.6.4.9.9c.5.7.6,1.3.4,1.8-.2.6-.6,1-1.2,1.4-1,.7-1.8,1.4-2.4,2.2-.6.7-1.1,1.6-1.4,2.4-.3.9-.4,1.8-.4,2.9s.2,2.1.7,2.9c.5.8,1.1,1.4,2,1.9.9.4,1.8.7,2.9.7s2.3-.3,3.3-.8,1.8-1.2,2.4-2.1c.6-.9.9-1.9.9-3s-.2-2.2-.5-3.3-.7-2.1-1.3-3c-.5-.9-1.1-1.6-1.8-2.2-.7-.5-1.4-.8-2.2-.8s-.5,0-.6.3-.2.5-.2.8c0,.5,0,.9-.4,1.2s-.6.4-1.1.4-1.1-.2-1.6-.5-.9-.8-1.3-1.4c-.3-.6-.5-1.4-.5-2.3s.2-1.3.6-1.9c.4-.6,1-1.1,1.7-1.4.7-.4,1.7-.6,2.7-.6,1.8,0,3.4.4,4.8,1.2,1.4.8,2.7,1.9,3.8,3.3,1.1,1.4,1.9,2.9,2.4,4.7.6,1.7.9,3.5.9,5.4s-.3,3-.9,4.4c-.6,1.3-1.5,2.5-2.6,3.5s-2.4,1.8-3.9,2.3c-1.5.6-3,.8-4.7.8v.4h0Z"/>
      <path class="st5" d="M853.6,562.3c-2.6,0-4.6-.5-6.2-1.5-1.5-1-2.7-2.5-3.4-4.4s-1-4.1-1-6.7v-7.4c0-.5,0-1-.2-1.4,0-.4,0-.7-.2-1v-1.1c0-.8.2-1.4.7-1.7.4-.4,1.1-.5,1.9-.5s1.4.2,2,.5c.6.4,1,1,1.4,1.9s.5,2.2.5,3.8v2.3c0,.9,0,1.7-.2,2.6v2.4c0,1.8.2,3.2.5,4.2.4,1,.9,1.7,1.6,2,.7.4,1.5.6,2.5.6s2.5-.4,3.2-1.3c.7-.9,1-2.3,1-4.5v-9.8c0-1.2.3-2.5.8-3.3s1.4-1.3,2.6-1.3,1.4.2,1.8.6c.5.4.7,1,.7,1.7v1.2c0,.4,0,.9-.2,1.4v9.9c0,2.2-.3,4.1-1,5.8s-1.7,3-3.1,3.9c-1.4.9-3.2,1.4-5.4,1.4l-.3-.3h0Z"/>
      <path class="st5" d="M881.6,555.9c-1.2,0-2-.2-2.5-.7s-.8-1-.8-1.8.2-.9.5-1.2.8-.6,1.5-.8c2.5-.7,5.4-1.3,8.6-1.8,3.2-.5,6.9-.7,10.9-.7s2.4.2,2.9.6c.5.4.8,1,.8,1.7s-.4,1.6-1.1,2.2c-.7.6-1.7.9-3,.9s-3.4,0-4.9.2c-1.5,0-2.9.2-4.1.4-1.2.2-2.4.3-3.4.5s-2,.3-2.9.4c-.9,0-1.7.2-2.4.2h0ZM900.8,562.2c-.7,0-1.4-.2-2-.6s-1.1-1-1.7-1.9c-.5-.8-1-1.8-1.4-3.1-.4-1.2-.7-2.6-1-4-.2-1.4-.4-2.7-.6-4-.2-1.5-.3-2.7-.4-3.6,0-.9-.3-1.6-.4-2,0-.5-.3-.8-.4-.9-.2-.2-.3-.2-.6-.2-.6,0-1.2.4-1.8,1.2s-1.3,2-1.9,3.6c-.6,1.6-1.2,3.5-1.8,5.7-.5,2.2-1,4.7-1.4,7.5,0,.7-.3,1.3-.6,1.6s-.8.5-1.4.5c-1,0-1.8-.4-2.4-1.2-.5-.8-.8-2.1-.8-4s0-2.9.3-4.2.4-2.6.7-3.8.5-2.4.7-3.6c.2-1.2.3-2.4.3-3.6s0-.8.4-1c.3-.3.7-.4,1.2-.4s1,0,1.5.4c.5.2,1,.7,1.4,1.3l-2.1.7c.9-1.9,2.1-3.4,3.5-4.5s2.9-1.7,4.4-1.7,3,.4,3.9,1.3c.9.8,1.7,2.2,2.2,4s.9,4.2,1.2,7.1c.2,1.7.4,3.2.8,4.4.3,1.2.7,2.3,1.1,3.1.4.8.7,1.6.9,2.2.2.6.4,1.2.4,1.7s-.2,1.1-.5,1.5-.9.5-1.6.5h-.1Z"/>
      <path class="st5" d="M923.2,552.9c-1.3,0-2.3,0-3-.4-.7-.3-1.3-.7-1.5-1.1-.3-.5-.4-1-.4-1.5s0-.7.2-1,.5-.5,1-.6c1.8-.5,3.6-.8,5.5-1s3.7-.4,5.5-.4h5.6c1.9,0,2,0,2.8.4.7.3,1.3.7,1.7,1.2s.6,1,.6,1.6,0,1-.4,1.3c-.3.3-.7.5-1.3.5-2.5,0-4.7,0-6.5.2-1.8,0-3.3.2-4.5.4-1.2,0-2.2.3-3,.4s-1.5.2-2.1.2l-.2-.2h0ZM923.5,562.3c-1,0-1.8-.4-2.5-1.1-.7-.7-1-1.8-.9-3.3v-18.3c0-.7.2-1.6.6-2.2s1.1-.8,2-.8,1.8.4,2.4,1c.6.7.9,1.8.9,3.3v18.7c0,1.5-.2,1.5-.6,1.9s-1,.6-1.7.6l-.2.2h0ZM937.8,562.2c-1,0-1.8-.3-2.4-.9s-1.1-1.6-1.4-2.9c-.3-1.3-.4-2.9-.4-5v-13.8c0-1.5.2-1.6.6-2.1s1-.7,1.8-.7,1.8.4,2.3,1.2.8,2,.8,3.7v11.9c0,.9,0,1.8.2,2.4,0,.7.2,1.3.3,1.9s.2,1.2.2,1.9-.2,1.3-.5,1.8c-.4.4-.9.7-1.5.7h0Z"/>
      <path class="st5" d="M955.1,562.3c-2.6,0-4.6-.5-6.2-1.5-1.5-1-2.7-2.5-3.4-4.4s-1-4.1-1-6.7v-7.4c0-.6,0-1-.2-1.4,0-.4,0-.7-.2-1v-1.1c0-.8.2-1.4.7-1.7.4-.4,1.1-.5,1.9-.5s1.4.2,2,.5c.6.4,1,1,1.4,1.9s.5,2.2.5,3.8v2.3c0,.8,0,1.7-.2,2.6v2.4c0,1.8.2,3.2.5,4.2s.9,1.7,1.6,2c.7.4,1.5.6,2.5.6s2.5-.4,3.2-1.3c.7-.9,1-2.3,1-4.5v-9.8c0-1.2.3-2.5.8-3.3.5-.9,1.4-1.3,2.6-1.3s1.4.2,1.8.6c.5.4.7,1,.7,1.7v1.2c0,.4,0,.9-.2,1.4v9.9c0,2.2-.3,4.1-1,5.8s-1.7,3-3.1,3.9c-1.4.9-3.2,1.4-5.4,1.4l-.3-.3h0Z"/>
      <path class="st5" d="M972,562.3c-.7,0-1.3-.2-1.8-.7s-.8-1.3-1.1-2.4c-.2-1.1-.4-2.7-.4-4.8v-2.9c0-.9,0-1.8.2-2.6s0-1.6,0-2.4v-1.7c0-.5,0-1-.2-1.4,0-.4-.2-.8-.2-1.2v-1c0-.7.2-1.2.5-1.6s.8-.6,1.6-.6,1.3.2,1.8.6c.5.4.9,1,1.2,1.6.3.7.4,1.4.5,2.1l-.9.4c.5-1.4,1.1-2.7,1.7-3.8.6-1.1,1.3-1.9,2-2.5s1.5-.9,2.3-.9,1.1.2,1.6.5.9.8,1.2,1.5.7,1.6,1,2.7c.3,1.1.6,2.4.9,4,.3,1.5.6,2.9.7,4.1.2,1.2.4,2.2.6,3.2.2.9.5,1.9,1,2.8l-2.1-1c.4-.9.7-1.9,1-3s.6-2.2,1-3.3c.3-1.1.7-2.2,1-3.3.4-1.1.8-2.1,1.2-3,.5-1,1-1.9,1.5-2.7s1.1-1.4,1.8-1.9,1.4-.7,2.3-.7,1.3,0,1.9.4c.6.3,1.1.8,1.5,1.4s.8,1.5,1.1,2.6.5,2.4.7,4c.2,1.7.4,3.4.6,5.1.2,1.6.5,3.2.8,4.7s.7,2.8,1.2,3.9c.4,1,.5,1.9,0,2.6-.4.7-1.1,1-2.2,1s-1.5-.2-2.1-.7c-.6-.4-1.1-1.1-1.6-2-.4-.7-.7-1.6-.9-2.6s-.5-2.1-.6-3.2-.3-2.3-.4-3.4c0-1.1-.2-2.1-.3-3,0-.8,0-1.5-.2-2.1s-.2-1.3-.4-1.8-.4-1.2-.7-1.7l1.8.8c-.7.8-1.2,1.8-1.7,3s-1,2.6-1.4,4.1c-.5,1.5-.9,3.2-1.5,5-.5,1.8-1.2,3.7-2,5.7-.3.7-.6,1.3-1,1.6s-.9.5-1.5.5-1.1,0-1.5-.4-.8-.7-1.1-1.2c-.7-1.2-1.3-2.6-1.7-4.2-.5-1.6-.8-3.6-1.2-5.8-.2-1.5-.4-2.8-.6-4s-.5-2.2-1-3.2h.6c-1.4,2.3-2.4,4.7-3,7.4-.5,2.7-.9,5.7-1.1,9,0,.9-.3,1.5-.7,1.9s-1,.6-1.7.6h0Z"/>
      <path class="st5" d="M1007.4,555.9c-1.2,0-2-.2-2.5-.7s-.8-1-.8-1.8.2-.9.5-1.2.8-.6,1.5-.8c2.5-.7,5.4-1.3,8.6-1.8,3.2-.5,6.9-.7,10.9-.7s2.4.2,2.9.6.8,1,.8,1.7-.4,1.6-1.1,2.2-1.7.9-3,.9-3.4,0-4.9.2c-1.5,0-2.9.2-4.1.4-1.2.2-2.4.3-3.4.5s-2,.3-2.9.4c-.9,0-1.7.2-2.4.2h0ZM1026.5,562.2c-.7,0-1.4-.2-2-.6s-1.1-1-1.7-1.9c-.5-.8-1-1.8-1.4-3.1-.4-1.2-.7-2.6-1-4-.2-1.4-.4-2.7-.6-4-.2-1.5-.3-2.7-.4-3.6,0-.9-.3-1.6-.4-2,0-.5-.3-.8-.4-.9s-.3-.2-.6-.2c-.6,0-1.2.4-1.8,1.2s-1.3,2-1.9,3.6c-.6,1.6-1.2,3.5-1.8,5.7-.5,2.2-1,4.7-1.4,7.5,0,.7-.3,1.3-.6,1.6s-.8.5-1.4.5c-1,0-1.8-.4-2.4-1.2s-.8-2.1-.8-4,0-2.9.3-4.2.4-2.6.7-3.8.5-2.4.7-3.6c.2-1.2.3-2.4.3-3.6s0-.8.4-1,.7-.4,1.2-.4,1,0,1.5.4c.5.2,1,.7,1.4,1.3l-2.1.7c.9-1.9,2.1-3.4,3.5-4.5s2.9-1.7,4.4-1.7,3,.4,3.9,1.3c.9.8,1.7,2.2,2.2,4s.9,4.2,1.2,7.1c.2,1.7.4,3.2.8,4.4.3,1.2.7,2.3,1.1,3.1s.7,1.6.9,2.2c.2.6.4,1.2.4,1.7s-.2,1.1-.5,1.5c-.4.3-.9.5-1.6.5h-.1Z"/>
      <path class="st5" d="M1034.9,562.4c-.9,0-1.5-.2-1.9-.6-.4-.4-.6-.9-.6-1.5v-1.5c0-.5.2-1.1.3-1.8,0-.7.2-1.6.3-2.8v-7.7c0-1.1,0-2.2-.2-3.2s0-1.9-.2-2.6v-1.5c0-.7.2-1.3.7-1.8.4-.5,1.1-.7,1.9-.7s2,.3,2.9.8,1.7,1.2,2.5,2.1c.8.9,1.5,1.9,2.2,3s1.3,2.3,1.9,3.5,1.2,2.4,1.8,3.6,1.1,2.3,1.7,3.3c.5,1,1.1,1.9,1.7,2.6s1.1,1.3,1.7,1.6l-3,1.4c.3-.2.6-.5.9-.8s.6-.8.8-1.4c.2-.6.3-1.4.3-2.5v-4.1c0-1.3-.2-2.5-.2-3.7v-3.5c0-1.1.2-2.3.5-3.5.2-.9.5-1.5.9-1.8s.8-.6,1.4-.6c.9,0,1.5.2,2,.7s.7,1,.8,1.5v1.6c-.2,1.1-.4,2.2-.4,3.2v9.7c0,1.3,0,3.4-.3,4.7s-.7,2.5-1.4,3.3c-.7.8-1.8,1.2-3.2,1.2s-1.7-.2-2.5-.6c-.7-.4-1.4-1-2-1.8s-1.2-1.6-1.7-2.6-1.1-2.1-1.6-3.2c-.5-1.2-1.1-2.3-1.7-3.6-.6-1.2-1.2-2.4-1.9-3.6-.7-1.2-1.4-2.3-2.2-3.4l1-.2c0,.9.2,1.8.3,2.5v3.8c0,2.2,0,4.3-.3,6.1-.2,1.8-.5,3.4-.9,4.7-.2.6-.5,1.1-.9,1.4-.4.3-1,.5-1.8.5v-.2h.4,0Z"/>
      <path class="st5" d="M1067.8,553.7c-.8,0-1.6-.2-2.2-.6-.6-.4-1.1-.9-1.5-1.5s-.5-1.3-.5-2,0-.8.2-1.1c0-.3.3-.7.6-1.1.3-.4.7-.8,1.2-1.1.5-.4,1.2-.8,2-1.2s1.4-.7,1.7-1c.4-.3.6-.5.7-.7s.2-.4.2-.6c0-.4-.2-.7-.6-.9s-1.2-.3-2.2-.3-2.1,0-2.7.3c-.7.2-1.3.4-1.8.6-.5.2-1,.3-1.5.3s-1.3-.2-1.8-.7c-.5-.4-.8-1.1-.8-2s0-1.1.4-1.5.6-.7,1.2-1c.9-.5,2-.8,3.3-1.1s2.5-.4,3.5-.4c1.9,0,3.6.3,4.9.8s2.3,1.2,2.9,2.2c.7.9,1,2.1,1,3.4s-.2,1.6-.5,2.3-.8,1.3-1.4,1.8-1.3,1-2.1,1.4c-.8.4-1.5.8-1.9,1s-.7.5-.9.6c0,.2-.2.3-.2.5v.4s.2.2.3.4c0,0,.2.3.3.5v.6c0,.4-.2.8-.5,1.1-.3.4-.8.5-1.5.5h.2ZM1067.4,562.3c-1.1,0-2-.3-2.7-.8s-1-1.3-1-2.2.3-1.7.8-2.2,1.2-.7,2.1-.7c1.4,0,2.4.3,3,1s.9,1.4.9,2.3-.3,1.4-.8,1.9-1.3.7-2.3.7Z"/>
    </g>
  </g>
  <path id="demo-checkmark" class="st3" d="M1178.9,532.6c2,3.3,13.1,28,25.2,17.8,16.1-13.6,44.1-40.8,44.1-40.8,0,0,6-8.1,7,4.1,1,12.2-39.3,45.3-51.1,54.2-11.8,8.9-21.1,10.3-27.5-3.7-6.4-14.1-10.7-20.8-8.2-27.4,2.5-6.6,8.5-7.5,10.5-4.3h0Z"/>
  <path id="demo-eye_x5F_R" class="st4" d="M1095.8,471.4c-10.6,2.3-25.7,1.9-43.3,1.6-25.8-1.5-54.7,1.9-75-6.8-10.1-5-11.1-15.4-2.3-21,18.6-9.7,40.9-5.2,67.9-5.7,28.3.6,52.7.3,63.3,7.8,11.7,7.7,5.6,20.9-9.6,23.8l-1,.2h0Z"/>
  <path id="demo-eye_x5F_L" class="st4" d="M824,470.7c10.6,2.5,25.7,2.3,43.3,2.2,25.8-1.1,54.7,2.6,75.1-5.9,10.2-4.9,11.4-15.3,2.7-21-18.4-9.9-40.8-5.8-67.8-6.5-28.3.2-52.7-.3-63.5,7-11.8,7.5-6,20.9,9.2,23.9l1,.2h0Z"/>
  <path id="demo-smile" class="st2" d="M954.8,481.7s8.4,1.7,8.4-2.9"/>
  <g id="demo-pupils_x5F_mask">
    <g class="st7">
      <g>
        <ellipse id="pupil_x5F_L" class="st6" cx="925.4" cy="466.9" rx="18.9" ry="17.6"/>
        <ellipse id="pupil_x5F_R" class="st6" cx="1088.3" cy="466.9" rx="18.9" ry="17.6"/>
      </g>
    </g>
  </g>
</svg>