<?xml version="1.0" encoding="UTF-8"?>
<svg id="loading" xmlns="http://www.w3.org/2000/svg" xmlns:xlink="http://www.w3.org/1999/xlink" version="1.1" viewBox="0 0 1920 1080">
  <!-- Generator: Adobe Illustrator 30.4.0, SVG Export Plug-In . SVG Version: 2.1.4 Build 226)  -->
  <defs>
    <style>
      .st0, .st1, .st2 {
        fill: none;
      }

      .st1, .st2, .st3 {
        stroke: #ff007a;
        stroke-miterlimit: 10;
        stroke-width: 5.4px;
      }

      .st4 {
        fill: #ffa4f6;
      }

      .st2 {
        stroke-linecap: round;
      }

      .st5 {
        fill: #ff007a;
      }

      .st3 {
        fill: #fff;
      }

      .st6 {
        clip-path: url(#clippath);
      }
    </style>
    <clipPath id="clippath">
      <path id="loading-pupils_x5F_mask" class="st0" d="M1073.9,528.3c-8.9,1.3-21.6,1.1-36.3.9-21.7-.8-45.9,1.1-63-3.9-8.5-2.8-9.3-8.7-1.9-11.8,15.6-5.5,34.3-3,57-3.2,23.7.3,44.2.2,53.2,4.4,9.8,4.3,4.7,11.8-8.1,13.4h-.9ZM845.9,527.9c8.9,1.4,21.6,1.3,36.3,1.2,21.7-.6,45.9,1.5,63-3.3,8.6-2.7,9.5-8.6,2.2-11.8-15.5-5.6-34.2-3.3-56.9-3.7-23.7.1-44.2-.2-53.3,4-9.9,4.3-5,11.8,7.7,13.5h.9Z"/>
    </clipPath>
  </defs>

  <path id="loading-body" class="st1" d="M1455,470.5c.8,0,2.5,0,4.5.7,4.9,1.8,7.9,6.5,8.6,10.2,5.9,30.8,7,91.4-1.1,116.6-2.1,6.5-11.6,9.2-23.1,10.2-13.6,1.3-912.2.3-922.3.9-19,1.1-21.6-.5-37.3,0,0,0-5.9.2-13.9-1-4-.6-5.9-1.2-7.6-2-.9-.4-5-2.5-7.9-6.7-3.1-4.6-3.1-9.4-3.1-12.5-.1-8.3-1.9-16.6-2.4-24.9-.9-16.1-5.1-71.1.7-79,7.3-10.1,8.9-11.8,46.2-12.2,16.9-.2,923.3,0,958.6-.3Z"/>
  <path id="loading-progress_x5F_start" class="st4" d="M472.4,595.3c-1.9-.3-3.2-.5-3.7-.8h-.1c-.6-.4-1.9-1.2-2.7-2.3-.8-1.2-.9-2.7-.9-5.1,0-5.6-.7-10.6-1.3-15.5-.5-3.6-.9-7-1-10.3l-.4-7.2c-2.2-35.6-2.4-56.4-.8-63.7v-.6c.1,0,.5-.5.5-.5,1.3-1.8,1.8-2.3,2.3-2.7,1.8-1.6,22.6-2.9,28.7-3h2.5s.4,2.5.4,2.5c4.9,28.2,5.9,81.4-.3,105.1l-.4,1.6-1.5.5c-1.7.6-5,1.4-10.7,1.9-7.3.7-5.4.7-10.5,0Z"/>
  <path id="loading-progress_x5F_end" class="st4" d="M472.4,595.3c-1.9-.3-3.2-.5-3.7-.8h-.1c-.6-.4-1.9-1.2-2.7-2.3-.8-1.2-.9-2.7-.9-5.1,0-5.6-.7-10.6-1.3-15.5-.5-3.6-.9-7-1-10.3l-.4-7.2c-2.2-35.6-2.4-56.4-.8-63.7v-.6c.1,0,.5-.5.5-.5,1.3-1.8,1.8-2.3,2.3-2.7,1.8-1.6,982.3-2.9,988.4-3h2.5s.4,2.5.4,2.5c4.9,28.2,5.9,81.4-.3,105.1l-.4,1.6-1.5.5c-1.7.6-5,1.4-10.7,1.9-7.3.7-965,.7-970.2,0Z"/>
  <path id="loading-eye_x5F_R" class="st3" d="M1073.9,528.3c-8.9,1.3-21.6,1.1-36.3.9-21.7-.8-45.9,1.1-63-3.9-8.5-2.8-9.3-8.7-1.9-11.8,15.6-5.5,34.3-3,57-3.2,23.7.3,44.2.2,53.2,4.4,9.8,4.3,4.7,11.8-8.1,13.4h-.9Z"/>
  <path id="loading-eye_x5F_L" class="st3" d="M845.9,527.9c8.9,1.4,21.6,1.3,36.3,1.2,21.7-.6,45.9,1.5,63-3.3,8.6-2.7,9.5-8.6,2.2-11.8-15.5-5.6-34.2-3.3-56.9-3.7-23.7.1-44.2-.2-53.3,4-9.9,4.3-5,11.8,7.7,13.5h.9Z"/>
  <path class="st2" d="M970.5,540.2s-7.2-1.1-9.4-1.3c-8.8-.5-13.7,1.2-14.3,1.7"/>
  <g class="st6">
    <g id="pupil_x5F_R">
      <path class="st5" d="M997.7,535.3c8.3.6,21.1-4.1,21.9-14.3.8-10.2-11.5-16.2-20.7-16.9-9.1-.7-19.1,4.4-19.9,15.1-.8,10.6,10.4,15.5,18.7,16.1Z"/>
      <path class="st5" d="M997.7,535.3c8.3.6,21.1-4.1,21.9-14.3.8-10.2-11.5-16.2-20.7-16.9-9.1-.7-19.1,4.4-19.9,15.1-.8,10.6,10.4,15.5,18.7,16.1Z"/>
    </g>
    <g id="pupil_x5F_L">
      <path class="st5" d="M916.2,538.1c8.3.6,21.2-5.1,22.1-17.3.9-12.1-11.3-19-20.5-19.7-9.1-.7-19.2,5.5-20.2,18.2-.9,12.6,10.2,18.2,18.5,18.8Z"/>
      <path class="st5" d="M916.2,538.1c8.3.6,21.2-5.1,22.1-17.3.9-12.1-11.3-19-20.5-19.7-9.1-.7-19.2,5.5-20.2,18.2-.9,12.6,10.2,18.2,18.5,18.8Z"/>
    </g>
  </g>
</svg>