<?xml version="1.0" encoding="UTF-8"?>
<svg id="Layer_1" xmlns="http://www.w3.org/2000/svg" xmlns:xlink="http://www.w3.org/1999/xlink" version="1.1" viewBox="0 0 1920 1080">
  <!-- Generator: Adobe Illustrator 30.4.0, SVG Export Plug-In . SVG Version: 2.1.4 Build 226)  -->
  <defs>
    <style>
      .st0, .st1, .st2 {
        fill: none;
      }

      .st1 {
        stroke-width: 4.9px;
      }

      .st1, .st2, .st3, .st4, .st5, .st6 {
        stroke-miterlimit: 10;
      }

      .st1, .st2, .st4, .st5, .st6 {
        stroke: #ff007a;
      }

      .st2, .st3 {
        stroke-width: 5.2px;
      }

      .st7, .st3, .st4 {
        fill: #ffa4f6;
      }

      .st8 {
        fill: #e31c78;
      }

      .st3 {
        stroke: #ffa4f6;
      }

      .st9 {
        fill: #ff007a;
      }

      .st10, .st5, .st6 {
        fill: #fff;
      }

      .st4 {
        stroke-width: 5.2px;
      }

      .st5 {
        stroke-width: 5.3px;
      }

      .st6 {
        stroke-width: 5.2px;
      }

      .st11 {
        clip-path: url(#clippath);
      }
    </style>
    <clipPath id="clippath">
      <path class="st0" d="M989.6,342.9c13.1-1.1,30.1-1.5,44.4.7,6,1.1,10.8,2.7,14.5,6.2,4.1,3.7,4,9.9-.3,13.1-6.3,4.9-16.3,4.6-24.2,5.2-12.7.7-26.1,1-38.4,0-4.2-.3-8.7-.8-12.7-2.2-7.6-2.3-11.4-10.3-5.4-16.4,5.4-5.3,14.9-5.9,22-6.6h.2ZM893.5,342.9c-7,.8-16.6,1.3-22,6.6-6,6.1-2.2,14.1,5.4,16.4,3.9,1.4,8.4,1.9,12.7,2.2,12.2.9,25.6.6,38.4,0,7.9-.6,17.9-.3,24.2-5.2,4.3-3.3,4.4-9.4.3-13.1-3.7-3.5-8.5-5-14.5-6.2-14.2-2.2-31.3-1.7-44.4-.7h-.2Z"/>
    </clipPath>
  </defs>
  <path id="location-body" class="st1" d="M1355.6,359.2c.9,0,2.9,0,5.3,1.1,5.8,2.7,9.4,9.3,10.3,14.7,7,44.2,8.3,310.4-1.3,346.5-2.5,9.4-13.7,13.2-27.3,14.7-16.1,1.8-699,.4-711,1.3-22.5,1.6-25.6-.8-44.2,0,0,0-7,.3-16.5-1.4-4.8-.9-6.9-1.7-9-2.9-1-.6-5.9-3.5-9.3-9.7-3.7-6.6-3.7-13.5-3.7-17.9-.2-12-2.3-23.8-2.8-35.8-1-23.2-6-281.3.9-292.6,8.7-14.4,10.5-17,54.7-17.5,20-.2,712.2,0,754-.4Z"/>
  <path id="location-allow_x5F_button_x5F_fill" class="st3" d="M644.6,552.4c-3.4,0-6.1-.1-8.8-.2-3-.1-6-.3-9.8-.3s-3.9,0-6.3.1h-.7c-1.6,0-5.7,0-11-.9-3.3-.5-4-.8-4.5-1-.2-.1-2.2-1.1-3.5-3-1.2-1.8-1.2-4-1.3-6.2,0-4.9-.5-15.3-.8-25.3-.3-7.8-.5-15.3-.7-19.7,0-1.3.1-1.7.1-1.7,1-.9,6.6-3.6,34.4-3.8,7.6,0,78.8,0,154.1-.1,87.2,0,126.1,0,144.6-.2,0,0,.5,0,.6,0,.7.3,1.3.8,1.7,1.2v10.7c-.1,20.4-.1,27.9-1,46.7-1.7.7-5.4,1.7-13.1,2.4-7.1.6-49.6.6-88.2.6h-101.9c-50.3,0-70,0-72.9.2-4.2.3-7.9.4-11.3.4Z"/>
  <path id="location-allow_x5F_button_x5F_body" class="st2" d="M930.7,479.5c.7,0,2.4,0,4.3.7,4.7,1.8,8.5,6.3,8.4,10-.1,30.9,0,37-1.1,61.3-.3,6.7-11.3,9-22.5,10-13.2,1.2-253.5.3-263.4.9-18.5,1.1-21.1-.5-36.4,0,0,0-5.7.2-13.6-1-3.9-.6-5.7-1.1-7.4-1.9-.8-.4-4.9-2.4-7.7-6.6-3-4.5-3-9.2-3.1-12.2-.1-8.1-1.2-34.5-1.5-44.6-.3-12.1,8.5-16,44.9-16.3,16.4-.2,264.4,0,298.8-.3Z"/>
  <g id="location-allow_x5F_txt">
    <g>
      <path class="st8" d="M706.1,529.5c-1.2,0-2-.2-2.5-.6-.5-.4-.8-1-.8-1.6s.2-.8.5-1.1c.3-.3.8-.6,1.5-.8,2.5-.7,5.4-1.2,8.7-1.6,3.3-.4,6.9-.6,11-.6s2.4.2,2.9.6c.5.4.8.9.8,1.6s-.4,1.5-1.1,2c-.7.5-1.7.8-3,.8-1.8,0-3.4,0-5,.1-1.5,0-2.9.2-4.1.4-1.3.1-2.4.3-3.5.4-1,.1-2,.3-2.9.4-.9,0-1.7.1-2.4.1ZM725.3,535.3c-.7,0-1.4-.2-2-.5s-1.1-.9-1.7-1.8c-.5-.7-1-1.7-1.4-2.8s-.7-2.4-1-3.6c-.2-1.3-.4-2.5-.6-3.6-.2-1.4-.3-2.5-.4-3.3-.1-.8-.3-1.4-.4-1.9s-.3-.7-.4-.8c-.2-.1-.3-.2-.6-.2-.6,0-1.2.4-1.8,1.1s-1.3,1.9-1.9,3.3c-.6,1.5-1.2,3.2-1.8,5.2-.5,2-1,4.3-1.4,6.8,0,.7-.3,1.2-.6,1.5-.3.3-.8.5-1.4.5-1,0-1.8-.4-2.4-1.1-.5-.7-.8-1.9-.8-3.6s.1-2.7.3-3.9c.2-1.2.4-2.4.7-3.5.3-1.1.5-2.2.7-3.3.2-1.1.3-2.2.3-3.3,0-.4.1-.7.4-.9.3-.2.7-.4,1.2-.4s1,.1,1.5.3c.5.2,1,.6,1.4,1.2l-2.1.7c1-1.7,2.1-3.1,3.5-4.1s2.9-1.5,4.5-1.5,3,.4,3.9,1.2,1.7,2,2.2,3.6c.5,1.7.9,3.8,1.3,6.5.2,1.6.4,2.9.8,4,.3,1.1.7,2.1,1.1,2.8.4.8.7,1.4.9,2,.2.6.4,1.1.4,1.6s-.2,1-.5,1.4c-.4.3-.9.5-1.6.5Z"/>
      <path class="st8" d="M739.7,535.2c-1.9,0-3.5-.3-4.8-.9-1.3-.6-2.3-1.6-2.9-2.8-.6-1.3-1-2.8-1-4.7s.1-3.2.4-4.6c.3-1.4.6-2.8.9-4.2.3-1.3.4-2.6.4-3.7s.2-1.3.6-1.8c.4-.5,1-.7,1.9-.7s1.3.2,1.8.5c.5.3.8.8,1.1,1.3.2.5.4,1.1.4,1.6,0,1.1-.1,2.2-.3,3.4-.2,1.1-.4,2.2-.7,3.3-.3,1.1-.5,2-.7,2.9-.2.9-.3,1.7-.3,2.4,0,1,.3,1.8.8,2.3.5.5,1.4.8,2.6.8s1.8,0,2.4-.3c.6-.2,1.1-.4,1.5-.6.4-.2.8-.4,1.2-.6.4-.2.8-.3,1.3-.3s.9.2,1.3.6c.3.4.5.9.5,1.4s-.1,1.2-.4,1.7c-.2.5-.7,1-1.2,1.4-.8.6-1.9,1-3.1,1.2-1.2.3-2.4.4-3.6.4Z"/>
      <path class="st8" d="M758.8,535.2c-2.9,0-5-.7-6.5-2.1-1.5-1.4-2.2-3.5-2.2-6.3s.1-3.2.4-4.6c.3-1.4.6-2.8.9-4.2.3-1.3.4-2.6.4-3.7s.2-1.3.6-1.8c.4-.5,1-.7,1.9-.7s1.3.2,1.8.5c.5.3.8.8,1.1,1.3.2.5.4,1.1.4,1.6,0,1.1-.1,2.2-.3,3.4-.2,1.1-.4,2.2-.7,3.3-.3,1.1-.5,2-.7,2.9-.2.9-.3,1.7-.3,2.4,0,1,.3,1.8.8,2.3.5.5,1.4.8,2.6.8s1.8,0,2.4-.3c.6-.2,1.1-.4,1.5-.6.4-.2.8-.4,1.2-.6.4-.2.8-.3,1.3-.3s.9.2,1.3.6c.3.4.5.9.5,1.4s-.1,1.2-.4,1.7c-.2.5-.7,1-1.2,1.4-.8.6-1.9,1-3.1,1.2-1.2.3-2.4.4-3.6.4Z"/>
      <path class="st8" d="M779.8,535.2c-1.6,0-3.1-.2-4.4-.7-1.3-.5-2.5-1.1-3.5-2-1-.9-1.8-1.9-2.3-3.1-.5-1.2-.8-2.5-.8-4s.2-2.5.6-3.6c.4-1.1,1-2.1,1.6-3,.7-.9,1.4-1.7,2.1-2.3.8-.6,1.5-1.1,2.2-1.5s1.2-.5,1.7-.5.9,0,1.3.2c.3.1.6.4.9.8.5.6.6,1.2.4,1.7-.2.5-.6.9-1.2,1.3-1,.7-1.8,1.3-2.4,2-.6.7-1.1,1.4-1.4,2.2-.3.8-.4,1.7-.4,2.7s.2,1.9.7,2.7c.5.8,1.1,1.3,2,1.7.9.4,1.8.6,2.9.6s2.3-.2,3.3-.7c1-.5,1.8-1.1,2.4-1.9.6-.8.9-1.7.9-2.7s-.2-2-.5-3-.7-1.9-1.3-2.7c-.5-.8-1.2-1.5-1.8-2-.7-.5-1.4-.8-2.2-.8s-.5,0-.6.3c-.1.2-.2.4-.2.8,0,.5-.1.8-.4,1.1-.3.2-.6.4-1.1.4s-1.1-.1-1.6-.4c-.5-.3-1-.7-1.3-1.3-.3-.6-.5-1.3-.5-2.1s.2-1.2.6-1.8c.4-.5,1-1,1.7-1.3.8-.3,1.7-.5,2.7-.5,1.8,0,3.4.4,4.9,1.1,1.5.8,2.7,1.8,3.8,3,1.1,1.3,1.9,2.7,2.5,4.3.6,1.6.9,3.2.9,5s-.3,2.8-.9,4c-.6,1.2-1.5,2.3-2.6,3.2-1.1.9-2.4,1.6-3.9,2.1-1.5.5-3,.8-4.7.8Z"/>
      <path class="st8" d="M820.2,535.3c-.5,0-1.1,0-1.5-.2-.5-.2-.9-.4-1.3-.7-.4-.3-.9-.8-1.3-1.4-.5-.6-.9-1.3-1.3-2.1-.4-.8-.7-1.6-1.1-2.5-.3-.9-.6-1.8-.9-2.7-.3-.9-.6-1.8-.9-2.6-.3-.8-.6-1.6-.9-2.3-.3-.7-.7-1.3-1.1-1.8l1.8.5c-.7.7-1.3,1.6-2,2.6-.6,1-1.2,2-1.7,3.2-.5,1.2-1,2.4-1.4,3.7-.4,1.3-.8,2.7-1.1,4-.2.7-.5,1.2-.9,1.6-.4.3-1.1.5-1.9.5s-.7,0-1.1-.2c-.4-.1-.8-.4-1.2-.8-.4-.4-.8-1-1.1-1.8-.5-1-.9-2.2-1.4-3.3-.4-1.2-.8-2.4-1.2-3.6-.4-1.2-.7-2.5-1-3.8-.3-1.3-.5-2.6-.7-3.8s-.4-2.5-.4-3.7c0-.7.1-1.2.5-1.7.4-.5,1.1-.7,2.2-.7s1.9.3,2.5,1,.9,1.5.9,2.4c0,1,.2,2,.3,3,.1,1,.3,1.9.5,2.9.2.9.4,1.9.7,2.9.3,1,.6,1.9,1,3l-1.2.4c.4-1.6.9-3.1,1.5-4.5.6-1.4,1.2-2.7,1.9-3.9.7-1.2,1.5-2.2,2.3-3.1.6-.7,1.2-1.2,1.9-1.6.7-.4,1.5-.6,2.4-.6s1.4.2,1.9.7c.6.4,1.1,1.2,1.7,2.4.4.7.7,1.6.9,2.6.3,1,.5,2,.9,3.1.3,1.1.7,2.1,1.1,3.1s.9,1.9,1.5,2.7h-1.9c.3-.8.6-1.7.9-2.7s.5-2.1.6-3.2c.2-1.1.4-2.2.6-3.3.2-1.1.4-2,.6-2.9.2-.9.4-1.6.7-2.2.3-.8.7-1.3,1.2-1.6.5-.3,1.1-.5,1.8-.5s1.2.1,1.7.4c.4.3.7.6.9,1,.2.4.3.9.2,1.5,0,.6-.1,1.1-.3,1.7-.3.9-.6,2-.8,3.1-.2,1.1-.5,2.3-.7,3.6-.2,1.2-.5,2.5-.8,3.8s-.6,2.5-.9,3.6-.7,2.2-1.1,3.2c-.3.7-.7,1.2-1.1,1.4-.4.2-.8.4-1.3.4Z"/>
    </g>
    <g>
      <path class="st10" d="M706.1,529.5c-1.2,0-2-.2-2.5-.6-.5-.4-.8-1-.8-1.6s.2-.8.5-1.1c.3-.3.8-.6,1.5-.8,2.5-.7,5.4-1.2,8.7-1.6,3.3-.4,6.9-.6,11-.6s2.4.2,2.9.6c.5.4.8.9.8,1.6s-.4,1.5-1.1,2c-.7.5-1.7.8-3,.8-1.8,0-3.4,0-5,.1-1.5,0-2.9.2-4.1.4-1.3.1-2.4.3-3.5.4-1,.1-2,.3-2.9.4-.9,0-1.7.1-2.4.1ZM725.3,535.3c-.7,0-1.4-.2-2-.5s-1.1-.9-1.7-1.8c-.5-.7-1-1.7-1.4-2.8s-.7-2.4-1-3.6c-.2-1.3-.4-2.5-.6-3.6-.2-1.4-.3-2.5-.4-3.3-.1-.8-.3-1.4-.4-1.9s-.3-.7-.4-.8c-.2-.1-.3-.2-.6-.2-.6,0-1.2.4-1.8,1.1s-1.3,1.9-1.9,3.3c-.6,1.5-1.2,3.2-1.8,5.2-.5,2-1,4.3-1.4,6.8,0,.7-.3,1.2-.6,1.5-.3.3-.8.5-1.4.5-1,0-1.8-.4-2.4-1.1-.5-.7-.8-1.9-.8-3.6s.1-2.7.3-3.9c.2-1.2.4-2.4.7-3.5.3-1.1.5-2.2.7-3.3.2-1.1.3-2.2.3-3.3,0-.4.1-.7.4-.9.3-.2.7-.4,1.2-.4s1,.1,1.5.3c.5.2,1,.6,1.4,1.2l-2.1.7c1-1.7,2.1-3.1,3.5-4.1s2.9-1.5,4.5-1.5,3,.4,3.9,1.2,1.7,2,2.2,3.6c.5,1.7.9,3.8,1.3,6.5.2,1.6.4,2.9.8,4,.3,1.1.7,2.1,1.1,2.8.4.8.7,1.4.9,2,.2.6.4,1.1.4,1.6s-.2,1-.5,1.4c-.4.3-.9.5-1.6.5Z"/>
      <path class="st10" d="M739.7,535.2c-1.9,0-3.5-.3-4.8-.9-1.3-.6-2.3-1.6-2.9-2.8-.6-1.3-1-2.8-1-4.7s.1-3.2.4-4.6c.3-1.4.6-2.8.9-4.2.3-1.3.4-2.6.4-3.7s.2-1.3.6-1.8c.4-.5,1-.7,1.9-.7s1.3.2,1.8.5c.5.3.8.8,1.1,1.3.2.5.4,1.1.4,1.6,0,1.1-.1,2.2-.3,3.4-.2,1.1-.4,2.2-.7,3.3-.3,1.1-.5,2-.7,2.9-.2.9-.3,1.7-.3,2.4,0,1,.3,1.8.8,2.3.5.5,1.4.8,2.6.8s1.8,0,2.4-.3c.6-.2,1.1-.4,1.5-.6.4-.2.8-.4,1.2-.6.4-.2.8-.3,1.3-.3s.9.2,1.3.6c.3.4.5.9.5,1.4s-.1,1.2-.4,1.7c-.2.5-.7,1-1.2,1.4-.8.6-1.9,1-3.1,1.2-1.2.3-2.4.4-3.6.4Z"/>
      <path class="st10" d="M758.8,535.2c-2.9,0-5-.7-6.5-2.1-1.5-1.4-2.2-3.5-2.2-6.3s.1-3.2.4-4.6c.3-1.4.6-2.8.9-4.2.3-1.3.4-2.6.4-3.7s.2-1.3.6-1.8c.4-.5,1-.7,1.9-.7s1.3.2,1.8.5c.5.3.8.8,1.1,1.3.2.5.4,1.1.4,1.6,0,1.1-.1,2.2-.3,3.4-.2,1.1-.4,2.2-.7,3.3-.3,1.1-.5,2-.7,2.9-.2.9-.3,1.7-.3,2.4,0,1,.3,1.8.8,2.3.5.5,1.4.8,2.6.8s1.8,0,2.4-.3c.6-.2,1.1-.4,1.5-.6.4-.2.8-.4,1.2-.6.4-.2.8-.3,1.3-.3s.9.2,1.3.6c.3.4.5.9.5,1.4s-.1,1.2-.4,1.7c-.2.5-.7,1-1.2,1.4-.8.6-1.9,1-3.1,1.2-1.2.3-2.4.4-3.6.4Z"/>
      <path class="st10" d="M779.8,535.2c-1.6,0-3.1-.2-4.4-.7-1.3-.5-2.5-1.1-3.5-2-1-.9-1.8-1.9-2.3-3.1-.5-1.2-.8-2.5-.8-4s.2-2.5.6-3.6c.4-1.1,1-2.1,1.6-3,.7-.9,1.4-1.7,2.1-2.3.8-.6,1.5-1.1,2.2-1.5s1.2-.5,1.7-.5.9,0,1.3.2c.3.1.6.4.9.8.5.6.6,1.2.4,1.7-.2.5-.6.9-1.2,1.3-1,.7-1.8,1.3-2.4,2-.6.7-1.1,1.4-1.4,2.2-.3.8-.4,1.7-.4,2.7s.2,1.9.7,2.7c.5.8,1.1,1.3,2,1.7.9.4,1.8.6,2.9.6s2.3-.2,3.3-.7c1-.5,1.8-1.1,2.4-1.9.6-.8.9-1.7.9-2.7s-.2-2-.5-3-.7-1.9-1.3-2.7c-.5-.8-1.2-1.5-1.8-2-.7-.5-1.4-.8-2.2-.8s-.5,0-.6.3c-.1.2-.2.4-.2.8,0,.5-.1.8-.4,1.1-.3.2-.6.4-1.1.4s-1.1-.1-1.6-.4c-.5-.3-1-.7-1.3-1.3-.3-.6-.5-1.3-.5-2.1s.2-1.2.6-1.8c.4-.5,1-1,1.7-1.3.8-.3,1.7-.5,2.7-.5,1.8,0,3.4.4,4.9,1.1,1.5.8,2.7,1.8,3.8,3,1.1,1.3,1.9,2.7,2.5,4.3.6,1.6.9,3.2.9,5s-.3,2.8-.9,4c-.6,1.2-1.5,2.3-2.6,3.2-1.1.9-2.4,1.6-3.9,2.1-1.5.5-3,.8-4.7.8Z"/>
      <path class="st10" d="M820.2,535.3c-.5,0-1.1,0-1.5-.2-.5-.2-.9-.4-1.3-.7-.4-.3-.9-.8-1.3-1.4-.5-.6-.9-1.3-1.3-2.1-.4-.8-.7-1.6-1.1-2.5-.3-.9-.6-1.8-.9-2.7-.3-.9-.6-1.8-.9-2.6-.3-.8-.6-1.6-.9-2.3-.3-.7-.7-1.3-1.1-1.8l1.8.5c-.7.7-1.3,1.6-2,2.6-.6,1-1.2,2-1.7,3.2-.5,1.2-1,2.4-1.4,3.7-.4,1.3-.8,2.7-1.1,4-.2.7-.5,1.2-.9,1.6-.4.3-1.1.5-1.9.5s-.7,0-1.1-.2c-.4-.1-.8-.4-1.2-.8-.4-.4-.8-1-1.1-1.8-.5-1-.9-2.2-1.4-3.3-.4-1.2-.8-2.4-1.2-3.6-.4-1.2-.7-2.5-1-3.8-.3-1.3-.5-2.6-.7-3.8s-.4-2.5-.4-3.7c0-.7.1-1.2.5-1.7.4-.5,1.1-.7,2.2-.7s1.9.3,2.5,1,.9,1.5.9,2.4c0,1,.2,2,.3,3,.1,1,.3,1.9.5,2.9.2.9.4,1.9.7,2.9.3,1,.6,1.9,1,3l-1.2.4c.4-1.6.9-3.1,1.5-4.5.6-1.4,1.2-2.7,1.9-3.9.7-1.2,1.5-2.2,2.3-3.1.6-.7,1.2-1.2,1.9-1.6.7-.4,1.5-.6,2.4-.6s1.4.2,1.9.7c.6.4,1.1,1.2,1.7,2.4.4.7.7,1.6.9,2.6.3,1,.5,2,.9,3.1.3,1.1.7,2.1,1.1,3.1s.9,1.9,1.5,2.7h-1.9c.3-.8.6-1.7.9-2.7s.5-2.1.6-3.2c.2-1.1.4-2.2.6-3.3.2-1.1.4-2,.6-2.9.2-.9.4-1.6.7-2.2.3-.8.7-1.3,1.2-1.6.5-.3,1.1-.5,1.8-.5s1.2.1,1.7.4c.4.3.7.6.9,1,.2.4.3.9.2,1.5,0,.6-.1,1.1-.3,1.7-.3.9-.6,2-.8,3.1-.2,1.1-.5,2.3-.7,3.6-.2,1.2-.5,2.5-.8,3.8s-.6,2.5-.9,3.6-.7,2.2-1.1,3.2c-.3.7-.7,1.2-1.1,1.4-.4.2-.8.4-1.3.4Z"/>
    </g>
  </g>
  <path class="st2" d="M1321.2,479.5c.7,0,2.4,0,4.3.7,4.7,1.8,8.5,6.3,8.4,10-.1,30.9,0,37-1.1,61.3-.3,6.7-11.3,9-22.5,10-13.2,1.2-253.5.3-263.4.9-18.5,1.1-21.1-.5-36.4,0,0,0-5.7.2-13.6-1-3.9-.6-5.7-1.1-7.4-1.9-.8-.4-4.9-2.4-7.7-6.6-3-4.5-3-9.2-3.1-12.2-.1-8.1-1.2-34.5-1.5-44.6-.3-12.1,8.5-16,44.9-16.3,16.4-.2,264.4,0,298.8-.3Z"/>
  <g id="location-block_x5F_txt">
    <g>
      <path class="st8" d="M1108,535.4c-1.1,0-2.1-.3-2.9-.9-.9-.6-1.6-1.4-2.2-2.5-.6-1.1-1-2.3-1.4-3.6-.3-1.3-.5-2.8-.5-4.3s0-1.6,0-2.3,0-1.3.2-2c0-.6.2-1.3.3-1.9.2-.7.3-1.4.6-2.3.1-.5.4-.9.8-1.1.4-.2.8-.4,1.3-.4s1,.1,1.5.4c.4.3.8.7,1,1.1s.3.9.2,1.4c0,.9-.2,1.7-.3,2.4,0,.7-.1,1.3-.2,2,0,.6,0,1.4,0,2.3s0,2.2.2,3.1c.1.9.3,1.6.4,2.1.2.5.4.9.7,1.2.3.3.5.4.8.4.5,0,1,0,1.6-.2.6-.1,1.1-.3,1.6-.5s.9-.5,1.3-.8c.3-.3.5-.5.5-.8,0-.4-.2-.7-.5-1-.3-.3-.8-.5-1.5-.7-.7-.2-1.5-.3-2.4-.4-.9,0-2-.1-3.2,0-.7,0-1.2-.2-1.6-.6-.4-.4-.6-.9-.6-1.6s.1-.6.4-.9c.3-.3.7-.5,1.2-.6.5-.1,1.1-.3,1.8-.5.8-.2,1.5-.5,2.3-.8s1.6-.6,2.3-.9,1.3-.6,1.8-1c.5-.3.7-.6.7-.9s-.1-.5-.3-.7c-.2-.2-.6-.3-1.2-.5-.6-.1-1.4-.2-2.4-.3-1,0-2.4,0-4,0s-1.6,0-2.4,0c-.8,0-1.4,0-1.7,0-.6,0-1.1-.2-1.5-.5s-.5-.8-.5-1.3c0-1.1.5-2,1.4-2.6.9-.6,2.5-.9,4.6-.9s3.8.1,5.4.3c1.7.2,3.1.6,4.4,1,1.3.5,2.2,1.1,3,1.9.7.8,1.1,1.8,1.1,2.9s-.2,1.4-.7,2.2-1.2,1.5-2.4,2.2c-1.2.7-2.9,1.4-5.1,2.1l-.3-1.6c1.4.1,2.6.4,3.6.7,1,.3,1.7.8,2.3,1.2.6.5,1,1,1.2,1.5.2.5.4,1.1.4,1.6,0,1.3-.4,2.4-1.1,3.4-.7.9-1.6,1.7-2.7,2.4-1.1.6-2.3,1.1-3.6,1.4-1.3.3-2.5.4-3.6.4Z"/>
      <path class="st8" d="M1131.6,535.2c-1.9,0-3.5-.3-4.8-.9-1.3-.6-2.3-1.6-2.9-2.8-.6-1.3-1-2.8-1-4.7s.1-3.2.4-4.6c.3-1.4.6-2.8.9-4.2.3-1.3.4-2.6.4-3.7s.2-1.3.6-1.8c.4-.5,1-.7,1.9-.7s1.3.2,1.8.5c.5.3.8.8,1.1,1.3.2.5.4,1.1.4,1.6,0,1.1-.1,2.2-.3,3.4-.2,1.1-.4,2.2-.7,3.3-.3,1.1-.5,2-.7,2.9-.2.9-.3,1.7-.3,2.4,0,1,.3,1.8.8,2.3.5.5,1.4.8,2.6.8s1.8,0,2.4-.3c.6-.2,1.1-.4,1.5-.6.4-.2.8-.4,1.2-.6.4-.2.8-.3,1.3-.3s.9.2,1.3.6c.3.4.5.9.5,1.4s-.1,1.2-.4,1.7c-.2.5-.7,1-1.2,1.4-.8.6-1.9,1-3.1,1.2-1.2.3-2.4.4-3.6.4Z"/>
      <path class="st8" d="M1152.6,535.2c-1.6,0-3.1-.2-4.4-.7-1.3-.5-2.5-1.1-3.5-2-1-.9-1.8-1.9-2.3-3.1-.5-1.2-.8-2.5-.8-4s.2-2.5.6-3.6c.4-1.1,1-2.1,1.6-3,.7-.9,1.4-1.7,2.1-2.3.8-.6,1.5-1.1,2.2-1.5s1.2-.5,1.7-.5.9,0,1.3.2c.3.1.6.4.9.8.5.6.6,1.2.4,1.7-.2.5-.6.9-1.2,1.3-1,.7-1.8,1.3-2.4,2-.6.7-1.1,1.4-1.4,2.2-.3.8-.4,1.7-.4,2.7s.2,1.9.7,2.7c.5.8,1.1,1.3,2,1.7.9.4,1.8.6,2.9.6s2.3-.2,3.3-.7c1-.5,1.8-1.1,2.4-1.9.6-.8.9-1.7.9-2.7s-.2-2-.5-3-.7-1.9-1.3-2.7c-.5-.8-1.2-1.5-1.8-2-.7-.5-1.4-.8-2.2-.8s-.5,0-.6.3c-.1.2-.2.4-.2.8,0,.5-.1.8-.4,1.1-.3.2-.6.4-1.1.4s-1.1-.1-1.6-.4c-.5-.3-1-.7-1.3-1.3-.3-.6-.5-1.3-.5-2.1s.2-1.2.6-1.8c.4-.5,1-1,1.7-1.3.8-.3,1.7-.5,2.7-.5,1.8,0,3.4.4,4.9,1.1,1.5.8,2.7,1.8,3.8,3,1.1,1.3,1.9,2.7,2.5,4.3.6,1.6.9,3.2.9,5s-.3,2.8-.9,4c-.6,1.2-1.5,2.3-2.6,3.2-1.1.9-2.4,1.6-3.9,2.1-1.5.5-3,.8-4.7.8Z"/>
      <path class="st8" d="M1178.5,535.2c-2.2,0-4.1-.4-5.7-1.3-1.5-.9-2.7-2.1-3.5-3.6-.8-1.5-1.2-3.3-1.2-5.2s.4-3.4,1.1-5,1.7-3,2.9-4.3c1.2-1.2,2.7-2.2,4.3-3,1.6-.7,3.3-1.1,5.1-1.1s3.1.3,3.9,1c.8.7,1.2,1.6,1.2,2.9s-.1,1.3-.3,1.9-.6,1.1-1,1.4c-.5.4-1,.6-1.7.6s-.6,0-.9-.2c-.2-.1-.4-.3-.5-.5-.1-.2-.2-.5-.2-.7s0-.4-.1-.5c0-.1-.2-.2-.4-.3s-.5-.1-.9-.1c-1,0-2,.2-2.8.7-.8.5-1.6,1.1-2.2,1.8-.6.8-1.1,1.6-1.4,2.6-.3,1-.5,1.9-.5,2.9,0,1.7.5,3,1.4,4,.9.9,2.2,1.4,3.8,1.4s1.5,0,2.1-.2c.5-.2,1-.3,1.3-.6s.6-.5.9-.7c.3-.2.6-.4.9-.6.3-.2.7-.2,1.1-.2.7,0,1.1.2,1.4.5.3.3.4.8.4,1.4s-.2,1.2-.6,1.8c-.4.6-.9,1.2-1.6,1.7s-1.6.9-2.7,1.2c-1,.3-2.2.4-3.6.4Z"/>
      <path class="st8" d="M1193.7,535.3c-.9,0-1.6-.2-2.1-.6-.5-.4-.9-1.1-1.1-2.1-.2-1-.3-2.2-.3-3.8s0-3.2.2-4.7c.1-1.5.3-2.8.4-4,.1-1.2.2-2.1.2-2.8s0-1.2,0-1.6-.1-.8-.2-1.1,0-.6,0-1c0-.6.2-1,.5-1.4.3-.3.9-.5,1.7-.5s1.5.2,1.9.5c.5.3.9.8,1.1,1.3s.4,1.1.5,1.7c0,.6.1,1.2.1,1.7,0,.9,0,2-.2,3.2-.1,1.2-.3,2.5-.4,4-.1,1.4-.2,2.8-.2,4.3s0,1.2,0,1.7c0,.5,0,.9.1,1.2s.1.7.1,1c0,.3,0,.7,0,1,0,.6-.2,1.1-.6,1.5-.4.3-1,.5-1.8.5ZM1209.7,535.3c-.7,0-1.5-.1-2.5-.4-1-.3-2.1-.7-3.1-1.2-1.1-.5-2.2-1.1-3.2-1.7-1-.7-2-1.4-2.9-2.1-.9-.8-1.6-1.5-2.1-2.3-.5-.8-.8-1.5-.8-2.2,0-1.1.3-2.2.8-3.3.5-1.1,1.2-2.2,2-3.3.8-1.1,1.8-2.1,2.8-3.1,1-1,2.1-1.8,3.1-2.6.7-.5,1.3-.8,1.8-1,.5-.2,1-.3,1.5-.3.8,0,1.4.2,1.9.6.5.4.7.9.7,1.7s-.2,1.2-.6,1.6c-.4.5-1.1,1-2,1.6-.9.6-1.8,1.2-2.6,1.8s-1.5,1.3-2.2,2-1.1,1.3-1.5,1.9c-.4.6-.5,1.1-.5,1.5s.3.8.8,1.3c.5.5,1.2,1.1,2.1,1.7.9.6,1.9,1.1,3.1,1.6,1.1.5,2.3.9,3.6,1.3.8.2,1.4.5,1.8,1,.4.4.6,1,.6,1.7s-.2,1.3-.6,1.7-1.1.6-2,.6Z"/>
    </g>
    <g>
      <path class="st9" d="M1108,535.4c-1.1,0-2.1-.3-2.9-.9-.9-.6-1.6-1.4-2.2-2.5-.6-1.1-1-2.3-1.4-3.6-.3-1.3-.5-2.8-.5-4.3s0-1.6,0-2.3,0-1.3.2-2c0-.6.2-1.3.3-1.9.2-.7.3-1.4.6-2.3.1-.5.4-.9.8-1.1.4-.2.8-.4,1.3-.4s1,.1,1.5.4c.4.3.8.7,1,1.1s.3.9.2,1.4c0,.9-.2,1.7-.3,2.4,0,.7-.1,1.3-.2,2,0,.6,0,1.4,0,2.3s0,2.2.2,3.1c.1.9.3,1.6.4,2.1.2.5.4.9.7,1.2.3.3.5.4.8.4.5,0,1,0,1.6-.2.6-.1,1.1-.3,1.6-.5s.9-.5,1.3-.8c.3-.3.5-.5.5-.8,0-.4-.2-.7-.5-1-.3-.3-.8-.5-1.5-.7-.7-.2-1.5-.3-2.4-.4-.9,0-2-.1-3.2,0-.7,0-1.2-.2-1.6-.6-.4-.4-.6-.9-.6-1.6s.1-.6.4-.9c.3-.3.7-.5,1.2-.6.5-.1,1.1-.3,1.8-.5.8-.2,1.5-.5,2.3-.8s1.6-.6,2.3-.9,1.3-.6,1.8-1c.5-.3.7-.6.7-.9s-.1-.5-.3-.7c-.2-.2-.6-.3-1.2-.5-.6-.1-1.4-.2-2.4-.3-1,0-2.4,0-4,0s-1.6,0-2.4,0c-.8,0-1.4,0-1.7,0-.6,0-1.1-.2-1.5-.5s-.5-.8-.5-1.3c0-1.1.5-2,1.4-2.6.9-.6,2.5-.9,4.6-.9s3.8.1,5.4.3c1.7.2,3.1.6,4.4,1,1.3.5,2.2,1.1,3,1.9.7.8,1.1,1.8,1.1,2.9s-.2,1.4-.7,2.2-1.2,1.5-2.4,2.2c-1.2.7-2.9,1.4-5.1,2.1l-.3-1.6c1.4.1,2.6.4,3.6.7,1,.3,1.7.8,2.3,1.2.6.5,1,1,1.2,1.5.2.5.4,1.1.4,1.6,0,1.3-.4,2.4-1.1,3.4-.7.9-1.6,1.7-2.7,2.4-1.1.6-2.3,1.1-3.6,1.4-1.3.3-2.5.4-3.6.4Z"/>
      <path class="st9" d="M1131.6,535.2c-1.9,0-3.5-.3-4.8-.9-1.3-.6-2.3-1.6-2.9-2.8-.6-1.3-1-2.8-1-4.7s.1-3.2.4-4.6c.3-1.4.6-2.8.9-4.2.3-1.3.4-2.6.4-3.7s.2-1.3.6-1.8c.4-.5,1-.7,1.9-.7s1.3.2,1.8.5c.5.3.8.8,1.1,1.3.2.5.4,1.1.4,1.6,0,1.1-.1,2.2-.3,3.4-.2,1.1-.4,2.2-.7,3.3-.3,1.1-.5,2-.7,2.9-.2.9-.3,1.7-.3,2.4,0,1,.3,1.8.8,2.3.5.5,1.4.8,2.6.8s1.8,0,2.4-.3c.6-.2,1.1-.4,1.5-.6.4-.2.8-.4,1.2-.6.4-.2.8-.3,1.3-.3s.9.2,1.3.6c.3.4.5.9.5,1.4s-.1,1.2-.4,1.7c-.2.5-.7,1-1.2,1.4-.8.6-1.9,1-3.1,1.2-1.2.3-2.4.4-3.6.4Z"/>
      <path class="st9" d="M1152.6,535.2c-1.6,0-3.1-.2-4.4-.7-1.3-.5-2.5-1.1-3.5-2-1-.9-1.8-1.9-2.3-3.1-.5-1.2-.8-2.5-.8-4s.2-2.5.6-3.6c.4-1.1,1-2.1,1.6-3,.7-.9,1.4-1.7,2.1-2.3.8-.6,1.5-1.1,2.2-1.5s1.2-.5,1.7-.5.9,0,1.3.2c.3.1.6.4.9.8.5.6.6,1.2.4,1.7-.2.5-.6.9-1.2,1.3-1,.7-1.8,1.3-2.4,2-.6.7-1.1,1.4-1.4,2.2-.3.8-.4,1.7-.4,2.7s.2,1.9.7,2.7c.5.8,1.1,1.3,2,1.7.9.4,1.8.6,2.9.6s2.3-.2,3.3-.7c1-.5,1.8-1.1,2.4-1.9.6-.8.9-1.7.9-2.7s-.2-2-.5-3-.7-1.9-1.3-2.7c-.5-.8-1.2-1.5-1.8-2-.7-.5-1.4-.8-2.2-.8s-.5,0-.6.3c-.1.2-.2.4-.2.8,0,.5-.1.8-.4,1.1-.3.2-.6.4-1.1.4s-1.1-.1-1.6-.4c-.5-.3-1-.7-1.3-1.3-.3-.6-.5-1.3-.5-2.1s.2-1.2.6-1.8c.4-.5,1-1,1.7-1.3.8-.3,1.7-.5,2.7-.5,1.8,0,3.4.4,4.9,1.1,1.5.8,2.7,1.8,3.8,3,1.1,1.3,1.9,2.7,2.5,4.3.6,1.6.9,3.2.9,5s-.3,2.8-.9,4c-.6,1.2-1.5,2.3-2.6,3.2-1.1.9-2.4,1.6-3.9,2.1-1.5.5-3,.8-4.7.8Z"/>
      <path class="st9" d="M1178.5,535.2c-2.2,0-4.1-.4-5.7-1.3-1.5-.9-2.7-2.1-3.5-3.6-.8-1.5-1.2-3.3-1.2-5.2s.4-3.4,1.1-5,1.7-3,2.9-4.3c1.2-1.2,2.7-2.2,4.3-3,1.6-.7,3.3-1.1,5.1-1.1s3.1.3,3.9,1c.8.7,1.2,1.6,1.2,2.9s-.1,1.3-.3,1.9-.6,1.1-1,1.4c-.5.4-1,.6-1.7.6s-.6,0-.9-.2c-.2-.1-.4-.3-.5-.5-.1-.2-.2-.5-.2-.7s0-.4-.1-.5c0-.1-.2-.2-.4-.3s-.5-.1-.9-.1c-1,0-2,.2-2.8.7-.8.5-1.6,1.1-2.2,1.8-.6.8-1.1,1.6-1.4,2.6-.3,1-.5,1.9-.5,2.9,0,1.7.5,3,1.4,4,.9.9,2.2,1.4,3.8,1.4s1.5,0,2.1-.2c.5-.2,1-.3,1.3-.6s.6-.5.9-.7c.3-.2.6-.4.9-.6.3-.2.7-.2,1.1-.2.7,0,1.1.2,1.4.5.3.3.4.8.4,1.4s-.2,1.2-.6,1.8c-.4.6-.9,1.2-1.6,1.7s-1.6.9-2.7,1.2c-1,.3-2.2.4-3.6.4Z"/>
      <path class="st9" d="M1193.7,535.3c-.9,0-1.6-.2-2.1-.6-.5-.4-.9-1.1-1.1-2.1-.2-1-.3-2.2-.3-3.8s0-3.2.2-4.7c.1-1.5.3-2.8.4-4,.1-1.2.2-2.1.2-2.8s0-1.2,0-1.6-.1-.8-.2-1.1,0-.6,0-1c0-.6.2-1,.5-1.4.3-.3.9-.5,1.7-.5s1.5.2,1.9.5c.5.3.9.8,1.1,1.3s.4,1.1.5,1.7c0,.6.1,1.2.1,1.7,0,.9,0,2-.2,3.2-.1,1.2-.3,2.5-.4,4-.1,1.4-.2,2.8-.2,4.3s0,1.2,0,1.7c0,.5,0,.9.1,1.2s.1.7.1,1c0,.3,0,.7,0,1,0,.6-.2,1.1-.6,1.5-.4.3-1,.5-1.8.5ZM1209.7,535.3c-.7,0-1.5-.1-2.5-.4-1-.3-2.1-.7-3.1-1.2-1.1-.5-2.2-1.1-3.2-1.7-1-.7-2-1.4-2.9-2.1-.9-.8-1.6-1.5-2.1-2.3-.5-.8-.8-1.5-.8-2.2,0-1.1.3-2.2.8-3.3.5-1.1,1.2-2.2,2-3.3.8-1.1,1.8-2.1,2.8-3.1,1-1,2.1-1.8,3.1-2.6.7-.5,1.3-.8,1.8-1,.5-.2,1-.3,1.5-.3.8,0,1.4.2,1.9.6.5.4.7.9.7,1.7s-.2,1.2-.6,1.6c-.4.5-1.1,1-2,1.6-.9.6-1.8,1.2-2.6,1.8s-1.5,1.3-2.2,2-1.1,1.3-1.5,1.9c-.4.6-.5,1.1-.5,1.5s.3.8.8,1.3c.5.5,1.2,1.1,2.1,1.7.9.6,1.9,1.1,3.1,1.6,1.1.5,2.3.9,3.6,1.3.8.2,1.4.5,1.8,1,.4.4.6,1,.6,1.7s-.2,1.3-.6,1.7-1.1.6-2,.6Z"/>
    </g>
  </g>
  <path id="location-dontshow_x5F_checkbox_x5F_body" class="st6" d="M1302.6,607.6c.7,0,2.4,0,4.3.7,4.7,1.8,8.4,6.2,8.4,9.9-.1,30.8.2,34.1-1,58.3-.7,15-29,13.6-53.1,13.6,0,0-5.7.2-13.5-1-3.9-.6-5.7-1.1-7.4-1.9-.8-.4-4.8-2.4-7.6-6.5-3-4.5-3-9.1-3.1-12.1-.1-8.1-1.2-34.3-1.5-44.4-.3-12.1,8.5-15.9,44.7-16.3,16.4-.2-4.6,0,29.7-.3Z"/>
  <path id="location-dontshow_x5F_checkmark" class="st4" d="M1254.3,633.3c2,3.3,13.1,28,25.2,17.8,16.1-13.6,44.1-40.8,44.1-40.8,0,0,6-8.1,7,4.1,1,12.2-39.3,45.3-51.1,54.2-11.8,8.9-21.1,10.3-27.5-3.7-6.4-14.1-10.7-20.8-8.2-27.4,2.5-6.6,8.5-7.5,10.5-4.3h0Z"/>
  <g id="location-dontshow_x5F_txt">
    <g>
      <path class="st8" d="M638.6,662.9c-1,0-1.9-.3-2.6-.9-.7-.6-1.2-1.5-1.6-2.6-.4-1.1-.5-2.4-.5-3.8,0-2.2,0-4.3,0-6.3s.1-4,.2-6.1c0-.8.3-1.3.7-1.6.4-.3,1.1-.5,2-.5s1.4.2,1.9.7c.5.5.8,1,.8,1.7,0,1.1,0,2.3,0,3.6,0,1.3,0,2.6-.1,3.9s0,2.6,0,3.9,0,1.4.2,2.1c.1.6.4,1.3.9,1.9l-3.8-.9c2-.3,3.7-.8,5.2-1.4,1.5-.7,2.8-1.5,3.8-2.4,1-.9,1.8-2,2.3-3.1.5-1.1.8-2.3.8-3.5s-.2-1.9-.6-2.6c-.4-.7-1-1.3-1.8-1.6-.8-.4-1.9-.6-3.2-.6s-2.1,0-2.9.2c-.8.1-1.5.3-2.1.5-.6.2-1.2.4-1.7.5-.5.1-1,.2-1.5.2-.8,0-1.5-.2-2.1-.5-.6-.3-1-.8-1.3-1.3s-.4-1.1-.4-1.6.1-.8.3-1.2.6-.7,1.1-.8c.6-.2,1.3-.4,2.1-.6.8-.2,1.7-.3,2.6-.5.9-.2,1.9-.3,2.8-.4,1,0,1.9-.1,2.8-.1,2.4,0,4.5.4,6.2,1.3s3,2.1,3.8,3.6c.9,1.5,1.3,3.2,1.3,5.1s-.3,3.5-.9,5.1-1.5,3-2.5,4.3c-1.1,1.3-2.3,2.4-3.6,3.3-1.4.9-2.8,1.6-4.3,2.1-1.5.5-3,.8-4.4.8Z"/>
      <path class="st8" d="M668.3,662.9c-1.6,0-3.1-.2-4.4-.8-1.3-.5-2.5-1.2-3.5-2.2s-1.8-2.1-2.3-3.4c-.5-1.3-.8-2.8-.8-4.4s.2-2.7.6-4c.4-1.2,1-2.3,1.6-3.3.7-1,1.4-1.8,2.1-2.5.8-.7,1.5-1.2,2.2-1.6.7-.4,1.2-.6,1.7-.6s.9,0,1.3.2c.3.2.6.4.9.9.5.7.6,1.3.4,1.8-.2.6-.6,1-1.2,1.4-1,.7-1.8,1.4-2.4,2.2s-1.1,1.6-1.4,2.4c-.3.9-.4,1.9-.4,3s.2,2.1.7,3c.5.8,1.1,1.5,2,1.9s1.8.7,2.9.7,2.3-.3,3.3-.8c1-.5,1.8-1.2,2.4-2.1.6-.9.9-1.9.9-3s-.2-2.2-.5-3.3c-.3-1.1-.7-2.1-1.3-3-.5-.9-1.2-1.6-1.8-2.2-.7-.5-1.4-.8-2.2-.8s-.5.1-.6.3c-.1.2-.2.5-.2.8,0,.5-.1.9-.4,1.2-.3.3-.6.4-1.1.4s-1.1-.2-1.6-.5c-.5-.3-1-.8-1.3-1.4s-.5-1.4-.5-2.3.2-1.3.6-1.9c.4-.6,1-1.1,1.7-1.4.8-.4,1.7-.6,2.7-.6,1.8,0,3.4.4,4.9,1.2,1.5.8,2.7,1.9,3.8,3.3,1.1,1.4,1.9,3,2.5,4.7.6,1.7.9,3.6.9,5.4s-.3,3-.9,4.4c-.6,1.3-1.5,2.5-2.6,3.5-1.1,1-2.4,1.8-3.9,2.3-1.5.6-3,.8-4.7.8Z"/>
      <path class="st8" d="M686.2,663.1c-.9,0-1.5-.2-1.9-.6-.4-.4-.6-.9-.6-1.5s0-1,.1-1.5c0-.5.2-1.1.3-1.8.1-.7.2-1.6.3-2.8,0-1.2.1-2.7.1-4.5s0-2.1,0-3.2c0-1.1-.1-2.2-.2-3.2s-.1-1.9-.2-2.6c0-.8,0-1.3,0-1.6,0-.7.2-1.3.7-1.8.4-.5,1.1-.8,1.9-.8s2,.3,2.9.8c.9.5,1.7,1.2,2.5,2.1.8.9,1.5,1.9,2.2,3s1.3,2.3,1.9,3.5,1.2,2.4,1.8,3.6,1.2,2.3,1.7,3.3c.5,1,1.1,1.9,1.7,2.6s1.1,1.3,1.7,1.6l-3,1.4c.3-.2.6-.5.9-.8.3-.3.6-.8.8-1.4.2-.6.3-1.5.3-2.5s0-2.8-.1-4.1c0-1.3-.2-2.6-.2-3.8s0-2.4,0-3.5.2-2.3.5-3.5c.2-.9.5-1.5.9-1.8s.9-.6,1.4-.6c.9,0,1.5.2,2,.7.4.4.7,1,.8,1.6s.1,1.1,0,1.6c-.2,1.1-.4,2.2-.4,3.2,0,1,0,2,0,3,0,1,0,2,.1,3.1,0,1.1,0,2.3,0,3.6s-.1,3.4-.3,4.8c-.2,1.4-.7,2.5-1.4,3.3-.7.8-1.8,1.2-3.2,1.2s-1.7-.2-2.5-.6c-.7-.4-1.4-1-2-1.8-.6-.8-1.2-1.6-1.8-2.6-.5-1-1.1-2.1-1.6-3.2-.5-1.2-1.1-2.3-1.7-3.6-.6-1.2-1.2-2.4-1.9-3.6-.7-1.2-1.4-2.3-2.3-3.4l1-.2c.1,1,.3,1.8.3,2.5,0,.7.1,1.4.1,1.9,0,.6,0,1.2,0,1.9,0,2.2,0,4.3-.3,6.1-.2,1.8-.5,3.4-.9,4.7-.2.6-.5,1.1-.9,1.4-.4.3-1,.5-1.8.5Z"/>
      <path class="st8" d="M726.5,642.8h-3.5c-1.1,0-2.1,0-3.1,0-1,0-2,0-3-.1-1,0-2-.1-3-.2-1,0-1.8-.3-2.3-.5-.5-.3-.9-.6-1.2-1.1-.2-.5-.4-1-.4-1.7s.2-1,.5-1.4c.3-.4.9-.6,1.6-.6s2.1,0,3,0c.9,0,1.8,0,2.6.1.8,0,1.7,0,2.5.1.8,0,1.7,0,2.6,0s1.6,0,2.2,0,1.3-.1,2-.2c.7,0,1.4,0,2.3,0s1.2.2,1.6.5c.3.3.5.8.5,1.4,0,.9-.2,1.6-.7,2.1-.5.5-1.1,1-1.9,1.2-.8.3-1.5.4-2.3.4ZM721.3,663c-.7,0-1.4-.2-2-.7s-1.1-1.4-1.5-2.8c-.2-.9-.4-1.9-.5-2.9s-.2-2.2-.2-3.5,0-2.9.2-4.7.3-4,.5-6.5c0-.7.3-1.3.7-1.7s.9-.7,1.6-.7c1.3,0,2.2.3,2.6,1,.5.7.7,1.8.6,3.4-.1,2.5-.2,4.6-.3,6.3,0,1.7,0,3.2,0,4.3s.1,2.1.2,2.8c0,.7.1,1.3.2,1.8,0,.5.1,1,.1,1.4,0,.9-.2,1.5-.6,1.8-.4.3-1,.5-1.8.5Z"/>
      <path class="st8" d="M752.6,662.8c-2.2,0-3.9-.4-5-1.3s-1.7-1.9-1.7-3,.1-1,.4-1.3c.3-.3.7-.5,1.2-.5s.7,0,.9.1c.3,0,.6.2.9.3s.7.2,1.1.3c.4,0,1,.1,1.6.1.9,0,1.7,0,2.3-.1.7,0,1.2-.2,1.8-.3.5-.1,1-.3,1.6-.5-.2-.5-.6-.9-1.3-1.2s-1.4-.7-2.3-1.1c-.9-.4-1.8-.8-2.8-1.2s-1.9-1-2.7-1.6c-.8-.6-1.5-1.3-2.1-2.1-.5-.8-.8-1.8-.8-3s.3-2.2,1-3.2,1.5-1.8,2.6-2.6c1.1-.8,2.3-1.4,3.5-2,1.3-.5,2.5-.9,3.7-1.2s2.2-.4,3.1-.4,1.4.1,1.8.4c.5.3.8.6,1,1.1.2.5.3.9.3,1.5s-.1,1-.4,1.4c-.3.4-.8.7-1.4.8-1.9.4-3.6.8-5,1.3-1.4.5-2.6,1-3.4,1.5-.8.5-1.2,1-1.2,1.6s.3.8.9,1.2c.6.4,1.3.8,2.2,1.1.9.4,1.9.8,2.9,1.2,1,.4,2,1,2.9,1.6s1.7,1.3,2.2,2.1.9,1.8.9,2.9-.2,2-.7,2.7c-.5.8-1.2,1.4-2.1,1.9-.9.5-2.1.9-3.4,1.1-1.3.2-2.9.4-4.6.4Z"/>
      <path class="st8" d="M770.7,653.5c-1.3,0-2.3-.1-3-.4-.7-.3-1.3-.7-1.6-1.1s-.4-1-.4-1.5,0-.7.2-1c.2-.3.5-.5,1-.6,1.8-.5,3.6-.8,5.5-1,1.8-.2,3.7-.4,5.6-.4,1.9,0,3.7,0,5.6,0s2,.1,2.8.4,1.3.7,1.7,1.2c.4.5.6,1,.6,1.6s-.1,1-.4,1.3-.7.5-1.3.5c-2.6,0-4.7,0-6.5.2-1.8.1-3.3.2-4.5.4-1.2.1-2.2.3-3,.4s-1.5.2-2.1.2ZM770.9,662.9c-1,0-1.8-.4-2.5-1.1-.7-.7-1-1.8-.9-3.3,0-1.1,0-2.3,0-3.6s0-2.7,0-4.1c0-1.4,0-2.8,0-4.1,0-1.3,0-2.6,0-3.7,0-1.1,0-2.1,0-2.8s.2-1.6.6-2.2c.4-.6,1.1-.8,2-.8s1.8.4,2.4,1.1c.6.7.9,1.8.9,3.3s0,3.6,0,5.3c0,1.8,0,3.4,0,5.1,0,1.6,0,3.2,0,4.6v3.9c0,.8-.2,1.5-.6,1.9s-1,.6-1.7.6ZM785.3,662.9c-1,0-1.8-.3-2.4-.9-.6-.6-1.1-1.6-1.4-2.9s-.4-3-.4-5,0-4.2,0-5.9,0-3.2.1-4.5c0-1.3,0-2.4,0-3.4s.2-1.6.6-2.1c.4-.5,1-.7,1.8-.7s1.8.4,2.3,1.2c.5.8.8,2.1.8,3.7s0,2.7,0,4.1c0,1.4,0,2.8-.1,4.2,0,1.3,0,2.5,0,3.6,0,1,0,1.8.2,2.5,0,.7.2,1.3.3,1.9s.2,1.2.2,1.9c0,.7-.2,1.3-.5,1.8-.4.4-.9.7-1.5.7Z"/>
      <path class="st8" d="M802.7,662.9c-1.6,0-3.1-.2-4.4-.8-1.3-.5-2.5-1.2-3.5-2.2-1-1-1.8-2.1-2.3-3.4s-.8-2.8-.8-4.4.2-2.7.6-4c.4-1.2,1-2.3,1.6-3.3.7-1,1.4-1.8,2.1-2.5.8-.7,1.5-1.2,2.2-1.6.7-.4,1.2-.6,1.7-.6s.9,0,1.3.2.6.4.9.9c.5.7.6,1.3.4,1.8-.2.6-.6,1-1.2,1.4-1,.7-1.8,1.4-2.4,2.2s-1.1,1.6-1.4,2.4c-.3.9-.4,1.9-.4,3s.2,2.1.7,3c.5.8,1.1,1.5,2,1.9s1.8.7,2.9.7,2.3-.3,3.3-.8c1-.5,1.8-1.2,2.4-2.1.6-.9.9-1.9.9-3s-.2-2.2-.5-3.3c-.3-1.1-.7-2.1-1.3-3-.5-.9-1.2-1.6-1.8-2.2-.7-.5-1.4-.8-2.2-.8s-.5.1-.6.3c-.1.2-.2.5-.2.8,0,.5-.1.9-.4,1.2s-.6.4-1.1.4-1.1-.2-1.6-.5c-.5-.3-1-.8-1.3-1.4-.3-.6-.5-1.4-.5-2.3s.2-1.3.6-1.9c.4-.6,1-1.1,1.7-1.4.8-.4,1.7-.6,2.7-.6,1.8,0,3.4.4,4.9,1.2,1.5.8,2.7,1.9,3.8,3.3,1.1,1.4,1.9,3,2.5,4.7.6,1.7.9,3.6.9,5.4s-.3,3-.9,4.4c-.6,1.3-1.5,2.5-2.6,3.5-1.1,1-2.4,1.8-3.9,2.3-1.5.6-3,.8-4.7.8Z"/>
      <path class="st8" d="M843.1,662.9c-.5,0-1.1,0-1.5-.2-.5-.2-.9-.4-1.3-.8s-.9-.9-1.3-1.5c-.5-.7-.9-1.4-1.3-2.3s-.7-1.8-1.1-2.7c-.3-1-.6-1.9-.9-2.9-.3-1-.6-2-.9-2.9s-.6-1.8-.9-2.6c-.3-.8-.7-1.4-1.1-1.9l1.8.6c-.7.8-1.3,1.8-1.9,2.8-.6,1.1-1.2,2.2-1.7,3.5s-1,2.6-1.4,4.1c-.4,1.4-.8,2.9-1.1,4.4-.2.8-.5,1.3-.9,1.7-.4.4-1.1.6-1.9.6s-.7,0-1.1-.2-.8-.4-1.2-.9c-.4-.4-.8-1.1-1.1-2-.5-1.1-.9-2.4-1.4-3.6-.4-1.3-.8-2.6-1.2-4-.4-1.4-.7-2.8-1-4.2s-.5-2.8-.7-4.2c-.2-1.4-.4-2.7-.4-4,0-.7.1-1.4.5-1.9.4-.5,1.1-.8,2.2-.8s1.9.4,2.5,1.1c.5.7.9,1.6.9,2.7,0,1.1.2,2.2.3,3.3s.3,2.1.5,3.2c.2,1,.4,2.1.7,3.1.3,1,.6,2.1,1,3.3l-1.2.4c.4-1.7.9-3.4,1.5-4.9.6-1.5,1.2-2.9,1.9-4.2.7-1.3,1.5-2.4,2.3-3.4.6-.7,1.2-1.3,1.9-1.7.7-.4,1.5-.6,2.4-.6s1.4.2,2,.7c.6.5,1.1,1.4,1.7,2.6.4.8.7,1.7.9,2.8.3,1.1.5,2.2.9,3.4.3,1.2.7,2.3,1.1,3.4.4,1.1.9,2.1,1.5,2.9h-1.9c.3-.8.6-1.9.9-3,.2-1.1.5-2.3.6-3.5.2-1.2.4-2.4.6-3.6.2-1.2.4-2.2.6-3.2.2-1,.4-1.8.7-2.4.3-.8.7-1.4,1.2-1.8s1.1-.5,1.8-.5,1.6.2,2,.7c.5.5.7,1.1.8,1.9,0,.8,0,1.6-.3,2.5-.3,1-.6,2.2-.8,3.4-.2,1.2-.5,2.5-.7,3.9s-.5,2.7-.8,4.1c-.3,1.4-.6,2.7-.9,4s-.7,2.5-1.1,3.5c-.3.8-.7,1.3-1.1,1.5-.4.3-.8.4-1.3.4Z"/>
      <path class="st8" d="M880.8,642.8h-3.5c-1.1,0-2.1,0-3.1,0-1,0-2,0-3-.1s-2-.1-3-.2c-1,0-1.8-.3-2.3-.5-.5-.3-.9-.6-1.2-1.1-.2-.5-.4-1-.4-1.7s.2-1,.5-1.4c.3-.4.9-.6,1.6-.6s2.1,0,3,0c.9,0,1.8,0,2.6.1.8,0,1.7,0,2.5.1.8,0,1.7,0,2.6,0s1.6,0,2.2,0c.7,0,1.3-.1,2-.2.7,0,1.4,0,2.3,0s1.2.2,1.6.5c.3.3.5.8.5,1.4,0,.9-.2,1.6-.7,2.1-.5.5-1.1,1-1.9,1.2-.8.3-1.5.4-2.3.4ZM875.5,663c-.7,0-1.4-.2-2-.7s-1.1-1.4-1.5-2.8c-.2-.9-.4-1.9-.5-2.9s-.2-2.2-.2-3.5,0-2.9.2-4.7.3-4,.5-6.5c0-.7.3-1.3.7-1.7.4-.4.9-.7,1.6-.7,1.3,0,2.2.3,2.6,1,.5.7.7,1.8.6,3.4-.1,2.5-.2,4.6-.3,6.3,0,1.7,0,3.2,0,4.3,0,1.1.1,2.1.2,2.8,0,.7.1,1.3.2,1.8,0,.5.1,1,.1,1.4,0,.9-.2,1.5-.6,1.8-.4.3-1,.5-1.8.5Z"/>
      <path class="st8" d="M891.7,653.5c-1.3,0-2.3-.1-3-.4-.7-.3-1.3-.7-1.6-1.1s-.4-1-.4-1.5,0-.7.2-1c.2-.3.5-.5,1-.6,1.8-.5,3.6-.8,5.5-1,1.8-.2,3.7-.4,5.6-.4,1.9,0,3.7,0,5.6,0s2,.1,2.8.4,1.3.7,1.7,1.2c.4.5.6,1,.6,1.6s-.1,1-.4,1.3-.7.5-1.3.5c-2.6,0-4.7,0-6.5.2-1.8.1-3.3.2-4.5.4-1.2.1-2.2.3-3,.4s-1.5.2-2.1.2ZM891.9,662.9c-1,0-1.8-.4-2.5-1.1-.7-.7-1-1.8-.9-3.3,0-1.1,0-2.3,0-3.6s0-2.7,0-4.1c0-1.4,0-2.8,0-4.1,0-1.3,0-2.6,0-3.7,0-1.1,0-2.1,0-2.8s.2-1.6.6-2.2c.4-.6,1.1-.8,2-.8s1.8.4,2.4,1.1c.6.7.9,1.8.9,3.3s0,3.6,0,5.3c0,1.8,0,3.4,0,5.1,0,1.6,0,3.2,0,4.6v3.9c0,.8-.2,1.5-.6,1.9s-1,.6-1.7.6ZM906.3,662.9c-1,0-1.8-.3-2.4-.9-.6-.6-1.1-1.6-1.4-2.9s-.4-3-.4-5,0-4.2,0-5.9,0-3.2.1-4.5c0-1.3,0-2.4,0-3.4s.2-1.6.6-2.1c.4-.5,1-.7,1.8-.7s1.8.4,2.3,1.2c.5.8.8,2.1.8,3.7s0,2.7,0,4.1c0,1.4,0,2.8-.1,4.2,0,1.3,0,2.5,0,3.6,0,1,0,1.8.2,2.5,0,.7.2,1.3.3,1.9s.2,1.2.2,1.9c0,.7-.2,1.3-.5,1.8-.4.4-.9.7-1.5.7Z"/>
      <path class="st8" d="M916.6,662.9c-1.7,0-2.9-.3-3.6-.9s-1.1-1.3-1.1-2.2.2-1,.5-1.4c.3-.4.9-.6,1.6-.6,1.3-.2,2.5-.3,3.5-.3,1,0,1.9-.1,2.7-.1.8,0,1.7,0,2.6,0,.9,0,2,0,3.2,0s1.9,0,2.5.3c.6.2.9.5,1.1.8.2.3.3.7.3,1.2,0,.8-.3,1.5-1,2-.7.6-1.8.9-3.3.9s-2.7,0-3.8,0-2.2.1-3.1.2c-.9,0-1.6.1-2.1.1ZM915.2,643.3c-1.2,0-2-.3-2.5-.8-.5-.5-.8-1.2-.8-1.9s.2-1.3.7-1.7c.5-.4,1.1-.7,1.9-.8,1.4-.2,2.7-.3,4.1-.5,1.4-.1,2.7-.2,4-.3,1.3,0,2.5-.1,3.5-.1s2.3.2,2.9.5c.6.3.9.9.9,1.8s-.4,1.8-1.3,2.4c-.9.6-2,.9-3.3.9s-2.7,0-3.8,0c-1.1,0-2,.1-2.7.2-.8,0-1.4.1-2,.2s-1.1,0-1.6,0ZM921.5,658.8c-1,0-1.8-.3-2.5-.8-.6-.5-.9-1.2-.9-2,0-1.5,0-3,.1-4.5,0-1.5.2-2.9.3-4.2,0-1.3.1-2.6.1-3.7s.1-1.5.4-2c.3-.4.9-.6,1.7-.6s1.7.3,2.4.9c.7.6,1,1.3,1,2.2s0,1.8-.1,3c0,1.2-.2,2.7-.3,4.3s-.2,3.3-.2,5.2-.7,2.2-2,2.2Z"/>
      <path class="st8" d="M939.2,662.8c-2.2,0-3.9-.4-5-1.3-1.1-.9-1.7-1.9-1.7-3s.1-1,.4-1.3c.3-.3.7-.5,1.2-.5s.7,0,.9.1c.3,0,.6.2.9.3.3.1.7.2,1.1.3.4,0,1,.1,1.6.1.9,0,1.7,0,2.3-.1.7,0,1.2-.2,1.8-.3.5-.1,1-.3,1.6-.5-.2-.5-.6-.9-1.3-1.2-.6-.4-1.4-.7-2.3-1.1-.9-.4-1.8-.8-2.8-1.2s-1.9-1-2.7-1.6-1.5-1.3-2.1-2.1c-.5-.8-.8-1.8-.8-3s.3-2.2,1-3.2c.7-1,1.5-1.8,2.6-2.6,1.1-.8,2.3-1.4,3.5-2s2.5-.9,3.7-1.2c1.2-.3,2.2-.4,3.1-.4s1.4.1,1.8.4c.5.3.8.6,1,1.1.2.5.3.9.3,1.5s-.1,1-.4,1.4-.8.7-1.4.8c-1.9.4-3.6.8-5,1.3-1.4.5-2.6,1-3.4,1.5-.8.5-1.2,1-1.2,1.6s.3.8.9,1.2c.6.4,1.3.8,2.2,1.1.9.4,1.9.8,2.9,1.2,1,.4,2,1,2.9,1.6.9.6,1.7,1.3,2.2,2.1.6.8.9,1.8.9,2.9s-.2,2-.7,2.7c-.5.8-1.2,1.4-2.1,1.9-.9.5-2.1.9-3.4,1.1-1.3.2-2.9.4-4.6.4Z"/>
      <path class="st8" d="M967.9,656.5c-1.2,0-2-.2-2.5-.7-.5-.5-.8-1-.8-1.8s.2-.9.5-1.2c.3-.3.8-.6,1.5-.8,2.5-.7,5.4-1.3,8.7-1.8,3.3-.5,6.9-.7,11-.7s2.4.2,2.9.6c.5.4.8,1,.8,1.8s-.4,1.6-1.1,2.2c-.7.6-1.7.9-3,.9-1.8,0-3.4,0-5,.2-1.5.1-2.9.2-4.1.4-1.3.2-2.4.3-3.5.5-1,.2-2,.3-2.9.4s-1.7.2-2.4.2ZM987.1,662.9c-.7,0-1.4-.2-2-.6-.6-.4-1.1-1-1.7-1.9-.5-.8-1-1.8-1.4-3.1-.4-1.3-.7-2.6-1-4-.2-1.4-.4-2.7-.6-4-.2-1.5-.3-2.7-.4-3.6-.1-.9-.3-1.6-.4-2-.1-.5-.3-.8-.4-.9-.2-.2-.3-.2-.6-.2-.6,0-1.2.4-1.8,1.3-.6.8-1.3,2.1-1.9,3.6-.6,1.6-1.2,3.5-1.8,5.8-.5,2.2-1,4.7-1.4,7.5,0,.7-.3,1.3-.6,1.6-.3.3-.8.5-1.4.5-1,0-1.8-.4-2.4-1.2-.5-.8-.8-2.1-.8-4s.1-2.9.3-4.2c.2-1.3.4-2.6.7-3.8.3-1.2.5-2.4.7-3.6.2-1.2.3-2.4.3-3.6,0-.4.1-.8.4-1,.3-.3.7-.4,1.2-.4s1,.1,1.5.4c.5.2,1,.7,1.4,1.3l-2.1.7c1-1.9,2.1-3.4,3.5-4.5,1.4-1.1,2.9-1.7,4.5-1.7s3,.4,3.9,1.3c.9.8,1.7,2.2,2.2,4,.5,1.8.9,4.2,1.3,7.1.2,1.7.4,3.2.8,4.4.3,1.2.7,2.3,1.1,3.1.4.8.7,1.6.9,2.2.2.6.4,1.2.4,1.7s-.2,1.1-.5,1.5c-.4.3-.9.5-1.6.5Z"/>
      <path class="st8" d="M1016.3,666.6c-.8,0-1.5-.2-2.1-.6-.5-.4-1-1-1.5-1.8-.3-.5-.5-1-.8-1.7s-.5-1.4-.7-2.3-.4-2-.5-3.4l1.6.7c-1,1.3-2.1,2.3-3.3,3.1-1.2.8-2.4,1.3-3.7,1.7-1.3.4-2.6.5-3.9.5s-2.6-.2-3.6-.6c-1.1-.4-2-1-2.7-1.8-.8-.8-1.3-1.7-1.7-2.8-.4-1.1-.6-2.3-.6-3.7s.3-3.4.9-5.1c.6-1.6,1.5-3.2,2.5-4.6s2.3-2.7,3.7-3.7,2.9-1.9,4.5-2.5c1.6-.6,3.2-.9,4.9-.9s1.9.1,2.5.4,1.1.7,1.4,1.2c.3.5.4,1.1.4,1.8s-.1,1.5-.4,2.2c-.3.7-.7,1.2-1.2,1.6-.5.4-1.1.6-1.8.6s-.6,0-.8-.2c-.2-.1-.3-.3-.4-.4,0-.2-.1-.4-.2-.6,0-.2-.2-.3-.3-.4-.1-.1-.4-.2-.7-.2-.9,0-1.8.2-2.7.6-.9.4-1.7,1-2.5,1.7-.8.7-1.4,1.5-2,2.4s-1,1.8-1.4,2.8c-.3,1-.5,1.9-.5,2.8,0,1.3.3,2.3.9,3,.6.6,1.4,1,2.4,1s2.2-.2,3.3-.6c1.1-.4,2.1-.9,3-1.7s1.8-1.7,2.5-2.8c.5-.6.9-1,1.5-1.3.5-.2,1.2-.3,1.9-.3s1,.1,1.3.3c.3.2.4.5.4,1,0,1.7,0,3.1.2,4.2.1,1.1.3,2.1.5,3s.5,1.7.9,2.5c.3.5.5,1,.6,1.3.1.3.2.6.2.8s0,.5,0,.7c0,.6-.2,1.1-.6,1.5s-.9.5-1.5.5ZM1006,653.5c-.8,0-1.4-.3-2-.8s-.8-1.2-.8-1.9.2-1,.5-1.3c.3-.3.9-.6,1.9-.9,1.5-.4,3-.8,4.6-1,1.6-.2,3.4-.4,5.4-.4,1.1,0,1.9,0,2.4.2.5.2.9.4,1.1.8s.3.7.3,1.2c0,.8-.2,1.5-.7,2.1-.5.6-1.2.9-2.3.9-1.5,0-2.8,0-3.9.2-1.1.1-2,.2-2.8.4-.8.1-1.5.3-2.1.4-.6.1-1.1.2-1.6.2Z"/>
      <path class="st8" d="M1024.1,656.5c-1.2,0-2-.2-2.5-.7-.5-.5-.8-1-.8-1.8s.2-.9.5-1.2c.3-.3.8-.6,1.5-.8,2.5-.7,5.4-1.3,8.7-1.8,3.3-.5,6.9-.7,11-.7s2.4.2,2.9.6c.5.4.8,1,.8,1.8s-.4,1.6-1.1,2.2c-.7.6-1.7.9-3,.9-1.8,0-3.4,0-5,.2-1.5.1-2.9.2-4.1.4-1.3.2-2.4.3-3.5.5-1,.2-2,.3-2.9.4s-1.7.2-2.4.2ZM1043.4,662.9c-.7,0-1.4-.2-2-.6-.6-.4-1.1-1-1.7-1.9-.5-.8-1-1.8-1.4-3.1-.4-1.3-.7-2.6-1-4-.2-1.4-.4-2.7-.6-4-.2-1.5-.3-2.7-.4-3.6-.1-.9-.3-1.6-.4-2-.1-.5-.3-.8-.4-.9-.2-.2-.3-.2-.6-.2-.6,0-1.2.4-1.8,1.3-.6.8-1.3,2.1-1.9,3.6-.6,1.6-1.2,3.5-1.8,5.8-.5,2.2-1,4.7-1.4,7.5,0,.7-.3,1.3-.6,1.6-.3.3-.8.5-1.4.5-1,0-1.8-.4-2.4-1.2-.5-.8-.8-2.1-.8-4s.1-2.9.3-4.2c.2-1.3.4-2.6.7-3.8.3-1.2.5-2.4.7-3.6.2-1.2.3-2.4.3-3.6,0-.4.1-.8.4-1,.3-.3.7-.4,1.2-.4s1,.1,1.5.4c.5.2,1,.7,1.4,1.3l-2.1.7c1-1.9,2.1-3.4,3.5-4.5,1.4-1.1,2.9-1.7,4.5-1.7s3,.4,3.9,1.3c.9.8,1.7,2.2,2.2,4,.5,1.8.9,4.2,1.3,7.1.2,1.7.4,3.2.8,4.4.3,1.2.7,2.3,1.1,3.1.4.8.7,1.6.9,2.2.2.6.4,1.2.4,1.7,0,1.3-.7,2-2.2,2Z"/>
      <path class="st8" d="M1052.4,662.9c-1.7,0-2.9-.3-3.6-.9-.7-.6-1.1-1.3-1.1-2.2s.2-1,.5-1.4.9-.6,1.6-.6c1.3-.2,2.5-.3,3.5-.3s1.9-.1,2.7-.1c.8,0,1.7,0,2.6,0,.9,0,2,0,3.2,0s1.9,0,2.5.3c.6.2.9.5,1.1.8.2.3.3.7.3,1.2,0,.8-.3,1.5-1,2s-1.8.9-3.3.9-2.7,0-3.8,0c-1.2,0-2.2.1-3.1.2s-1.6.1-2.1.1ZM1051,643.3c-1.2,0-2-.3-2.5-.8-.5-.5-.8-1.2-.8-1.9s.2-1.3.7-1.7,1.1-.7,1.9-.8c1.4-.2,2.7-.3,4.1-.5,1.4-.1,2.7-.2,4-.3,1.3,0,2.5-.1,3.5-.1s2.3.2,2.9.5c.6.3.9.9.9,1.8s-.4,1.8-1.3,2.4c-.9.6-2,.9-3.3.9s-2.2,0-3.1,0c-.9,0-1.7,0-2.4.1-.7,0-1.3.1-1.9.2-.5,0-1,0-1.5.1-.4,0-.8,0-1.3,0ZM1057.3,658.8c-1,0-1.8-.3-2.5-.8-.6-.5-.9-1.2-.9-2,0-1.5,0-3,.1-4.5,0-1.5.2-2.9.3-4.2,0-1.3.1-2.6.1-3.7s.1-1.5.4-2c.3-.4.9-.6,1.7-.6s1.7.3,2.4.9c.7.6,1,1.3,1,2.2s0,1.8-.1,3c0,1.2-.2,2.7-.3,4.3s-.2,3.3-.2,5.2-.7,2.2-2,2.2Z"/>
      <path class="st8" d="M1071.4,663.1c-.9,0-1.5-.2-1.9-.6-.4-.4-.6-.9-.6-1.5s0-1,.1-1.5c0-.5.2-1.1.3-1.8.1-.7.2-1.6.3-2.8,0-1.2.1-2.7.1-4.5s0-2.1,0-3.2c0-1.1-.1-2.2-.2-3.2s-.1-1.9-.2-2.6c0-.8,0-1.3,0-1.6,0-.7.2-1.3.7-1.8.4-.5,1.1-.8,1.9-.8s2,.3,2.9.8c.9.5,1.7,1.2,2.5,2.1.8.9,1.5,1.9,2.2,3s1.3,2.3,1.9,3.5,1.2,2.4,1.8,3.6,1.2,2.3,1.7,3.3c.5,1,1.1,1.9,1.7,2.6s1.1,1.3,1.7,1.6l-3,1.4c.3-.2.6-.5.9-.8.3-.3.6-.8.8-1.4.2-.6.3-1.5.3-2.5s0-2.8-.1-4.1c0-1.3-.2-2.6-.2-3.8s0-2.4,0-3.5.2-2.3.5-3.5c.2-.9.5-1.5.9-1.8s.9-.6,1.4-.6c.9,0,1.5.2,2,.7.4.4.7,1,.8,1.6s.1,1.1,0,1.6c-.2,1.1-.4,2.2-.4,3.2,0,1,0,2,0,3,0,1,0,2,.1,3.1,0,1.1,0,2.3,0,3.6s-.1,3.4-.3,4.8c-.2,1.4-.7,2.5-1.4,3.3-.7.8-1.8,1.2-3.2,1.2s-1.7-.2-2.5-.6c-.7-.4-1.4-1-2-1.8-.6-.8-1.2-1.6-1.8-2.6-.5-1-1.1-2.1-1.6-3.2-.5-1.2-1.1-2.3-1.7-3.6-.6-1.2-1.2-2.4-1.9-3.6-.7-1.2-1.4-2.3-2.3-3.4l1-.2c.1,1,.3,1.8.3,2.5,0,.7.1,1.4.1,1.9,0,.6,0,1.2,0,1.9,0,2.2,0,4.3-.3,6.1-.2,1.8-.5,3.4-.9,4.7-.2.6-.5,1.1-.9,1.4-.4.3-1,.5-1.8.5Z"/>
    </g>
    <g>
      <path class="st8" d="M638.6,662.9c-1,0-1.9-.3-2.6-.9-.7-.6-1.2-1.5-1.6-2.6-.4-1.1-.5-2.4-.5-3.8,0-2.2,0-4.3,0-6.3s.1-4,.2-6.1c0-.8.3-1.3.7-1.6.4-.3,1.1-.5,2-.5s1.4.2,1.9.7c.5.5.8,1,.8,1.7,0,1.1,0,2.3,0,3.6,0,1.3,0,2.6-.1,3.9s0,2.6,0,3.9,0,1.4.2,2.1c.1.6.4,1.3.9,1.9l-3.8-.9c2-.3,3.7-.8,5.2-1.4,1.5-.7,2.8-1.5,3.8-2.4,1-.9,1.8-2,2.3-3.1.5-1.1.8-2.3.8-3.5s-.2-1.9-.6-2.6c-.4-.7-1-1.3-1.8-1.6-.8-.4-1.9-.6-3.2-.6s-2.1,0-2.9.2c-.8.1-1.5.3-2.1.5-.6.2-1.2.4-1.7.5-.5.1-1,.2-1.5.2-.8,0-1.5-.2-2.1-.5-.6-.3-1-.8-1.3-1.3s-.4-1.1-.4-1.6.1-.8.3-1.2.6-.7,1.1-.8c.6-.2,1.3-.4,2.1-.6.8-.2,1.7-.3,2.6-.5.9-.2,1.9-.3,2.8-.4,1,0,1.9-.1,2.8-.1,2.4,0,4.5.4,6.2,1.3s3,2.1,3.8,3.6c.9,1.5,1.3,3.2,1.3,5.1s-.3,3.5-.9,5.1-1.5,3-2.5,4.3c-1.1,1.3-2.3,2.4-3.6,3.3-1.4.9-2.8,1.6-4.3,2.1-1.5.5-3,.8-4.4.8Z"/>
      <path class="st8" d="M668.3,662.9c-1.6,0-3.1-.2-4.4-.8-1.3-.5-2.5-1.2-3.5-2.2s-1.8-2.1-2.3-3.4c-.5-1.3-.8-2.8-.8-4.4s.2-2.7.6-4c.4-1.2,1-2.3,1.6-3.3.7-1,1.4-1.8,2.1-2.5.8-.7,1.5-1.2,2.2-1.6.7-.4,1.2-.6,1.7-.6s.9,0,1.3.2c.3.2.6.4.9.9.5.7.6,1.3.4,1.8-.2.6-.6,1-1.2,1.4-1,.7-1.8,1.4-2.4,2.2s-1.1,1.6-1.4,2.4c-.3.9-.4,1.9-.4,3s.2,2.1.7,3c.5.8,1.1,1.5,2,1.9s1.8.7,2.9.7,2.3-.3,3.3-.8c1-.5,1.8-1.2,2.4-2.1.6-.9.9-1.9.9-3s-.2-2.2-.5-3.3c-.3-1.1-.7-2.1-1.3-3-.5-.9-1.2-1.6-1.8-2.2-.7-.5-1.4-.8-2.2-.8s-.5.1-.6.3c-.1.2-.2.5-.2.8,0,.5-.1.9-.4,1.2-.3.3-.6.4-1.1.4s-1.1-.2-1.6-.5c-.5-.3-1-.8-1.3-1.4s-.5-1.4-.5-2.3.2-1.3.6-1.9c.4-.6,1-1.1,1.7-1.4.8-.4,1.7-.6,2.7-.6,1.8,0,3.4.4,4.9,1.2,1.5.8,2.7,1.9,3.8,3.3,1.1,1.4,1.9,3,2.5,4.7.6,1.7.9,3.6.9,5.4s-.3,3-.9,4.4c-.6,1.3-1.5,2.5-2.6,3.5-1.1,1-2.4,1.8-3.9,2.3-1.5.6-3,.8-4.7.8Z"/>
      <path class="st8" d="M686.2,663.1c-.9,0-1.5-.2-1.9-.6-.4-.4-.6-.9-.6-1.5s0-1,.1-1.5c0-.5.2-1.1.3-1.8.1-.7.2-1.6.3-2.8,0-1.2.1-2.7.1-4.5s0-2.1,0-3.2c0-1.1-.1-2.2-.2-3.2s-.1-1.9-.2-2.6c0-.8,0-1.3,0-1.6,0-.7.2-1.3.7-1.8.4-.5,1.1-.8,1.9-.8s2,.3,2.9.8c.9.5,1.7,1.2,2.5,2.1.8.9,1.5,1.9,2.2,3s1.3,2.3,1.9,3.5,1.2,2.4,1.8,3.6,1.2,2.3,1.7,3.3c.5,1,1.1,1.9,1.7,2.6s1.1,1.3,1.7,1.6l-3,1.4c.3-.2.6-.5.9-.8.3-.3.6-.8.8-1.4.2-.6.3-1.5.3-2.5s0-2.8-.1-4.1c0-1.3-.2-2.6-.2-3.8s0-2.4,0-3.5.2-2.3.5-3.5c.2-.9.5-1.5.9-1.8s.9-.6,1.4-.6c.9,0,1.5.2,2,.7.4.4.7,1,.8,1.6s.1,1.1,0,1.6c-.2,1.1-.4,2.2-.4,3.2,0,1,0,2,0,3,0,1,0,2,.1,3.1,0,1.1,0,2.3,0,3.6s-.1,3.4-.3,4.8c-.2,1.4-.7,2.5-1.4,3.3-.7.8-1.8,1.2-3.2,1.2s-1.7-.2-2.5-.6c-.7-.4-1.4-1-2-1.8-.6-.8-1.2-1.6-1.8-2.6-.5-1-1.1-2.1-1.6-3.2-.5-1.2-1.1-2.3-1.7-3.6-.6-1.2-1.2-2.4-1.9-3.6-.7-1.2-1.4-2.3-2.3-3.4l1-.2c.1,1,.3,1.8.3,2.5,0,.7.1,1.4.1,1.9,0,.6,0,1.2,0,1.9,0,2.2,0,4.3-.3,6.1-.2,1.8-.5,3.4-.9,4.7-.2.6-.5,1.1-.9,1.4-.4.3-1,.5-1.8.5Z"/>
      <path class="st8" d="M726.5,642.8h-3.5c-1.1,0-2.1,0-3.1,0-1,0-2,0-3-.1-1,0-2-.1-3-.2-1,0-1.8-.3-2.3-.5-.5-.3-.9-.6-1.2-1.1-.2-.5-.4-1-.4-1.7s.2-1,.5-1.4c.3-.4.9-.6,1.6-.6s2.1,0,3,0c.9,0,1.8,0,2.6.1.8,0,1.7,0,2.5.1.8,0,1.7,0,2.6,0s1.6,0,2.2,0,1.3-.1,2-.2c.7,0,1.4,0,2.3,0s1.2.2,1.6.5c.3.3.5.8.5,1.4,0,.9-.2,1.6-.7,2.1-.5.5-1.1,1-1.9,1.2-.8.3-1.5.4-2.3.4ZM721.3,663c-.7,0-1.4-.2-2-.7s-1.1-1.4-1.5-2.8c-.2-.9-.4-1.9-.5-2.9s-.2-2.2-.2-3.5,0-2.9.2-4.7.3-4,.5-6.5c0-.7.3-1.3.7-1.7s.9-.7,1.6-.7c1.3,0,2.2.3,2.6,1,.5.7.7,1.8.6,3.4-.1,2.5-.2,4.6-.3,6.3,0,1.7,0,3.2,0,4.3s.1,2.1.2,2.8c0,.7.1,1.3.2,1.8,0,.5.1,1,.1,1.4,0,.9-.2,1.5-.6,1.8-.4.3-1,.5-1.8.5Z"/>
      <path class="st8" d="M752.6,662.8c-2.2,0-3.9-.4-5-1.3s-1.7-1.9-1.7-3,.1-1,.4-1.3c.3-.3.7-.5,1.2-.5s.7,0,.9.1c.3,0,.6.2.9.3s.7.2,1.1.3c.4,0,1,.1,1.6.1.9,0,1.7,0,2.3-.1.7,0,1.2-.2,1.8-.3.5-.1,1-.3,1.6-.5-.2-.5-.6-.9-1.3-1.2s-1.4-.7-2.3-1.1c-.9-.4-1.8-.8-2.8-1.2s-1.9-1-2.7-1.6c-.8-.6-1.5-1.3-2.1-2.1-.5-.8-.8-1.8-.8-3s.3-2.2,1-3.2,1.5-1.8,2.6-2.6c1.1-.8,2.3-1.4,3.5-2,1.3-.5,2.5-.9,3.7-1.2s2.2-.4,3.1-.4,1.4.1,1.8.4c.5.3.8.6,1,1.1.2.5.3.9.3,1.5s-.1,1-.4,1.4c-.3.4-.8.7-1.4.8-1.9.4-3.6.8-5,1.3-1.4.5-2.6,1-3.4,1.5-.8.5-1.2,1-1.2,1.6s.3.8.9,1.2c.6.4,1.3.8,2.2,1.1.9.4,1.9.8,2.9,1.2,1,.4,2,1,2.9,1.6s1.7,1.3,2.2,2.1.9,1.8.9,2.9-.2,2-.7,2.7c-.5.8-1.2,1.4-2.1,1.9-.9.5-2.1.9-3.4,1.1-1.3.2-2.9.4-4.6.4Z"/>
      <path class="st8" d="M770.7,653.5c-1.3,0-2.3-.1-3-.4-.7-.3-1.3-.7-1.6-1.1s-.4-1-.4-1.5,0-.7.2-1c.2-.3.5-.5,1-.6,1.8-.5,3.6-.8,5.5-1,1.8-.2,3.7-.4,5.6-.4,1.9,0,3.7,0,5.6,0s2,.1,2.8.4,1.3.7,1.7,1.2c.4.5.6,1,.6,1.6s-.1,1-.4,1.3-.7.5-1.3.5c-2.6,0-4.7,0-6.5.2-1.8.1-3.3.2-4.5.4-1.2.1-2.2.3-3,.4s-1.5.2-2.1.2ZM770.9,662.9c-1,0-1.8-.4-2.5-1.1-.7-.7-1-1.8-.9-3.3,0-1.1,0-2.3,0-3.6s0-2.7,0-4.1c0-1.4,0-2.8,0-4.1,0-1.3,0-2.6,0-3.7,0-1.1,0-2.1,0-2.8s.2-1.6.6-2.2c.4-.6,1.1-.8,2-.8s1.8.4,2.4,1.1c.6.7.9,1.8.9,3.3s0,3.6,0,5.3c0,1.8,0,3.4,0,5.1,0,1.6,0,3.2,0,4.6v3.9c0,.8-.2,1.5-.6,1.9s-1,.6-1.7.6ZM785.3,662.9c-1,0-1.8-.3-2.4-.9-.6-.6-1.1-1.6-1.4-2.9s-.4-3-.4-5,0-4.2,0-5.9,0-3.2.1-4.5c0-1.3,0-2.4,0-3.4s.2-1.6.6-2.1c.4-.5,1-.7,1.8-.7s1.8.4,2.3,1.2c.5.8.8,2.1.8,3.7s0,2.7,0,4.1c0,1.4,0,2.8-.1,4.2,0,1.3,0,2.5,0,3.6,0,1,0,1.8.2,2.5,0,.7.2,1.3.3,1.9s.2,1.2.2,1.9c0,.7-.2,1.3-.5,1.8-.4.4-.9.7-1.5.7Z"/>
      <path class="st8" d="M802.7,662.9c-1.6,0-3.1-.2-4.4-.8-1.3-.5-2.5-1.2-3.5-2.2-1-1-1.8-2.1-2.3-3.4s-.8-2.8-.8-4.4.2-2.7.6-4c.4-1.2,1-2.3,1.6-3.3.7-1,1.4-1.8,2.1-2.5.8-.7,1.5-1.2,2.2-1.6.7-.4,1.2-.6,1.7-.6s.9,0,1.3.2.6.4.9.9c.5.7.6,1.3.4,1.8-.2.6-.6,1-1.2,1.4-1,.7-1.8,1.4-2.4,2.2s-1.1,1.6-1.4,2.4c-.3.9-.4,1.9-.4,3s.2,2.1.7,3c.5.8,1.1,1.5,2,1.9s1.8.7,2.9.7,2.3-.3,3.3-.8c1-.5,1.8-1.2,2.4-2.1.6-.9.9-1.9.9-3s-.2-2.2-.5-3.3c-.3-1.1-.7-2.1-1.3-3-.5-.9-1.2-1.6-1.8-2.2-.7-.5-1.4-.8-2.2-.8s-.5.1-.6.3c-.1.2-.2.5-.2.8,0,.5-.1.9-.4,1.2s-.6.4-1.1.4-1.1-.2-1.6-.5c-.5-.3-1-.8-1.3-1.4-.3-.6-.5-1.4-.5-2.3s.2-1.3.6-1.9c.4-.6,1-1.1,1.7-1.4.8-.4,1.7-.6,2.7-.6,1.8,0,3.4.4,4.9,1.2,1.5.8,2.7,1.9,3.8,3.3,1.1,1.4,1.9,3,2.5,4.7.6,1.7.9,3.6.9,5.4s-.3,3-.9,4.4c-.6,1.3-1.5,2.5-2.6,3.5-1.1,1-2.4,1.8-3.9,2.3-1.5.6-3,.8-4.7.8Z"/>
      <path class="st8" d="M843.1,662.9c-.5,0-1.1,0-1.5-.2-.5-.2-.9-.4-1.3-.8s-.9-.9-1.3-1.5c-.5-.7-.9-1.4-1.3-2.3s-.7-1.8-1.1-2.7c-.3-1-.6-1.9-.9-2.9-.3-1-.6-2-.9-2.9s-.6-1.8-.9-2.6c-.3-.8-.7-1.4-1.1-1.9l1.8.6c-.7.8-1.3,1.8-1.9,2.8-.6,1.1-1.2,2.2-1.7,3.5s-1,2.6-1.4,4.1c-.4,1.4-.8,2.9-1.1,4.4-.2.8-.5,1.3-.9,1.7-.4.4-1.1.6-1.9.6s-.7,0-1.1-.2-.8-.4-1.2-.9c-.4-.4-.8-1.1-1.1-2-.5-1.1-.9-2.4-1.4-3.6-.4-1.3-.8-2.6-1.2-4-.4-1.4-.7-2.8-1-4.2s-.5-2.8-.7-4.2c-.2-1.4-.4-2.7-.4-4,0-.7.1-1.4.5-1.9.4-.5,1.1-.8,2.2-.8s1.9.4,2.5,1.1c.5.7.9,1.6.9,2.7,0,1.1.2,2.2.3,3.3s.3,2.1.5,3.2c.2,1,.4,2.1.7,3.1.3,1,.6,2.1,1,3.3l-1.2.4c.4-1.7.9-3.4,1.5-4.9.6-1.5,1.2-2.9,1.9-4.2.7-1.3,1.5-2.4,2.3-3.4.6-.7,1.2-1.3,1.9-1.7.7-.4,1.5-.6,2.4-.6s1.4.2,2,.7c.6.5,1.1,1.4,1.7,2.6.4.8.7,1.7.9,2.8.3,1.1.5,2.2.9,3.4.3,1.2.7,2.3,1.1,3.4.4,1.1.9,2.1,1.5,2.9h-1.9c.3-.8.6-1.9.9-3,.2-1.1.5-2.3.6-3.5.2-1.2.4-2.4.6-3.6.2-1.2.4-2.2.6-3.2.2-1,.4-1.8.7-2.4.3-.8.7-1.4,1.2-1.8s1.1-.5,1.8-.5,1.6.2,2,.7c.5.5.7,1.1.8,1.9,0,.8,0,1.6-.3,2.5-.3,1-.6,2.2-.8,3.4-.2,1.2-.5,2.5-.7,3.9s-.5,2.7-.8,4.1c-.3,1.4-.6,2.7-.9,4s-.7,2.5-1.1,3.5c-.3.8-.7,1.3-1.1,1.5-.4.3-.8.4-1.3.4Z"/>
      <path class="st8" d="M880.8,642.8h-3.5c-1.1,0-2.1,0-3.1,0-1,0-2,0-3-.1s-2-.1-3-.2c-1,0-1.8-.3-2.3-.5-.5-.3-.9-.6-1.2-1.1-.2-.5-.4-1-.4-1.7s.2-1,.5-1.4c.3-.4.9-.6,1.6-.6s2.1,0,3,0c.9,0,1.8,0,2.6.1.8,0,1.7,0,2.5.1.8,0,1.7,0,2.6,0s1.6,0,2.2,0c.7,0,1.3-.1,2-.2.7,0,1.4,0,2.3,0s1.2.2,1.6.5c.3.3.5.8.5,1.4,0,.9-.2,1.6-.7,2.1-.5.5-1.1,1-1.9,1.2-.8.3-1.5.4-2.3.4ZM875.5,663c-.7,0-1.4-.2-2-.7s-1.1-1.4-1.5-2.8c-.2-.9-.4-1.9-.5-2.9s-.2-2.2-.2-3.5,0-2.9.2-4.7.3-4,.5-6.5c0-.7.3-1.3.7-1.7.4-.4.9-.7,1.6-.7,1.3,0,2.2.3,2.6,1,.5.7.7,1.8.6,3.4-.1,2.5-.2,4.6-.3,6.3,0,1.7,0,3.2,0,4.3,0,1.1.1,2.1.2,2.8,0,.7.1,1.3.2,1.8,0,.5.1,1,.1,1.4,0,.9-.2,1.5-.6,1.8-.4.3-1,.5-1.8.5Z"/>
      <path class="st8" d="M891.7,653.5c-1.3,0-2.3-.1-3-.4-.7-.3-1.3-.7-1.6-1.1s-.4-1-.4-1.5,0-.7.2-1c.2-.3.5-.5,1-.6,1.8-.5,3.6-.8,5.5-1,1.8-.2,3.7-.4,5.6-.4,1.9,0,3.7,0,5.6,0s2,.1,2.8.4,1.3.7,1.7,1.2c.4.5.6,1,.6,1.6s-.1,1-.4,1.3-.7.5-1.3.5c-2.6,0-4.7,0-6.5.2-1.8.1-3.3.2-4.5.4-1.2.1-2.2.3-3,.4s-1.5.2-2.1.2ZM891.9,662.9c-1,0-1.8-.4-2.5-1.1-.7-.7-1-1.8-.9-3.3,0-1.1,0-2.3,0-3.6s0-2.7,0-4.1c0-1.4,0-2.8,0-4.1,0-1.3,0-2.6,0-3.7,0-1.1,0-2.1,0-2.8s.2-1.6.6-2.2c.4-.6,1.1-.8,2-.8s1.8.4,2.4,1.1c.6.7.9,1.8.9,3.3s0,3.6,0,5.3c0,1.8,0,3.4,0,5.1,0,1.6,0,3.2,0,4.6v3.9c0,.8-.2,1.5-.6,1.9s-1,.6-1.7.6ZM906.3,662.9c-1,0-1.8-.3-2.4-.9-.6-.6-1.1-1.6-1.4-2.9s-.4-3-.4-5,0-4.2,0-5.9,0-3.2.1-4.5c0-1.3,0-2.4,0-3.4s.2-1.6.6-2.1c.4-.5,1-.7,1.8-.7s1.8.4,2.3,1.2c.5.8.8,2.1.8,3.7s0,2.7,0,4.1c0,1.4,0,2.8-.1,4.2,0,1.3,0,2.5,0,3.6,0,1,0,1.8.2,2.5,0,.7.2,1.3.3,1.9s.2,1.2.2,1.9c0,.7-.2,1.3-.5,1.8-.4.4-.9.7-1.5.7Z"/>
      <path class="st8" d="M916.6,662.9c-1.7,0-2.9-.3-3.6-.9s-1.1-1.3-1.1-2.2.2-1,.5-1.4c.3-.4.9-.6,1.6-.6,1.3-.2,2.5-.3,3.5-.3,1,0,1.9-.1,2.7-.1.8,0,1.7,0,2.6,0,.9,0,2,0,3.2,0s1.9,0,2.5.3c.6.2.9.5,1.1.8.2.3.3.7.3,1.2,0,.8-.3,1.5-1,2-.7.6-1.8.9-3.3.9s-2.7,0-3.8,0-2.2.1-3.1.2c-.9,0-1.6.1-2.1.1ZM915.2,643.3c-1.2,0-2-.3-2.5-.8-.5-.5-.8-1.2-.8-1.9s.2-1.3.7-1.7c.5-.4,1.1-.7,1.9-.8,1.4-.2,2.7-.3,4.1-.5,1.4-.1,2.7-.2,4-.3,1.3,0,2.5-.1,3.5-.1s2.3.2,2.9.5c.6.3.9.9.9,1.8s-.4,1.8-1.3,2.4c-.9.6-2,.9-3.3.9s-2.7,0-3.8,0c-1.1,0-2,.1-2.7.2-.8,0-1.4.1-2,.2s-1.1,0-1.6,0ZM921.5,658.8c-1,0-1.8-.3-2.5-.8-.6-.5-.9-1.2-.9-2,0-1.5,0-3,.1-4.5,0-1.5.2-2.9.3-4.2,0-1.3.1-2.6.1-3.7s.1-1.5.4-2c.3-.4.9-.6,1.7-.6s1.7.3,2.4.9c.7.6,1,1.3,1,2.2s0,1.8-.1,3c0,1.2-.2,2.7-.3,4.3s-.2,3.3-.2,5.2-.7,2.2-2,2.2Z"/>
      <path class="st8" d="M939.2,662.8c-2.2,0-3.9-.4-5-1.3-1.1-.9-1.7-1.9-1.7-3s.1-1,.4-1.3c.3-.3.7-.5,1.2-.5s.7,0,.9.1c.3,0,.6.2.9.3.3.1.7.2,1.1.3.4,0,1,.1,1.6.1.9,0,1.7,0,2.3-.1.7,0,1.2-.2,1.8-.3.5-.1,1-.3,1.6-.5-.2-.5-.6-.9-1.3-1.2-.6-.4-1.4-.7-2.3-1.1-.9-.4-1.8-.8-2.8-1.2s-1.9-1-2.7-1.6-1.5-1.3-2.1-2.1c-.5-.8-.8-1.8-.8-3s.3-2.2,1-3.2c.7-1,1.5-1.8,2.6-2.6,1.1-.8,2.3-1.4,3.5-2s2.5-.9,3.7-1.2c1.2-.3,2.2-.4,3.1-.4s1.4.1,1.8.4c.5.3.8.6,1,1.1.2.5.3.9.3,1.5s-.1,1-.4,1.4-.8.7-1.4.8c-1.9.4-3.6.8-5,1.3-1.4.5-2.6,1-3.4,1.5-.8.5-1.2,1-1.2,1.6s.3.8.9,1.2c.6.4,1.3.8,2.2,1.1.9.4,1.9.8,2.9,1.2,1,.4,2,1,2.9,1.6.9.6,1.7,1.3,2.2,2.1.6.8.9,1.8.9,2.9s-.2,2-.7,2.7c-.5.8-1.2,1.4-2.1,1.9-.9.5-2.1.9-3.4,1.1-1.3.2-2.9.4-4.6.4Z"/>
      <path class="st8" d="M967.9,656.5c-1.2,0-2-.2-2.5-.7-.5-.5-.8-1-.8-1.8s.2-.9.5-1.2c.3-.3.8-.6,1.5-.8,2.5-.7,5.4-1.3,8.7-1.8,3.3-.5,6.9-.7,11-.7s2.4.2,2.9.6c.5.4.8,1,.8,1.8s-.4,1.6-1.1,2.2c-.7.6-1.7.9-3,.9-1.8,0-3.4,0-5,.2-1.5.1-2.9.2-4.1.4-1.3.2-2.4.3-3.5.5-1,.2-2,.3-2.9.4s-1.7.2-2.4.2ZM987.1,662.9c-.7,0-1.4-.2-2-.6-.6-.4-1.1-1-1.7-1.9-.5-.8-1-1.8-1.4-3.1-.4-1.3-.7-2.6-1-4-.2-1.4-.4-2.7-.6-4-.2-1.5-.3-2.7-.4-3.6-.1-.9-.3-1.6-.4-2-.1-.5-.3-.8-.4-.9-.2-.2-.3-.2-.6-.2-.6,0-1.2.4-1.8,1.3-.6.8-1.3,2.1-1.9,3.6-.6,1.6-1.2,3.5-1.8,5.8-.5,2.2-1,4.7-1.4,7.5,0,.7-.3,1.3-.6,1.6-.3.3-.8.5-1.4.5-1,0-1.8-.4-2.4-1.2-.5-.8-.8-2.1-.8-4s.1-2.9.3-4.2c.2-1.3.4-2.6.7-3.8.3-1.2.5-2.4.7-3.6.2-1.2.3-2.4.3-3.6,0-.4.1-.8.4-1,.3-.3.7-.4,1.2-.4s1,.1,1.5.4c.5.2,1,.7,1.4,1.3l-2.1.7c1-1.9,2.1-3.4,3.5-4.5,1.4-1.1,2.9-1.7,4.5-1.7s3,.4,3.9,1.3c.9.8,1.7,2.2,2.2,4,.5,1.8.9,4.2,1.3,7.1.2,1.7.4,3.2.8,4.4.3,1.2.7,2.3,1.1,3.1.4.8.7,1.6.9,2.2.2.6.4,1.2.4,1.7s-.2,1.1-.5,1.5c-.4.3-.9.5-1.6.5Z"/>
      <path class="st8" d="M1016.3,666.6c-.8,0-1.5-.2-2.1-.6-.5-.4-1-1-1.5-1.8-.3-.5-.5-1-.8-1.7s-.5-1.4-.7-2.3-.4-2-.5-3.4l1.6.7c-1,1.3-2.1,2.3-3.3,3.1-1.2.8-2.4,1.3-3.7,1.7-1.3.4-2.6.5-3.9.5s-2.6-.2-3.6-.6c-1.1-.4-2-1-2.7-1.8-.8-.8-1.3-1.7-1.7-2.8-.4-1.1-.6-2.3-.6-3.7s.3-3.4.9-5.1c.6-1.6,1.5-3.2,2.5-4.6s2.3-2.7,3.7-3.7,2.9-1.9,4.5-2.5c1.6-.6,3.2-.9,4.9-.9s1.9.1,2.5.4,1.1.7,1.4,1.2c.3.5.4,1.1.4,1.8s-.1,1.5-.4,2.2c-.3.7-.7,1.2-1.2,1.6-.5.4-1.1.6-1.8.6s-.6,0-.8-.2c-.2-.1-.3-.3-.4-.4,0-.2-.1-.4-.2-.6,0-.2-.2-.3-.3-.4-.1-.1-.4-.2-.7-.2-.9,0-1.8.2-2.7.6-.9.4-1.7,1-2.5,1.7-.8.7-1.4,1.5-2,2.4s-1,1.8-1.4,2.8c-.3,1-.5,1.9-.5,2.8,0,1.3.3,2.3.9,3,.6.6,1.4,1,2.4,1s2.2-.2,3.3-.6c1.1-.4,2.1-.9,3-1.7s1.8-1.7,2.5-2.8c.5-.6.9-1,1.5-1.3.5-.2,1.2-.3,1.9-.3s1,.1,1.3.3c.3.2.4.5.4,1,0,1.7,0,3.1.2,4.2.1,1.1.3,2.1.5,3s.5,1.7.9,2.5c.3.5.5,1,.6,1.3.1.3.2.6.2.8s0,.5,0,.7c0,.6-.2,1.1-.6,1.5s-.9.5-1.5.5ZM1006,653.5c-.8,0-1.4-.3-2-.8s-.8-1.2-.8-1.9.2-1,.5-1.3c.3-.3.9-.6,1.9-.9,1.5-.4,3-.8,4.6-1,1.6-.2,3.4-.4,5.4-.4,1.1,0,1.9,0,2.4.2.5.2.9.4,1.1.8s.3.7.3,1.2c0,.8-.2,1.5-.7,2.1-.5.6-1.2.9-2.3.9-1.5,0-2.8,0-3.9.2-1.1.1-2,.2-2.8.4-.8.1-1.5.3-2.1.4-.6.1-1.1.2-1.6.2Z"/>
      <path class="st8" d="M1024.1,656.5c-1.2,0-2-.2-2.5-.7-.5-.5-.8-1-.8-1.8s.2-.9.5-1.2c.3-.3.8-.6,1.5-.8,2.5-.7,5.4-1.3,8.7-1.8,3.3-.5,6.9-.7,11-.7s2.4.2,2.9.6c.5.4.8,1,.8,1.8s-.4,1.6-1.1,2.2c-.7.6-1.7.9-3,.9-1.8,0-3.4,0-5,.2-1.5.1-2.9.2-4.1.4-1.3.2-2.4.3-3.5.5-1,.2-2,.3-2.9.4s-1.7.2-2.4.2ZM1043.4,662.9c-.7,0-1.4-.2-2-.6-.6-.4-1.1-1-1.7-1.9-.5-.8-1-1.8-1.4-3.1-.4-1.3-.7-2.6-1-4-.2-1.4-.4-2.7-.6-4-.2-1.5-.3-2.7-.4-3.6-.1-.9-.3-1.6-.4-2-.1-.5-.3-.8-.4-.9-.2-.2-.3-.2-.6-.2-.6,0-1.2.4-1.8,1.3-.6.8-1.3,2.1-1.9,3.6-.6,1.6-1.2,3.5-1.8,5.8-.5,2.2-1,4.7-1.4,7.5,0,.7-.3,1.3-.6,1.6-.3.3-.8.5-1.4.5-1,0-1.8-.4-2.4-1.2-.5-.8-.8-2.1-.8-4s.1-2.9.3-4.2c.2-1.3.4-2.6.7-3.8.3-1.2.5-2.4.7-3.6.2-1.2.3-2.4.3-3.6,0-.4.1-.8.4-1,.3-.3.7-.4,1.2-.4s1,.1,1.5.4c.5.2,1,.7,1.4,1.3l-2.1.7c1-1.9,2.1-3.4,3.5-4.5,1.4-1.1,2.9-1.7,4.5-1.7s3,.4,3.9,1.3c.9.8,1.7,2.2,2.2,4,.5,1.8.9,4.2,1.3,7.1.2,1.7.4,3.2.8,4.4.3,1.2.7,2.3,1.1,3.1.4.8.7,1.6.9,2.2.2.6.4,1.2.4,1.7,0,1.3-.7,2-2.2,2Z"/>
      <path class="st8" d="M1052.4,662.9c-1.7,0-2.9-.3-3.6-.9-.7-.6-1.1-1.3-1.1-2.2s.2-1,.5-1.4.9-.6,1.6-.6c1.3-.2,2.5-.3,3.5-.3s1.9-.1,2.7-.1c.8,0,1.7,0,2.6,0,.9,0,2,0,3.2,0s1.9,0,2.5.3c.6.2.9.5,1.1.8.2.3.3.7.3,1.2,0,.8-.3,1.5-1,2s-1.8.9-3.3.9-2.7,0-3.8,0c-1.2,0-2.2.1-3.1.2s-1.6.1-2.1.1ZM1051,643.3c-1.2,0-2-.3-2.5-.8-.5-.5-.8-1.2-.8-1.9s.2-1.3.7-1.7,1.1-.7,1.9-.8c1.4-.2,2.7-.3,4.1-.5,1.4-.1,2.7-.2,4-.3,1.3,0,2.5-.1,3.5-.1s2.3.2,2.9.5c.6.3.9.9.9,1.8s-.4,1.8-1.3,2.4c-.9.6-2,.9-3.3.9s-2.2,0-3.1,0c-.9,0-1.7,0-2.4.1-.7,0-1.3.1-1.9.2-.5,0-1,0-1.5.1-.4,0-.8,0-1.3,0ZM1057.3,658.8c-1,0-1.8-.3-2.5-.8-.6-.5-.9-1.2-.9-2,0-1.5,0-3,.1-4.5,0-1.5.2-2.9.3-4.2,0-1.3.1-2.6.1-3.7s.1-1.5.4-2c.3-.4.9-.6,1.7-.6s1.7.3,2.4.9c.7.6,1,1.3,1,2.2s0,1.8-.1,3c0,1.2-.2,2.7-.3,4.3s-.2,3.3-.2,5.2-.7,2.2-2,2.2Z"/>
      <path class="st8" d="M1071.4,663.1c-.9,0-1.5-.2-1.9-.6-.4-.4-.6-.9-.6-1.5s0-1,.1-1.5c0-.5.2-1.1.3-1.8.1-.7.2-1.6.3-2.8,0-1.2.1-2.7.1-4.5s0-2.1,0-3.2c0-1.1-.1-2.2-.2-3.2s-.1-1.9-.2-2.6c0-.8,0-1.3,0-1.6,0-.7.2-1.3.7-1.8.4-.5,1.1-.8,1.9-.8s2,.3,2.9.8c.9.5,1.7,1.2,2.5,2.1.8.9,1.5,1.9,2.2,3s1.3,2.3,1.9,3.5,1.2,2.4,1.8,3.6,1.2,2.3,1.7,3.3c.5,1,1.1,1.9,1.7,2.6s1.1,1.3,1.7,1.6l-3,1.4c.3-.2.6-.5.9-.8.3-.3.6-.8.8-1.4.2-.6.3-1.5.3-2.5s0-2.8-.1-4.1c0-1.3-.2-2.6-.2-3.8s0-2.4,0-3.5.2-2.3.5-3.5c.2-.9.5-1.5.9-1.8s.9-.6,1.4-.6c.9,0,1.5.2,2,.7.4.4.7,1,.8,1.6s.1,1.1,0,1.6c-.2,1.1-.4,2.2-.4,3.2,0,1,0,2,0,3,0,1,0,2,.1,3.1,0,1.1,0,2.3,0,3.6s-.1,3.4-.3,4.8c-.2,1.4-.7,2.5-1.4,3.3-.7.8-1.8,1.2-3.2,1.2s-1.7-.2-2.5-.6c-.7-.4-1.4-1-2-1.8-.6-.8-1.2-1.6-1.8-2.6-.5-1-1.1-2.1-1.6-3.2-.5-1.2-1.1-2.3-1.7-3.6-.6-1.2-1.2-2.4-1.9-3.6-.7-1.2-1.4-2.3-2.3-3.4l1-.2c.1,1,.3,1.8.3,2.5,0,.7.1,1.4.1,1.9,0,.6,0,1.2,0,1.9,0,2.2,0,4.3-.3,6.1-.2,1.8-.5,3.4-.9,4.7-.2.6-.5,1.1-.9,1.4-.4.3-1,.5-1.8.5Z"/>
    </g>
  </g>
  <path id="location-eye_x5F_R" class="st5" d="M989.6,342.9c13.1-1.1,30.1-1.5,44.4.7,6,1.1,10.8,2.7,14.5,6.2,4.1,3.7,4,9.9-.3,13.1-6.3,4.9-16.3,4.6-24.2,5.2-12.7.7-26.1,1-38.4,0-4.2-.3-8.7-.8-12.7-2.2-7.6-2.3-11.4-10.3-5.4-16.4,5.4-5.3,14.9-5.9,22-6.6h.2Z"/>
  <path id="location-eye_x5F_L" class="st5" d="M893.6,342.9c13.1-1.1,30.1-1.5,44.4.7,6,1.1,10.8,2.7,14.5,6.2,4.1,3.7,4,9.9-.3,13.1-6.3,4.9-16.3,4.6-24.2,5.2-12.7.7-26.1,1-38.4,0-4.2-.3-8.7-.8-12.7-2.2-7.6-2.3-11.4-10.3-5.4-16.4,5.4-5.3,14.9-5.9,22-6.6h.2Z"/>
  <g id="location-pupils_x5F_mask">
    <g class="st11">
      <g id="location-pupil_x5F_R">
        <path class="st9" d="M998.3,374.2c8.3.6,21.1-4.1,21.9-14.3.8-10.2-11.5-16.2-20.7-16.9-9.1-.7-19.1,4.4-19.9,15.1-.8,10.6,10.4,15.5,18.7,16.1Z"/>
        <path class="st9" d="M998.3,374.2c8.3.6,21.1-4.1,21.9-14.3.8-10.2-11.5-16.2-20.7-16.9-9.1-.7-19.1,4.4-19.9,15.1-.8,10.6,10.4,15.5,18.7,16.1Z"/>
      </g>
      <g id="location-pupil_x5F_L">
        <path class="st9" d="M920.8,378.5c8.3.6,21.2-5.1,22.1-17.3.9-12.1-11.3-19-20.5-19.7-9.1-.7-19.2,5.5-20.2,18.2-.9,12.6,10.2,18.2,18.5,18.8Z"/>
        <path class="st9" d="M920.8,378.5c8.3.6,21.2-5.1,22.1-17.3.9-12.1-11.3-19-20.5-19.7-9.1-.7-19.2,5.5-20.2,18.2-.9,12.6,10.2,18.2,18.5,18.8Z"/>
      </g>
    </g>
  </g>
  <g id="location-txt">
    <g>
      <path class="st8" d="M749.3,438.6c-2.9,0-5-.8-6.5-2.3-1.5-1.6-2.2-3.9-2.2-7s.1-3.5.4-5.1c.3-1.6.6-3.1.9-4.6.3-1.5.4-2.8.4-4.1s.2-1.4.6-1.9c.4-.5,1-.8,1.9-.8s1.3.2,1.8.6c.5.4.8.9,1.1,1.4s.4,1.2.4,1.8c0,1.2-.1,2.4-.3,3.7-.2,1.2-.4,2.4-.7,3.6-.3,1.2-.5,2.2-.7,3.2-.2,1-.3,1.9-.3,2.6,0,1.1.3,2,.8,2.6.5.6,1.4.9,2.6.9s1.8-.1,2.4-.3c.6-.2,1.1-.4,1.5-.7.4-.2.8-.5,1.2-.7.4-.2.8-.3,1.3-.3s.9.2,1.3.7c.3.4.5.9.5,1.5s-.1,1.3-.4,1.9c-.3.6-.7,1.1-1.2,1.6-.8.6-1.9,1.1-3.1,1.4-1.2.3-2.4.4-3.6.4Z"/>
      <path class="st8" d="M770.3,438.6c-1.6,0-3.1-.3-4.4-.8-1.3-.5-2.5-1.2-3.5-2.2-1-1-1.8-2.1-2.3-3.4-.5-1.3-.8-2.8-.8-4.4s.2-2.7.6-4c.4-1.2,1-2.3,1.6-3.3.7-1,1.4-1.8,2.1-2.5.8-.7,1.5-1.2,2.2-1.6.7-.4,1.2-.6,1.7-.6s.9,0,1.3.2c.3.2.6.4.9.9.5.7.6,1.3.4,1.8s-.6,1-1.2,1.4c-1,.7-1.8,1.4-2.4,2.2s-1.1,1.6-1.4,2.4c-.3.9-.4,1.9-.4,3s.2,2.1.7,3c.5.8,1.1,1.5,2,1.9.9.4,1.8.7,2.9.7s2.3-.3,3.3-.8c1-.5,1.8-1.2,2.4-2.1.6-.9.9-1.9.9-3s-.2-2.2-.5-3.3c-.3-1.1-.7-2.1-1.3-3-.5-.9-1.2-1.6-1.8-2.2-.7-.5-1.4-.8-2.2-.8s-.5.1-.6.3c-.1.2-.2.5-.2.8,0,.5-.1.9-.4,1.2s-.6.4-1.1.4-1.1-.2-1.6-.5c-.5-.3-1-.8-1.3-1.4s-.5-1.4-.5-2.3.2-1.3.6-1.9,1-1.1,1.7-1.4c.8-.4,1.7-.6,2.7-.6,1.8,0,3.4.4,4.9,1.2,1.5.8,2.7,1.9,3.8,3.3,1.1,1.4,1.9,3,2.5,4.7.6,1.7.9,3.6.9,5.4s-.3,3-.9,4.4c-.6,1.3-1.5,2.5-2.6,3.5-1.1,1-2.4,1.8-3.9,2.3-1.5.6-3,.8-4.7.8Z"/>
      <path class="st8" d="M796.2,438.6c-2.2,0-4.1-.5-5.7-1.4s-2.7-2.3-3.5-4-1.2-3.6-1.2-5.7.4-3.8,1.1-5.5c.7-1.8,1.7-3.3,2.9-4.7,1.2-1.4,2.7-2.5,4.3-3.3s3.3-1.2,5.1-1.2,3.1.4,3.9,1.1c.8.8,1.2,1.8,1.2,3.1s-.1,1.4-.3,2.1c-.2.6-.6,1.2-1,1.6-.5.4-1,.6-1.7.6s-.6,0-.9-.2c-.2-.1-.4-.3-.5-.6-.1-.3-.2-.5-.2-.8s0-.4-.1-.6c0-.2-.2-.3-.4-.4-.2,0-.5-.1-.9-.1-1,0-2,.2-2.8.8-.8.5-1.6,1.2-2.2,2-.6.8-1.1,1.8-1.4,2.8-.3,1-.5,2.1-.5,3.2,0,1.9.5,3.3,1.4,4.3.9,1,2.2,1.5,3.8,1.5s1.5,0,2.1-.2c.5-.2,1-.4,1.3-.6.3-.2.6-.5.9-.7.3-.2.6-.4.9-.6.3-.2.7-.3,1.1-.3.7,0,1.2.2,1.4.6.3.4.4.9.4,1.6s-.2,1.3-.6,2c-.4.7-.9,1.3-1.6,1.8-.7.5-1.6,1-2.7,1.3-1,.3-2.2.5-3.6.5Z"/>
      <path class="st8" d="M809.8,432.3c-1.2,0-2-.2-2.5-.7-.5-.5-.8-1-.8-1.8s.2-.9.5-1.2c.3-.3.8-.6,1.5-.8,2.5-.7,5.4-1.3,8.7-1.8,3.3-.5,6.9-.7,11-.7s2.4.2,2.9.6c.5.4.8,1,.8,1.8s-.4,1.6-1.1,2.2c-.7.6-1.7.9-3,.9-1.8,0-3.4,0-5,.2-1.5.1-2.9.2-4.1.4s-2.4.3-3.5.5c-1,.2-2,.3-2.9.4s-1.7.2-2.4.2ZM829.1,438.6c-.7,0-1.4-.2-2-.6s-1.1-1-1.7-1.9c-.5-.8-1-1.8-1.4-3.1-.4-1.3-.7-2.6-1-4-.2-1.4-.4-2.7-.6-4-.2-1.5-.3-2.7-.4-3.6s-.3-1.6-.4-2-.3-.8-.4-.9c-.2-.2-.3-.2-.6-.2-.6,0-1.2.4-1.8,1.3s-1.3,2.1-1.9,3.6-1.2,3.5-1.8,5.8c-.5,2.2-1,4.7-1.4,7.5,0,.7-.3,1.3-.6,1.6-.3.3-.8.5-1.4.5-1,0-1.8-.4-2.4-1.2-.5-.8-.8-2.1-.8-4s.1-2.9.3-4.2c.2-1.3.4-2.6.7-3.8s.5-2.4.7-3.6c.2-1.2.3-2.4.3-3.6,0-.4.1-.8.4-1s.7-.4,1.2-.4,1,.1,1.5.4,1,.7,1.4,1.3l-2.1.7c1-1.9,2.1-3.4,3.5-4.5,1.4-1.1,2.9-1.7,4.5-1.7s3,.4,3.9,1.3c.9.8,1.7,2.2,2.2,4,.5,1.8.9,4.2,1.3,7.1.2,1.7.4,3.2.8,4.4.3,1.2.7,2.3,1.1,3.1.4.8.7,1.6.9,2.2.2.6.4,1.2.4,1.7s-.2,1.1-.5,1.5c-.4.3-.9.5-1.6.5Z"/>
      <path class="st8" d="M847.1,418.5h-3.5c-1.1,0-2.1,0-3.1,0-1,0-2,0-3-.1-1,0-2-.1-3-.2-1,0-1.8-.3-2.3-.5-.5-.3-.9-.6-1.2-1.1s-.4-1-.4-1.7.2-1,.5-1.4c.3-.4.9-.6,1.6-.6s2.1,0,3,0c.9,0,1.8,0,2.6.1.8,0,1.7,0,2.5.1.8,0,1.7,0,2.6,0s1.6,0,2.2,0c.7,0,1.3-.1,2-.2.7,0,1.4,0,2.3,0s1.2.2,1.6.5.5.8.5,1.4c0,.9-.2,1.6-.7,2.1-.5.5-1.1,1-1.9,1.2-.8.3-1.5.4-2.3.4ZM841.9,438.7c-.7,0-1.4-.2-2-.7-.6-.5-1.1-1.4-1.5-2.8-.2-.9-.4-1.9-.5-2.9-.1-1-.2-2.2-.2-3.5s0-2.9.2-4.7c.1-1.8.3-4,.5-6.5,0-.7.3-1.3.7-1.7.4-.4.9-.7,1.6-.7,1.3,0,2.2.3,2.6,1,.5.7.7,1.8.6,3.4-.1,2.5-.2,4.6-.3,6.3,0,1.7,0,3.2,0,4.3,0,1.1.1,2.1.2,2.8s.1,1.3.2,1.8.1,1,.1,1.4c0,.9-.2,1.5-.6,1.8-.4.3-1,.5-1.8.5Z"/>
      <path class="st8" d="M858.2,438.6c-1.7,0-2.9-.3-3.6-.9-.7-.6-1.1-1.3-1.1-2.2s.2-1,.5-1.4c.3-.4.9-.6,1.6-.6,1.3-.2,2.5-.3,3.5-.3,1,0,1.9-.1,2.7-.1.8,0,1.7,0,2.6,0,.9,0,2,0,3.2,0s1.9,0,2.5.3c.6.2.9.5,1.1.8.2.3.3.7.3,1.2,0,.8-.3,1.5-1,2s-1.8.9-3.3.9-2.7,0-3.8,0c-1.2,0-2.2.1-3.1.2-.9,0-1.6.1-2.1.1ZM856.8,419c-1.2,0-2-.3-2.5-.8s-.8-1.2-.8-1.9.2-1.3.7-1.7c.5-.4,1.1-.7,1.9-.8,1.4-.2,2.7-.3,4.1-.5s2.7-.2,4-.3c1.3,0,2.5-.1,3.5-.1s2.3.2,2.9.5.9.9.9,1.8-.4,1.8-1.3,2.4c-.9.6-2,.9-3.3.9s-2.7,0-3.8,0c-1.1,0-2,.1-2.7.2-.8,0-1.4.1-2,.2s-1.1,0-1.6,0ZM863.1,434.5c-1,0-1.8-.2-2.5-.8s-.9-1.2-.9-2c0-1.5,0-3,.1-4.5s.2-2.9.3-4.2c0-1.3.1-2.6.1-3.7s.1-1.5.4-2c.3-.4.9-.6,1.7-.6s1.7.3,2.4.9c.7.6,1,1.3,1,2.2s0,1.8-.1,3c0,1.2-.2,2.7-.3,4.3-.1,1.6-.2,3.3-.2,5.2s-.7,2.2-2,2.2Z"/>
      <path class="st8" d="M883.9,438.6c-1.6,0-3.1-.3-4.4-.8-1.3-.5-2.5-1.2-3.5-2.2-1-1-1.8-2.1-2.3-3.4-.5-1.3-.8-2.8-.8-4.4s.2-2.7.6-4c.4-1.2,1-2.3,1.6-3.3.7-1,1.4-1.8,2.1-2.5.8-.7,1.5-1.2,2.2-1.6.7-.4,1.2-.6,1.7-.6s.9,0,1.3.2c.3.2.6.4.9.9.5.7.6,1.3.4,1.8s-.6,1-1.2,1.4c-1,.7-1.8,1.4-2.4,2.2s-1.1,1.6-1.4,2.4c-.3.9-.4,1.9-.4,3s.2,2.1.7,3c.5.8,1.1,1.5,2,1.9.9.4,1.8.7,2.9.7s2.3-.3,3.3-.8c1-.5,1.8-1.2,2.4-2.1.6-.9.9-1.9.9-3s-.2-2.2-.5-3.3c-.3-1.1-.7-2.1-1.3-3-.5-.9-1.2-1.6-1.8-2.2-.7-.5-1.4-.8-2.2-.8s-.5.1-.6.3c-.1.2-.2.5-.2.8,0,.5-.1.9-.4,1.2s-.6.4-1.1.4-1.1-.2-1.6-.5c-.5-.3-1-.8-1.3-1.4s-.5-1.4-.5-2.3.2-1.3.6-1.9,1-1.1,1.7-1.4c.8-.4,1.7-.6,2.7-.6,1.8,0,3.4.4,4.9,1.2,1.5.8,2.7,1.9,3.8,3.3,1.1,1.4,1.9,3,2.5,4.7.6,1.7.9,3.6.9,5.4s-.3,3-.9,4.4c-.6,1.3-1.5,2.5-2.6,3.5-1.1,1-2.4,1.8-3.9,2.3-1.5.6-3,.8-4.7.8Z"/>
      <path class="st8" d="M901.8,438.8c-.9,0-1.5-.2-1.9-.6s-.6-.9-.6-1.5,0-1,.1-1.5c0-.5.2-1.1.3-1.8.1-.7.2-1.6.3-2.8,0-1.2.1-2.7.1-4.5s0-2.1,0-3.2c0-1.1-.1-2.2-.2-3.2s-.1-1.9-.2-2.6c0-.8,0-1.3,0-1.6,0-.7.2-1.3.7-1.8.4-.5,1.1-.8,1.9-.8s2,.3,2.9.8,1.7,1.2,2.5,2.1c.8.9,1.5,1.9,2.2,3,.7,1.1,1.3,2.3,1.9,3.5.6,1.2,1.2,2.4,1.8,3.6s1.2,2.3,1.7,3.3c.5,1,1.1,1.9,1.7,2.6s1.1,1.3,1.7,1.6l-3,1.4c.3-.2.6-.5.9-.8s.6-.8.8-1.4c.2-.6.3-1.5.3-2.5s0-2.8-.1-4.1c0-1.3-.2-2.6-.2-3.8s0-2.4,0-3.5c0-1.2.2-2.3.5-3.5.2-.9.5-1.5.9-1.8.4-.4.9-.6,1.4-.6.9,0,1.5.2,2,.7.4.4.7,1,.8,1.6.1.6.1,1.1,0,1.6-.2,1.1-.4,2.2-.4,3.2,0,1,0,2,0,3,0,1,0,2,.1,3.1s0,2.3,0,3.6-.1,3.4-.3,4.8c-.2,1.4-.7,2.5-1.4,3.3-.7.8-1.8,1.2-3.2,1.2s-1.7-.2-2.5-.6-1.4-1-2-1.8c-.6-.8-1.2-1.6-1.8-2.6-.5-1-1.1-2.1-1.6-3.2-.5-1.2-1.1-2.3-1.7-3.6-.6-1.2-1.2-2.4-1.9-3.6-.7-1.2-1.4-2.3-2.3-3.4l1-.2c.1,1,.3,1.8.3,2.5s.1,1.4.1,1.9c0,.6,0,1.2,0,1.9,0,2.2,0,4.3-.3,6.1-.2,1.8-.5,3.4-.9,4.7-.2.6-.5,1.1-.9,1.4-.4.3-1,.5-1.8.5Z"/>
      <path class="st8" d="M944.4,438.6c-.9,0-1.6-.3-2.3-1s-1-1.9-1-3.5,0-2.9-.2-4.1c-.2-1.1-.4-2.2-.6-3.1-.2-.9-.4-1.8-.5-2.6-.2-.8-.2-1.7-.2-2.7,0-1.7.3-3.3,1-4.6.7-1.3,1.7-2.3,3.2-3,1.5-.7,3.4-1.1,5.9-1.1s3.3.3,4.7,1c1.4.6,2.6,1.6,3.4,2.8s1.3,2.7,1.3,4.4-.3,2.7-.9,3.9c-.6,1.2-1.4,2.3-2.4,3.3-1,.9-2.2,1.7-3.5,2.2-1.3.5-2.7.8-4.2.8s-2-.2-2.9-.6c-.8-.4-1.5-.8-2-1.4-.5-.6-.7-1.2-.7-1.9s.2-1.1.6-1.5c.4-.3.8-.5,1.4-.5s.6,0,.8.2c.2.1.6.2.9.3s.9.2,1.6.2c1.1,0,2-.2,2.9-.7.9-.5,1.6-1.1,2.1-1.9.5-.8.8-1.6.8-2.4s-.2-1.1-.6-1.5c-.4-.4-.9-.7-1.5-.9-.6-.2-1.2-.3-1.9-.3-1.5,0-2.7.3-3.5.8s-1.2,1.3-1.2,2.4,0,1.9.3,2.9c.2,1,.4,2,.6,3,.2,1.1.4,2.2.6,3.5s.3,2.7.3,4.3-.1,1.8-.4,2.4c-.3.6-.9.9-1.9.9Z"/>
      <path class="st8" d="M965.9,419.3c-1.2,0-2.1-.3-2.8-.8-.6-.5-1-1.2-1-2s.1-.8.3-1.1.7-.7,1.4-.8c1.5-.4,3.2-.7,5-1,1.8-.2,3.5-.4,5.1-.6,1.6-.1,3-.2,4.1-.2,1.6,0,2.8.3,3.4.8s1,1.2,1,2.1-.2,1.2-.6,1.7c-.4.5-1,.7-1.8.7-1.6,0-3.1,0-4.5.2-1.5.1-2.8.3-4,.5-1.2.2-2.3.3-3.3.4-.9.1-1.7.2-2.2.2ZM973,438.5c-1.8,0-3.3-.3-4.6-.8-1.3-.5-2.4-1.3-3.3-2.3s-1.5-2.1-1.9-3.4c-.4-1.3-.6-2.7-.6-4.2s0-1.7.2-2.6c.1-.9.3-1.9.6-2.9.3-1,.5-2,.9-3,.3-.9.7-1.7,1.4-2.2.6-.5,1.3-.8,2.2-.8s.8,0,1.2.3c.3.2.6.4.7.7.2.3.2.7.2,1.2-.1.6-.4,1.4-.6,2.4s-.5,2-.8,3.2c-.2,1.2-.3,2.4-.3,3.8s.2,1.9.6,2.7c.4.8,1,1.4,1.7,1.9.7.5,1.6.7,2.6.7s1.9,0,2.7-.2c.8-.1,1.4-.3,2-.4s1.1-.3,1.5-.5c.4-.1.8-.2,1.1-.2.7,0,1.2.2,1.5.5.3.3.5.8.5,1.5,0,1-.4,1.8-1.1,2.5-.7.7-1.8,1.3-3.2,1.6-1.4.4-3.1.6-5,.6ZM967,429.3c-.5.1-1,0-1.3-.1-.3-.2-.5-.5-.6-1-.1-.4-.2-.9-.2-1.4s.2-1.3.7-1.8,1-.8,1.7-1c.6-.1,1.3-.3,2-.4.7-.1,1.5-.2,2.3-.3.8-.1,1.7-.2,2.6-.3s2-.1,3.1-.2c1,0,1.7.2,2.2.6.4.4.6.9.6,1.5,0,1-.3,1.7-.9,2.3s-1.4.8-2.3.9c-1.1,0-2.1.1-3,.2-.9,0-1.8.2-2.6.3s-1.5.2-2.2.4c-.7.1-1.3.3-1.9.4Z"/>
      <path class="st8" d="M989.1,438.7c-.9,0-1.7-.4-2.4-1.2-.7-.8-1-2-1-3.6s.1-2.1.4-3.3c.3-1.2.8-2.6,1.4-4.1,0-1.2,0-2.3-.2-3.2-.2-1-.4-1.9-.6-2.8-.3-.9-.6-2-.9-3.1-.3-1-.2-1.7,0-2.2.3-.5,1-.8,2-.8s2.1.4,2.8,1.2c.7.8,1.2,2.3,1.6,4.4h-1c1.3-2.2,2.9-4,4.8-5.2,1.9-1.3,3.9-1.9,6-1.9s2.1.2,2.9.5c.8.3,1.4.8,1.9,1.3s.9,1.2,1.1,2c.2.8.4,1.6.4,2.5s-.2,2.2-.7,3.2c-.5,1-1.2,2-2.1,3-.9.9-2.1,1.8-3.5,2.5-1.4.8-2.9,1.4-4.7,2,1.4.8,2.9,1.5,4.5,2.1s3.2,1.2,4.8,1.6c1.1.3,1.9.6,2.3.9.4.3.6.8.6,1.3,0,.9-.3,1.5-.9,2s-1.5.7-2.6.7-1.5-.1-2.6-.4c-1.1-.3-2.2-.7-3.5-1.2-1.3-.5-2.5-1.1-3.7-1.8-1.2-.7-2.3-1.4-3.4-2.1s-1.8-1.5-2.4-2.2c-.3-.4-.4-.9-.4-1.4s.1-1.1.4-1.6c.3-.5.6-.8,1.1-.9,2.1-.5,3.9-1.1,5.4-1.8,1.5-.7,2.6-1.4,3.5-2.1.9-.7,1.5-1.4,1.9-2s.6-1.2.6-1.6,0-.7-.3-.9c-.2-.2-.5-.3-1-.3s-.9.1-1.5.4c-.6.3-1.3.7-2.1,1.2-.8.5-1.5,1.3-2.3,2.2-.8.9-1.5,2-2.1,3.3-.6,1.3-1.1,2.8-1.5,4.6s-.6,3.8-.6,6,0,1.2-.3,1.6c-.2.4-.4.7-.8.9-.3.2-.8.3-1.3.3Z"/>
      <path class="st8" d="M1015.9,438.7c-.7,0-1.3-.2-1.8-.7-.5-.5-.8-1.3-1.1-2.4-.2-1.1-.4-2.7-.4-4.8s0-2,0-2.9.1-1.8.2-2.6c0-.8,0-1.6,0-2.4s0-1.2,0-1.7c0-.5-.1-1-.2-1.4,0-.4-.2-.8-.2-1.2,0-.4,0-.7,0-1,0-.7.2-1.2.5-1.6.3-.4.8-.6,1.6-.6s1.3.2,1.8.6c.5.4.9,1,1.2,1.6.3.7.4,1.4.5,2.1l-.9.4c.5-1.4,1.1-2.7,1.7-3.8.6-1.1,1.3-1.9,2.1-2.5s1.5-.9,2.3-.9,1.1.2,1.6.5c.5.3.9.8,1.2,1.5.4.7.7,1.6,1,2.7.3,1.1.6,2.4.9,4,.3,1.5.6,2.9.8,4.1.2,1.2.4,2.2.6,3.2.2.9.5,1.9,1,2.8l-2.1-1c.4-.9.7-1.9,1-3,.3-1.1.6-2.2,1-3.3.3-1.1.7-2.2,1.1-3.3.4-1.1.8-2.1,1.2-3,.5-1,1-1.9,1.5-2.7.5-.8,1.1-1.4,1.8-1.9.7-.5,1.5-.7,2.4-.7s1.3.1,1.9.4c.6.3,1.1.8,1.5,1.4s.8,1.5,1.1,2.6c.3,1.1.5,2.4.7,4,.2,1.7.4,3.4.6,5.1.2,1.7.5,3.2.8,4.7.3,1.5.7,2.8,1.2,3.9.3.7.4,1.3.3,1.9s-.3,1-.7,1.3c-.4.3-1,.5-1.7.5s-1.5-.2-2.1-.7c-.6-.4-1.1-1.1-1.6-2.1-.4-.7-.7-1.6-.9-2.6-.3-1-.5-2.1-.6-3.3-.2-1.1-.3-2.3-.4-3.4-.1-1.1-.2-2.1-.3-3.1,0-.8-.1-1.5-.2-2.1-.1-.6-.3-1.3-.4-1.8s-.4-1.2-.7-1.7l1.8.8c-.7.8-1.2,1.8-1.7,3-.5,1.2-1,2.6-1.4,4.1s-.9,3.2-1.5,5c-.5,1.8-1.2,3.7-2,5.8-.3.7-.6,1.3-1,1.6s-.9.5-1.6.5-1.1-.1-1.5-.4c-.4-.2-.8-.7-1.1-1.2-.7-1.2-1.3-2.6-1.8-4.2-.5-1.6-.8-3.6-1.2-5.9-.2-1.5-.4-2.8-.6-4-.2-1.1-.5-2.2-1-3.2h.6c-1.5,2.3-2.5,4.8-3,7.5-.5,2.7-.9,5.7-1.1,9,0,.9-.3,1.5-.7,1.9-.4.4-1,.6-1.7.6Z"/>
      <path class="st8" d="M1052.9,438.6c-1.7,0-2.9-.3-3.6-.9-.7-.6-1.1-1.3-1.1-2.2s.2-1,.5-1.4c.3-.4.9-.6,1.6-.6,1.1-.1,2-.2,2.8-.3.8,0,1.6-.1,2.3-.1.7,0,1.4,0,2.1,0,.7,0,1.4,0,2.2,0,.8,0,1.7,0,2.6,0s1.9,0,2.5.3c.6.2.9.5,1.1.8.2.3.3.7.3,1.2,0,.8-.3,1.5-1,2s-1.8.9-3.3.9-2.7,0-3.8,0c-1.2,0-2.2.1-3.1.2-.9,0-1.6.1-2.1.1ZM1051.5,419c-1.2,0-2-.3-2.5-.8s-.8-1.2-.8-1.9.2-1.3.7-1.7c.5-.4,1.1-.7,1.9-.8,1.4-.2,2.7-.3,4.1-.5s2.7-.2,4-.3c1.3,0,2.5-.1,3.5-.1s2.3.2,2.9.5.9.9.9,1.8-.4,1.8-1.3,2.4c-.9.6-2,.9-3.3.9s-2.2,0-3.1,0c-.9,0-1.7,0-2.4.1-.7,0-1.3.1-1.9.2s-1,0-1.5.1c-.4,0-.8,0-1.3,0ZM1057.8,434.5c-1,0-1.8-.2-2.5-.8s-.9-1.2-.9-2c0-1.5,0-3,.1-4.5s.2-2.9.3-4.2c0-1.3.1-2.6.1-3.7s.1-1.5.4-2c.3-.4.9-.6,1.7-.6s1.7.3,2.4.9c.7.6,1,1.3,1,2.2s0,1.8-.1,3c0,1.2-.2,2.7-.3,4.3-.1,1.6-.2,3.3-.2,5.2s-.7,2.2-2,2.2Z"/>
      <path class="st8" d="M1075.5,438.6c-2.2,0-3.9-.4-5-1.3s-1.7-1.9-1.7-3,.1-1,.4-1.3c.3-.3.7-.5,1.2-.5s.7,0,.9.1c.3,0,.6.2.9.3.3.1.7.2,1.1.3.4,0,1,.1,1.6.1.9,0,1.7,0,2.3-.1.7,0,1.2-.2,1.8-.3s1-.3,1.6-.5c-.2-.5-.6-.9-1.3-1.2-.6-.4-1.4-.7-2.3-1.1-.9-.4-1.8-.8-2.8-1.2-1-.4-1.9-1-2.7-1.6-.8-.6-1.5-1.3-2.1-2.1-.5-.8-.8-1.8-.8-3s.3-2.2,1-3.2,1.5-1.8,2.6-2.6c1.1-.8,2.3-1.4,3.5-2,1.3-.5,2.5-.9,3.7-1.2s2.2-.4,3.1-.4,1.4.1,1.8.4c.5.3.8.6,1,1.1.2.5.3.9.3,1.5s-.1,1-.4,1.4c-.3.4-.8.7-1.4.8-1.9.4-3.6.8-5,1.3-1.4.5-2.6,1-3.4,1.5s-1.2,1-1.2,1.6.3.8.9,1.2c.6.4,1.3.8,2.2,1.1.9.4,1.9.8,2.9,1.2,1,.4,2,1,2.9,1.6.9.6,1.7,1.3,2.2,2.1.6.8.9,1.8.9,2.9s-.2,2-.7,2.7c-.5.8-1.2,1.4-2.1,1.9-.9.5-2.1.9-3.4,1.1-1.3.2-2.9.4-4.6.4Z"/>
      <path class="st8" d="M1095.6,438.6c-2.2,0-3.9-.4-5-1.3s-1.7-1.9-1.7-3,.1-1,.4-1.3c.3-.3.7-.5,1.2-.5s.7,0,.9.1c.3,0,.6.2.9.3.3.1.7.2,1.1.3.4,0,1,.1,1.6.1.9,0,1.7,0,2.3-.1.7,0,1.2-.2,1.8-.3s1-.3,1.6-.5c-.2-.5-.6-.9-1.3-1.2-.6-.4-1.4-.7-2.3-1.1-.9-.4-1.8-.8-2.8-1.2-1-.4-1.9-1-2.7-1.6-.8-.6-1.5-1.3-2.1-2.1-.5-.8-.8-1.8-.8-3s.3-2.2,1-3.2,1.5-1.8,2.6-2.6c1.1-.8,2.3-1.4,3.5-2,1.3-.5,2.5-.9,3.7-1.2s2.2-.4,3.1-.4,1.4.1,1.8.4c.5.3.8.6,1,1.1.2.5.3.9.3,1.5s-.1,1-.4,1.4c-.3.4-.8.7-1.4.8-1.9.4-3.6.8-5,1.3-1.4.5-2.6,1-3.4,1.5s-1.2,1-1.2,1.6.3.8.9,1.2c.6.4,1.3.8,2.2,1.1.9.4,1.9.8,2.9,1.2,1,.4,2,1,2.9,1.6.9.6,1.7,1.3,2.2,2.1.6.8.9,1.8.9,2.9s-.2,2-.7,2.7c-.5.8-1.2,1.4-2.1,1.9-.9.5-2.1.9-3.4,1.1-1.3.2-2.9.4-4.6.4Z"/>
      <path class="st8" d="M1113.7,438.6c-1.7,0-2.9-.3-3.6-.9s-1.1-1.3-1.1-2.2.2-1,.5-1.4c.3-.4.9-.6,1.6-.6,1.1-.1,2-.2,2.8-.3s1.6-.1,2.3-.1c.7,0,1.4,0,2.1,0s1.4,0,2.2,0c.8,0,1.7,0,2.6,0s1.9,0,2.5.3c.6.2.9.5,1.1.8.2.3.3.7.3,1.2,0,.8-.3,1.5-1,2-.7.6-1.8.9-3.3.9s-2.7,0-3.8,0c-1.2,0-2.2.1-3.1.2-.9,0-1.6.1-2.1.1ZM1112.3,419c-1.2,0-2-.3-2.5-.8-.5-.5-.8-1.2-.8-1.9s.2-1.3.7-1.7c.5-.4,1.1-.7,1.9-.8,1.4-.2,2.7-.3,4.1-.5,1.4-.1,2.7-.2,4-.3,1.3,0,2.5-.1,3.5-.1s2.3.2,2.9.5.9.9.9,1.8-.4,1.8-1.3,2.4c-.9.6-2,.9-3.3.9s-2.2,0-3.1,0c-.9,0-1.7,0-2.4.1s-1.3.1-1.9.2c-.5,0-1,0-1.5.1-.4,0-.8,0-1.3,0ZM1118.6,434.5c-1,0-1.8-.2-2.5-.8-.6-.5-.9-1.2-.9-2,0-1.5,0-3,.1-4.5,0-1.5.2-2.9.3-4.2,0-1.3.1-2.6.1-3.7s.1-1.5.4-2c.3-.4.9-.6,1.7-.6s1.7.3,2.4.9c.7.6,1,1.3,1,2.2s0,1.8-.1,3c0,1.2-.2,2.7-.3,4.3-.1,1.6-.2,3.3-.2,5.2s-.7,2.2-2,2.2Z"/>
      <path class="st8" d="M1139.4,438.6c-1.6,0-3.1-.3-4.4-.8-1.3-.5-2.5-1.2-3.5-2.2-1-1-1.8-2.1-2.3-3.4s-.8-2.8-.8-4.4.2-2.7.6-4c.4-1.2,1-2.3,1.6-3.3.7-1,1.4-1.8,2.1-2.5.8-.7,1.5-1.2,2.2-1.6.7-.4,1.2-.6,1.7-.6s.9,0,1.3.2c.3.2.6.4.9.9.5.7.6,1.3.4,1.8-.2.6-.6,1-1.2,1.4-1,.7-1.8,1.4-2.4,2.2s-1.1,1.6-1.4,2.4c-.3.9-.4,1.9-.4,3s.2,2.1.7,3c.5.8,1.1,1.5,2,1.9.9.4,1.8.7,2.9.7s2.3-.3,3.3-.8c1-.5,1.8-1.2,2.4-2.1.6-.9.9-1.9.9-3s-.2-2.2-.5-3.3c-.3-1.1-.7-2.1-1.3-3-.5-.9-1.2-1.6-1.8-2.2-.7-.5-1.4-.8-2.2-.8s-.5.1-.6.3c-.1.2-.2.5-.2.8,0,.5-.1.9-.4,1.2-.3.3-.6.4-1.1.4s-1.1-.2-1.6-.5c-.5-.3-1-.8-1.3-1.4-.3-.6-.5-1.4-.5-2.3s.2-1.3.6-1.9c.4-.6,1-1.1,1.7-1.4.8-.4,1.7-.6,2.7-.6,1.8,0,3.4.4,4.9,1.2,1.5.8,2.7,1.9,3.8,3.3,1.1,1.4,1.9,3,2.5,4.7.6,1.7.9,3.6.9,5.4s-.3,3-.9,4.4c-.6,1.3-1.5,2.5-2.6,3.5-1.1,1-2.4,1.8-3.9,2.3-1.5.6-3,.8-4.7.8Z"/>
      <path class="st8" d="M1157.3,438.8c-.9,0-1.5-.2-1.9-.6-.4-.4-.6-.9-.6-1.5s0-1,.1-1.5c0-.5.2-1.1.3-1.8s.2-1.6.3-2.8c0-1.2.1-2.7.1-4.5s0-2.1,0-3.2c0-1.1-.1-2.2-.2-3.2,0-1-.1-1.9-.2-2.6s0-1.3,0-1.6c0-.7.2-1.3.7-1.8.4-.5,1.1-.8,1.9-.8s2,.3,2.9.8c.9.5,1.7,1.2,2.5,2.1.8.9,1.5,1.9,2.2,3,.7,1.1,1.3,2.3,1.9,3.5.6,1.2,1.2,2.4,1.8,3.6.6,1.2,1.2,2.3,1.7,3.3.5,1,1.1,1.9,1.7,2.6s1.1,1.3,1.7,1.6l-3,1.4c.3-.2.6-.5.9-.8.3-.3.6-.8.8-1.4.2-.6.3-1.5.3-2.5s0-2.8-.1-4.1c0-1.3-.2-2.6-.2-3.8s0-2.4,0-3.5c0-1.2.2-2.3.5-3.5.2-.9.5-1.5.9-1.8s.9-.6,1.4-.6c.9,0,1.5.2,2,.7.4.4.7,1,.8,1.6.1.6.1,1.1,0,1.6-.2,1.1-.4,2.2-.4,3.2s0,2,0,3c0,1,0,2,.1,3.1,0,1.1,0,2.3,0,3.6s-.1,3.4-.3,4.8-.7,2.5-1.4,3.3c-.7.8-1.8,1.2-3.2,1.2s-1.7-.2-2.5-.6c-.7-.4-1.4-1-2-1.8-.6-.8-1.2-1.6-1.8-2.6-.5-1-1.1-2.1-1.6-3.2-.5-1.2-1.1-2.3-1.7-3.6-.6-1.2-1.2-2.4-1.9-3.6-.7-1.2-1.4-2.3-2.3-3.4l1-.2c.1,1,.2,1.8.3,2.5,0,.7.1,1.4.1,1.9,0,.6,0,1.2,0,1.9,0,2.2,0,4.3-.3,6.1-.2,1.8-.5,3.4-.9,4.7-.2.6-.5,1.1-.9,1.4-.4.3-1,.5-1.8.5Z"/>
    </g>
    <g>
      <path class="st7" d="M749.3,438.6c-2.9,0-5-.8-6.5-2.3-1.5-1.6-2.2-3.9-2.2-7s.1-3.5.4-5.1c.3-1.6.6-3.1.9-4.6.3-1.5.4-2.8.4-4.1s.2-1.4.6-1.9c.4-.5,1-.8,1.9-.8s1.3.2,1.8.6c.5.4.8.9,1.1,1.4s.4,1.2.4,1.8c0,1.2-.1,2.4-.3,3.7-.2,1.2-.4,2.4-.7,3.6-.3,1.2-.5,2.2-.7,3.2-.2,1-.3,1.9-.3,2.6,0,1.1.3,2,.8,2.6.5.6,1.4.9,2.6.9s1.8-.1,2.4-.3c.6-.2,1.1-.4,1.5-.7.4-.2.8-.5,1.2-.7.4-.2.8-.3,1.3-.3s.9.2,1.3.7c.3.4.5.9.5,1.5s-.1,1.3-.4,1.9c-.3.6-.7,1.1-1.2,1.6-.8.6-1.9,1.1-3.1,1.4-1.2.3-2.4.4-3.6.4Z"/>
      <path class="st7" d="M770.3,438.6c-1.6,0-3.1-.3-4.4-.8-1.3-.5-2.5-1.2-3.5-2.2-1-1-1.8-2.1-2.3-3.4-.5-1.3-.8-2.8-.8-4.4s.2-2.7.6-4c.4-1.2,1-2.3,1.6-3.3.7-1,1.4-1.8,2.1-2.5.8-.7,1.5-1.2,2.2-1.6.7-.4,1.2-.6,1.7-.6s.9,0,1.3.2c.3.2.6.4.9.9.5.7.6,1.3.4,1.8s-.6,1-1.2,1.4c-1,.7-1.8,1.4-2.4,2.2s-1.1,1.6-1.4,2.4c-.3.9-.4,1.9-.4,3s.2,2.1.7,3c.5.8,1.1,1.5,2,1.9.9.4,1.8.7,2.9.7s2.3-.3,3.3-.8c1-.5,1.8-1.2,2.4-2.1.6-.9.9-1.9.9-3s-.2-2.2-.5-3.3c-.3-1.1-.7-2.1-1.3-3-.5-.9-1.2-1.6-1.8-2.2-.7-.5-1.4-.8-2.2-.8s-.5.1-.6.3c-.1.2-.2.5-.2.8,0,.5-.1.9-.4,1.2s-.6.4-1.1.4-1.1-.2-1.6-.5c-.5-.3-1-.8-1.3-1.4s-.5-1.4-.5-2.3.2-1.3.6-1.9,1-1.1,1.7-1.4c.8-.4,1.7-.6,2.7-.6,1.8,0,3.4.4,4.9,1.2,1.5.8,2.7,1.9,3.8,3.3,1.1,1.4,1.9,3,2.5,4.7.6,1.7.9,3.6.9,5.4s-.3,3-.9,4.4c-.6,1.3-1.5,2.5-2.6,3.5-1.1,1-2.4,1.8-3.9,2.3-1.5.6-3,.8-4.7.8Z"/>
      <path class="st7" d="M796.2,438.6c-2.2,0-4.1-.5-5.7-1.4s-2.7-2.3-3.5-4-1.2-3.6-1.2-5.7.4-3.8,1.1-5.5c.7-1.8,1.7-3.3,2.9-4.7,1.2-1.4,2.7-2.5,4.3-3.3s3.3-1.2,5.1-1.2,3.1.4,3.9,1.1c.8.8,1.2,1.8,1.2,3.1s-.1,1.4-.3,2.1c-.2.6-.6,1.2-1,1.6-.5.4-1,.6-1.7.6s-.6,0-.9-.2c-.2-.1-.4-.3-.5-.6-.1-.3-.2-.5-.2-.8s0-.4-.1-.6c0-.2-.2-.3-.4-.4-.2,0-.5-.1-.9-.1-1,0-2,.2-2.8.8-.8.5-1.6,1.2-2.2,2-.6.8-1.1,1.8-1.4,2.8-.3,1-.5,2.1-.5,3.2,0,1.9.5,3.3,1.4,4.3.9,1,2.2,1.5,3.8,1.5s1.5,0,2.1-.2c.5-.2,1-.4,1.3-.6.3-.2.6-.5.9-.7.3-.2.6-.4.9-.6.3-.2.7-.3,1.1-.3.7,0,1.2.2,1.4.6.3.4.4.9.4,1.6s-.2,1.3-.6,2c-.4.7-.9,1.3-1.6,1.8-.7.5-1.6,1-2.7,1.3-1,.3-2.2.5-3.6.5Z"/>
      <path class="st7" d="M809.8,432.3c-1.2,0-2-.2-2.5-.7-.5-.5-.8-1-.8-1.8s.2-.9.5-1.2c.3-.3.8-.6,1.5-.8,2.5-.7,5.4-1.3,8.7-1.8,3.3-.5,6.9-.7,11-.7s2.4.2,2.9.6c.5.4.8,1,.8,1.8s-.4,1.6-1.1,2.2c-.7.6-1.7.9-3,.9-1.8,0-3.4,0-5,.2-1.5.1-2.9.2-4.1.4s-2.4.3-3.5.5c-1,.2-2,.3-2.9.4s-1.7.2-2.4.2ZM829.1,438.6c-.7,0-1.4-.2-2-.6s-1.1-1-1.7-1.9c-.5-.8-1-1.8-1.4-3.1-.4-1.3-.7-2.6-1-4-.2-1.4-.4-2.7-.6-4-.2-1.5-.3-2.7-.4-3.6s-.3-1.6-.4-2-.3-.8-.4-.9c-.2-.2-.3-.2-.6-.2-.6,0-1.2.4-1.8,1.3s-1.3,2.1-1.9,3.6-1.2,3.5-1.8,5.8c-.5,2.2-1,4.7-1.4,7.5,0,.7-.3,1.3-.6,1.6-.3.3-.8.5-1.4.5-1,0-1.8-.4-2.4-1.2-.5-.8-.8-2.1-.8-4s.1-2.9.3-4.2c.2-1.3.4-2.6.7-3.8s.5-2.4.7-3.6c.2-1.2.3-2.4.3-3.6,0-.4.1-.8.4-1s.7-.4,1.2-.4,1,.1,1.5.4,1,.7,1.4,1.3l-2.1.7c1-1.9,2.1-3.4,3.5-4.5,1.4-1.1,2.9-1.7,4.5-1.7s3,.4,3.9,1.3c.9.8,1.7,2.2,2.2,4,.5,1.8.9,4.2,1.3,7.1.2,1.7.4,3.2.8,4.4.3,1.2.7,2.3,1.1,3.1.4.8.7,1.6.9,2.2.2.6.4,1.2.4,1.7s-.2,1.1-.5,1.5c-.4.3-.9.5-1.6.5Z"/>
      <path class="st7" d="M847.1,418.5h-3.5c-1.1,0-2.1,0-3.1,0-1,0-2,0-3-.1-1,0-2-.1-3-.2-1,0-1.8-.3-2.3-.5-.5-.3-.9-.6-1.2-1.1s-.4-1-.4-1.7.2-1,.5-1.4c.3-.4.9-.6,1.6-.6s2.1,0,3,0c.9,0,1.8,0,2.6.1.8,0,1.7,0,2.5.1.8,0,1.7,0,2.6,0s1.6,0,2.2,0c.7,0,1.3-.1,2-.2.7,0,1.4,0,2.3,0s1.2.2,1.6.5.5.8.5,1.4c0,.9-.2,1.6-.7,2.1-.5.5-1.1,1-1.9,1.2-.8.3-1.5.4-2.3.4ZM841.9,438.7c-.7,0-1.4-.2-2-.7-.6-.5-1.1-1.4-1.5-2.8-.2-.9-.4-1.9-.5-2.9-.1-1-.2-2.2-.2-3.5s0-2.9.2-4.7c.1-1.8.3-4,.5-6.5,0-.7.3-1.3.7-1.7.4-.4.9-.7,1.6-.7,1.3,0,2.2.3,2.6,1,.5.7.7,1.8.6,3.4-.1,2.5-.2,4.6-.3,6.3,0,1.7,0,3.2,0,4.3,0,1.1.1,2.1.2,2.8s.1,1.3.2,1.8.1,1,.1,1.4c0,.9-.2,1.5-.6,1.8-.4.3-1,.5-1.8.5Z"/>
      <path class="st7" d="M858.2,438.6c-1.7,0-2.9-.3-3.6-.9-.7-.6-1.1-1.3-1.1-2.2s.2-1,.5-1.4c.3-.4.9-.6,1.6-.6,1.3-.2,2.5-.3,3.5-.3,1,0,1.9-.1,2.7-.1.8,0,1.7,0,2.6,0,.9,0,2,0,3.2,0s1.9,0,2.5.3c.6.2.9.5,1.1.8.2.3.3.7.3,1.2,0,.8-.3,1.5-1,2s-1.8.9-3.3.9-2.7,0-3.8,0c-1.2,0-2.2.1-3.1.2-.9,0-1.6.1-2.1.1ZM856.8,419c-1.2,0-2-.3-2.5-.8s-.8-1.2-.8-1.9.2-1.3.7-1.7c.5-.4,1.1-.7,1.9-.8,1.4-.2,2.7-.3,4.1-.5s2.7-.2,4-.3c1.3,0,2.5-.1,3.5-.1s2.3.2,2.9.5.9.9.9,1.8-.4,1.8-1.3,2.4c-.9.6-2,.9-3.3.9s-2.7,0-3.8,0c-1.1,0-2,.1-2.7.2-.8,0-1.4.1-2,.2s-1.1,0-1.6,0ZM863.1,434.5c-1,0-1.8-.2-2.5-.8s-.9-1.2-.9-2c0-1.5,0-3,.1-4.5s.2-2.9.3-4.2c0-1.3.1-2.6.1-3.7s.1-1.5.4-2c.3-.4.9-.6,1.7-.6s1.7.3,2.4.9c.7.6,1,1.3,1,2.2s0,1.8-.1,3c0,1.2-.2,2.7-.3,4.3-.1,1.6-.2,3.3-.2,5.2s-.7,2.2-2,2.2Z"/>
      <path class="st7" d="M883.9,438.6c-1.6,0-3.1-.3-4.4-.8-1.3-.5-2.5-1.2-3.5-2.2-1-1-1.8-2.1-2.3-3.4-.5-1.3-.8-2.8-.8-4.4s.2-2.7.6-4c.4-1.2,1-2.3,1.6-3.3.7-1,1.4-1.8,2.1-2.5.8-.7,1.5-1.2,2.2-1.6.7-.4,1.2-.6,1.7-.6s.9,0,1.3.2c.3.2.6.4.9.9.5.7.6,1.3.4,1.8s-.6,1-1.2,1.4c-1,.7-1.8,1.4-2.4,2.2s-1.1,1.6-1.4,2.4c-.3.9-.4,1.9-.4,3s.2,2.1.7,3c.5.8,1.1,1.5,2,1.9.9.4,1.8.7,2.9.7s2.3-.3,3.3-.8c1-.5,1.8-1.2,2.4-2.1.6-.9.9-1.9.9-3s-.2-2.2-.5-3.3c-.3-1.1-.7-2.1-1.3-3-.5-.9-1.2-1.6-1.8-2.2-.7-.5-1.4-.8-2.2-.8s-.5.1-.6.3c-.1.2-.2.5-.2.8,0,.5-.1.9-.4,1.2s-.6.4-1.1.4-1.1-.2-1.6-.5c-.5-.3-1-.8-1.3-1.4s-.5-1.4-.5-2.3.2-1.3.6-1.9,1-1.1,1.7-1.4c.8-.4,1.7-.6,2.7-.6,1.8,0,3.4.4,4.9,1.2,1.5.8,2.7,1.9,3.8,3.3,1.1,1.4,1.9,3,2.5,4.7.6,1.7.9,3.6.9,5.4s-.3,3-.9,4.4c-.6,1.3-1.5,2.5-2.6,3.5-1.1,1-2.4,1.8-3.9,2.3-1.5.6-3,.8-4.7.8Z"/>
      <path class="st7" d="M901.8,438.8c-.9,0-1.5-.2-1.9-.6s-.6-.9-.6-1.5,0-1,.1-1.5c0-.5.2-1.1.3-1.8.1-.7.2-1.6.3-2.8,0-1.2.1-2.7.1-4.5s0-2.1,0-3.2c0-1.1-.1-2.2-.2-3.2s-.1-1.9-.2-2.6c0-.8,0-1.3,0-1.6,0-.7.2-1.3.7-1.8.4-.5,1.1-.8,1.9-.8s2,.3,2.9.8,1.7,1.2,2.5,2.1c.8.9,1.5,1.9,2.2,3,.7,1.1,1.3,2.3,1.9,3.5.6,1.2,1.2,2.4,1.8,3.6s1.2,2.3,1.7,3.3c.5,1,1.1,1.9,1.7,2.6s1.1,1.3,1.7,1.6l-3,1.4c.3-.2.6-.5.9-.8s.6-.8.8-1.4c.2-.6.3-1.5.3-2.5s0-2.8-.1-4.1c0-1.3-.2-2.6-.2-3.8s0-2.4,0-3.5c0-1.2.2-2.3.5-3.5.2-.9.5-1.5.9-1.8.4-.4.9-.6,1.4-.6.9,0,1.5.2,2,.7.4.4.7,1,.8,1.6.1.6.1,1.1,0,1.6-.2,1.1-.4,2.2-.4,3.2,0,1,0,2,0,3,0,1,0,2,.1,3.1s0,2.3,0,3.6-.1,3.4-.3,4.8c-.2,1.4-.7,2.5-1.4,3.3-.7.8-1.8,1.2-3.2,1.2s-1.7-.2-2.5-.6-1.4-1-2-1.8c-.6-.8-1.2-1.6-1.8-2.6-.5-1-1.1-2.1-1.6-3.2-.5-1.2-1.1-2.3-1.7-3.6-.6-1.2-1.2-2.4-1.9-3.6-.7-1.2-1.4-2.3-2.3-3.4l1-.2c.1,1,.3,1.8.3,2.5s.1,1.4.1,1.9c0,.6,0,1.2,0,1.9,0,2.2,0,4.3-.3,6.1-.2,1.8-.5,3.4-.9,4.7-.2.6-.5,1.1-.9,1.4-.4.3-1,.5-1.8.5Z"/>
      <path class="st7" d="M944.4,438.6c-.9,0-1.6-.3-2.3-1s-1-1.9-1-3.5,0-2.9-.2-4.1c-.2-1.1-.4-2.2-.6-3.1-.2-.9-.4-1.8-.5-2.6-.2-.8-.2-1.7-.2-2.7,0-1.7.3-3.3,1-4.6.7-1.3,1.7-2.3,3.2-3,1.5-.7,3.4-1.1,5.9-1.1s3.3.3,4.7,1c1.4.6,2.6,1.6,3.4,2.8s1.3,2.7,1.3,4.4-.3,2.7-.9,3.9c-.6,1.2-1.4,2.3-2.4,3.3-1,.9-2.2,1.7-3.5,2.2-1.3.5-2.7.8-4.2.8s-2-.2-2.9-.6c-.8-.4-1.5-.8-2-1.4-.5-.6-.7-1.2-.7-1.9s.2-1.1.6-1.5c.4-.3.8-.5,1.4-.5s.6,0,.8.2c.2.1.6.2.9.3s.9.2,1.6.2c1.1,0,2-.2,2.9-.7.9-.5,1.6-1.1,2.1-1.9.5-.8.8-1.6.8-2.4s-.2-1.1-.6-1.5c-.4-.4-.9-.7-1.5-.9-.6-.2-1.2-.3-1.9-.3-1.5,0-2.7.3-3.5.8s-1.2,1.3-1.2,2.4,0,1.9.3,2.9c.2,1,.4,2,.6,3,.2,1.1.4,2.2.6,3.5s.3,2.7.3,4.3-.1,1.8-.4,2.4c-.3.6-.9.9-1.9.9Z"/>
      <path class="st7" d="M965.9,419.3c-1.2,0-2.1-.3-2.8-.8-.6-.5-1-1.2-1-2s.1-.8.3-1.1.7-.7,1.4-.8c1.5-.4,3.2-.7,5-1,1.8-.2,3.5-.4,5.1-.6,1.6-.1,3-.2,4.1-.2,1.6,0,2.8.3,3.4.8s1,1.2,1,2.1-.2,1.2-.6,1.7c-.4.5-1,.7-1.8.7-1.6,0-3.1,0-4.5.2-1.5.1-2.8.3-4,.5-1.2.2-2.3.3-3.3.4-.9.1-1.7.2-2.2.2ZM973,438.5c-1.8,0-3.3-.3-4.6-.8-1.3-.5-2.4-1.3-3.3-2.3s-1.5-2.1-1.9-3.4c-.4-1.3-.6-2.7-.6-4.2s0-1.7.2-2.6c.1-.9.3-1.9.6-2.9.3-1,.5-2,.9-3,.3-.9.7-1.7,1.4-2.2.6-.5,1.3-.8,2.2-.8s.8,0,1.2.3c.3.2.6.4.7.7.2.3.2.7.2,1.2-.1.6-.4,1.4-.6,2.4s-.5,2-.8,3.2c-.2,1.2-.3,2.4-.3,3.8s.2,1.9.6,2.7c.4.8,1,1.4,1.7,1.9.7.5,1.6.7,2.6.7s1.9,0,2.7-.2c.8-.1,1.4-.3,2-.4s1.1-.3,1.5-.5c.4-.1.8-.2,1.1-.2.7,0,1.2.2,1.5.5.3.3.5.8.5,1.5,0,1-.4,1.8-1.1,2.5-.7.7-1.8,1.3-3.2,1.6-1.4.4-3.1.6-5,.6ZM967,429.3c-.5.1-1,0-1.3-.1-.3-.2-.5-.5-.6-1-.1-.4-.2-.9-.2-1.4s.2-1.3.7-1.8,1-.8,1.7-1c.6-.1,1.3-.3,2-.4.7-.1,1.5-.2,2.3-.3.8-.1,1.7-.2,2.6-.3s2-.1,3.1-.2c1,0,1.7.2,2.2.6.4.4.6.9.6,1.5,0,1-.3,1.7-.9,2.3s-1.4.8-2.3.9c-1.1,0-2.1.1-3,.2-.9,0-1.8.2-2.6.3s-1.5.2-2.2.4c-.7.1-1.3.3-1.9.4Z"/>
      <path class="st7" d="M989.1,438.7c-.9,0-1.7-.4-2.4-1.2-.7-.8-1-2-1-3.6s.1-2.1.4-3.3c.3-1.2.8-2.6,1.4-4.1,0-1.2,0-2.3-.2-3.2-.2-1-.4-1.9-.6-2.8-.3-.9-.6-2-.9-3.1-.3-1-.2-1.7,0-2.2.3-.5,1-.8,2-.8s2.1.4,2.8,1.2c.7.8,1.2,2.3,1.6,4.4h-1c1.3-2.2,2.9-4,4.8-5.2,1.9-1.3,3.9-1.9,6-1.9s2.1.2,2.9.5c.8.3,1.4.8,1.9,1.3s.9,1.2,1.1,2c.2.8.4,1.6.4,2.5s-.2,2.2-.7,3.2c-.5,1-1.2,2-2.1,3-.9.9-2.1,1.8-3.5,2.5-1.4.8-2.9,1.4-4.7,2,1.4.8,2.9,1.5,4.5,2.1s3.2,1.2,4.8,1.6c1.1.3,1.9.6,2.3.9.4.3.6.8.6,1.3,0,.9-.3,1.5-.9,2s-1.5.7-2.6.7-1.5-.1-2.6-.4c-1.1-.3-2.2-.7-3.5-1.2-1.3-.5-2.5-1.1-3.7-1.8-1.2-.7-2.3-1.4-3.4-2.1s-1.8-1.5-2.4-2.2c-.3-.4-.4-.9-.4-1.4s.1-1.1.4-1.6c.3-.5.6-.8,1.1-.9,2.1-.5,3.9-1.1,5.4-1.8,1.5-.7,2.6-1.4,3.5-2.1.9-.7,1.5-1.4,1.9-2s.6-1.2.6-1.6,0-.7-.3-.9c-.2-.2-.5-.3-1-.3s-.9.1-1.5.4c-.6.3-1.3.7-2.1,1.2-.8.5-1.5,1.3-2.3,2.2-.8.9-1.5,2-2.1,3.3-.6,1.3-1.1,2.8-1.5,4.6s-.6,3.8-.6,6,0,1.2-.3,1.6c-.2.4-.4.7-.8.9-.3.2-.8.3-1.3.3Z"/>
      <path class="st7" d="M1015.9,438.7c-.7,0-1.3-.2-1.8-.7-.5-.5-.8-1.3-1.1-2.4-.2-1.1-.4-2.7-.4-4.8s0-2,0-2.9.1-1.8.2-2.6c0-.8,0-1.6,0-2.4s0-1.2,0-1.7c0-.5-.1-1-.2-1.4,0-.4-.2-.8-.2-1.2,0-.4,0-.7,0-1,0-.7.2-1.2.5-1.6.3-.4.8-.6,1.6-.6s1.3.2,1.8.6c.5.4.9,1,1.2,1.6.3.7.4,1.4.5,2.1l-.9.4c.5-1.4,1.1-2.7,1.7-3.8.6-1.1,1.3-1.9,2.1-2.5s1.5-.9,2.3-.9,1.1.2,1.6.5c.5.3.9.8,1.2,1.5.4.7.7,1.6,1,2.7.3,1.1.6,2.4.9,4,.3,1.5.6,2.9.8,4.1.2,1.2.4,2.2.6,3.2.2.9.5,1.9,1,2.8l-2.1-1c.4-.9.7-1.9,1-3,.3-1.1.6-2.2,1-3.3.3-1.1.7-2.2,1.1-3.3.4-1.1.8-2.1,1.2-3,.5-1,1-1.9,1.5-2.7.5-.8,1.1-1.4,1.8-1.9.7-.5,1.5-.7,2.4-.7s1.3.1,1.9.4c.6.3,1.1.8,1.5,1.4s.8,1.5,1.1,2.6c.3,1.1.5,2.4.7,4,.2,1.7.4,3.4.6,5.1.2,1.7.5,3.2.8,4.7.3,1.5.7,2.8,1.2,3.9.3.7.4,1.3.3,1.9s-.3,1-.7,1.3c-.4.3-1,.5-1.7.5s-1.5-.2-2.1-.7c-.6-.4-1.1-1.1-1.6-2.1-.4-.7-.7-1.6-.9-2.6-.3-1-.5-2.1-.6-3.3-.2-1.1-.3-2.3-.4-3.4-.1-1.1-.2-2.1-.3-3.1,0-.8-.1-1.5-.2-2.1-.1-.6-.3-1.3-.4-1.8s-.4-1.2-.7-1.7l1.8.8c-.7.8-1.2,1.8-1.7,3-.5,1.2-1,2.6-1.4,4.1s-.9,3.2-1.5,5c-.5,1.8-1.2,3.7-2,5.8-.3.7-.6,1.3-1,1.6s-.9.5-1.6.5-1.1-.1-1.5-.4c-.4-.2-.8-.7-1.1-1.2-.7-1.2-1.3-2.6-1.8-4.2-.5-1.6-.8-3.6-1.2-5.9-.2-1.5-.4-2.8-.6-4-.2-1.1-.5-2.2-1-3.2h.6c-1.5,2.3-2.5,4.8-3,7.5-.5,2.7-.9,5.7-1.1,9,0,.9-.3,1.5-.7,1.9-.4.4-1,.6-1.7.6Z"/>
      <path class="st7" d="M1052.9,438.6c-1.7,0-2.9-.3-3.6-.9-.7-.6-1.1-1.3-1.1-2.2s.2-1,.5-1.4c.3-.4.9-.6,1.6-.6,1.1-.1,2-.2,2.8-.3.8,0,1.6-.1,2.3-.1.7,0,1.4,0,2.1,0,.7,0,1.4,0,2.2,0,.8,0,1.7,0,2.6,0s1.9,0,2.5.3c.6.2.9.5,1.1.8.2.3.3.7.3,1.2,0,.8-.3,1.5-1,2s-1.8.9-3.3.9-2.7,0-3.8,0c-1.2,0-2.2.1-3.1.2-.9,0-1.6.1-2.1.1ZM1051.5,419c-1.2,0-2-.3-2.5-.8s-.8-1.2-.8-1.9.2-1.3.7-1.7c.5-.4,1.1-.7,1.9-.8,1.4-.2,2.7-.3,4.1-.5s2.7-.2,4-.3c1.3,0,2.5-.1,3.5-.1s2.3.2,2.9.5.9.9.9,1.8-.4,1.8-1.3,2.4c-.9.6-2,.9-3.3.9s-2.2,0-3.1,0c-.9,0-1.7,0-2.4.1-.7,0-1.3.1-1.9.2s-1,0-1.5.1c-.4,0-.8,0-1.3,0ZM1057.8,434.5c-1,0-1.8-.2-2.5-.8s-.9-1.2-.9-2c0-1.5,0-3,.1-4.5s.2-2.9.3-4.2c0-1.3.1-2.6.1-3.7s.1-1.5.4-2c.3-.4.9-.6,1.7-.6s1.7.3,2.4.9c.7.6,1,1.3,1,2.2s0,1.8-.1,3c0,1.2-.2,2.7-.3,4.3-.1,1.6-.2,3.3-.2,5.2s-.7,2.2-2,2.2Z"/>
      <path class="st7" d="M1075.5,438.6c-2.2,0-3.9-.4-5-1.3s-1.7-1.9-1.7-3,.1-1,.4-1.3c.3-.3.7-.5,1.2-.5s.7,0,.9.1c.3,0,.6.2.9.3.3.1.7.2,1.1.3.4,0,1,.1,1.6.1.9,0,1.7,0,2.3-.1.7,0,1.2-.2,1.8-.3s1-.3,1.6-.5c-.2-.5-.6-.9-1.3-1.2-.6-.4-1.4-.7-2.3-1.1-.9-.4-1.8-.8-2.8-1.2-1-.4-1.9-1-2.7-1.6-.8-.6-1.5-1.3-2.1-2.1-.5-.8-.8-1.8-.8-3s.3-2.2,1-3.2,1.5-1.8,2.6-2.6c1.1-.8,2.3-1.4,3.5-2,1.3-.5,2.5-.9,3.7-1.2s2.2-.4,3.1-.4,1.4.1,1.8.4c.5.3.8.6,1,1.1.2.5.3.9.3,1.5s-.1,1-.4,1.4c-.3.4-.8.7-1.4.8-1.9.4-3.6.8-5,1.3-1.4.5-2.6,1-3.4,1.5s-1.2,1-1.2,1.6.3.8.9,1.2c.6.4,1.3.8,2.2,1.1.9.4,1.9.8,2.9,1.2,1,.4,2,1,2.9,1.6.9.6,1.7,1.3,2.2,2.1.6.8.9,1.8.9,2.9s-.2,2-.7,2.7c-.5.8-1.2,1.4-2.1,1.9-.9.5-2.1.9-3.4,1.1-1.3.2-2.9.4-4.6.4Z"/>
      <path class="st7" d="M1095.6,438.6c-2.2,0-3.9-.4-5-1.3s-1.7-1.9-1.7-3,.1-1,.4-1.3c.3-.3.7-.5,1.2-.5s.7,0,.9.1c.3,0,.6.2.9.3.3.1.7.2,1.1.3.4,0,1,.1,1.6.1.9,0,1.7,0,2.3-.1.7,0,1.2-.2,1.8-.3s1-.3,1.6-.5c-.2-.5-.6-.9-1.3-1.2-.6-.4-1.4-.7-2.3-1.1-.9-.4-1.8-.8-2.8-1.2-1-.4-1.9-1-2.7-1.6-.8-.6-1.5-1.3-2.1-2.1-.5-.8-.8-1.8-.8-3s.3-2.2,1-3.2,1.5-1.8,2.6-2.6c1.1-.8,2.3-1.4,3.5-2,1.3-.5,2.5-.9,3.7-1.2s2.2-.4,3.1-.4,1.4.1,1.8.4c.5.3.8.6,1,1.1.2.5.3.9.3,1.5s-.1,1-.4,1.4c-.3.4-.8.7-1.4.8-1.9.4-3.6.8-5,1.3-1.4.5-2.6,1-3.4,1.5s-1.2,1-1.2,1.6.3.8.9,1.2c.6.4,1.3.8,2.2,1.1.9.4,1.9.8,2.9,1.2,1,.4,2,1,2.9,1.6.9.6,1.7,1.3,2.2,2.1.6.8.9,1.8.9,2.9s-.2,2-.7,2.7c-.5.8-1.2,1.4-2.1,1.9-.9.5-2.1.9-3.4,1.1-1.3.2-2.9.4-4.6.4Z"/>
      <path class="st7" d="M1113.7,438.6c-1.7,0-2.9-.3-3.6-.9s-1.1-1.3-1.1-2.2.2-1,.5-1.4c.3-.4.9-.6,1.6-.6,1.1-.1,2-.2,2.8-.3s1.6-.1,2.3-.1c.7,0,1.4,0,2.1,0s1.4,0,2.2,0c.8,0,1.7,0,2.6,0s1.9,0,2.5.3c.6.2.9.5,1.1.8.2.3.3.7.3,1.2,0,.8-.3,1.5-1,2-.7.6-1.8.9-3.3.9s-2.7,0-3.8,0c-1.2,0-2.2.1-3.1.2-.9,0-1.6.1-2.1.1ZM1112.3,419c-1.2,0-2-.3-2.5-.8-.5-.5-.8-1.2-.8-1.9s.2-1.3.7-1.7c.5-.4,1.1-.7,1.9-.8,1.4-.2,2.7-.3,4.1-.5,1.4-.1,2.7-.2,4-.3,1.3,0,2.5-.1,3.5-.1s2.3.2,2.9.5.9.9.9,1.8-.4,1.8-1.3,2.4c-.9.6-2,.9-3.3.9s-2.2,0-3.1,0c-.9,0-1.7,0-2.4.1s-1.3.1-1.9.2c-.5,0-1,0-1.5.1-.4,0-.8,0-1.3,0ZM1118.6,434.5c-1,0-1.8-.2-2.5-.8-.6-.5-.9-1.2-.9-2,0-1.5,0-3,.1-4.5,0-1.5.2-2.9.3-4.2,0-1.3.1-2.6.1-3.7s.1-1.5.4-2c.3-.4.9-.6,1.7-.6s1.7.3,2.4.9c.7.6,1,1.3,1,2.2s0,1.8-.1,3c0,1.2-.2,2.7-.3,4.3-.1,1.6-.2,3.3-.2,5.2s-.7,2.2-2,2.2Z"/>
      <path class="st7" d="M1139.4,438.6c-1.6,0-3.1-.3-4.4-.8-1.3-.5-2.5-1.2-3.5-2.2-1-1-1.8-2.1-2.3-3.4s-.8-2.8-.8-4.4.2-2.7.6-4c.4-1.2,1-2.3,1.6-3.3.7-1,1.4-1.8,2.1-2.5.8-.7,1.5-1.2,2.2-1.6.7-.4,1.2-.6,1.7-.6s.9,0,1.3.2c.3.2.6.4.9.9.5.7.6,1.3.4,1.8-.2.6-.6,1-1.2,1.4-1,.7-1.8,1.4-2.4,2.2s-1.1,1.6-1.4,2.4c-.3.9-.4,1.9-.4,3s.2,2.1.7,3c.5.8,1.1,1.5,2,1.9.9.4,1.8.7,2.9.7s2.3-.3,3.3-.8c1-.5,1.8-1.2,2.4-2.1.6-.9.9-1.9.9-3s-.2-2.2-.5-3.3c-.3-1.1-.7-2.1-1.3-3-.5-.9-1.2-1.6-1.8-2.2-.7-.5-1.4-.8-2.2-.8s-.5.1-.6.3c-.1.2-.2.5-.2.8,0,.5-.1.9-.4,1.2-.3.3-.6.4-1.1.4s-1.1-.2-1.6-.5c-.5-.3-1-.8-1.3-1.4-.3-.6-.5-1.4-.5-2.3s.2-1.3.6-1.9c.4-.6,1-1.1,1.7-1.4.8-.4,1.7-.6,2.7-.6,1.8,0,3.4.4,4.9,1.2,1.5.8,2.7,1.9,3.8,3.3,1.1,1.4,1.9,3,2.5,4.7.6,1.7.9,3.6.9,5.4s-.3,3-.9,4.4c-.6,1.3-1.5,2.5-2.6,3.5-1.1,1-2.4,1.8-3.9,2.3-1.5.6-3,.8-4.7.8Z"/>
      <path class="st7" d="M1157.3,438.8c-.9,0-1.5-.2-1.9-.6-.4-.4-.6-.9-.6-1.5s0-1,.1-1.5c0-.5.2-1.1.3-1.8s.2-1.6.3-2.8c0-1.2.1-2.7.1-4.5s0-2.1,0-3.2c0-1.1-.1-2.2-.2-3.2,0-1-.1-1.9-.2-2.6s0-1.3,0-1.6c0-.7.2-1.3.7-1.8.4-.5,1.1-.8,1.9-.8s2,.3,2.9.8c.9.5,1.7,1.2,2.5,2.1.8.9,1.5,1.9,2.2,3,.7,1.1,1.3,2.3,1.9,3.5.6,1.2,1.2,2.4,1.8,3.6.6,1.2,1.2,2.3,1.7,3.3.5,1,1.1,1.9,1.7,2.6s1.1,1.3,1.7,1.6l-3,1.4c.3-.2.6-.5.9-.8.3-.3.6-.8.8-1.4.2-.6.3-1.5.3-2.5s0-2.8-.1-4.1c0-1.3-.2-2.6-.2-3.8s0-2.4,0-3.5c0-1.2.2-2.3.5-3.5.2-.9.5-1.5.9-1.8s.9-.6,1.4-.6c.9,0,1.5.2,2,.7.4.4.7,1,.8,1.6.1.6.1,1.1,0,1.6-.2,1.1-.4,2.2-.4,3.2s0,2,0,3c0,1,0,2,.1,3.1,0,1.1,0,2.3,0,3.6s-.1,3.4-.3,4.8-.7,2.5-1.4,3.3c-.7.8-1.8,1.2-3.2,1.2s-1.7-.2-2.5-.6c-.7-.4-1.4-1-2-1.8-.6-.8-1.2-1.6-1.8-2.6-.5-1-1.1-2.1-1.6-3.2-.5-1.2-1.1-2.3-1.7-3.6-.6-1.2-1.2-2.4-1.9-3.6-.7-1.2-1.4-2.3-2.3-3.4l1-.2c.1,1,.2,1.8.3,2.5,0,.7.1,1.4.1,1.9,0,.6,0,1.2,0,1.9,0,2.2,0,4.3-.3,6.1-.2,1.8-.5,3.4-.9,4.7-.2.6-.5,1.1-.9,1.4-.4.3-1,.5-1.8.5Z"/>
    </g>
  </g>
</svg>