<?xml version="1.0" encoding="UTF-8"?>
<svg id="Layer_1" xmlns="http://www.w3.org/2000/svg" version="1.1" viewBox="0 0 1920 1080">
  <!-- Generator: Adobe Illustrator 30.4.0, SVG Export Plug-In . SVG Version: 2.1.4 Build 226)  -->
  <defs>
    <style>
      .st0 {
        fill: #ff007a;
      }

      .st1 {
        fill: #fff;
      }
    </style>
  </defs>
  <path class="st1" d="M900.4,484.7c-1.1,1.7,5.8,21.5,6.2,22.4,4.2,8.9,20.8,48.9,30.3,58.1.3.3.7.6,1.2.6,3.3-.2,5-15.9,7.7-22.3,1.8-4.2,2.4-6.9,3.5-6.7,5.4,3.4,16,13.7,20,16.6.5.3,1.2.8,1.9.7,2.5-.8,4.5-4.3,6.4-6.2,1.1-1.5,2.1-2.3,1.5-3.7-3.2-3.6-12-9.7-17.5-14.4-2.3-1.9-3.7-2.9-3.7-3.6,3.5-3.7,19-11.2,23.3-14.2,1.6-1,2.9-1.4,2.9-2s-.2-.4-.3-.5c-15.3-11.9-61.1-22.4-61.1-22.4-2.5-.6-20.7-5.1-22.4-2.4h0Z"/>
  <path class="st0" d="M938.1,568.4c-1.1,0-2.1-.5-3-1.4-8.2-8-20.9-36.6-27.7-52-1.3-3-2.4-5.3-3.1-6.8-.3-.7-2.3-6.2-3.8-11.2-3.6-11.6-2.9-12.6-2.2-13.7h0c1.4-2.1,4.4-3.6,24.7,1.2h.5c1.9.6,46.6,10.9,62.1,23,1.2.9,1.3,2,1.3,2.6,0,1.8-1.6,2.6-2.7,3.2-.4.2-.9.5-1.4.8-1.6,1.1-4.8,2.9-8.4,4.9-4.1,2.3-9.5,5.3-12.5,7.4.2,0,.3.3.5.4.3.3.7.5,1.1.9,2.1,1.8,4.7,3.8,7.2,5.7,4.3,3.3,8.4,6.5,10.6,8.9l.3.4.2.5c1,2.6-.4,4.3-1.4,5.6-.2.2-.3.4-.5.6l-.2.3c-.5.5-1,1.1-1.5,1.8-1.6,2-3.4,4.2-6,5h-.3c-1.6.4-2.9-.5-3.7-.9l-.2-.2c-1.7-1.2-4.4-3.6-7.5-6.4-3.5-3.1-7.4-6.6-10.4-8.8,0,.4-.3.7-.4,1.1-.3.9-.8,1.9-1.2,3-1,2.2-1.8,6-2.7,9.6-2,8.5-3.3,14.1-7.3,14.3h-.2l-.2.2ZM903,486.5c.8,4.5,5.2,17.6,6,19.5.7,1.5,1.7,3.9,3.1,6.9,6,13.5,18.2,41,25.8,49.5.9-2.1,2-6.6,2.7-9.5.9-3.8,1.8-7.8,3-10.4.5-1.1.8-2.1,1.2-2.9,1.2-3,2.3-5.9,5.2-5.3h.5l.4.3c3.4,2.1,8.5,6.7,13,10.7,2.8,2.5,5.5,4.9,7,6h0c.9-.5,2-1.9,2.9-3,.6-.7,1.1-1.4,1.7-2,.2-.2.3-.4.5-.6,0-.2.3-.3.4-.5-2.1-2-5.7-4.8-9.2-7.5-2.6-2-5.2-4-7.4-5.8-.3-.3-.7-.5-1-.8-2.3-1.8-3.7-3-3.6-4.9v-1l.7-.7c2.3-2.4,7.9-5.6,15.6-9.9,3.4-1.9,6.5-3.6,8-4.7-16.8-10.7-57.1-20.1-57.6-20.2h-.5c-12.1-3-16.9-3.3-18.7-3.2h.2ZM982.4,511.7h0ZM902.9,485.4h0Z"/>
</svg>