<?xml version="1.0" encoding="UTF-8"?>
<svg id="Layer_1" xmlns="http://www.w3.org/2000/svg" xmlns:xlink="http://www.w3.org/1999/xlink" version="1.1" viewBox="0 0 1920 1080">
  <!-- Generator: Adobe Illustrator 30.4.0, SVG Export Plug-In . SVG Version: 2.1.4 Build 226)  -->
  <defs>
    <style>
      .st0, .st1, .st2 {
        fill: none;
      }

      .st1 {
        stroke-width: 4.9px;
      }

      .st1, .st3, .st4 {
        stroke-miterlimit: 10;
      }

      .st1, .st5, .st6, .st2, .st4 {
        stroke: #ff007a;
      }

      .st7, .st3, .st5 {
        fill: #ffa4f6;
      }

      .st8 {
        fill: #e31c78;
      }

      .st3 {
        stroke: #ffa4f6;
        stroke-width: 5.2px;
      }

      .st5, .st6, .st2 {
        stroke-linecap: round;
        stroke-linejoin: round;
        stroke-width: 5.2px;
      }

      .st9 {
        fill: #ff007a;
      }

      .st10, .st6, .st4 {
        fill: #fff;
      }

      .st4 {
        stroke-width: 5.3px;
      }

      .st11 {
        clip-path: url(#clippath);
      }
    </style>
    <clipPath id="clippath">
      <path class="st0" d="M989.6,250.5c13.1-1.1,30.1-1.5,44.4.7,6,1.1,10.8,2.7,14.5,6.2,4.1,3.7,4,9.9-.3,13.1-6.3,4.9-16.3,4.6-24.2,5.2-12.7.7-26.1,1-38.4,0-4.2-.3-8.7-.8-12.7-2.2-7.6-2.3-11.4-10.3-5.4-16.4,5.4-5.3,14.9-5.9,22-6.6h.2ZM893.5,250.5c-7,.8-16.6,1.3-22,6.6-6,6.1-2.2,14.1,5.4,16.4,3.9,1.4,8.4,1.9,12.7,2.2,12.2.9,25.6.6,38.4,0,7.9-.6,17.9-.3,24.2-5.2,4.3-3.3,4.4-9.4.3-13.1-3.7-3.5-8.5-5-14.5-6.2-14.2-2.2-31.3-1.7-44.4-.7h-.2Z"/>
    </clipPath>
  </defs>
  <path id="newsletter-turnon_x5F_toggle_x5F_body" class="st2" d="M1231.2,513.2c-26.8-1-84.8,2.2-106.2,1.9-49.9,0-60,64.3-10.7,76.7,12.4,2.5,21.2.9,34.8,1.3,23.9,0,58,0,71.7,0,7.3.1,17.9-2,25-4.7,41-15.3,28.2-70.6-14.3-75.3h-.4Z"/>
  <path id="newsletter-turnon_x5F_toggle_x5F_switch_x5F_off" class="st6" d="M1122.1,580.2c-19.2-5-24.5-19.4-23.2-30.2,1.5-12.4,11.8-25,31.2-25h2.3c8.7,0,12.9-.9,27.7-.9s7.9,0,11,.2c17.9,2,27.4,15.5,28.9,27.2,1.5,12.2-4.7,23.5-17.5,27-20.1,5.6-53.5,3.5-60.4,1.7Z"/>
  <path id="newsletter-turnon_x5F_toggle_x5F_switch_x5F_on" class="st5" d="M1180.1,580.2c-19.2-5-24.5-19.4-23.2-30.2,1.5-12.4,11.8-25,31.2-25h2.3c8.7,0,12.9-.9,27.7-.9s7.9,0,11,.2c17.9,2,27.4,15.5,28.9,27.2,1.5,12.2-4.7,23.5-17.5,27-20.1,5.6-53.5,3.5-60.4,1.7Z"/>
  <g id="newsletter-turnon_x5F_txt">
    <path class="st7" d="M703.3,527.9h-3.5c-1.1,0-2.1,0-3.1,0-1,0-2,0-3-.1-1,0-2-.1-3-.2-1,0-1.8-.3-2.3-.5-.5-.3-.9-.6-1.2-1.1-.2-.5-.4-1-.4-1.7s.2-1,.5-1.4.9-.6,1.6-.6,2.1,0,3,0c.9,0,1.8,0,2.6.1.8,0,1.7,0,2.5.1.8,0,1.7,0,2.6,0s1.6,0,2.2,0c.7,0,1.3-.1,2-.2.7,0,1.4,0,2.3,0s1.2.2,1.6.5.5.8.5,1.4c0,.9-.2,1.6-.7,2.1-.5.5-1.1,1-1.9,1.2-.8.3-1.5.4-2.3.4ZM698.1,548.1c-.7,0-1.4-.2-2-.7-.6-.5-1.1-1.4-1.5-2.8-.2-.9-.4-1.9-.5-2.9-.1-1-.2-2.2-.2-3.5s0-2.9.2-4.7c.1-1.8.3-4,.5-6.5,0-.7.3-1.3.7-1.7.4-.4.9-.7,1.6-.7,1.3,0,2.2.3,2.6,1,.5.7.7,1.8.6,3.4-.1,2.5-.2,4.6-.3,6.3,0,1.7,0,3.2,0,4.3,0,1.1.1,2.1.2,2.8,0,.7.1,1.3.2,1.8,0,.5.1,1,.1,1.4,0,.9-.2,1.5-.6,1.8-.4.3-1,.5-1.8.5Z"/>
    <path class="st7" d="M721.6,548.1c-2.6,0-4.6-.5-6.2-1.5-1.6-1-2.7-2.5-3.4-4.4-.7-1.9-1.1-4.1-1.1-6.7s0-1.9,0-2.8c0-.9,0-1.7,0-2.4s0-1.7,0-2.3c0-.6-.1-1-.2-1.4,0-.4-.1-.7-.2-1.1,0-.3,0-.7,0-1.1,0-.8.2-1.4.7-1.8.4-.4,1.1-.5,1.9-.5s1.4.2,2,.5c.6.4,1,1,1.4,1.9.4.9.5,2.2.5,3.8s0,1.5,0,2.3c0,.9-.1,1.7-.2,2.6,0,.9,0,1.7,0,2.4,0,1.8.2,3.2.5,4.2.4,1,.9,1.7,1.6,2,.7.4,1.5.6,2.5.6,1.4,0,2.5-.4,3.2-1.3.7-.9,1.1-2.4,1.1-4.5s0-2.5,0-3.5c0-1,0-2-.1-3,0-1,0-2.1,0-3.4s.3-2.5.8-3.4c.5-.9,1.4-1.3,2.6-1.3s1.4.2,1.8.6c.5.4.7,1,.7,1.8s0,.8-.1,1.2c0,.4-.1.9-.2,1.4,0,.5,0,1.2,0,2,0,1.3,0,2.5.1,3.8,0,1.3.1,2.6.1,4.1,0,2.2-.3,4.1-1,5.8s-1.7,3-3.1,3.9c-1.4.9-3.2,1.4-5.4,1.4Z"/>
    <path class="st7" d="M738.4,548.1c-.9,0-1.7-.4-2.4-1.2-.7-.8-1-2-1-3.6s.1-2.1.4-3.3c.3-1.2.8-2.6,1.4-4.1,0-1.2,0-2.3-.2-3.2-.2-1-.4-1.9-.6-2.8-.3-.9-.6-2-.9-3.1-.3-1-.2-1.7,0-2.2.3-.5,1-.8,2-.8s2.1.4,2.8,1.2c.7.8,1.2,2.3,1.6,4.4h-1c1.3-2.2,2.9-4,4.8-5.2,1.9-1.3,3.9-1.9,6-1.9s2.1.2,2.9.5,1.4.8,1.9,1.3.9,1.2,1.1,2c.2.8.4,1.6.4,2.5s-.2,2.2-.7,3.2c-.5,1-1.2,2-2.1,3-.9.9-2.1,1.8-3.5,2.5-1.4.8-2.9,1.4-4.7,2,1.4.8,2.9,1.5,4.5,2.1,1.6.6,3.2,1.2,4.8,1.6,1.1.3,1.9.6,2.3.9.4.3.6.8.6,1.3,0,.9-.3,1.5-.9,2-.6.5-1.5.7-2.6.7s-1.5-.1-2.6-.4-2.2-.7-3.5-1.2c-1.3-.5-2.5-1.1-3.7-1.8-1.2-.7-2.3-1.4-3.4-2.1-1-.7-1.8-1.5-2.4-2.2-.3-.4-.4-.9-.4-1.4s.1-1.1.4-1.6c.3-.5.6-.8,1.1-.9,2.1-.5,3.9-1.1,5.4-1.8,1.5-.7,2.6-1.4,3.5-2.1.9-.7,1.5-1.4,1.9-2s.6-1.2.6-1.6,0-.7-.3-.9c-.2-.2-.5-.3-1-.3s-.9.1-1.5.4-1.3.6-2.1,1.2c-.8.5-1.5,1.3-2.3,2.2-.8.9-1.5,2-2.1,3.3-.6,1.3-1.1,2.8-1.5,4.6-.4,1.8-.6,3.8-.6,6s0,1.2-.3,1.6c-.2.4-.4.7-.8.9-.3.2-.8.3-1.3.3Z"/>
    <path class="st7" d="M764.2,548.2c-.9,0-1.5-.2-1.9-.6-.4-.4-.6-.9-.6-1.5s0-1,.1-1.5c0-.5.2-1.1.3-1.8.1-.7.2-1.6.3-2.8,0-1.2.1-2.7.1-4.5s0-2.1,0-3.2c0-1.1-.1-2.2-.2-3.2,0-1-.1-1.9-.2-2.6,0-.8,0-1.3,0-1.6,0-.7.2-1.3.7-1.8.4-.5,1.1-.8,1.9-.8s2,.3,2.9.8c.9.5,1.7,1.2,2.5,2.1.8.9,1.5,1.9,2.2,3,.7,1.1,1.3,2.3,1.9,3.5.6,1.2,1.2,2.4,1.8,3.6.6,1.2,1.2,2.3,1.7,3.3.5,1,1.1,1.9,1.7,2.6s1.1,1.3,1.7,1.6l-3,1.4c.3-.2.6-.5.9-.8.3-.3.6-.8.8-1.4.2-.6.3-1.5.3-2.5s0-2.8-.1-4.1-.2-2.6-.2-3.8,0-2.4,0-3.5c0-1.2.2-2.3.5-3.5.2-.9.5-1.5.9-1.8.4-.4.9-.6,1.4-.6.9,0,1.5.2,2,.7s.7,1,.8,1.6c.1.6.1,1.1,0,1.6-.2,1.1-.4,2.2-.4,3.2,0,1,0,2,0,3,0,1,0,2,.1,3.1,0,1.1,0,2.3,0,3.6s-.1,3.4-.3,4.8c-.2,1.4-.7,2.5-1.4,3.3s-1.8,1.2-3.2,1.2-1.7-.2-2.5-.6c-.7-.4-1.4-1-2-1.8-.6-.8-1.2-1.6-1.8-2.6-.5-1-1.1-2.1-1.6-3.2-.5-1.2-1.1-2.3-1.7-3.6-.6-1.2-1.2-2.4-1.9-3.6s-1.4-2.3-2.3-3.4l1-.2c.1,1,.3,1.8.3,2.5,0,.7.1,1.4.1,1.9,0,.6,0,1.2,0,1.9,0,2.2,0,4.3-.3,6.1-.2,1.8-.5,3.4-.9,4.7-.2.6-.5,1.1-.9,1.4-.4.3-1,.5-1.8.5Z"/>
    <path class="st7" d="M813,548c-1.6,0-3.1-.2-4.4-.8-1.3-.5-2.5-1.2-3.5-2.2-1-1-1.8-2.1-2.3-3.4-.5-1.3-.8-2.8-.8-4.4s.2-2.7.6-4c.4-1.2,1-2.3,1.6-3.3.7-1,1.4-1.8,2.1-2.5.8-.7,1.5-1.2,2.2-1.6.7-.4,1.2-.6,1.7-.6s.9,0,1.3.2c.3.2.6.4.9.9.5.7.6,1.3.4,1.8-.2.6-.6,1-1.2,1.4-1,.7-1.8,1.4-2.4,2.2s-1.1,1.6-1.4,2.4c-.3.9-.4,1.9-.4,3s.2,2.1.7,3c.5.8,1.1,1.5,2,1.9.9.4,1.8.7,2.9.7s2.3-.3,3.3-.8c1-.5,1.8-1.2,2.4-2.1.6-.9.9-1.9.9-3s-.2-2.2-.5-3.3c-.3-1.1-.7-2.1-1.3-3s-1.2-1.6-1.8-2.2c-.7-.5-1.4-.8-2.2-.8s-.5.1-.6.3c-.1.2-.2.5-.2.8,0,.5-.1.9-.4,1.2s-.6.4-1.1.4-1.1-.2-1.6-.5c-.5-.3-1-.8-1.3-1.4-.3-.6-.5-1.4-.5-2.3s.2-1.3.6-1.9c.4-.6,1-1.1,1.7-1.4.8-.4,1.7-.6,2.7-.6,1.8,0,3.4.4,4.9,1.2,1.5.8,2.7,1.9,3.8,3.3,1.1,1.4,1.9,3,2.5,4.7s.9,3.6.9,5.4-.3,3-.9,4.4c-.6,1.3-1.5,2.5-2.6,3.5-1.1,1-2.4,1.8-3.9,2.3-1.5.6-3,.8-4.7.8Z"/>
    <path class="st7" d="M830.9,548.2c-.9,0-1.5-.2-1.9-.6-.4-.4-.6-.9-.6-1.5s0-1,.1-1.5c0-.5.2-1.1.3-1.8.1-.7.2-1.6.3-2.8,0-1.2.1-2.7.1-4.5s0-2.1,0-3.2c0-1.1-.1-2.2-.2-3.2,0-1-.1-1.9-.2-2.6,0-.8,0-1.3,0-1.6,0-.7.2-1.3.7-1.8.4-.5,1.1-.8,1.9-.8s2,.3,2.9.8c.9.5,1.7,1.2,2.5,2.1.8.9,1.5,1.9,2.2,3,.7,1.1,1.3,2.3,1.9,3.5.6,1.2,1.2,2.4,1.8,3.6.6,1.2,1.2,2.3,1.7,3.3.5,1,1.1,1.9,1.7,2.6s1.1,1.3,1.7,1.6l-3,1.4c.3-.2.6-.5.9-.8.3-.3.6-.8.8-1.4.2-.6.3-1.5.3-2.5s0-2.8-.1-4.1-.2-2.6-.2-3.8,0-2.4,0-3.5c0-1.2.2-2.3.5-3.5.2-.9.5-1.5.9-1.8.4-.4.9-.6,1.4-.6.9,0,1.5.2,2,.7s.7,1,.8,1.6c.1.6.1,1.1,0,1.6-.2,1.1-.4,2.2-.4,3.2,0,1,0,2,0,3,0,1,0,2,.1,3.1,0,1.1,0,2.3,0,3.6s-.1,3.4-.3,4.8c-.2,1.4-.7,2.5-1.4,3.3s-1.8,1.2-3.2,1.2-1.7-.2-2.5-.6c-.7-.4-1.4-1-2-1.8-.6-.8-1.2-1.6-1.8-2.6-.5-1-1.1-2.1-1.6-3.2-.5-1.2-1.1-2.3-1.7-3.6-.6-1.2-1.2-2.4-1.9-3.6s-1.4-2.3-2.3-3.4l1-.2c.1,1,.3,1.8.3,2.5,0,.7.1,1.4.1,1.9,0,.6,0,1.2,0,1.9,0,2.2,0,4.3-.3,6.1-.2,1.8-.5,3.4-.9,4.7-.2.6-.5,1.1-.9,1.4-.4.3-1,.5-1.8.5Z"/>
    <path class="st7" d="M691,591.2c-.9,0-1.5-.2-1.9-.6-.4-.4-.6-.9-.6-1.5s0-1,.1-1.5c0-.5.2-1.1.3-1.8.1-.7.2-1.6.3-2.8,0-1.2.1-2.7.1-4.5s0-2.1,0-3.2c0-1.1-.1-2.2-.2-3.2,0-1-.1-1.9-.2-2.6,0-.8,0-1.3,0-1.6,0-.7.2-1.3.7-1.8.4-.5,1.1-.8,1.9-.8s2,.3,2.9.8c.9.5,1.7,1.2,2.5,2.1.8.9,1.5,1.9,2.2,3,.7,1.1,1.3,2.3,1.9,3.5.6,1.2,1.2,2.4,1.8,3.6.6,1.2,1.2,2.3,1.7,3.3s1.1,1.9,1.7,2.6,1.1,1.3,1.7,1.6l-3,1.4c.3-.2.6-.5.9-.8.3-.3.6-.8.8-1.4.2-.6.3-1.5.3-2.5s0-2.8-.1-4.1-.2-2.6-.2-3.8,0-2.4,0-3.5c0-1.2.2-2.3.5-3.5.2-.9.5-1.5.9-1.8s.9-.6,1.4-.6c.9,0,1.5.2,2,.7s.7,1,.8,1.6c.1.6.1,1.1,0,1.6-.2,1.1-.4,2.2-.4,3.2,0,1,0,2,0,3,0,1,0,2,.1,3.1,0,1.1,0,2.3,0,3.6s-.1,3.4-.3,4.8c-.2,1.4-.7,2.5-1.4,3.3s-1.8,1.2-3.2,1.2-1.7-.2-2.5-.6c-.7-.4-1.4-1-2-1.8-.6-.8-1.2-1.6-1.8-2.6-.5-1-1.1-2.1-1.6-3.2-.5-1.2-1.1-2.3-1.7-3.6-.6-1.2-1.2-2.4-1.9-3.6s-1.4-2.3-2.3-3.4l1-.2c.1,1,.3,1.8.3,2.5,0,.7.1,1.4.1,1.9,0,.6,0,1.2,0,1.9,0,2.2,0,4.3-.3,6.1-.2,1.8-.5,3.4-.9,4.7-.2.6-.5,1.1-.9,1.4-.4.3-1,.5-1.8.5Z"/>
    <path class="st7" d="M727,591c-1.6,0-3.1-.2-4.4-.8-1.3-.5-2.5-1.2-3.5-2.2-1-1-1.8-2.1-2.3-3.4-.5-1.3-.8-2.8-.8-4.4s.2-2.7.6-4c.4-1.2,1-2.3,1.6-3.3.7-1,1.4-1.8,2.1-2.5.8-.7,1.5-1.2,2.2-1.6.7-.4,1.2-.6,1.7-.6s.9,0,1.3.2c.3.2.6.4.9.9.5.7.6,1.3.4,1.8-.2.6-.6,1-1.2,1.4-1,.7-1.8,1.4-2.4,2.2s-1.1,1.6-1.4,2.4c-.3.9-.4,1.9-.4,3s.2,2.1.7,3c.5.8,1.1,1.5,2,1.9.9.4,1.8.7,2.9.7s2.3-.3,3.3-.8c1-.5,1.8-1.2,2.4-2.1s.9-1.9.9-3-.2-2.2-.5-3.3c-.3-1.1-.7-2.1-1.3-3-.5-.9-1.2-1.6-1.8-2.2-.7-.5-1.4-.8-2.2-.8s-.5.1-.6.3c-.1.2-.2.5-.2.8,0,.5-.1.9-.4,1.2-.3.3-.6.4-1.1.4s-1.1-.2-1.6-.5c-.5-.3-1-.8-1.3-1.4-.3-.6-.5-1.4-.5-2.3s.2-1.3.6-1.9c.4-.6,1-1.1,1.7-1.4.8-.4,1.7-.6,2.7-.6,1.8,0,3.4.4,4.9,1.2,1.5.8,2.7,1.9,3.8,3.3,1.1,1.4,1.9,3,2.5,4.7s.9,3.6.9,5.4-.3,3-.9,4.4c-.6,1.3-1.5,2.5-2.6,3.5-1.1,1-2.4,1.8-3.9,2.3-1.5.6-3,.8-4.7.8Z"/>
    <path class="st7" d="M755.9,570.9h-3.5c-1.1,0-2.1,0-3.1,0s-2,0-3-.1c-1,0-2-.1-3-.2-1,0-1.8-.3-2.3-.5-.5-.3-.9-.6-1.2-1.1-.2-.5-.4-1-.4-1.7s.2-1,.5-1.4.9-.6,1.6-.6,2.1,0,3,0c.9,0,1.8,0,2.6.1.8,0,1.7,0,2.5.1.8,0,1.7,0,2.6,0s1.6,0,2.2,0c.7,0,1.3-.1,2-.2.7,0,1.4,0,2.3,0s1.2.2,1.6.5.5.8.5,1.4c0,.9-.2,1.6-.7,2.1-.5.5-1.1,1-1.9,1.2-.8.3-1.5.4-2.3.4ZM750.6,591.1c-.7,0-1.4-.2-2-.7-.6-.5-1.1-1.4-1.5-2.8-.2-.9-.4-1.9-.5-2.9-.1-1-.2-2.2-.2-3.5s0-2.9.2-4.7.3-4,.5-6.5c0-.7.3-1.3.7-1.7.4-.4.9-.7,1.6-.7,1.3,0,2.2.3,2.6,1,.5.7.7,1.8.6,3.4-.1,2.5-.2,4.6-.3,6.3,0,1.7,0,3.2,0,4.3,0,1.1.1,2.1.2,2.8,0,.7.1,1.3.2,1.8,0,.5.1,1,.1,1.4,0,.9-.2,1.5-.6,1.8-.4.3-1,.5-1.8.5Z"/>
    <path class="st7" d="M767,591c-1.7,0-2.9-.3-3.6-.9-.7-.6-1.1-1.3-1.1-2.2s.2-1,.5-1.4c.3-.4.9-.6,1.6-.6,1.3-.2,2.5-.3,3.5-.3,1,0,1.9-.1,2.7-.1.8,0,1.7,0,2.6,0,.9,0,2,0,3.2,0s1.9,0,2.5.3c.6.2.9.5,1.1.8s.3.7.3,1.2c0,.8-.3,1.5-1,2-.7.6-1.8.9-3.3.9s-2.7,0-3.8,0c-1.2,0-2.2.1-3.1.2-.9,0-1.6.1-2.1.1ZM765.6,571.4c-1.2,0-2-.3-2.5-.8-.5-.5-.8-1.2-.8-1.9s.2-1.3.7-1.7c.5-.4,1.1-.7,1.9-.8,1.4-.2,2.7-.3,4.1-.5,1.4-.1,2.7-.2,4-.3,1.3,0,2.5-.1,3.5-.1s2.3.2,2.9.5.9.9.9,1.8-.4,1.8-1.3,2.4-2,.9-3.3.9-2.2,0-3.1,0c-.9,0-1.7,0-2.4.1-.7,0-1.3.1-1.9.2-.5,0-1,0-1.5.1-.4,0-.8,0-1.3,0ZM771.9,586.9c-1,0-1.8-.3-2.5-.8-.6-.5-.9-1.2-.9-2,0-1.5,0-3,.1-4.5,0-1.5.2-2.9.3-4.2,0-1.3.1-2.6.1-3.7s.1-1.5.4-2c.3-.4.9-.6,1.7-.6s1.7.3,2.4.9c.7.6,1,1.3,1,2.2s0,1.8-.1,3c0,1.2-.2,2.7-.3,4.3-.1,1.6-.2,3.3-.2,5.2s-.7,2.2-2,2.2Z"/>
    <path class="st7" d="M786.2,572.2c-1,0-1.7-.2-2.3-.5-.6-.3-1-.7-1.3-1.2-.3-.5-.4-1-.4-1.5s.1-.9.4-1.3c.3-.4.7-.6,1.4-.8,1.2-.3,2.6-.6,4-.8,1.4-.3,2.9-.5,4.5-.6,1.5-.2,3-.2,4.4-.2s1.5.1,2.1.4c.6.3,1.2.7,1.5,1.2.4.5.6,1.1.6,1.7s-.2,1.1-.6,1.5c-.4.4-1,.5-2,.5-2.3,0-4.2.1-5.9.4-1.7.3-3,.5-4.1.8-1.1.2-1.9.4-2.4.4ZM790.1,591c-.5,0-1.2-.2-1.9-.5-.7-.3-1.3-1-2-1.9-.4-.5-.7-1.2-1-2-.3-.8-.5-1.7-.7-2.8-.2-1.1-.2-2.3-.2-3.7s0-2,.1-2.9c0-.9.2-1.7.3-2.5.1-.8.2-1.5.4-2.3.2-1.1.6-2,1.2-2.6.6-.6,1.3-.8,2.1-.8s1.3.2,1.6.7c.3.5.4,1,.4,1.5,0,.4,0,.9-.1,1.5,0,.6-.1,1.3-.2,2,0,.8-.2,1.7-.2,2.7s0,2.2,0,3.5c0,1.1.1,2,.3,2.8.2.7.3,1.4.6,1.9.2.5.4,1,.6,1.3.2.4.4.7.6,1.1.2.3.2.7.2,1.2s-.2,1-.5,1.3c-.3.4-.8.6-1.5.6ZM788.5,583.3c-.7.2-1.3.2-1.8,0s-.8-.5-1-.9c-.2-.4-.3-.8-.3-1.3s.1-.9.4-1.4.6-.9,1-1.2c.4-.3.8-.6,1.3-.7.9-.2,1.9-.4,3-.5,1.1-.2,2.3-.3,3.5-.4,1.2,0,2.4-.1,3.6-.1s1.6.2,2,.5c.4.4.5.9.5,1.6,0,1-.4,1.8-1.1,2.3-.7.5-1.6.8-2.6.9-1,0-2.1.2-3.1.3s-2.1.3-3,.4c-.9.2-1.7.3-2.3.5Z"/>
    <path class="st7" d="M807.9,591c-1.7,0-2.9-.3-3.6-.9-.7-.6-1.1-1.3-1.1-2.2s.2-1,.5-1.4c.3-.4.9-.6,1.6-.6,1.3-.2,2.5-.3,3.5-.3,1,0,1.9-.1,2.7-.1.8,0,1.7,0,2.6,0,.9,0,2,0,3.2,0s1.9,0,2.5.3c.6.2.9.5,1.1.8s.3.7.3,1.2c0,.8-.3,1.5-1,2-.7.6-1.8.9-3.3.9s-2.7,0-3.8,0c-1.2,0-2.2.1-3.1.2-.9,0-1.6.1-2.1.1ZM806.5,571.4c-1.2,0-2-.3-2.5-.8-.5-.5-.8-1.2-.8-1.9s.2-1.3.7-1.7c.5-.4,1.1-.7,1.9-.8,1.4-.2,2.7-.3,4.1-.5,1.4-.1,2.7-.2,4-.3,1.3,0,2.5-.1,3.5-.1s2.3.2,2.9.5.9.9.9,1.8-.4,1.8-1.3,2.4-2,.9-3.3.9-2.7,0-3.8,0c-1.1,0-2,.1-2.7.2-.8,0-1.4.1-2,.2s-1.1,0-1.6,0ZM812.8,586.9c-1,0-1.8-.3-2.5-.8-.6-.5-.9-1.2-.9-2,0-1.5,0-3,.1-4.5,0-1.5.2-2.9.3-4.2,0-1.3.1-2.6.1-3.7s.1-1.5.4-2c.3-.4.9-.6,1.7-.6s1.7.3,2.4.9c.7.6,1,1.3,1,2.2s0,1.8-.1,3c0,1.2-.2,2.7-.3,4.3-.1,1.6-.2,3.3-.2,5.2s-.7,2.2-2,2.2Z"/>
    <path class="st7" d="M833.1,591c-2.2,0-4.1-.5-5.7-1.4s-2.7-2.3-3.5-4-1.2-3.6-1.2-5.7.4-3.8,1.1-5.5c.7-1.8,1.7-3.3,2.9-4.7,1.2-1.4,2.7-2.5,4.3-3.3,1.6-.8,3.3-1.2,5.1-1.2s3.1.4,3.9,1.1c.8.8,1.2,1.8,1.2,3.1s-.1,1.4-.3,2.1c-.2.6-.6,1.2-1,1.6-.5.4-1,.6-1.7.6s-.6,0-.9-.2c-.2-.1-.4-.3-.5-.6-.1-.3-.2-.5-.2-.8s0-.4-.1-.6c0-.2-.2-.3-.4-.4-.2,0-.5-.1-.9-.1-1,0-2,.3-2.8.8-.8.5-1.6,1.2-2.2,2-.6.8-1.1,1.8-1.4,2.8-.3,1-.5,2.1-.5,3.2,0,1.9.5,3.3,1.4,4.3s2.2,1.5,3.8,1.5,1.5,0,2.1-.2c.5-.2,1-.4,1.3-.6.3-.3.6-.5.9-.7.3-.2.6-.4.9-.6.3-.2.7-.3,1.1-.3.7,0,1.2.2,1.4.6.3.4.4.9.4,1.6s-.2,1.3-.6,2c-.4.7-.9,1.3-1.6,1.8-.7.5-1.6,1-2.7,1.3s-2.2.5-3.6.5Z"/>
    <path class="st7" d="M846.7,584.6c-1.2,0-2-.2-2.5-.7-.5-.5-.8-1-.8-1.8s.2-.9.5-1.2c.3-.3.8-.6,1.5-.8,2.5-.7,5.4-1.3,8.7-1.8,3.3-.5,6.9-.7,11-.7s2.4.2,2.9.6c.5.4.8,1,.8,1.8s-.4,1.6-1.1,2.2c-.7.6-1.7.9-3,.9-1.8,0-3.4,0-5,.2-1.5.1-2.9.2-4.1.4-1.3.2-2.4.3-3.5.5s-2,.3-2.9.4c-.9.1-1.7.2-2.4.2ZM865.9,591c-.7,0-1.4-.2-2-.6-.6-.4-1.1-1-1.7-1.9-.5-.8-1-1.8-1.4-3.1-.4-1.3-.7-2.6-1-4-.2-1.4-.4-2.7-.6-4-.2-1.5-.3-2.7-.4-3.6-.1-.9-.3-1.6-.4-2-.1-.5-.3-.8-.4-.9-.2-.2-.3-.2-.6-.2-.6,0-1.2.4-1.8,1.3-.6.8-1.3,2.1-1.9,3.6-.6,1.6-1.2,3.5-1.8,5.8-.5,2.2-1,4.7-1.4,7.5,0,.7-.3,1.3-.6,1.6-.3.3-.8.5-1.4.5-1,0-1.8-.4-2.4-1.2-.5-.8-.8-2.1-.8-4s.1-2.9.3-4.2c.2-1.3.4-2.6.7-3.8.3-1.2.5-2.4.7-3.6.2-1.2.3-2.4.3-3.6,0-.4.1-.8.4-1,.3-.3.7-.4,1.2-.4s1,.1,1.5.4,1,.7,1.4,1.3l-2.1.7c1-1.9,2.1-3.4,3.5-4.5,1.4-1.1,2.9-1.7,4.5-1.7s3,.4,3.9,1.3,1.7,2.2,2.2,4c.5,1.8.9,4.2,1.3,7.1.2,1.7.4,3.2.8,4.4.3,1.2.7,2.3,1.1,3.1.4.8.7,1.6.9,2.2.2.6.4,1.2.4,1.7s-.2,1.1-.5,1.5c-.4.3-.9.5-1.6.5Z"/>
    <path class="st7" d="M884,570.9h-3.5c-1.1,0-2.1,0-3.1,0s-2,0-3-.1c-1,0-2-.1-3-.2-1,0-1.8-.3-2.3-.5-.5-.3-.9-.6-1.2-1.1-.2-.5-.4-1-.4-1.7s.2-1,.5-1.4.9-.6,1.6-.6,2.1,0,3,0c.9,0,1.8,0,2.6.1.8,0,1.7,0,2.5.1.8,0,1.7,0,2.6,0s1.6,0,2.2,0c.7,0,1.3-.1,2-.2.7,0,1.4,0,2.3,0s1.2.2,1.6.5.5.8.5,1.4c0,.9-.2,1.6-.7,2.1-.5.5-1.1,1-1.9,1.2-.8.3-1.5.4-2.3.4ZM878.7,591.1c-.7,0-1.4-.2-2-.7-.6-.5-1.1-1.4-1.5-2.8-.2-.9-.4-1.9-.5-2.9-.1-1-.2-2.2-.2-3.5s0-2.9.2-4.7.3-4,.5-6.5c0-.7.3-1.3.7-1.7.4-.4.9-.7,1.6-.7,1.3,0,2.2.3,2.6,1,.5.7.7,1.8.6,3.4-.1,2.5-.2,4.6-.3,6.3,0,1.7,0,3.2,0,4.3,0,1.1.1,2.1.2,2.8,0,.7.1,1.3.2,1.8,0,.5.1,1,.1,1.4,0,.9-.2,1.5-.6,1.8-.4.3-1,.5-1.8.5Z"/>
    <path class="st7" d="M895.1,591c-1.7,0-2.9-.3-3.6-.9-.7-.6-1.1-1.3-1.1-2.2s.2-1,.5-1.4c.3-.4.9-.6,1.6-.6,1.3-.2,2.5-.3,3.5-.3,1,0,1.9-.1,2.7-.1.8,0,1.7,0,2.6,0,.9,0,2,0,3.2,0s1.9,0,2.5.3c.6.2.9.5,1.1.8s.3.7.3,1.2c0,.8-.3,1.5-1,2-.7.6-1.8.9-3.3.9s-2.7,0-3.8,0c-1.2,0-2.2.1-3.1.2-.9,0-1.6.1-2.1.1ZM893.7,571.4c-1.2,0-2-.3-2.5-.8-.5-.5-.8-1.2-.8-1.9s.2-1.3.7-1.7c.5-.4,1.1-.7,1.9-.8,1.4-.2,2.7-.3,4.1-.5,1.4-.1,2.7-.2,4-.3,1.3,0,2.5-.1,3.5-.1s2.3.2,2.9.5.9.9.9,1.8-.4,1.8-1.3,2.4-2,.9-3.3.9-2.2,0-3.1,0c-.9,0-1.7,0-2.4.1-.7,0-1.3.1-1.9.2-.5,0-1,0-1.5.1-.4,0-.8,0-1.3,0ZM899.9,586.9c-1,0-1.8-.3-2.5-.8-.6-.5-.9-1.2-.9-2,0-1.5,0-3,.1-4.5,0-1.5.2-2.9.3-4.2,0-1.3.1-2.6.1-3.7s.1-1.5.4-2c.3-.4.9-.6,1.7-.6s1.7.3,2.4.9c.7.6,1,1.3,1,2.2s0,1.8-.1,3c0,1.2-.2,2.7-.3,4.3-.1,1.6-.2,3.3-.2,5.2s-.7,2.2-2,2.2Z"/>
    <path class="st7" d="M920.8,591c-1.6,0-3.1-.2-4.4-.8-1.3-.5-2.5-1.2-3.5-2.2-1-1-1.8-2.1-2.3-3.4-.5-1.3-.8-2.8-.8-4.4s.2-2.7.6-4c.4-1.2,1-2.3,1.6-3.3.7-1,1.4-1.8,2.1-2.5.8-.7,1.5-1.2,2.2-1.6.7-.4,1.2-.6,1.7-.6s.9,0,1.3.2c.3.2.6.4.9.9.5.7.6,1.3.4,1.8-.2.6-.6,1-1.2,1.4-1,.7-1.8,1.4-2.4,2.2s-1.1,1.6-1.4,2.4c-.3.9-.4,1.9-.4,3s.2,2.1.7,3c.5.8,1.1,1.5,2,1.9.9.4,1.8.7,2.9.7s2.3-.3,3.3-.8c1-.5,1.8-1.2,2.4-2.1s.9-1.9.9-3-.2-2.2-.5-3.3c-.3-1.1-.7-2.1-1.3-3-.5-.9-1.2-1.6-1.8-2.2-.7-.5-1.4-.8-2.2-.8s-.5.1-.6.3c-.1.2-.2.5-.2.8,0,.5-.1.9-.4,1.2-.3.3-.6.4-1.1.4s-1.1-.2-1.6-.5c-.5-.3-1-.8-1.3-1.4-.3-.6-.5-1.4-.5-2.3s.2-1.3.6-1.9c.4-.6,1-1.1,1.7-1.4.8-.4,1.7-.6,2.7-.6,1.8,0,3.4.4,4.9,1.2,1.5.8,2.7,1.9,3.8,3.3,1.1,1.4,1.9,3,2.5,4.7s.9,3.6.9,5.4-.3,3-.9,4.4c-.6,1.3-1.5,2.5-2.6,3.5-1.1,1-2.4,1.8-3.9,2.3-1.5.6-3,.8-4.7.8Z"/>
    <path class="st7" d="M938.7,591.2c-.9,0-1.5-.2-1.9-.6-.4-.4-.6-.9-.6-1.5s0-1,.1-1.5c0-.5.2-1.1.3-1.8.1-.7.2-1.6.3-2.8,0-1.2.1-2.7.1-4.5s0-2.1,0-3.2c0-1.1-.1-2.2-.2-3.2,0-1-.1-1.9-.2-2.6,0-.8,0-1.3,0-1.6,0-.7.2-1.3.7-1.8.4-.5,1.1-.8,1.9-.8s2,.3,2.9.8c.9.5,1.7,1.2,2.5,2.1.8.9,1.5,1.9,2.2,3,.7,1.1,1.3,2.3,1.9,3.5.6,1.2,1.2,2.4,1.8,3.6.6,1.2,1.2,2.3,1.7,3.3s1.1,1.9,1.7,2.6,1.1,1.3,1.7,1.6l-3,1.4c.3-.2.6-.5.9-.8.3-.3.6-.8.8-1.4.2-.6.3-1.5.3-2.5s0-2.8-.1-4.1-.2-2.6-.2-3.8,0-2.4,0-3.5c0-1.2.2-2.3.5-3.5.2-.9.5-1.5.9-1.8s.9-.6,1.4-.6c.9,0,1.5.2,2,.7s.7,1,.8,1.6c.1.6.1,1.1,0,1.6-.2,1.1-.4,2.2-.4,3.2,0,1,0,2,0,3,0,1,0,2,.1,3.1,0,1.1,0,2.3,0,3.6s-.1,3.4-.3,4.8c-.2,1.4-.7,2.5-1.4,3.3s-1.8,1.2-3.2,1.2-1.7-.2-2.5-.6c-.7-.4-1.4-1-2-1.8-.6-.8-1.2-1.6-1.8-2.6-.5-1-1.1-2.1-1.6-3.2-.5-1.2-1.1-2.3-1.7-3.6-.6-1.2-1.2-2.4-1.9-3.6s-1.4-2.3-2.3-3.4l1-.2c.1,1,.3,1.8.3,2.5,0,.7.1,1.4.1,1.9,0,.6,0,1.2,0,1.9,0,2.2,0,4.3-.3,6.1-.2,1.8-.5,3.4-.9,4.7-.2.6-.5,1.1-.9,1.4-.4.3-1,.5-1.8.5Z"/>
    <path class="st7" d="M970.4,590.9c-2.2,0-3.9-.4-5-1.3s-1.7-1.9-1.7-3,.1-1,.4-1.3c.3-.3.7-.5,1.2-.5s.7,0,.9.1c.3,0,.6.2.9.3.3.1.7.2,1.1.3.4,0,1,.1,1.6.1.9,0,1.7,0,2.3-.1.7,0,1.2-.2,1.8-.3.5-.1,1-.3,1.6-.5-.2-.5-.6-.9-1.3-1.2-.6-.4-1.4-.7-2.3-1.1s-1.8-.8-2.8-1.2c-1-.4-1.9-1-2.7-1.6-.8-.6-1.5-1.3-2.1-2.1-.5-.8-.8-1.8-.8-3s.3-2.2,1-3.2c.7-1,1.5-1.8,2.6-2.6,1.1-.8,2.3-1.4,3.5-2,1.3-.5,2.5-.9,3.7-1.2,1.2-.3,2.2-.4,3.1-.4s1.4.1,1.8.4c.5.3.8.6,1,1.1.2.5.3.9.3,1.5s-.1,1-.4,1.4c-.3.4-.8.7-1.4.8-1.9.4-3.6.8-5,1.3-1.4.5-2.6,1-3.4,1.5-.8.5-1.2,1-1.2,1.6s.3.8.9,1.2c.6.4,1.3.8,2.2,1.1.9.4,1.9.8,2.9,1.2s2,1,2.9,1.6,1.7,1.3,2.2,2.1c.6.8.9,1.8.9,2.9s-.2,2-.7,2.7c-.5.8-1.2,1.4-2.1,1.9-.9.5-2.1.9-3.4,1.1-1.3.2-2.9.4-4.6.4Z"/>
  </g>
  <path id="newsletter-body" class="st1" d="M1284.2,265.3c.7,0,2.4,0,4.3,1.1,4.7,2.8,7.7,9.8,8.4,15.5,5.7,46.8,6.8,477-1.1,515.2-2,9.9-11.3,14-22.4,15.6-13.2,1.9-572.8.4-582.6,1.3-18.4,1.7-21-.8-36.2,0,0,0-5.7.3-13.5-1.5-3.9-.9-5.7-1.8-7.4-3-.8-.6-4.8-3.7-7.6-10.2-3-7-3-14.3-3.1-19-.1-12.7-1.9-25.2-2.3-37.9-.8-24.5-4.9-446.1.7-458.2,7.1-15.3,8.6-18,44.9-18.5,16.4-.3,583.6,0,617.8-.4Z"/>
  <g id="newsletter-signup_x5F_txt">
    <g>
      <path class="st8" d="M700.1,389.5c-2.2,0-3.9-.4-5-1.3s-1.7-1.9-1.7-3,.1-1,.4-1.3c.3-.3.7-.5,1.2-.5s.7,0,.9.1c.3,0,.6.2.9.3.3.1.7.2,1.1.3.4,0,1,.1,1.6.1.9,0,1.7,0,2.3-.1.7,0,1.2-.2,1.8-.3.5-.1,1-.3,1.6-.5-.2-.5-.6-.9-1.3-1.2-.6-.4-1.4-.7-2.3-1.1-.9-.4-1.8-.8-2.8-1.2-1-.4-1.9-1-2.7-1.6-.8-.6-1.5-1.3-2.1-2.1-.5-.8-.8-1.8-.8-3s.3-2.2,1-3.2c.7-1,1.5-1.8,2.6-2.6,1.1-.8,2.3-1.4,3.5-2s2.5-.9,3.7-1.2c1.2-.3,2.2-.4,3.1-.4s1.4.1,1.8.4c.5.3.8.6,1,1.1.2.5.3.9.3,1.5s-.1,1-.4,1.4c-.3.4-.8.7-1.4.8-1.9.4-3.6.8-5,1.3-1.4.5-2.6,1-3.4,1.5-.8.5-1.2,1-1.2,1.6s.3.8.9,1.2,1.3.8,2.2,1.1c.9.4,1.9.8,2.9,1.2,1,.4,2,1,2.9,1.6s1.7,1.3,2.2,2.1.9,1.8.9,2.9-.2,2-.7,2.7c-.5.8-1.2,1.4-2.1,1.9-.9.5-2.1.9-3.4,1.1-1.3.2-2.9.4-4.6.4Z"/>
      <path class="st8" d="M718.2,389.5c-1.7,0-2.9-.3-3.6-.9s-1.1-1.3-1.1-2.2.2-1,.5-1.4c.3-.4.9-.6,1.6-.6,1.1-.1,2-.2,2.8-.3.8,0,1.6-.1,2.3-.1.7,0,1.4,0,2.1,0,.7,0,1.4,0,2.2,0,.8,0,1.7,0,2.6,0s1.9,0,2.5.3c.6.2.9.5,1.1.8.2.3.3.7.3,1.2,0,.8-.3,1.5-1,2-.7.6-1.8.9-3.3.9s-2.7,0-3.8,0c-1.2,0-2.2.1-3.1.2-.9,0-1.6.1-2.1.1ZM716.8,369.9c-1.2,0-2-.3-2.5-.8-.5-.5-.8-1.2-.8-1.9s.2-1.3.7-1.7c.5-.4,1.1-.7,2-.8,1.4-.2,2.7-.3,4.1-.5,1.4-.1,2.7-.2,4-.3,1.3,0,2.5-.1,3.5-.1s2.3.2,2.9.5c.6.3.9.9.9,1.8s-.4,1.8-1.3,2.4c-.9.6-2,.9-3.3.9s-2.2,0-3.1,0c-.9,0-1.7,0-2.4.1-.7,0-1.3.1-1.9.2-.5,0-1,0-1.5.1-.4,0-.8,0-1.3,0ZM723.1,385.4c-1,0-1.8-.3-2.5-.8-.6-.5-.9-1.2-.9-2,0-1.5,0-3,.1-4.5,0-1.5.2-2.9.3-4.2,0-1.3.1-2.6.1-3.7s.1-1.5.4-2,.9-.6,1.7-.6,1.7.3,2.4.9c.7.6,1,1.3,1,2.2s0,1.8-.1,3c0,1.2-.2,2.7-.3,4.3-.1,1.6-.2,3.3-.2,5.2s-.7,2.2-2,2.2Z"/>
      <path class="st8" d="M756.7,393.2c-.8,0-1.5-.2-2.1-.6-.5-.4-1-1-1.5-1.8-.3-.5-.5-1-.8-1.7-.2-.6-.5-1.4-.7-2.3-.2-.9-.4-2-.5-3.4l1.6.7c-1,1.3-2.1,2.3-3.3,3.1-1.2.8-2.4,1.3-3.7,1.7-1.3.4-2.6.5-3.9.5s-3.3-.4-4.6-1.1-2.3-1.7-3-3.1c-.7-1.3-1.1-2.9-1.1-4.7s.3-3.4.9-5.1c.6-1.6,1.5-3.2,2.5-4.6,1.1-1.4,2.3-2.7,3.7-3.7,1.4-1.1,2.9-1.9,4.5-2.5,1.6-.6,3.2-.9,4.9-.9s1.9.1,2.5.4,1.1.7,1.4,1.2c.3.5.4,1.1.4,1.8s-.1,1.5-.4,2.2c-.3.7-.7,1.2-1.2,1.6-.5.4-1.1.6-1.8.6s-.6,0-.8-.2-.3-.3-.4-.4c0-.2-.1-.4-.2-.6,0-.2-.2-.3-.3-.4-.1-.1-.4-.2-.7-.2-.9,0-1.8.2-2.7.6-.9.4-1.7,1-2.5,1.7-.8.7-1.4,1.5-2,2.4-.6.9-1,1.8-1.4,2.8-.3,1-.5,1.9-.5,2.8,0,1.3.3,2.3.9,3s1.4,1,2.4,1,2.2-.2,3.3-.6c1.1-.4,2.1-.9,3-1.7,1-.8,1.8-1.7,2.5-2.8.5-.6.9-1,1.5-1.3.5-.2,1.2-.3,2-.3s1,.1,1.3.3c.3.2.4.5.4,1,0,1.7,0,3.1.2,4.2.1,1.1.3,2.1.5,3,.2.8.5,1.7.9,2.5.3.5.5,1,.6,1.3.1.3.2.6.2.8s0,.5,0,.7c0,.6-.2,1.1-.6,1.5s-.9.5-1.5.5ZM746.3,380.2c-.8,0-1.4-.3-2-.8-.6-.5-.8-1.2-.8-1.9s.2-1,.5-1.3c.3-.3.9-.6,1.9-.9,1.5-.4,3-.8,4.6-1,1.6-.2,3.4-.4,5.4-.4,1.1,0,1.9,0,2.4.3.5.2.9.4,1.1.8.2.3.3.7.3,1.2,0,.8-.2,1.5-.7,2.1-.5.6-1.2.9-2.3.9-2,0-3.6,0-4.9.3-1.3.2-2.3.3-3.2.5s-1.6.3-2.2.3Z"/>
      <path class="st8" d="M764.8,389.7c-.9,0-1.5-.2-1.9-.6-.4-.4-.6-.9-.6-1.5s0-1,.1-1.5c0-.5.2-1.1.3-1.8.1-.7.2-1.6.3-2.8,0-1.2.1-2.7.1-4.5s0-2.1,0-3.2-.1-2.2-.2-3.2c0-1-.1-1.9-.2-2.6,0-.8,0-1.3,0-1.6,0-.7.2-1.3.7-1.8s1.1-.8,2-.8,2,.3,2.9.8c.9.5,1.7,1.2,2.5,2.1.8.9,1.5,1.9,2.2,3,.7,1.1,1.3,2.3,1.9,3.5.6,1.2,1.2,2.4,1.8,3.6.6,1.2,1.2,2.3,1.7,3.3.5,1,1.1,1.9,1.7,2.6.6.7,1.1,1.3,1.7,1.6l-3,1.4c.3-.2.6-.5.9-.8.3-.3.6-.8.8-1.4.2-.6.3-1.5.3-2.5s0-2.8-.1-4.1c0-1.3-.2-2.6-.2-3.8,0-1.2,0-2.4,0-3.5,0-1.2.2-2.3.5-3.5.2-.9.5-1.5.9-1.8.4-.4.9-.6,1.4-.6.9,0,1.5.2,2,.7.4.4.7,1,.8,1.6.1.6.1,1.1,0,1.6-.2,1.1-.4,2.2-.4,3.2,0,1,0,2,0,3,0,1,0,2,.1,3.1,0,1.1,0,2.3,0,3.6s-.1,3.4-.3,4.8c-.2,1.4-.7,2.5-1.4,3.3-.7.8-1.8,1.2-3.2,1.2s-1.7-.2-2.5-.6-1.4-1-2-1.8c-.6-.8-1.2-1.6-1.8-2.6-.5-1-1.1-2.1-1.6-3.2-.5-1.2-1.1-2.3-1.7-3.6-.6-1.2-1.2-2.4-1.9-3.6-.7-1.2-1.4-2.3-2.3-3.4l1-.2c.1,1,.3,1.8.3,2.5,0,.7.1,1.4.1,1.9,0,.6,0,1.2,0,1.9,0,2.2,0,4.3-.3,6.1-.2,1.8-.5,3.4-.9,4.7-.2.6-.5,1.1-.9,1.4-.4.3-1,.5-1.8.5Z"/>
      <path class="st8" d="M813.8,389.6c-2.6,0-4.6-.5-6.2-1.5-1.5-1-2.7-2.5-3.4-4.4-.7-1.9-1.1-4.1-1.1-6.7s0-1.9,0-2.8c0-.9,0-1.7,0-2.4s0-1.7,0-2.3-.1-1-.2-1.4c0-.4-.1-.7-.2-1.1s0-.7,0-1.1c0-.8.2-1.4.7-1.8s1.1-.5,1.9-.5,1.4.2,2,.5,1,1,1.4,1.9c.4.9.5,2.2.5,3.8s0,1.5,0,2.3c0,.9-.1,1.7-.2,2.6s0,1.7,0,2.4c0,1.8.2,3.2.5,4.2.4,1,.9,1.7,1.6,2,.7.4,1.5.6,2.5.6,1.4,0,2.5-.4,3.2-1.3.7-.9,1.1-2.4,1.1-4.5s0-2.5,0-3.5c0-1,0-2-.1-3,0-1,0-2.1,0-3.4s.3-2.5.8-3.4,1.4-1.3,2.6-1.3,1.4.2,1.8.6c.5.4.7,1,.7,1.8s0,.8-.1,1.2c0,.4-.1.9-.2,1.4,0,.5,0,1.2,0,2,0,1.3,0,2.5.1,3.8,0,1.3.1,2.6.1,4.1,0,2.2-.3,4.1-1,5.8-.7,1.7-1.7,3-3.1,3.9-1.4.9-3.2,1.4-5.4,1.4Z"/>
      <path class="st8" d="M831.9,389.5c-.9,0-1.6-.3-2.3-1s-1-1.9-1-3.5,0-2.9-.2-4.1c-.2-1.1-.4-2.2-.6-3.1-.2-.9-.4-1.8-.5-2.6-.2-.8-.2-1.7-.2-2.7,0-1.7.3-3.3,1-4.6.7-1.3,1.7-2.3,3.2-3,1.5-.7,3.4-1.1,5.9-1.1s2.5.2,3.6.5c1.1.4,2.1.9,3,1.6.9.7,1.5,1.6,2,2.6.5,1,.7,2.2.7,3.5s-.3,2.7-.9,3.9c-.6,1.2-1.4,2.3-2.4,3.3-1,.9-2.2,1.7-3.5,2.2s-2.7.8-4.2.8-2-.2-2.9-.6c-.8-.4-1.5-.8-2-1.4-.5-.6-.7-1.2-.7-1.9s.2-1.1.6-1.5c.4-.3.8-.5,1.4-.5s.6,0,.8.2c.3.1.6.2.9.3.4.1.9.2,1.6.2,1.1,0,2-.2,2.9-.7s1.6-1.1,2.1-1.9c.5-.8.8-1.6.8-2.4s-.2-1.1-.6-1.5c-.4-.4-.9-.7-1.5-.9-.6-.2-1.2-.3-1.9-.3-1.5,0-2.7.3-3.5.8-.8.5-1.2,1.3-1.2,2.4s0,1.9.3,2.9c.2,1,.4,2,.6,3s.4,2.2.6,3.5c.2,1.3.3,2.7.3,4.3s-.1,1.8-.4,2.4c-.3.6-.9.9-1.9.9Z"/>
      <path class="st8" d="M864.9,370.7c-1,0-1.7-.2-2.3-.5-.6-.3-1-.7-1.3-1.2s-.4-1-.4-1.5.1-.9.4-1.3c.3-.4.7-.6,1.4-.8,1.2-.3,2.6-.6,4-.8,1.4-.3,2.9-.5,4.5-.6,1.5-.2,3-.3,4.4-.3s1.5.1,2.1.4c.6.3,1.2.7,1.5,1.2.4.5.6,1.1.6,1.7s-.2,1.1-.6,1.5c-.4.4-1,.5-2,.5-2.3,0-4.2.1-5.9.4-1.7.3-3,.5-4.1.8-1.1.3-1.9.4-2.4.4ZM868.7,389.6c-.5,0-1.2-.2-1.9-.5-.7-.3-1.3-1-2-1.9-.4-.5-.7-1.2-1-2-.3-.8-.5-1.7-.7-2.8-.2-1.1-.2-2.3-.2-3.7s0-2.9.2-4.1c.2-1.2.3-2.4.5-3.5.2-1.1.6-2,1.2-2.6.6-.6,1.3-.8,2.1-.8s1.3.2,1.6.7c.3.5.4,1,.4,1.5,0,.4,0,.9-.1,1.5s-.1,1.3-.2,2c0,.8-.2,1.7-.2,2.7s0,2.2,0,3.5c0,1.1.1,2,.3,2.8s.3,1.4.6,1.9.4,1,.6,1.3c.2.4.4.7.6,1.1.2.3.2.7.2,1.2s-.2,1-.5,1.3-.8.6-1.5.6ZM867.2,381.8c-.7.2-1.3.2-1.8,0-.5-.2-.8-.5-1-.9s-.3-.8-.3-1.3.1-.9.4-1.4.6-.9,1-1.2.8-.6,1.3-.7c1.4-.3,2.9-.6,4.7-.8,1.8-.2,3.6-.3,5.4-.3s1.6.2,2,.5c.4.4.5.9.5,1.6,0,1-.4,1.8-1.1,2.3-.7.5-1.6.8-2.6.9-1,0-2.1.2-3.1.3-1.1.1-2.1.3-3,.4s-1.7.3-2.3.5Z"/>
      <path class="st8" d="M893.1,389.5c-1.6,0-3.1-.3-4.4-.8-1.3-.5-2.5-1.2-3.5-2.2-1-1-1.8-2.1-2.3-3.4-.5-1.3-.8-2.8-.8-4.4s.2-2.7.6-4c.4-1.2,1-2.3,1.6-3.3.7-1,1.4-1.8,2.1-2.5.8-.7,1.5-1.2,2.2-1.6s1.2-.6,1.7-.6.9,0,1.3.2c.3.2.6.4.9.9.5.7.6,1.3.4,1.8-.2.6-.6,1-1.2,1.4-1,.7-1.8,1.4-2.4,2.2-.6.8-1.1,1.6-1.4,2.4-.3.9-.4,1.9-.4,3s.2,2.1.7,3c.5.8,1.1,1.5,2,1.9.9.4,1.8.7,2.9.7s2.3-.3,3.3-.8c1-.5,1.8-1.2,2.4-2.1.6-.9.9-1.9.9-3s-.2-2.2-.5-3.3c-.3-1.1-.7-2.1-1.3-3s-1.2-1.6-1.8-2.2c-.7-.5-1.4-.8-2.2-.8s-.5.1-.6.3c-.1.2-.2.5-.2.8,0,.5-.1.9-.4,1.2-.3.3-.6.4-1.1.4s-1.1-.2-1.6-.5c-.5-.3-1-.8-1.3-1.4-.3-.6-.5-1.4-.5-2.3s.2-1.3.6-1.9c.4-.6,1-1.1,1.7-1.4.8-.4,1.7-.6,2.7-.6,1.8,0,3.4.4,4.9,1.2,1.5.8,2.7,1.9,3.8,3.3,1.1,1.4,1.9,3,2.5,4.7.6,1.7.9,3.6.9,5.4s-.3,3-.9,4.4-1.5,2.5-2.6,3.5c-1.1,1-2.4,1.8-3.9,2.3-1.5.6-3,.8-4.7.8Z"/>
      <path class="st8" d="M911.7,389.6c-.9,0-1.7-.4-2.4-1.2-.7-.8-1-2-1-3.6s.1-2.1.4-3.3c.3-1.2.8-2.6,1.4-4.1,0-1.2,0-2.3-.2-3.2-.2-1-.4-1.9-.6-2.8-.3-.9-.6-2-.9-3.1-.3-1-.2-1.7,0-2.2.3-.5,1-.8,2-.8s2.1.4,2.8,1.2,1.2,2.3,1.6,4.4h-1c1.3-2.2,2.9-4,4.8-5.2,1.9-1.3,3.9-1.9,6-1.9s2.1.2,2.9.5c.8.3,1.4.8,1.9,1.3.5.6.9,1.2,1.1,2,.2.8.4,1.6.4,2.5s-.2,2.2-.7,3.2c-.5,1-1.2,2-2.1,3-.9.9-2.1,1.8-3.5,2.5-1.4.8-2.9,1.4-4.7,2,1.4.8,2.9,1.5,4.5,2.1,1.6.6,3.2,1.2,4.8,1.6,1.1.3,1.9.6,2.3.9.4.3.6.8.6,1.3,0,.9-.3,1.5-.9,2-.6.5-1.5.7-2.6.7s-1.5-.1-2.6-.4c-1.1-.3-2.2-.7-3.5-1.2-1.3-.5-2.5-1.1-3.7-1.8-1.2-.7-2.3-1.4-3.4-2.1-1-.7-1.8-1.5-2.4-2.2-.3-.4-.4-.9-.4-1.4s.1-1.1.4-1.6c.3-.5.6-.8,1.1-.9,2.1-.5,3.9-1.1,5.4-1.8,1.5-.7,2.6-1.4,3.5-2.1.9-.7,1.5-1.4,1.9-2,.4-.6.6-1.2.6-1.6s0-.7-.3-.9c-.2-.2-.5-.3-1-.3s-.9.1-1.5.4c-.6.2-1.3.6-2.1,1.2-.8.5-1.5,1.3-2.3,2.2-.8.9-1.5,2-2.1,3.3-.6,1.3-1.1,2.8-1.5,4.6-.4,1.8-.6,3.8-.6,6s0,1.2-.3,1.6c-.2.4-.4.7-.8.9s-.8.3-1.3.3Z"/>
      <path class="st8" d="M696.3,432.6c-.9,0-1.5-.2-1.9-.6-.4-.4-.6-.9-.6-1.5s0-1,.1-1.5c0-.5.2-1.1.3-1.8.1-.7.2-1.6.3-2.8,0-1.2.1-2.7.1-4.5s0-2.1,0-3.2-.1-2.2-.2-3.2c0-1-.1-1.9-.2-2.6,0-.8,0-1.3,0-1.6,0-.7.2-1.3.7-1.8s1.1-.8,2-.8,2,.3,2.9.8c.9.5,1.7,1.2,2.5,2.1.8.9,1.5,1.9,2.2,3,.7,1.1,1.3,2.3,1.9,3.5.6,1.2,1.2,2.4,1.8,3.6.6,1.2,1.2,2.3,1.7,3.3.5,1,1.1,1.9,1.7,2.6.6.7,1.1,1.3,1.7,1.6l-3,1.4c.3-.2.6-.5.9-.8.3-.3.6-.8.8-1.4.2-.6.3-1.5.3-2.5s0-2.8-.1-4.1c0-1.3-.2-2.6-.2-3.8,0-1.2,0-2.4,0-3.5,0-1.2.2-2.3.5-3.5.2-.9.5-1.5.9-1.8.4-.4.9-.6,1.4-.6.9,0,1.5.2,2,.7.4.4.7,1,.8,1.6.1.6.1,1.1,0,1.6-.2,1.1-.4,2.2-.4,3.2,0,1,0,2,0,3,0,1,0,2,.1,3.1,0,1.1,0,2.3,0,3.6s-.1,3.4-.3,4.8c-.2,1.4-.7,2.5-1.4,3.3-.7.8-1.8,1.2-3.2,1.2s-1.7-.2-2.5-.6-1.4-1-2-1.8c-.6-.8-1.2-1.6-1.8-2.6-.5-1-1.1-2.1-1.6-3.2-.5-1.2-1.1-2.3-1.7-3.6-.6-1.2-1.2-2.4-1.9-3.6-.7-1.2-1.4-2.3-2.3-3.4l1-.2c.1,1,.3,1.8.3,2.5,0,.7.1,1.4.1,1.9,0,.6,0,1.2,0,1.9,0,2.2,0,4.3-.3,6.1-.2,1.8-.5,3.4-.9,4.7-.2.6-.5,1.1-.9,1.4-.4.3-1,.5-1.8.5Z"/>
      <path class="st8" d="M725.3,413.2c-1.2,0-2.1-.3-2.8-.8-.6-.5-1-1.2-1-2s.1-.8.3-1.1c.2-.4.7-.7,1.4-.8,1.5-.4,3.2-.7,5-1s3.5-.4,5.1-.6c1.6-.1,3-.2,4.1-.2,1.6,0,2.8.3,3.4.8.7.5,1,1.2,1,2.1s-.2,1.2-.6,1.7c-.4.5-1,.7-1.8.7-1.6,0-3.1,0-4.5.2-1.5.1-2.8.3-4,.5-1.2.2-2.3.3-3.3.4-.9.1-1.7.2-2.2.2ZM732.4,432.3c-1.8,0-3.3-.3-4.6-.8-1.3-.5-2.4-1.3-3.3-2.3-.9-1-1.5-2.1-1.9-3.4-.4-1.3-.6-2.7-.6-4.2s0-1.7.2-2.6c.1-.9.3-1.9.6-2.9.2-1,.5-2,.9-3,.3-.9.7-1.7,1.4-2.2.6-.5,1.3-.8,2.2-.8s.8,0,1.2.3c.3.2.6.4.7.7.2.3.2.7.2,1.2-.1.6-.4,1.4-.6,2.4s-.5,2-.8,3.2c-.2,1.2-.3,2.4-.3,3.8s.2,1.9.6,2.7,1,1.4,1.7,1.9c.7.5,1.6.7,2.6.7s1.9,0,2.7-.2c.8-.1,1.4-.3,2-.4.6-.2,1.1-.3,1.5-.5s.8-.2,1.1-.2c.7,0,1.2.2,1.5.5.3.3.5.8.5,1.5,0,1-.4,1.8-1.1,2.5-.7.7-1.8,1.3-3.2,1.6-1.4.4-3.1.6-5,.6ZM726.4,423.2c-.5.1-1,0-1.3-.1-.3-.2-.5-.5-.6-1-.1-.4-.2-.9-.2-1.4s.2-1.3.7-1.8c.4-.5,1-.8,1.7-1,.6-.1,1.3-.3,2-.4.7-.1,1.5-.2,2.3-.3.8-.1,1.7-.2,2.6-.3.9,0,2-.1,3.1-.2,1,0,1.7.2,2.2.6.4.4.6.9.6,1.5,0,1-.3,1.7-.9,2.3-.6.5-1.4.8-2.3.9-1.1,0-2.1.1-3,.2-.9,0-1.8.2-2.6.3-.8.1-1.5.2-2.2.4-.7.1-1.3.3-1.9.4Z"/>
      <path class="st8" d="M770.1,432.5c-.5,0-1.1,0-1.5-.2-.5-.2-.9-.4-1.3-.8-.4-.4-.9-.9-1.3-1.5-.5-.7-.9-1.4-1.3-2.3-.4-.9-.7-1.8-1.1-2.7-.3-1-.6-1.9-.9-2.9s-.6-2-.9-2.9c-.3-.9-.6-1.8-.9-2.6-.3-.8-.7-1.4-1.1-1.9l1.8.6c-.7.8-1.3,1.8-2,2.8-.6,1.1-1.2,2.2-1.7,3.5-.5,1.3-1,2.6-1.4,4.1-.4,1.4-.8,2.9-1.1,4.4-.2.8-.5,1.3-.9,1.7-.4.4-1.1.6-1.9.6s-.7,0-1.1-.2c-.4-.1-.8-.4-1.2-.9-.4-.4-.8-1.1-1.1-2-.5-1.1-.9-2.4-1.4-3.6-.4-1.3-.8-2.6-1.2-4-.4-1.4-.7-2.8-1-4.2-.3-1.4-.5-2.8-.7-4.2s-.4-2.7-.4-4c0-.7.1-1.4.5-1.9.4-.5,1.1-.8,2.2-.8s1.9.4,2.5,1.1c.5.7.9,1.6.9,2.7,0,1.1.2,2.2.3,3.3.1,1.1.3,2.1.5,3.2.2,1,.4,2.1.7,3.1.3,1,.6,2.1,1,3.3l-1.2.4c.4-1.7.9-3.4,1.5-4.9.6-1.5,1.2-2.9,1.9-4.2.7-1.3,1.5-2.4,2.3-3.4.6-.7,1.2-1.3,1.9-1.7.7-.4,1.5-.6,2.4-.6s1.4.2,1.9.7c.6.5,1.1,1.4,1.7,2.6.4.8.7,1.7.9,2.8.3,1.1.5,2.2.9,3.4.3,1.2.7,2.3,1.1,3.4.4,1.1.9,2.1,1.5,2.9h-1.9c.3-.8.6-1.9.9-3,.2-1.1.5-2.3.6-3.5.2-1.2.4-2.4.6-3.6.2-1.2.4-2.2.6-3.2.2-1,.4-1.8.7-2.4.3-.8.7-1.4,1.2-1.8.5-.3,1.1-.5,1.8-.5s1.6.2,2,.7c.5.5.7,1.1.8,1.9,0,.8,0,1.6-.3,2.5-.3,1-.6,2.2-.8,3.4-.3,1.2-.5,2.5-.7,3.9-.2,1.4-.5,2.7-.8,4.1-.3,1.4-.6,2.7-.9,4-.3,1.3-.7,2.4-1.1,3.5-.3.8-.7,1.3-1.1,1.5s-.8.4-1.3.4Z"/>
      <path class="st8" d="M786.6,432.4c-2.2,0-3.9-.4-5-1.3s-1.7-1.9-1.7-3,.1-1,.4-1.3c.3-.3.7-.5,1.2-.5s.7,0,.9.1c.3,0,.6.2.9.3.3.1.7.2,1.1.3.4,0,1,.1,1.6.1.9,0,1.7,0,2.3-.1.7,0,1.2-.2,1.8-.3.5-.1,1-.3,1.6-.5-.2-.5-.6-.9-1.3-1.2-.6-.4-1.4-.7-2.3-1.1-.9-.4-1.8-.8-2.8-1.2-1-.4-1.9-1-2.7-1.6-.8-.6-1.5-1.3-2.1-2.1-.5-.8-.8-1.8-.8-3s.3-2.2,1-3.2c.7-1,1.5-1.8,2.6-2.6,1.1-.8,2.3-1.4,3.5-2s2.5-.9,3.7-1.2c1.2-.3,2.2-.4,3.1-.4s1.4.1,1.8.4c.5.3.8.6,1,1.1.2.5.3.9.3,1.5s-.1,1-.4,1.4c-.3.4-.8.7-1.4.8-1.9.4-3.6.8-5,1.3-1.4.5-2.6,1-3.4,1.5-.8.5-1.2,1-1.2,1.6s.3.8.9,1.2,1.3.8,2.2,1.1c.9.4,1.9.8,2.9,1.2,1,.4,2,1,2.9,1.6s1.7,1.3,2.2,2.1.9,1.8.9,2.9-.2,2-.7,2.7c-.5.8-1.2,1.4-2.1,1.9-.9.5-2.1.9-3.4,1.1-1.3.2-2.9.4-4.6.4Z"/>
      <path class="st8" d="M809,432.4c-1.9,0-3.5-.3-4.8-1-1.3-.7-2.3-1.7-2.9-3.1-.6-1.4-1-3.1-1-5.2s.1-3.5.4-5.1.6-3.1.9-4.6c.3-1.5.4-2.8.4-4.1s.2-1.4.6-1.9c.4-.5,1-.8,1.9-.8s1.3.2,1.8.6c.5.4.8.9,1.1,1.4.2.6.4,1.2.4,1.8,0,1.2-.1,2.4-.3,3.7-.2,1.2-.4,2.4-.7,3.6-.3,1.2-.5,2.2-.7,3.2-.2,1-.3,1.9-.3,2.6,0,1.1.3,2,.8,2.6.5.6,1.4.9,2.6.9s1.8-.1,2.4-.3c.6-.2,1.1-.4,1.5-.7.4-.3.8-.5,1.2-.7.4-.2.8-.3,1.3-.3s.9.2,1.3.7c.3.4.5.9.5,1.5s-.1,1.3-.4,1.9c-.2.6-.7,1.1-1.2,1.6-.8.6-1.9,1.1-3.1,1.4-1.2.3-2.4.4-3.6.4Z"/>
      <path class="st8" d="M822.5,413.2c-1.2,0-2.1-.3-2.8-.8-.6-.5-1-1.2-1-2s.1-.8.3-1.1c.2-.4.7-.7,1.4-.8,1.5-.4,3.2-.7,5-1s3.5-.4,5.1-.6c1.6-.1,3-.2,4.1-.2,1.6,0,2.8.3,3.4.8.7.5,1,1.2,1,2.1s-.2,1.2-.6,1.7c-.4.5-1,.7-1.8.7-1.6,0-3.1,0-4.5.2-1.5.1-2.8.3-4,.5-1.2.2-2.3.3-3.3.4-.9.1-1.7.2-2.2.2ZM829.6,432.3c-2.3,0-4.3-.5-5.8-1.4-1.5-1-2.7-2.3-3.5-3.9-.8-1.6-1.2-3.4-1.2-5.4s.1-2.6.4-4.1c.3-1.5.7-3,1.2-4.5.3-.9.7-1.7,1.4-2.2.6-.5,1.3-.8,2.2-.8s.8,0,1.2.3c.3.2.6.4.7.7.2.3.2.7.2,1.2-.1.6-.4,1.4-.6,2.4s-.5,2-.8,3.2c-.2,1.2-.3,2.4-.3,3.8s.2,1.9.6,2.7,1,1.4,1.7,1.9c.7.5,1.6.7,2.6.7s1.9,0,2.7-.2c.8-.1,1.4-.3,2-.4.6-.2,1.1-.3,1.5-.5s.8-.2,1.1-.2c.7,0,1.2.2,1.5.5.3.3.5.8.5,1.5,0,1-.4,1.8-1.1,2.5-.7.7-1.8,1.3-3.2,1.6-1.4.4-3.1.6-5,.6ZM823.6,423.2c-.5.1-1,0-1.3-.1-.3-.2-.5-.5-.6-1-.1-.4-.2-.9-.2-1.4s.2-1.3.7-1.8c.4-.5,1-.8,1.7-1,.6-.1,1.3-.3,2-.4.7-.1,1.5-.2,2.3-.3.8-.1,1.7-.2,2.6-.3.9,0,2-.1,3.1-.2,1,0,1.7.2,2.2.6.4.4.6.9.6,1.5,0,1-.3,1.7-.9,2.3-.6.5-1.4.8-2.3.9-1.5,0-2.8.2-4,.3-1.2.1-2.2.3-3.1.4-.9.2-1.8.3-2.6.5Z"/>
      <path class="st8" d="M857.3,412.3h-3.5c-1.1,0-2.1,0-3.1,0-1,0-2,0-3-.1-1,0-2-.1-3-.2-1,0-1.8-.3-2.3-.5-.5-.3-.9-.6-1.2-1.1-.2-.5-.4-1-.4-1.7s.2-1,.5-1.4c.3-.4.9-.6,1.6-.6s2.1,0,3,0,1.8,0,2.6.1c.8,0,1.7,0,2.5.1.8,0,1.7,0,2.6,0s1.6,0,2.2,0c.7,0,1.3-.1,2-.2.7,0,1.4,0,2.3,0s1.2.2,1.6.5c.3.3.5.8.5,1.4,0,.9-.2,1.6-.7,2.1-.5.5-1.1,1-1.9,1.2-.8.3-1.5.4-2.3.4ZM852.1,432.5c-.7,0-1.4-.2-2-.7s-1.1-1.4-1.5-2.8c-.2-.9-.4-1.9-.5-2.9-.1-1-.2-2.2-.2-3.5s0-2.9.2-4.7c.1-1.8.3-4,.5-6.5,0-.7.3-1.3.7-1.7.4-.4.9-.7,1.6-.7,1.3,0,2.2.3,2.6,1,.5.7.7,1.8.6,3.4-.1,2.5-.2,4.6-.3,6.3,0,1.7,0,3.2,0,4.3,0,1.1.1,2.1.2,2.8,0,.7.1,1.3.2,1.8s.1,1,.1,1.4c0,.9-.2,1.5-.6,1.8-.4.3-1,.5-1.8.5Z"/>
      <path class="st8" d="M879.6,412.3h-3.5c-1.1,0-2.1,0-3.1,0-1,0-2,0-3-.1-1,0-2-.1-3-.2-1,0-1.8-.3-2.3-.5-.5-.3-.9-.6-1.2-1.1-.2-.5-.4-1-.4-1.7s.2-1,.5-1.4c.3-.4.9-.6,1.6-.6s2.1,0,3,0,1.8,0,2.6.1c.8,0,1.7,0,2.5.1.8,0,1.7,0,2.6,0s1.6,0,2.2,0c.7,0,1.3-.1,2-.2.7,0,1.4,0,2.3,0s1.2.2,1.6.5c.3.3.5.8.5,1.4,0,.9-.2,1.6-.7,2.1-.5.5-1.1,1-1.9,1.2-.8.3-1.5.4-2.3.4ZM874.4,432.5c-.7,0-1.4-.2-2-.7s-1.1-1.4-1.5-2.8c-.2-.9-.4-1.9-.5-2.9-.1-1-.2-2.2-.2-3.5s0-2.9.2-4.7c.1-1.8.3-4,.5-6.5,0-.7.3-1.3.7-1.7.4-.4.9-.7,1.6-.7,1.3,0,2.2.3,2.6,1,.5.7.7,1.8.6,3.4-.1,2.5-.2,4.6-.3,6.3,0,1.7,0,3.2,0,4.3,0,1.1.1,2.1.2,2.8,0,.7.1,1.3.2,1.8s.1,1,.1,1.4c0,.9-.2,1.5-.6,1.8-.4.3-1,.5-1.8.5Z"/>
      <path class="st8" d="M889.9,413.2c-1.2,0-2.1-.3-2.8-.8-.6-.5-1-1.2-1-2s.1-.8.3-1.1c.2-.4.7-.7,1.4-.8,1.5-.4,3.2-.7,5-1s3.5-.4,5.1-.6c1.6-.1,3-.2,4.1-.2,1.6,0,2.8.3,3.4.8.7.5,1,1.2,1,2.1s-.2,1.2-.6,1.7c-.4.5-1,.7-1.8.7-1.6,0-3.1,0-4.5.2-1.5.1-2.8.3-4,.5-1.2.2-2.3.3-3.3.4-.9.1-1.7.2-2.2.2ZM897.1,432.3c-2.3,0-4.3-.5-5.8-1.4-1.5-1-2.7-2.3-3.5-3.9-.8-1.6-1.2-3.4-1.2-5.4s.1-2.6.4-4.1c.3-1.5.7-3,1.2-4.5.3-.9.7-1.7,1.4-2.2.6-.5,1.3-.8,2.2-.8s.8,0,1.2.3c.3.2.6.4.7.7.2.3.2.7.2,1.2-.1.6-.4,1.4-.6,2.4s-.5,2-.8,3.2c-.2,1.2-.3,2.4-.3,3.8s.2,1.9.6,2.7,1,1.4,1.7,1.9c.7.5,1.6.7,2.6.7s1.9,0,2.7-.2c.8-.1,1.4-.3,2-.4.6-.2,1.1-.3,1.5-.5s.8-.2,1.1-.2c.7,0,1.2.2,1.5.5.3.3.5.8.5,1.5,0,1-.4,1.8-1.1,2.5-.7.7-1.8,1.3-3.2,1.6-1.4.4-3.1.6-5,.6ZM891.1,423.2c-.5.1-1,0-1.3-.1-.3-.2-.5-.5-.6-1-.1-.4-.2-.9-.2-1.4s.2-1.3.7-1.8c.4-.5,1-.8,1.7-1,.6-.1,1.3-.3,2-.4.7-.1,1.5-.2,2.3-.3.8-.1,1.7-.2,2.6-.3.9,0,2-.1,3.1-.2,1,0,1.7.2,2.2.6.4.4.6.9.6,1.5,0,1-.3,1.7-.9,2.3-.6.5-1.4.8-2.3.9-1.5,0-2.8.2-4,.3-1.2.1-2.2.3-3.1.4-.9.2-1.8.3-2.6.5Z"/>
      <path class="st8" d="M913.2,432.5c-.9,0-1.7-.4-2.4-1.2-.7-.8-1-2-1-3.6s.1-2.1.4-3.3c.3-1.2.8-2.6,1.4-4.1,0-1.2,0-2.3-.2-3.2-.2-1-.4-1.9-.6-2.8-.3-.9-.6-2-.9-3.1-.3-1-.2-1.7,0-2.2.3-.5,1-.8,2-.8s2.1.4,2.8,1.2,1.2,2.3,1.6,4.4h-1c.9-1.5,1.9-2.8,3-3.8s2.3-1.9,3.7-2.4c1.3-.6,2.7-.8,4.1-.8s2.1.2,2.9.5c.8.3,1.4.8,1.9,1.3.5.6.9,1.2,1.1,2,.2.8.4,1.6.4,2.5s-.2,2.2-.7,3.2c-.5,1-1.2,2-2.1,3-.9.9-2.1,1.8-3.5,2.5-1.4.8-2.9,1.4-4.7,2,1.4.8,2.9,1.5,4.5,2.1,1.6.6,3.2,1.2,4.8,1.6,1.1.3,1.9.6,2.3.9.4.3.6.8.6,1.3,0,.9-.3,1.5-.9,2-.6.5-1.5.7-2.6.7s-1.5-.1-2.6-.4c-1.1-.3-2.2-.7-3.5-1.2-1.3-.5-2.5-1.1-3.7-1.8-1.2-.7-2.3-1.4-3.4-2.1-1-.7-1.8-1.5-2.4-2.2-.3-.4-.4-.9-.4-1.4s.1-1.1.4-1.6c.3-.5.6-.8,1.1-.9,2.1-.5,3.9-1.1,5.4-1.8,1.5-.7,2.6-1.4,3.5-2.1.9-.7,1.5-1.4,1.9-2,.4-.6.6-1.2.6-1.6s0-.7-.3-.9c-.2-.2-.5-.3-1-.3s-.9.1-1.5.4c-.6.2-1.3.6-2.1,1.2-.8.5-1.5,1.3-2.3,2.2-.8.9-1.5,2-2.1,3.3-.6,1.3-1.1,2.8-1.5,4.6-.4,1.8-.6,3.8-.6,6s0,1.2-.3,1.6c-.2.4-.4.7-.8.9s-.8.3-1.3.3Z"/>
    </g>
    <g>
      <path class="st7" d="M700.1,389.5c-2.2,0-3.9-.4-5-1.3s-1.7-1.9-1.7-3,.1-1,.4-1.3c.3-.3.7-.5,1.2-.5s.7,0,.9.1c.3,0,.6.2.9.3.3.1.7.2,1.1.3.4,0,1,.1,1.6.1.9,0,1.7,0,2.3-.1.7,0,1.2-.2,1.8-.3.5-.1,1-.3,1.6-.5-.2-.5-.6-.9-1.3-1.2-.6-.4-1.4-.7-2.3-1.1-.9-.4-1.8-.8-2.8-1.2-1-.4-1.9-1-2.7-1.6-.8-.6-1.5-1.3-2.1-2.1-.5-.8-.8-1.8-.8-3s.3-2.2,1-3.2c.7-1,1.5-1.8,2.6-2.6,1.1-.8,2.3-1.4,3.5-2s2.5-.9,3.7-1.2c1.2-.3,2.2-.4,3.1-.4s1.4.1,1.8.4c.5.3.8.6,1,1.1.2.5.3.9.3,1.5s-.1,1-.4,1.4c-.3.4-.8.7-1.4.8-1.9.4-3.6.8-5,1.3-1.4.5-2.6,1-3.4,1.5-.8.5-1.2,1-1.2,1.6s.3.8.9,1.2,1.3.8,2.2,1.1c.9.4,1.9.8,2.9,1.2,1,.4,2,1,2.9,1.6s1.7,1.3,2.2,2.1.9,1.8.9,2.9-.2,2-.7,2.7c-.5.8-1.2,1.4-2.1,1.9-.9.5-2.1.9-3.4,1.1-1.3.2-2.9.4-4.6.4Z"/>
      <path class="st7" d="M718.2,389.5c-1.7,0-2.9-.3-3.6-.9s-1.1-1.3-1.1-2.2.2-1,.5-1.4c.3-.4.9-.6,1.6-.6,1.1-.1,2-.2,2.8-.3.8,0,1.6-.1,2.3-.1.7,0,1.4,0,2.1,0,.7,0,1.4,0,2.2,0,.8,0,1.7,0,2.6,0s1.9,0,2.5.3c.6.2.9.5,1.1.8.2.3.3.7.3,1.2,0,.8-.3,1.5-1,2-.7.6-1.8.9-3.3.9s-2.7,0-3.8,0c-1.2,0-2.2.1-3.1.2-.9,0-1.6.1-2.1.1ZM716.8,369.9c-1.2,0-2-.3-2.5-.8-.5-.5-.8-1.2-.8-1.9s.2-1.3.7-1.7c.5-.4,1.1-.7,2-.8,1.4-.2,2.7-.3,4.1-.5,1.4-.1,2.7-.2,4-.3,1.3,0,2.5-.1,3.5-.1s2.3.2,2.9.5c.6.3.9.9.9,1.8s-.4,1.8-1.3,2.4c-.9.6-2,.9-3.3.9s-2.2,0-3.1,0c-.9,0-1.7,0-2.4.1-.7,0-1.3.1-1.9.2-.5,0-1,0-1.5.1-.4,0-.8,0-1.3,0ZM723.1,385.4c-1,0-1.8-.3-2.5-.8-.6-.5-.9-1.2-.9-2,0-1.5,0-3,.1-4.5,0-1.5.2-2.9.3-4.2,0-1.3.1-2.6.1-3.7s.1-1.5.4-2,.9-.6,1.7-.6,1.7.3,2.4.9c.7.6,1,1.3,1,2.2s0,1.8-.1,3c0,1.2-.2,2.7-.3,4.3-.1,1.6-.2,3.3-.2,5.2s-.7,2.2-2,2.2Z"/>
      <path class="st7" d="M756.7,393.2c-.8,0-1.5-.2-2.1-.6-.5-.4-1-1-1.5-1.8-.3-.5-.5-1-.8-1.7-.2-.6-.5-1.4-.7-2.3-.2-.9-.4-2-.5-3.4l1.6.7c-1,1.3-2.1,2.3-3.3,3.1-1.2.8-2.4,1.3-3.7,1.7-1.3.4-2.6.5-3.9.5s-3.3-.4-4.6-1.1-2.3-1.7-3-3.1c-.7-1.3-1.1-2.9-1.1-4.7s.3-3.4.9-5.1c.6-1.6,1.5-3.2,2.5-4.6,1.1-1.4,2.3-2.7,3.7-3.7,1.4-1.1,2.9-1.9,4.5-2.5,1.6-.6,3.2-.9,4.9-.9s1.9.1,2.5.4,1.1.7,1.4,1.2c.3.5.4,1.1.4,1.8s-.1,1.5-.4,2.2c-.3.7-.7,1.2-1.2,1.6-.5.4-1.1.6-1.8.6s-.6,0-.8-.2-.3-.3-.4-.4c0-.2-.1-.4-.2-.6,0-.2-.2-.3-.3-.4-.1-.1-.4-.2-.7-.2-.9,0-1.8.2-2.7.6-.9.4-1.7,1-2.5,1.7-.8.7-1.4,1.5-2,2.4-.6.9-1,1.8-1.4,2.8-.3,1-.5,1.9-.5,2.8,0,1.3.3,2.3.9,3s1.4,1,2.4,1,2.2-.2,3.3-.6c1.1-.4,2.1-.9,3-1.7,1-.8,1.8-1.7,2.5-2.8.5-.6.9-1,1.5-1.3.5-.2,1.2-.3,2-.3s1,.1,1.3.3c.3.2.4.5.4,1,0,1.7,0,3.1.2,4.2.1,1.1.3,2.1.5,3,.2.8.5,1.7.9,2.5.3.5.5,1,.6,1.3.1.3.2.6.2.8s0,.5,0,.7c0,.6-.2,1.1-.6,1.5s-.9.5-1.5.5ZM746.3,380.2c-.8,0-1.4-.3-2-.8-.6-.5-.8-1.2-.8-1.9s.2-1,.5-1.3c.3-.3.9-.6,1.9-.9,1.5-.4,3-.8,4.6-1,1.6-.2,3.4-.4,5.4-.4,1.1,0,1.9,0,2.4.3.5.2.9.4,1.1.8.2.3.3.7.3,1.2,0,.8-.2,1.5-.7,2.1-.5.6-1.2.9-2.3.9-2,0-3.6,0-4.9.3-1.3.2-2.3.3-3.2.5s-1.6.3-2.2.3Z"/>
      <path class="st7" d="M764.8,389.7c-.9,0-1.5-.2-1.9-.6-.4-.4-.6-.9-.6-1.5s0-1,.1-1.5c0-.5.2-1.1.3-1.8.1-.7.2-1.6.3-2.8,0-1.2.1-2.7.1-4.5s0-2.1,0-3.2-.1-2.2-.2-3.2c0-1-.1-1.9-.2-2.6,0-.8,0-1.3,0-1.6,0-.7.2-1.3.7-1.8s1.1-.8,2-.8,2,.3,2.9.8c.9.5,1.7,1.2,2.5,2.1.8.9,1.5,1.9,2.2,3,.7,1.1,1.3,2.3,1.9,3.5.6,1.2,1.2,2.4,1.8,3.6.6,1.2,1.2,2.3,1.7,3.3.5,1,1.1,1.9,1.7,2.6.6.7,1.1,1.3,1.7,1.6l-3,1.4c.3-.2.6-.5.9-.8.3-.3.6-.8.8-1.4.2-.6.3-1.5.3-2.5s0-2.8-.1-4.1c0-1.3-.2-2.6-.2-3.8,0-1.2,0-2.4,0-3.5,0-1.2.2-2.3.5-3.5.2-.9.5-1.5.9-1.8.4-.4.9-.6,1.4-.6.9,0,1.5.2,2,.7.4.4.7,1,.8,1.6.1.6.1,1.1,0,1.6-.2,1.1-.4,2.2-.4,3.2,0,1,0,2,0,3,0,1,0,2,.1,3.1,0,1.1,0,2.3,0,3.6s-.1,3.4-.3,4.8c-.2,1.4-.7,2.5-1.4,3.3-.7.8-1.8,1.2-3.2,1.2s-1.7-.2-2.5-.6-1.4-1-2-1.8c-.6-.8-1.2-1.6-1.8-2.6-.5-1-1.1-2.1-1.6-3.2-.5-1.2-1.1-2.3-1.7-3.6-.6-1.2-1.2-2.4-1.9-3.6-.7-1.2-1.4-2.3-2.3-3.4l1-.2c.1,1,.3,1.8.3,2.5,0,.7.1,1.4.1,1.9,0,.6,0,1.2,0,1.9,0,2.2,0,4.3-.3,6.1-.2,1.8-.5,3.4-.9,4.7-.2.6-.5,1.1-.9,1.4-.4.3-1,.5-1.8.5Z"/>
      <path class="st7" d="M813.8,389.6c-2.6,0-4.6-.5-6.2-1.5-1.5-1-2.7-2.5-3.4-4.4-.7-1.9-1.1-4.1-1.1-6.7s0-1.9,0-2.8c0-.9,0-1.7,0-2.4s0-1.7,0-2.3-.1-1-.2-1.4c0-.4-.1-.7-.2-1.1s0-.7,0-1.1c0-.8.2-1.4.7-1.8s1.1-.5,1.9-.5,1.4.2,2,.5,1,1,1.4,1.9c.4.9.5,2.2.5,3.8s0,1.5,0,2.3c0,.9-.1,1.7-.2,2.6s0,1.7,0,2.4c0,1.8.2,3.2.5,4.2.4,1,.9,1.7,1.6,2,.7.4,1.5.6,2.5.6,1.4,0,2.5-.4,3.2-1.3.7-.9,1.1-2.4,1.1-4.5s0-2.5,0-3.5c0-1,0-2-.1-3,0-1,0-2.1,0-3.4s.3-2.5.8-3.4,1.4-1.3,2.6-1.3,1.4.2,1.8.6c.5.4.7,1,.7,1.8s0,.8-.1,1.2c0,.4-.1.9-.2,1.4,0,.5,0,1.2,0,2,0,1.3,0,2.5.1,3.8,0,1.3.1,2.6.1,4.1,0,2.2-.3,4.1-1,5.8-.7,1.7-1.7,3-3.1,3.9-1.4.9-3.2,1.4-5.4,1.4Z"/>
      <path class="st7" d="M831.9,389.5c-.9,0-1.6-.3-2.3-1s-1-1.9-1-3.5,0-2.9-.2-4.1c-.2-1.1-.4-2.2-.6-3.1-.2-.9-.4-1.8-.5-2.6-.2-.8-.2-1.7-.2-2.7,0-1.7.3-3.3,1-4.6.7-1.3,1.7-2.3,3.2-3,1.5-.7,3.4-1.1,5.9-1.1s2.5.2,3.6.5c1.1.4,2.1.9,3,1.6.9.7,1.5,1.6,2,2.6.5,1,.7,2.2.7,3.5s-.3,2.7-.9,3.9c-.6,1.2-1.4,2.3-2.4,3.3-1,.9-2.2,1.7-3.5,2.2s-2.7.8-4.2.8-2-.2-2.9-.6c-.8-.4-1.5-.8-2-1.4-.5-.6-.7-1.2-.7-1.9s.2-1.1.6-1.5c.4-.3.8-.5,1.4-.5s.6,0,.8.2c.3.1.6.2.9.3.4.1.9.2,1.6.2,1.1,0,2-.2,2.9-.7s1.6-1.1,2.1-1.9c.5-.8.8-1.6.8-2.4s-.2-1.1-.6-1.5c-.4-.4-.9-.7-1.5-.9-.6-.2-1.2-.3-1.9-.3-1.5,0-2.7.3-3.5.8-.8.5-1.2,1.3-1.2,2.4s0,1.9.3,2.9c.2,1,.4,2,.6,3s.4,2.2.6,3.5c.2,1.3.3,2.7.3,4.3s-.1,1.8-.4,2.4c-.3.6-.9.9-1.9.9Z"/>
      <path class="st7" d="M864.9,370.7c-1,0-1.7-.2-2.3-.5-.6-.3-1-.7-1.3-1.2s-.4-1-.4-1.5.1-.9.4-1.3c.3-.4.7-.6,1.4-.8,1.2-.3,2.6-.6,4-.8,1.4-.3,2.9-.5,4.5-.6,1.5-.2,3-.3,4.4-.3s1.5.1,2.1.4c.6.3,1.2.7,1.5,1.2.4.5.6,1.1.6,1.7s-.2,1.1-.6,1.5c-.4.4-1,.5-2,.5-2.3,0-4.2.1-5.9.4-1.7.3-3,.5-4.1.8-1.1.3-1.9.4-2.4.4ZM868.7,389.6c-.5,0-1.2-.2-1.9-.5-.7-.3-1.3-1-2-1.9-.4-.5-.7-1.2-1-2-.3-.8-.5-1.7-.7-2.8-.2-1.1-.2-2.3-.2-3.7s0-2.9.2-4.1c.2-1.2.3-2.4.5-3.5.2-1.1.6-2,1.2-2.6.6-.6,1.3-.8,2.1-.8s1.3.2,1.6.7c.3.5.4,1,.4,1.5,0,.4,0,.9-.1,1.5s-.1,1.3-.2,2c0,.8-.2,1.7-.2,2.7s0,2.2,0,3.5c0,1.1.1,2,.3,2.8s.3,1.4.6,1.9.4,1,.6,1.3c.2.4.4.7.6,1.1.2.3.2.7.2,1.2s-.2,1-.5,1.3-.8.6-1.5.6ZM867.2,381.8c-.7.2-1.3.2-1.8,0-.5-.2-.8-.5-1-.9s-.3-.8-.3-1.3.1-.9.4-1.4.6-.9,1-1.2.8-.6,1.3-.7c1.4-.3,2.9-.6,4.7-.8,1.8-.2,3.6-.3,5.4-.3s1.6.2,2,.5c.4.4.5.9.5,1.6,0,1-.4,1.8-1.1,2.3-.7.5-1.6.8-2.6.9-1,0-2.1.2-3.1.3-1.1.1-2.1.3-3,.4s-1.7.3-2.3.5Z"/>
      <path class="st7" d="M893.1,389.5c-1.6,0-3.1-.3-4.4-.8-1.3-.5-2.5-1.2-3.5-2.2-1-1-1.8-2.1-2.3-3.4-.5-1.3-.8-2.8-.8-4.4s.2-2.7.6-4c.4-1.2,1-2.3,1.6-3.3.7-1,1.4-1.8,2.1-2.5.8-.7,1.5-1.2,2.2-1.6s1.2-.6,1.7-.6.9,0,1.3.2c.3.2.6.4.9.9.5.7.6,1.3.4,1.8-.2.6-.6,1-1.2,1.4-1,.7-1.8,1.4-2.4,2.2-.6.8-1.1,1.6-1.4,2.4-.3.9-.4,1.9-.4,3s.2,2.1.7,3c.5.8,1.1,1.5,2,1.9.9.4,1.8.7,2.9.7s2.3-.3,3.3-.8c1-.5,1.8-1.2,2.4-2.1.6-.9.9-1.9.9-3s-.2-2.2-.5-3.3c-.3-1.1-.7-2.1-1.3-3s-1.2-1.6-1.8-2.2c-.7-.5-1.4-.8-2.2-.8s-.5.1-.6.3c-.1.2-.2.5-.2.8,0,.5-.1.9-.4,1.2-.3.3-.6.4-1.1.4s-1.1-.2-1.6-.5c-.5-.3-1-.8-1.3-1.4-.3-.6-.5-1.4-.5-2.3s.2-1.3.6-1.9c.4-.6,1-1.1,1.7-1.4.8-.4,1.7-.6,2.7-.6,1.8,0,3.4.4,4.9,1.2,1.5.8,2.7,1.9,3.8,3.3,1.1,1.4,1.9,3,2.5,4.7.6,1.7.9,3.6.9,5.4s-.3,3-.9,4.4-1.5,2.5-2.6,3.5c-1.1,1-2.4,1.8-3.9,2.3-1.5.6-3,.8-4.7.8Z"/>
      <path class="st7" d="M911.7,389.6c-.9,0-1.7-.4-2.4-1.2-.7-.8-1-2-1-3.6s.1-2.1.4-3.3c.3-1.2.8-2.6,1.4-4.1,0-1.2,0-2.3-.2-3.2-.2-1-.4-1.9-.6-2.8-.3-.9-.6-2-.9-3.1-.3-1-.2-1.7,0-2.2.3-.5,1-.8,2-.8s2.1.4,2.8,1.2,1.2,2.3,1.6,4.4h-1c1.3-2.2,2.9-4,4.8-5.2,1.9-1.3,3.9-1.9,6-1.9s2.1.2,2.9.5c.8.3,1.4.8,1.9,1.3.5.6.9,1.2,1.1,2,.2.8.4,1.6.4,2.5s-.2,2.2-.7,3.2c-.5,1-1.2,2-2.1,3-.9.9-2.1,1.8-3.5,2.5-1.4.8-2.9,1.4-4.7,2,1.4.8,2.9,1.5,4.5,2.1,1.6.6,3.2,1.2,4.8,1.6,1.1.3,1.9.6,2.3.9.4.3.6.8.6,1.3,0,.9-.3,1.5-.9,2-.6.5-1.5.7-2.6.7s-1.5-.1-2.6-.4c-1.1-.3-2.2-.7-3.5-1.2-1.3-.5-2.5-1.1-3.7-1.8-1.2-.7-2.3-1.4-3.4-2.1-1-.7-1.8-1.5-2.4-2.2-.3-.4-.4-.9-.4-1.4s.1-1.1.4-1.6c.3-.5.6-.8,1.1-.9,2.1-.5,3.9-1.1,5.4-1.8,1.5-.7,2.6-1.4,3.5-2.1.9-.7,1.5-1.4,1.9-2,.4-.6.6-1.2.6-1.6s0-.7-.3-.9c-.2-.2-.5-.3-1-.3s-.9.1-1.5.4c-.6.2-1.3.6-2.1,1.2-.8.5-1.5,1.3-2.3,2.2-.8.9-1.5,2-2.1,3.3-.6,1.3-1.1,2.8-1.5,4.6-.4,1.8-.6,3.8-.6,6s0,1.2-.3,1.6c-.2.4-.4.7-.8.9s-.8.3-1.3.3Z"/>
      <path class="st7" d="M696.3,432.6c-.9,0-1.5-.2-1.9-.6-.4-.4-.6-.9-.6-1.5s0-1,.1-1.5c0-.5.2-1.1.3-1.8.1-.7.2-1.6.3-2.8,0-1.2.1-2.7.1-4.5s0-2.1,0-3.2-.1-2.2-.2-3.2c0-1-.1-1.9-.2-2.6,0-.8,0-1.3,0-1.6,0-.7.2-1.3.7-1.8s1.1-.8,2-.8,2,.3,2.9.8c.9.5,1.7,1.2,2.5,2.1.8.9,1.5,1.9,2.2,3,.7,1.1,1.3,2.3,1.9,3.5.6,1.2,1.2,2.4,1.8,3.6.6,1.2,1.2,2.3,1.7,3.3.5,1,1.1,1.9,1.7,2.6.6.7,1.1,1.3,1.7,1.6l-3,1.4c.3-.2.6-.5.9-.8.3-.3.6-.8.8-1.4.2-.6.3-1.5.3-2.5s0-2.8-.1-4.1c0-1.3-.2-2.6-.2-3.8,0-1.2,0-2.4,0-3.5,0-1.2.2-2.3.5-3.5.2-.9.5-1.5.9-1.8.4-.4.9-.6,1.4-.6.9,0,1.5.2,2,.7.4.4.7,1,.8,1.6.1.6.1,1.1,0,1.6-.2,1.1-.4,2.2-.4,3.2,0,1,0,2,0,3,0,1,0,2,.1,3.1,0,1.1,0,2.3,0,3.6s-.1,3.4-.3,4.8c-.2,1.4-.7,2.5-1.4,3.3-.7.8-1.8,1.2-3.2,1.2s-1.7-.2-2.5-.6-1.4-1-2-1.8c-.6-.8-1.2-1.6-1.8-2.6-.5-1-1.1-2.1-1.6-3.2-.5-1.2-1.1-2.3-1.7-3.6-.6-1.2-1.2-2.4-1.9-3.6-.7-1.2-1.4-2.3-2.3-3.4l1-.2c.1,1,.3,1.8.3,2.5,0,.7.1,1.4.1,1.9,0,.6,0,1.2,0,1.9,0,2.2,0,4.3-.3,6.1-.2,1.8-.5,3.4-.9,4.7-.2.6-.5,1.1-.9,1.4-.4.3-1,.5-1.8.5Z"/>
      <path class="st7" d="M725.3,413.2c-1.2,0-2.1-.3-2.8-.8-.6-.5-1-1.2-1-2s.1-.8.3-1.1c.2-.4.7-.7,1.4-.8,1.5-.4,3.2-.7,5-1s3.5-.4,5.1-.6c1.6-.1,3-.2,4.1-.2,1.6,0,2.8.3,3.4.8.7.5,1,1.2,1,2.1s-.2,1.2-.6,1.7c-.4.5-1,.7-1.8.7-1.6,0-3.1,0-4.5.2-1.5.1-2.8.3-4,.5-1.2.2-2.3.3-3.3.4-.9.1-1.7.2-2.2.2ZM732.4,432.3c-1.8,0-3.3-.3-4.6-.8-1.3-.5-2.4-1.3-3.3-2.3-.9-1-1.5-2.1-1.9-3.4-.4-1.3-.6-2.7-.6-4.2s0-1.7.2-2.6c.1-.9.3-1.9.6-2.9.2-1,.5-2,.9-3,.3-.9.7-1.7,1.4-2.2.6-.5,1.3-.8,2.2-.8s.8,0,1.2.3c.3.2.6.4.7.7.2.3.2.7.2,1.2-.1.6-.4,1.4-.6,2.4s-.5,2-.8,3.2c-.2,1.2-.3,2.4-.3,3.8s.2,1.9.6,2.7,1,1.4,1.7,1.9c.7.5,1.6.7,2.6.7s1.9,0,2.7-.2c.8-.1,1.4-.3,2-.4.6-.2,1.1-.3,1.5-.5s.8-.2,1.1-.2c.7,0,1.2.2,1.5.5.3.3.5.8.5,1.5,0,1-.4,1.8-1.1,2.5-.7.7-1.8,1.3-3.2,1.6-1.4.4-3.1.6-5,.6ZM726.4,423.2c-.5.1-1,0-1.3-.1-.3-.2-.5-.5-.6-1-.1-.4-.2-.9-.2-1.4s.2-1.3.7-1.8c.4-.5,1-.8,1.7-1,.6-.1,1.3-.3,2-.4.7-.1,1.5-.2,2.3-.3.8-.1,1.7-.2,2.6-.3.9,0,2-.1,3.1-.2,1,0,1.7.2,2.2.6.4.4.6.9.6,1.5,0,1-.3,1.7-.9,2.3-.6.5-1.4.8-2.3.9-1.1,0-2.1.1-3,.2-.9,0-1.8.2-2.6.3-.8.1-1.5.2-2.2.4-.7.1-1.3.3-1.9.4Z"/>
      <path class="st7" d="M770.1,432.5c-.5,0-1.1,0-1.5-.2-.5-.2-.9-.4-1.3-.8-.4-.4-.9-.9-1.3-1.5-.5-.7-.9-1.4-1.3-2.3-.4-.9-.7-1.8-1.1-2.7-.3-1-.6-1.9-.9-2.9s-.6-2-.9-2.9c-.3-.9-.6-1.8-.9-2.6-.3-.8-.7-1.4-1.1-1.9l1.8.6c-.7.8-1.3,1.8-2,2.8-.6,1.1-1.2,2.2-1.7,3.5-.5,1.3-1,2.6-1.4,4.1-.4,1.4-.8,2.9-1.1,4.4-.2.8-.5,1.3-.9,1.7-.4.4-1.1.6-1.9.6s-.7,0-1.1-.2c-.4-.1-.8-.4-1.2-.9-.4-.4-.8-1.1-1.1-2-.5-1.1-.9-2.4-1.4-3.6-.4-1.3-.8-2.6-1.2-4-.4-1.4-.7-2.8-1-4.2-.3-1.4-.5-2.8-.7-4.2s-.4-2.7-.4-4c0-.7.1-1.4.5-1.9.4-.5,1.1-.8,2.2-.8s1.9.4,2.5,1.1c.5.7.9,1.6.9,2.7,0,1.1.2,2.2.3,3.3.1,1.1.3,2.1.5,3.2.2,1,.4,2.1.7,3.1.3,1,.6,2.1,1,3.3l-1.2.4c.4-1.7.9-3.4,1.5-4.9.6-1.5,1.2-2.9,1.9-4.2.7-1.3,1.5-2.4,2.3-3.4.6-.7,1.2-1.3,1.9-1.7.7-.4,1.5-.6,2.4-.6s1.4.2,1.9.7c.6.5,1.1,1.4,1.7,2.6.4.8.7,1.7.9,2.8.3,1.1.5,2.2.9,3.4.3,1.2.7,2.3,1.1,3.4.4,1.1.9,2.1,1.5,2.9h-1.9c.3-.8.6-1.9.9-3,.2-1.1.5-2.3.6-3.5.2-1.2.4-2.4.6-3.6.2-1.2.4-2.2.6-3.2.2-1,.4-1.8.7-2.4.3-.8.7-1.4,1.2-1.8.5-.3,1.1-.5,1.8-.5s1.6.2,2,.7c.5.5.7,1.1.8,1.9,0,.8,0,1.6-.3,2.5-.3,1-.6,2.2-.8,3.4-.3,1.2-.5,2.5-.7,3.9-.2,1.4-.5,2.7-.8,4.1-.3,1.4-.6,2.7-.9,4-.3,1.3-.7,2.4-1.1,3.5-.3.8-.7,1.3-1.1,1.5s-.8.4-1.3.4Z"/>
      <path class="st7" d="M786.6,432.4c-2.2,0-3.9-.4-5-1.3s-1.7-1.9-1.7-3,.1-1,.4-1.3c.3-.3.7-.5,1.2-.5s.7,0,.9.1c.3,0,.6.2.9.3.3.1.7.2,1.1.3.4,0,1,.1,1.6.1.9,0,1.7,0,2.3-.1.7,0,1.2-.2,1.8-.3.5-.1,1-.3,1.6-.5-.2-.5-.6-.9-1.3-1.2-.6-.4-1.4-.7-2.3-1.1-.9-.4-1.8-.8-2.8-1.2-1-.4-1.9-1-2.7-1.6-.8-.6-1.5-1.3-2.1-2.1-.5-.8-.8-1.8-.8-3s.3-2.2,1-3.2c.7-1,1.5-1.8,2.6-2.6,1.1-.8,2.3-1.4,3.5-2s2.5-.9,3.7-1.2c1.2-.3,2.2-.4,3.1-.4s1.4.1,1.8.4c.5.3.8.6,1,1.1.2.5.3.9.3,1.5s-.1,1-.4,1.4c-.3.4-.8.7-1.4.8-1.9.4-3.6.8-5,1.3-1.4.5-2.6,1-3.4,1.5-.8.5-1.2,1-1.2,1.6s.3.8.9,1.2,1.3.8,2.2,1.1c.9.4,1.9.8,2.9,1.2,1,.4,2,1,2.9,1.6s1.7,1.3,2.2,2.1.9,1.8.9,2.9-.2,2-.7,2.7c-.5.8-1.2,1.4-2.1,1.9-.9.5-2.1.9-3.4,1.1-1.3.2-2.9.4-4.6.4Z"/>
      <path class="st7" d="M809,432.4c-1.9,0-3.5-.3-4.8-1-1.3-.7-2.3-1.7-2.9-3.1-.6-1.4-1-3.1-1-5.2s.1-3.5.4-5.1.6-3.1.9-4.6c.3-1.5.4-2.8.4-4.1s.2-1.4.6-1.9c.4-.5,1-.8,1.9-.8s1.3.2,1.8.6c.5.4.8.9,1.1,1.4.2.6.4,1.2.4,1.8,0,1.2-.1,2.4-.3,3.7-.2,1.2-.4,2.4-.7,3.6-.3,1.2-.5,2.2-.7,3.2-.2,1-.3,1.9-.3,2.6,0,1.1.3,2,.8,2.6.5.6,1.4.9,2.6.9s1.8-.1,2.4-.3c.6-.2,1.1-.4,1.5-.7.4-.3.8-.5,1.2-.7.4-.2.8-.3,1.3-.3s.9.2,1.3.7c.3.4.5.9.5,1.5s-.1,1.3-.4,1.9c-.2.6-.7,1.1-1.2,1.6-.8.6-1.9,1.1-3.1,1.4-1.2.3-2.4.4-3.6.4Z"/>
      <path class="st7" d="M822.5,413.2c-1.2,0-2.1-.3-2.8-.8-.6-.5-1-1.2-1-2s.1-.8.3-1.1c.2-.4.7-.7,1.4-.8,1.5-.4,3.2-.7,5-1s3.5-.4,5.1-.6c1.6-.1,3-.2,4.1-.2,1.6,0,2.8.3,3.4.8.7.5,1,1.2,1,2.1s-.2,1.2-.6,1.7c-.4.5-1,.7-1.8.7-1.6,0-3.1,0-4.5.2-1.5.1-2.8.3-4,.5-1.2.2-2.3.3-3.3.4-.9.1-1.7.2-2.2.2ZM829.6,432.3c-2.3,0-4.3-.5-5.8-1.4-1.5-1-2.7-2.3-3.5-3.9-.8-1.6-1.2-3.4-1.2-5.4s.1-2.6.4-4.1c.3-1.5.7-3,1.2-4.5.3-.9.7-1.7,1.4-2.2.6-.5,1.3-.8,2.2-.8s.8,0,1.2.3c.3.2.6.4.7.7.2.3.2.7.2,1.2-.1.6-.4,1.4-.6,2.4s-.5,2-.8,3.2c-.2,1.2-.3,2.4-.3,3.8s.2,1.9.6,2.7,1,1.4,1.7,1.9c.7.5,1.6.7,2.6.7s1.9,0,2.7-.2c.8-.1,1.4-.3,2-.4.6-.2,1.1-.3,1.5-.5s.8-.2,1.1-.2c.7,0,1.2.2,1.5.5.3.3.5.8.5,1.5,0,1-.4,1.8-1.1,2.5-.7.7-1.8,1.3-3.2,1.6-1.4.4-3.1.6-5,.6ZM823.6,423.2c-.5.1-1,0-1.3-.1-.3-.2-.5-.5-.6-1-.1-.4-.2-.9-.2-1.4s.2-1.3.7-1.8c.4-.5,1-.8,1.7-1,.6-.1,1.3-.3,2-.4.7-.1,1.5-.2,2.3-.3.8-.1,1.7-.2,2.6-.3.9,0,2-.1,3.1-.2,1,0,1.7.2,2.2.6.4.4.6.9.6,1.5,0,1-.3,1.7-.9,2.3-.6.5-1.4.8-2.3.9-1.5,0-2.8.2-4,.3-1.2.1-2.2.3-3.1.4-.9.2-1.8.3-2.6.5Z"/>
      <path class="st7" d="M857.3,412.3h-3.5c-1.1,0-2.1,0-3.1,0-1,0-2,0-3-.1-1,0-2-.1-3-.2-1,0-1.8-.3-2.3-.5-.5-.3-.9-.6-1.2-1.1-.2-.5-.4-1-.4-1.7s.2-1,.5-1.4c.3-.4.9-.6,1.6-.6s2.1,0,3,0,1.8,0,2.6.1c.8,0,1.7,0,2.5.1.8,0,1.7,0,2.6,0s1.6,0,2.2,0c.7,0,1.3-.1,2-.2.7,0,1.4,0,2.3,0s1.2.2,1.6.5c.3.3.5.8.5,1.4,0,.9-.2,1.6-.7,2.1-.5.5-1.1,1-1.9,1.2-.8.3-1.5.4-2.3.4ZM852.1,432.5c-.7,0-1.4-.2-2-.7s-1.1-1.4-1.5-2.8c-.2-.9-.4-1.9-.5-2.9-.1-1-.2-2.2-.2-3.5s0-2.9.2-4.7c.1-1.8.3-4,.5-6.5,0-.7.3-1.3.7-1.7.4-.4.9-.7,1.6-.7,1.3,0,2.2.3,2.6,1,.5.7.7,1.8.6,3.4-.1,2.5-.2,4.6-.3,6.3,0,1.7,0,3.2,0,4.3,0,1.1.1,2.1.2,2.8,0,.7.1,1.3.2,1.8s.1,1,.1,1.4c0,.9-.2,1.5-.6,1.8-.4.3-1,.5-1.8.5Z"/>
      <path class="st7" d="M879.6,412.3h-3.5c-1.1,0-2.1,0-3.1,0-1,0-2,0-3-.1-1,0-2-.1-3-.2-1,0-1.8-.3-2.3-.5-.5-.3-.9-.6-1.2-1.1-.2-.5-.4-1-.4-1.7s.2-1,.5-1.4c.3-.4.9-.6,1.6-.6s2.1,0,3,0,1.8,0,2.6.1c.8,0,1.7,0,2.5.1.8,0,1.7,0,2.6,0s1.6,0,2.2,0c.7,0,1.3-.1,2-.2.7,0,1.4,0,2.3,0s1.2.2,1.6.5c.3.3.5.8.5,1.4,0,.9-.2,1.6-.7,2.1-.5.5-1.1,1-1.9,1.2-.8.3-1.5.4-2.3.4ZM874.4,432.5c-.7,0-1.4-.2-2-.7s-1.1-1.4-1.5-2.8c-.2-.9-.4-1.9-.5-2.9-.1-1-.2-2.2-.2-3.5s0-2.9.2-4.7c.1-1.8.3-4,.5-6.5,0-.7.3-1.3.7-1.7.4-.4.9-.7,1.6-.7,1.3,0,2.2.3,2.6,1,.5.7.7,1.8.6,3.4-.1,2.5-.2,4.6-.3,6.3,0,1.7,0,3.2,0,4.3,0,1.1.1,2.1.2,2.8,0,.7.1,1.3.2,1.8s.1,1,.1,1.4c0,.9-.2,1.5-.6,1.8-.4.3-1,.5-1.8.5Z"/>
      <path class="st7" d="M889.9,413.2c-1.2,0-2.1-.3-2.8-.8-.6-.5-1-1.2-1-2s.1-.8.3-1.1c.2-.4.7-.7,1.4-.8,1.5-.4,3.2-.7,5-1s3.5-.4,5.1-.6c1.6-.1,3-.2,4.1-.2,1.6,0,2.8.3,3.4.8.7.5,1,1.2,1,2.1s-.2,1.2-.6,1.7c-.4.5-1,.7-1.8.7-1.6,0-3.1,0-4.5.2-1.5.1-2.8.3-4,.5-1.2.2-2.3.3-3.3.4-.9.1-1.7.2-2.2.2ZM897.1,432.3c-2.3,0-4.3-.5-5.8-1.4-1.5-1-2.7-2.3-3.5-3.9-.8-1.6-1.2-3.4-1.2-5.4s.1-2.6.4-4.1c.3-1.5.7-3,1.2-4.5.3-.9.7-1.7,1.4-2.2.6-.5,1.3-.8,2.2-.8s.8,0,1.2.3c.3.2.6.4.7.7.2.3.2.7.2,1.2-.1.6-.4,1.4-.6,2.4s-.5,2-.8,3.2c-.2,1.2-.3,2.4-.3,3.8s.2,1.9.6,2.7,1,1.4,1.7,1.9c.7.5,1.6.7,2.6.7s1.9,0,2.7-.2c.8-.1,1.4-.3,2-.4.6-.2,1.1-.3,1.5-.5s.8-.2,1.1-.2c.7,0,1.2.2,1.5.5.3.3.5.8.5,1.5,0,1-.4,1.8-1.1,2.5-.7.7-1.8,1.3-3.2,1.6-1.4.4-3.1.6-5,.6ZM891.1,423.2c-.5.1-1,0-1.3-.1-.3-.2-.5-.5-.6-1-.1-.4-.2-.9-.2-1.4s.2-1.3.7-1.8c.4-.5,1-.8,1.7-1,.6-.1,1.3-.3,2-.4.7-.1,1.5-.2,2.3-.3.8-.1,1.7-.2,2.6-.3.9,0,2-.1,3.1-.2,1,0,1.7.2,2.2.6.4.4.6.9.6,1.5,0,1-.3,1.7-.9,2.3-.6.5-1.4.8-2.3.9-1.5,0-2.8.2-4,.3-1.2.1-2.2.3-3.1.4-.9.2-1.8.3-2.6.5Z"/>
      <path class="st7" d="M913.2,432.5c-.9,0-1.7-.4-2.4-1.2-.7-.8-1-2-1-3.6s.1-2.1.4-3.3c.3-1.2.8-2.6,1.4-4.1,0-1.2,0-2.3-.2-3.2-.2-1-.4-1.9-.6-2.8-.3-.9-.6-2-.9-3.1-.3-1-.2-1.7,0-2.2.3-.5,1-.8,2-.8s2.1.4,2.8,1.2,1.2,2.3,1.6,4.4h-1c.9-1.5,1.9-2.8,3-3.8s2.3-1.9,3.7-2.4c1.3-.6,2.7-.8,4.1-.8s2.1.2,2.9.5c.8.3,1.4.8,1.9,1.3.5.6.9,1.2,1.1,2,.2.8.4,1.6.4,2.5s-.2,2.2-.7,3.2c-.5,1-1.2,2-2.1,3-.9.9-2.1,1.8-3.5,2.5-1.4.8-2.9,1.4-4.7,2,1.4.8,2.9,1.5,4.5,2.1,1.6.6,3.2,1.2,4.8,1.6,1.1.3,1.9.6,2.3.9.4.3.6.8.6,1.3,0,.9-.3,1.5-.9,2-.6.5-1.5.7-2.6.7s-1.5-.1-2.6-.4c-1.1-.3-2.2-.7-3.5-1.2-1.3-.5-2.5-1.1-3.7-1.8-1.2-.7-2.3-1.4-3.4-2.1-1-.7-1.8-1.5-2.4-2.2-.3-.4-.4-.9-.4-1.4s.1-1.1.4-1.6c.3-.5.6-.8,1.1-.9,2.1-.5,3.9-1.1,5.4-1.8,1.5-.7,2.6-1.4,3.5-2.1.9-.7,1.5-1.4,1.9-2,.4-.6.6-1.2.6-1.6s0-.7-.3-.9c-.2-.2-.5-.3-1-.3s-.9.1-1.5.4c-.6.2-1.3.6-2.1,1.2-.8.5-1.5,1.3-2.3,2.2-.8.9-1.5,2-2.1,3.3-.6,1.3-1.1,2.8-1.5,4.6-.4,1.8-.6,3.8-.6,6s0,1.2-.3,1.6c-.2.4-.4.7-.8.9s-.8.3-1.3.3Z"/>
    </g>
  </g>
  <path id="newsletter-signup_x5F_toggle_x5F_body" class="st1" d="M1231.2,355.7c-26.8-1-84.8,2.2-106.2,1.9-49.9,0-60,64.3-10.7,76.7,12.4,2.5,21.2.9,34.8,1.3,23.9,0,58,0,71.7,0,7.3.1,17.9-2,25-4.7,41-15.3,28.2-70.6-14.3-75.3h-.4Z"/>
  <path id="newsletter-continue_x5F_button_x5F_body" class="st1" d="M1105.4,673.3c.7,0,2.3,0,4.1.7,4.5,1.7,7.9,5.9,7.9,9.4-.1,29.1,0,34.8-1,57.7-.3,6.3-10.6,8.4-21.2,9.4-12.4,1.1-218,.3-227.2.8-17.4,1-19.8-.5-34.2,0,0,0-5.4.2-12.7-.9-3.7-.6-5.4-1.1-7-1.8-.8-.4-4.6-2.3-7.2-6.2-2.8-4.2-2.8-8.6-2.9-11.4-.1-7.7-1.1-32.4-1.4-41.9-.3-11.4,8-15,42.3-15.4,15.5-.2,228.2,0,260.5-.3Z"/>
  <path id="newsletter-continue_x5F_button_x5F_fill" class="st3" d="M856.8,741.6c-3.1,0-5.6-.1-8.2-.2-2.7-.1-5.6-.2-9.2-.2s-3.8,0-5.9.1c0,0-.3,0-.6,0-1.5,0-5.4,0-10.3-.8-3.1-.5-3.8-.8-4.1-1-.2-.1-2.1-1-3.2-2.7-1.1-1.7-1.1-3.7-1.2-5.8v-.3c0-4.4-.4-14-.8-23.4-.3-7.5-.5-14.5-.6-18.7,0-.8,0-1.2,0-1.4,1.3-1.1,7.2-3.4,32.3-3.7,7.2,0,22.2,0,39.5-.1,20,0,203.6,0,221-.2h0c.1,0,.3,0,.4,0,.6.2,1.2.7,1.5,1,0,3.7,0,7,0,10,0,19.2,0,26.2-.9,43.9-1.6.6-5,1.6-12.2,2.2-5.6.5-19.5.6-30.9.6s-167.5,0-170.6,0c-3,0-5.9,0-8.6,0-9.3,0-14.1,0-16.7.2-4,.2-7.4.4-10.6.4Z"/>
  <g id="newsletter-continue_x5F_txt">
    <g>
      <path class="st8" d="M875.1,724.9c-2.2,0-4.1-.5-5.7-1.4s-2.7-2.3-3.5-4-1.2-3.6-1.2-5.7.4-3.8,1.1-5.5,1.7-3.3,2.9-4.7,2.7-2.5,4.3-3.3,3.3-1.2,5.1-1.2,3.1.4,3.9,1.1c.8.8,1.2,1.8,1.2,3.1s-.1,1.4-.3,2.1c-.2.6-.6,1.2-1,1.6-.5.4-1,.6-1.7.6s-.6,0-.9-.2-.4-.3-.5-.6c-.1-.3-.2-.5-.2-.8s0-.4-.1-.6c0-.2-.2-.3-.4-.4-.2,0-.5-.1-.9-.1-1,0-2,.2-2.8.8s-1.6,1.2-2.2,2c-.6.8-1.1,1.8-1.4,2.8-.3,1-.5,2.1-.5,3.2,0,1.9.5,3.3,1.4,4.3.9,1,2.2,1.5,3.8,1.5s1.5,0,2.1-.2c.5-.2,1-.4,1.3-.6.3-.2.6-.5.9-.7s.6-.4.9-.6c.3-.2.7-.3,1.1-.3.7,0,1.1.2,1.4.6.3.4.4.9.4,1.6s-.2,1.3-.6,2c-.4.7-.9,1.3-1.6,1.8-.7.5-1.6,1-2.7,1.3-1,.3-2.2.5-3.6.5Z"/>
      <path class="st8" d="M897,724.9c-1.6,0-3.1-.2-4.4-.8-1.3-.5-2.5-1.2-3.5-2.2-1-1-1.8-2.1-2.3-3.4-.5-1.3-.8-2.8-.8-4.4s.2-2.7.6-4c.4-1.2,1-2.3,1.6-3.3s1.4-1.8,2.1-2.5c.8-.7,1.5-1.2,2.2-1.6.7-.4,1.2-.6,1.7-.6s.9,0,1.3.2c.3.2.6.4.9.9.5.7.6,1.3.4,1.8-.2.6-.6,1-1.2,1.4-1,.7-1.8,1.4-2.4,2.2-.6.8-1.1,1.6-1.4,2.4s-.4,1.9-.4,3,.2,2.1.7,3c.5.8,1.1,1.5,2,1.9.9.4,1.8.7,2.9.7s2.3-.3,3.3-.8c1-.5,1.8-1.2,2.4-2.1.6-.9.9-1.9.9-3s-.2-2.2-.5-3.3-.7-2.1-1.3-3c-.5-.9-1.2-1.6-1.8-2.2-.7-.5-1.4-.8-2.2-.8s-.5.1-.6.3c-.1.2-.2.5-.2.8,0,.5-.1.9-.4,1.2s-.6.4-1.1.4-1.1-.2-1.6-.5c-.5-.3-1-.8-1.3-1.4s-.5-1.4-.5-2.3.2-1.3.6-1.9c.4-.6,1-1.1,1.7-1.4.8-.4,1.7-.6,2.7-.6,1.8,0,3.4.4,4.9,1.2,1.5.8,2.7,1.9,3.8,3.3,1.1,1.4,1.9,3,2.5,4.7.6,1.7.9,3.6.9,5.4s-.3,3-.9,4.4c-.6,1.3-1.5,2.5-2.6,3.5-1.1,1-2.4,1.8-3.9,2.3-1.5.6-3,.8-4.7.8Z"/>
      <path class="st8" d="M914.9,725.1c-.9,0-1.5-.2-1.9-.6-.4-.4-.6-.9-.6-1.5s0-1,.1-1.5c0-.5.2-1.1.3-1.8s.2-1.6.3-2.8c0-1.2.1-2.7.1-4.5s0-2.1,0-3.2c0-1.1-.1-2.2-.2-3.2s-.1-1.9-.2-2.6c0-.8,0-1.3,0-1.6,0-.7.2-1.3.7-1.8.4-.5,1.1-.8,2-.8s2,.3,2.9.8c.9.5,1.7,1.2,2.5,2.1.8.9,1.5,1.9,2.2,3,.7,1.1,1.3,2.3,1.9,3.5.6,1.2,1.2,2.4,1.8,3.6.6,1.2,1.2,2.3,1.7,3.3.5,1,1.1,1.9,1.7,2.6.6.7,1.1,1.3,1.7,1.6l-3,1.4c.3-.2.6-.5.9-.8.3-.3.6-.8.8-1.4.2-.6.3-1.5.3-2.5s0-2.8-.1-4.1-.2-2.6-.2-3.8,0-2.4,0-3.5c0-1.2.2-2.3.5-3.5.2-.9.5-1.5.9-1.8.4-.4.9-.6,1.4-.6.9,0,1.5.2,2,.7.4.4.7,1,.8,1.6.1.6.1,1.1,0,1.6-.2,1.1-.4,2.2-.4,3.2,0,1,0,2,0,3,0,1,0,2,.1,3.1,0,1.1,0,2.3,0,3.6s-.1,3.4-.3,4.8-.7,2.5-1.4,3.3c-.7.8-1.8,1.2-3.2,1.2s-1.7-.2-2.5-.6-1.4-1-2-1.8c-.6-.8-1.2-1.6-1.8-2.6-.5-1-1.1-2.1-1.6-3.2-.5-1.2-1.1-2.3-1.7-3.6-.6-1.2-1.2-2.4-1.9-3.6-.7-1.2-1.4-2.3-2.3-3.4l1-.2c.1,1,.3,1.8.3,2.5,0,.7.1,1.4.1,2s0,1.2,0,1.9c0,2.2,0,4.3-.3,6.1-.2,1.8-.5,3.4-.9,4.7-.2.6-.5,1.1-.9,1.4-.4.3-1,.5-1.8.5Z"/>
      <path class="st8" d="M955.2,704.8h-3.5c-1.1,0-2.1,0-3.1,0-1,0-2,0-3-.1s-2-.1-3-.2c-1,0-1.8-.3-2.3-.5s-.9-.6-1.2-1.1-.4-1-.4-1.7.2-1,.5-1.4c.3-.4.9-.6,1.6-.6s2.1,0,3,0,1.8,0,2.6.1c.8,0,1.7,0,2.5.1.8,0,1.7,0,2.6,0s1.6,0,2.2,0c.7,0,1.3-.1,2-.2.7,0,1.4,0,2.3,0s1.2.2,1.6.5.5.8.5,1.4c0,.9-.2,1.6-.7,2.1-.5.5-1.1,1-1.9,1.2-.8.3-1.5.4-2.3.4ZM949.9,725c-.7,0-1.4-.2-2-.7-.6-.5-1.1-1.4-1.5-2.8-.2-.9-.4-1.9-.5-2.9-.1-1-.2-2.2-.2-3.5s0-2.9.2-4.7c.1-1.8.3-4,.5-6.5,0-.7.3-1.3.7-1.7.4-.4.9-.7,1.6-.7,1.3,0,2.2.3,2.6,1,.5.7.7,1.8.6,3.4-.1,2.5-.2,4.6-.3,6.3,0,1.7,0,3.2,0,4.3,0,1.1.1,2.1.2,2.8,0,.7.1,1.3.2,1.8s.1,1,.1,1.4c0,.9-.2,1.5-.6,1.8-.4.3-1,.5-1.8.5Z"/>
      <path class="st8" d="M966.3,724.9c-1.7,0-2.9-.3-3.6-.9s-1.1-1.3-1.1-2.2.2-1,.5-1.4c.3-.4.9-.6,1.6-.6,1.1-.1,2-.2,2.8-.3.8,0,1.6-.1,2.3-.1.7,0,1.4,0,2.1,0s1.4,0,2.2,0c.8,0,1.7,0,2.6,0s1.9,0,2.5.3c.6.2.9.5,1.1.8.2.3.3.7.3,1.2,0,.8-.3,1.5-1,2s-1.8.9-3.3.9-2.7,0-3.8,0c-1.2,0-2.2.1-3.1.2-.9,0-1.6.1-2.1.1ZM964.9,705.3c-1.2,0-2-.3-2.5-.8-.5-.5-.8-1.2-.8-1.9s.2-1.3.7-1.7c.5-.4,1.1-.7,2-.8,1.4-.2,2.7-.3,4.1-.5,1.4-.1,2.7-.2,4-.3,1.3,0,2.5-.1,3.5-.1s2.3.2,2.9.5.9.9.9,1.8-.4,1.8-1.3,2.4c-.9.6-2,.9-3.3.9s-2.2,0-3.1,0c-.9,0-1.7,0-2.4.1s-1.3.1-1.9.2-1,0-1.5.1c-.4,0-.8,0-1.3,0ZM971.1,720.8c-1,0-1.8-.2-2.5-.8s-.9-1.2-.9-2c0-1.5,0-3,.1-4.5,0-1.5.2-2.9.3-4.2,0-1.3.1-2.6.1-3.7s.1-1.5.4-2c.3-.4.9-.6,1.7-.6s1.7.3,2.4.9c.7.6,1,1.3,1,2.2s0,1.8-.1,3c0,1.2-.2,2.7-.3,4.3-.1,1.6-.2,3.3-.2,5.2s-.7,2.2-2,2.2Z"/>
      <path class="st8" d="M985.3,725.1c-.9,0-1.5-.2-1.9-.6-.4-.4-.6-.9-.6-1.5s0-1,.1-1.5c0-.5.2-1.1.3-1.8s.2-1.6.3-2.8c0-1.2.1-2.7.1-4.5s0-2.1,0-3.2c0-1.1-.1-2.2-.2-3.2s-.1-1.9-.2-2.6c0-.8,0-1.3,0-1.6,0-.7.2-1.3.7-1.8.4-.5,1.1-.8,2-.8s2,.3,2.9.8c.9.5,1.7,1.2,2.5,2.1.8.9,1.5,1.9,2.2,3,.7,1.1,1.3,2.3,1.9,3.5.6,1.2,1.2,2.4,1.8,3.6.6,1.2,1.2,2.3,1.7,3.3.5,1,1.1,1.9,1.7,2.6.6.7,1.1,1.3,1.7,1.6l-3,1.4c.3-.2.6-.5.9-.8.3-.3.6-.8.8-1.4.2-.6.3-1.5.3-2.5s0-2.8-.1-4.1-.2-2.6-.2-3.8,0-2.4,0-3.5c0-1.2.2-2.3.5-3.5.2-.9.5-1.5.9-1.8.4-.4.9-.6,1.4-.6.9,0,1.5.2,2,.7.4.4.7,1,.8,1.6.1.6.1,1.1,0,1.6-.2,1.1-.4,2.2-.4,3.2,0,1,0,2,0,3,0,1,0,2,.1,3.1,0,1.1,0,2.3,0,3.6s-.1,3.4-.3,4.8-.7,2.5-1.4,3.3c-.7.8-1.8,1.2-3.2,1.2s-1.7-.2-2.5-.6-1.4-1-2-1.8c-.6-.8-1.2-1.6-1.8-2.6-.5-1-1.1-2.1-1.6-3.2-.5-1.2-1.1-2.3-1.7-3.6-.6-1.2-1.2-2.4-1.9-3.6-.7-1.2-1.4-2.3-2.3-3.4l1-.2c.1,1,.3,1.8.3,2.5,0,.7.1,1.4.1,2s0,1.2,0,1.9c0,2.2,0,4.3-.3,6.1-.2,1.8-.5,3.4-.9,4.7-.2.6-.5,1.1-.9,1.4-.4.3-1,.5-1.8.5Z"/>
      <path class="st8" d="M1021.5,725c-2.6,0-4.6-.5-6.2-1.5s-2.7-2.5-3.4-4.4-1.1-4.1-1.1-6.7,0-1.9,0-2.8,0-1.7,0-2.4,0-1.7,0-2.3-.1-1-.2-1.4c0-.4-.1-.7-.2-1.1,0-.3,0-.7,0-1.1,0-.8.2-1.4.7-1.8.4-.4,1.1-.5,1.9-.5s1.4.2,2,.5c.6.4,1,1,1.4,1.9.4.9.5,2.2.5,3.8s0,1.5,0,2.3c0,.9-.1,1.7-.2,2.6s0,1.7,0,2.4c0,1.8.2,3.2.5,4.2.4,1,.9,1.7,1.6,2,.7.4,1.5.6,2.5.6,1.4,0,2.5-.4,3.2-1.3.7-.9,1.1-2.4,1.1-4.5s0-2.5,0-3.5c0-1,0-2-.1-3,0-1,0-2.1,0-3.4s.3-2.5.8-3.4,1.4-1.3,2.6-1.3,1.4.2,1.8.6c.5.4.7,1,.7,1.8s0,.8-.1,1.2c0,.4-.1.9-.2,1.4,0,.5,0,1.2,0,2,0,1.3,0,2.5.1,3.8,0,1.3.1,2.6.1,4.1,0,2.2-.3,4.1-1,5.8s-1.7,3-3.1,3.9c-1.4.9-3.2,1.4-5.4,1.4Z"/>
      <path class="st8" d="M1038.9,705.6c-1.2,0-2.1-.3-2.8-.8-.6-.5-1-1.2-1-2s.1-.8.3-1.1c.2-.4.7-.7,1.4-.8,1.5-.4,3.2-.7,5-1s3.5-.4,5.1-.6c1.6-.1,3-.2,4.1-.2,1.6,0,2.8.3,3.4.8.7.5,1,1.2,1,2.1s-.2,1.2-.6,1.7c-.4.5-1,.7-1.8.7-1.6,0-3.1,0-4.5.2-1.5.1-2.8.3-4,.5-1.2.2-2.3.3-3.3.4-.9.1-1.7.2-2.2.2ZM1046,724.8c-1.8,0-3.3-.3-4.6-.8-1.3-.5-2.4-1.3-3.3-2.3-.9-1-1.5-2.1-1.9-3.4-.4-1.3-.6-2.7-.6-4.2s0-1.7.2-2.6c.1-.9.3-1.9.6-2.9.2-1,.5-2,.9-3,.3-.9.7-1.7,1.4-2.2s1.3-.8,2.2-.8.8,0,1.2.2c.3.2.6.4.7.7.2.3.2.7.2,1.2-.1.6-.4,1.4-.6,2.4s-.5,2-.8,3.2c-.2,1.2-.3,2.4-.3,3.8s.2,1.9.6,2.7c.4.8,1,1.4,1.7,1.9.7.5,1.6.7,2.6.7s1.9,0,2.7-.2c.8-.1,1.4-.3,2-.4s1.1-.3,1.5-.5c.4-.1.8-.2,1.1-.2.7,0,1.2.2,1.5.5s.5.8.5,1.5c0,1-.4,1.8-1.1,2.5-.7.7-1.8,1.3-3.2,1.6-1.4.4-3.1.6-5,.6ZM1040,715.6c-.5.1-1,0-1.3-.1s-.5-.5-.6-1c-.1-.4-.2-.9-.2-1.4s.2-1.3.7-1.8c.4-.5,1-.8,1.7-1,.6-.1,1.3-.3,2-.4.7-.1,1.5-.2,2.3-.3.8-.1,1.7-.2,2.6-.3.9,0,2-.1,3.1-.2,1,0,1.7.2,2.2.6.4.4.6.9.6,1.5,0,1-.3,1.7-.9,2.3s-1.4.8-2.3.9c-1.1,0-2.1.1-3,.2-.9,0-1.8.2-2.6.3-.8.1-1.5.2-2.2.4-.7.1-1.3.3-1.9.4Z"/>
    </g>
    <g>
      <path class="st10" d="M875.1,724.9c-2.2,0-4.1-.5-5.7-1.4s-2.7-2.3-3.5-4-1.2-3.6-1.2-5.7.4-3.8,1.1-5.5,1.7-3.3,2.9-4.7,2.7-2.5,4.3-3.3,3.3-1.2,5.1-1.2,3.1.4,3.9,1.1c.8.8,1.2,1.8,1.2,3.1s-.1,1.4-.3,2.1c-.2.6-.6,1.2-1,1.6-.5.4-1,.6-1.7.6s-.6,0-.9-.2-.4-.3-.5-.6c-.1-.3-.2-.5-.2-.8s0-.4-.1-.6c0-.2-.2-.3-.4-.4-.2,0-.5-.1-.9-.1-1,0-2,.2-2.8.8s-1.6,1.2-2.2,2c-.6.8-1.1,1.8-1.4,2.8-.3,1-.5,2.1-.5,3.2,0,1.9.5,3.3,1.4,4.3.9,1,2.2,1.5,3.8,1.5s1.5,0,2.1-.2c.5-.2,1-.4,1.3-.6.3-.2.6-.5.9-.7s.6-.4.9-.6c.3-.2.7-.3,1.1-.3.7,0,1.1.2,1.4.6.3.4.4.9.4,1.6s-.2,1.3-.6,2c-.4.7-.9,1.3-1.6,1.8-.7.5-1.6,1-2.7,1.3-1,.3-2.2.5-3.6.5Z"/>
      <path class="st10" d="M897,724.9c-1.6,0-3.1-.2-4.4-.8-1.3-.5-2.5-1.2-3.5-2.2-1-1-1.8-2.1-2.3-3.4-.5-1.3-.8-2.8-.8-4.4s.2-2.7.6-4c.4-1.2,1-2.3,1.6-3.3s1.4-1.8,2.1-2.5c.8-.7,1.5-1.2,2.2-1.6.7-.4,1.2-.6,1.7-.6s.9,0,1.3.2c.3.2.6.4.9.9.5.7.6,1.3.4,1.8-.2.6-.6,1-1.2,1.4-1,.7-1.8,1.4-2.4,2.2-.6.8-1.1,1.6-1.4,2.4s-.4,1.9-.4,3,.2,2.1.7,3c.5.8,1.1,1.5,2,1.9.9.4,1.8.7,2.9.7s2.3-.3,3.3-.8c1-.5,1.8-1.2,2.4-2.1.6-.9.9-1.9.9-3s-.2-2.2-.5-3.3-.7-2.1-1.3-3c-.5-.9-1.2-1.6-1.8-2.2-.7-.5-1.4-.8-2.2-.8s-.5.1-.6.3c-.1.2-.2.5-.2.8,0,.5-.1.9-.4,1.2s-.6.4-1.1.4-1.1-.2-1.6-.5c-.5-.3-1-.8-1.3-1.4s-.5-1.4-.5-2.3.2-1.3.6-1.9c.4-.6,1-1.1,1.7-1.4.8-.4,1.7-.6,2.7-.6,1.8,0,3.4.4,4.9,1.2,1.5.8,2.7,1.9,3.8,3.3,1.1,1.4,1.9,3,2.5,4.7.6,1.7.9,3.6.9,5.4s-.3,3-.9,4.4c-.6,1.3-1.5,2.5-2.6,3.5-1.1,1-2.4,1.8-3.9,2.3-1.5.6-3,.8-4.7.8Z"/>
      <path class="st10" d="M914.9,725.1c-.9,0-1.5-.2-1.9-.6-.4-.4-.6-.9-.6-1.5s0-1,.1-1.5c0-.5.2-1.1.3-1.8s.2-1.6.3-2.8c0-1.2.1-2.7.1-4.5s0-2.1,0-3.2c0-1.1-.1-2.2-.2-3.2s-.1-1.9-.2-2.6c0-.8,0-1.3,0-1.6,0-.7.2-1.3.7-1.8.4-.5,1.1-.8,2-.8s2,.3,2.9.8c.9.5,1.7,1.2,2.5,2.1.8.9,1.5,1.9,2.2,3,.7,1.1,1.3,2.3,1.9,3.5.6,1.2,1.2,2.4,1.8,3.6.6,1.2,1.2,2.3,1.7,3.3.5,1,1.1,1.9,1.7,2.6.6.7,1.1,1.3,1.7,1.6l-3,1.4c.3-.2.6-.5.9-.8.3-.3.6-.8.8-1.4.2-.6.3-1.5.3-2.5s0-2.8-.1-4.1-.2-2.6-.2-3.8,0-2.4,0-3.5c0-1.2.2-2.3.5-3.5.2-.9.5-1.5.9-1.8.4-.4.9-.6,1.4-.6.9,0,1.5.2,2,.7.4.4.7,1,.8,1.6.1.6.1,1.1,0,1.6-.2,1.1-.4,2.2-.4,3.2,0,1,0,2,0,3,0,1,0,2,.1,3.1,0,1.1,0,2.3,0,3.6s-.1,3.4-.3,4.8-.7,2.5-1.4,3.3c-.7.8-1.8,1.2-3.2,1.2s-1.7-.2-2.5-.6-1.4-1-2-1.8c-.6-.8-1.2-1.6-1.8-2.6-.5-1-1.1-2.1-1.6-3.2-.5-1.2-1.1-2.3-1.7-3.6-.6-1.2-1.2-2.4-1.9-3.6-.7-1.2-1.4-2.3-2.3-3.4l1-.2c.1,1,.3,1.8.3,2.5,0,.7.1,1.4.1,2s0,1.2,0,1.9c0,2.2,0,4.3-.3,6.1-.2,1.8-.5,3.4-.9,4.7-.2.6-.5,1.1-.9,1.4-.4.3-1,.5-1.8.5Z"/>
      <path class="st10" d="M955.2,704.8h-3.5c-1.1,0-2.1,0-3.1,0-1,0-2,0-3-.1s-2-.1-3-.2c-1,0-1.8-.3-2.3-.5s-.9-.6-1.2-1.1-.4-1-.4-1.7.2-1,.5-1.4c.3-.4.9-.6,1.6-.6s2.1,0,3,0,1.8,0,2.6.1c.8,0,1.7,0,2.5.1.8,0,1.7,0,2.6,0s1.6,0,2.2,0c.7,0,1.3-.1,2-.2.7,0,1.4,0,2.3,0s1.2.2,1.6.5.5.8.5,1.4c0,.9-.2,1.6-.7,2.1-.5.5-1.1,1-1.9,1.2-.8.3-1.5.4-2.3.4ZM949.9,725c-.7,0-1.4-.2-2-.7-.6-.5-1.1-1.4-1.5-2.8-.2-.9-.4-1.9-.5-2.9-.1-1-.2-2.2-.2-3.5s0-2.9.2-4.7c.1-1.8.3-4,.5-6.5,0-.7.3-1.3.7-1.7.4-.4.9-.7,1.6-.7,1.3,0,2.2.3,2.6,1,.5.7.7,1.8.6,3.4-.1,2.5-.2,4.6-.3,6.3,0,1.7,0,3.2,0,4.3,0,1.1.1,2.1.2,2.8,0,.7.1,1.3.2,1.8s.1,1,.1,1.4c0,.9-.2,1.5-.6,1.8-.4.3-1,.5-1.8.5Z"/>
      <path class="st10" d="M966.3,724.9c-1.7,0-2.9-.3-3.6-.9s-1.1-1.3-1.1-2.2.2-1,.5-1.4c.3-.4.9-.6,1.6-.6,1.1-.1,2-.2,2.8-.3.8,0,1.6-.1,2.3-.1.7,0,1.4,0,2.1,0s1.4,0,2.2,0c.8,0,1.7,0,2.6,0s1.9,0,2.5.3c.6.2.9.5,1.1.8.2.3.3.7.3,1.2,0,.8-.3,1.5-1,2s-1.8.9-3.3.9-2.7,0-3.8,0c-1.2,0-2.2.1-3.1.2-.9,0-1.6.1-2.1.1ZM964.9,705.3c-1.2,0-2-.3-2.5-.8-.5-.5-.8-1.2-.8-1.9s.2-1.3.7-1.7c.5-.4,1.1-.7,2-.8,1.4-.2,2.7-.3,4.1-.5,1.4-.1,2.7-.2,4-.3,1.3,0,2.5-.1,3.5-.1s2.3.2,2.9.5.9.9.9,1.8-.4,1.8-1.3,2.4c-.9.6-2,.9-3.3.9s-2.2,0-3.1,0c-.9,0-1.7,0-2.4.1s-1.3.1-1.9.2-1,0-1.5.1c-.4,0-.8,0-1.3,0ZM971.1,720.8c-1,0-1.8-.2-2.5-.8s-.9-1.2-.9-2c0-1.5,0-3,.1-4.5,0-1.5.2-2.9.3-4.2,0-1.3.1-2.6.1-3.7s.1-1.5.4-2c.3-.4.9-.6,1.7-.6s1.7.3,2.4.9c.7.6,1,1.3,1,2.2s0,1.8-.1,3c0,1.2-.2,2.7-.3,4.3-.1,1.6-.2,3.3-.2,5.2s-.7,2.2-2,2.2Z"/>
      <path class="st10" d="M985.3,725.1c-.9,0-1.5-.2-1.9-.6-.4-.4-.6-.9-.6-1.5s0-1,.1-1.5c0-.5.2-1.1.3-1.8s.2-1.6.3-2.8c0-1.2.1-2.7.1-4.5s0-2.1,0-3.2c0-1.1-.1-2.2-.2-3.2s-.1-1.9-.2-2.6c0-.8,0-1.3,0-1.6,0-.7.2-1.3.7-1.8.4-.5,1.1-.8,2-.8s2,.3,2.9.8c.9.5,1.7,1.2,2.5,2.1.8.9,1.5,1.9,2.2,3,.7,1.1,1.3,2.3,1.9,3.5.6,1.2,1.2,2.4,1.8,3.6.6,1.2,1.2,2.3,1.7,3.3.5,1,1.1,1.9,1.7,2.6.6.7,1.1,1.3,1.7,1.6l-3,1.4c.3-.2.6-.5.9-.8.3-.3.6-.8.8-1.4.2-.6.3-1.5.3-2.5s0-2.8-.1-4.1-.2-2.6-.2-3.8,0-2.4,0-3.5c0-1.2.2-2.3.5-3.5.2-.9.5-1.5.9-1.8.4-.4.9-.6,1.4-.6.9,0,1.5.2,2,.7.4.4.7,1,.8,1.6.1.6.1,1.1,0,1.6-.2,1.1-.4,2.2-.4,3.2,0,1,0,2,0,3,0,1,0,2,.1,3.1,0,1.1,0,2.3,0,3.6s-.1,3.4-.3,4.8-.7,2.5-1.4,3.3c-.7.8-1.8,1.2-3.2,1.2s-1.7-.2-2.5-.6-1.4-1-2-1.8c-.6-.8-1.2-1.6-1.8-2.6-.5-1-1.1-2.1-1.6-3.2-.5-1.2-1.1-2.3-1.7-3.6-.6-1.2-1.2-2.4-1.9-3.6-.7-1.2-1.4-2.3-2.3-3.4l1-.2c.1,1,.3,1.8.3,2.5,0,.7.1,1.4.1,2s0,1.2,0,1.9c0,2.2,0,4.3-.3,6.1-.2,1.8-.5,3.4-.9,4.7-.2.6-.5,1.1-.9,1.4-.4.3-1,.5-1.8.5Z"/>
      <path class="st10" d="M1021.5,725c-2.6,0-4.6-.5-6.2-1.5s-2.7-2.5-3.4-4.4-1.1-4.1-1.1-6.7,0-1.9,0-2.8,0-1.7,0-2.4,0-1.7,0-2.3-.1-1-.2-1.4c0-.4-.1-.7-.2-1.1,0-.3,0-.7,0-1.1,0-.8.2-1.4.7-1.8.4-.4,1.1-.5,1.9-.5s1.4.2,2,.5c.6.4,1,1,1.4,1.9.4.9.5,2.2.5,3.8s0,1.5,0,2.3c0,.9-.1,1.7-.2,2.6s0,1.7,0,2.4c0,1.8.2,3.2.5,4.2.4,1,.9,1.7,1.6,2,.7.4,1.5.6,2.5.6,1.4,0,2.5-.4,3.2-1.3.7-.9,1.1-2.4,1.1-4.5s0-2.5,0-3.5c0-1,0-2-.1-3,0-1,0-2.1,0-3.4s.3-2.5.8-3.4,1.4-1.3,2.6-1.3,1.4.2,1.8.6c.5.4.7,1,.7,1.8s0,.8-.1,1.2c0,.4-.1.9-.2,1.4,0,.5,0,1.2,0,2,0,1.3,0,2.5.1,3.8,0,1.3.1,2.6.1,4.1,0,2.2-.3,4.1-1,5.8s-1.7,3-3.1,3.9c-1.4.9-3.2,1.4-5.4,1.4Z"/>
      <path class="st10" d="M1038.9,705.6c-1.2,0-2.1-.3-2.8-.8-.6-.5-1-1.2-1-2s.1-.8.3-1.1c.2-.4.7-.7,1.4-.8,1.5-.4,3.2-.7,5-1s3.5-.4,5.1-.6c1.6-.1,3-.2,4.1-.2,1.6,0,2.8.3,3.4.8.7.5,1,1.2,1,2.1s-.2,1.2-.6,1.7c-.4.5-1,.7-1.8.7-1.6,0-3.1,0-4.5.2-1.5.1-2.8.3-4,.5-1.2.2-2.3.3-3.3.4-.9.1-1.7.2-2.2.2ZM1046,724.8c-1.8,0-3.3-.3-4.6-.8-1.3-.5-2.4-1.3-3.3-2.3-.9-1-1.5-2.1-1.9-3.4-.4-1.3-.6-2.7-.6-4.2s0-1.7.2-2.6c.1-.9.3-1.9.6-2.9.2-1,.5-2,.9-3,.3-.9.7-1.7,1.4-2.2s1.3-.8,2.2-.8.8,0,1.2.2c.3.2.6.4.7.7.2.3.2.7.2,1.2-.1.6-.4,1.4-.6,2.4s-.5,2-.8,3.2c-.2,1.2-.3,2.4-.3,3.8s.2,1.9.6,2.7c.4.8,1,1.4,1.7,1.9.7.5,1.6.7,2.6.7s1.9,0,2.7-.2c.8-.1,1.4-.3,2-.4s1.1-.3,1.5-.5c.4-.1.8-.2,1.1-.2.7,0,1.2.2,1.5.5s.5.8.5,1.5c0,1-.4,1.8-1.1,2.5-.7.7-1.8,1.3-3.2,1.6-1.4.4-3.1.6-5,.6ZM1040,715.6c-.5.1-1,0-1.3-.1s-.5-.5-.6-1c-.1-.4-.2-.9-.2-1.4s.2-1.3.7-1.8c.4-.5,1-.8,1.7-1,.6-.1,1.3-.3,2-.4.7-.1,1.5-.2,2.3-.3.8-.1,1.7-.2,2.6-.3.9,0,2-.1,3.1-.2,1,0,1.7.2,2.2.6.4.4.6.9.6,1.5,0,1-.3,1.7-.9,2.3s-1.4.8-2.3.9c-1.1,0-2.1.1-3,.2-.9,0-1.8.2-2.6.3-.8.1-1.5.2-2.2.4-.7.1-1.3.3-1.9.4Z"/>
    </g>
  </g>
  <path id="newsletter-eye_x5F_R" class="st4" d="M989.6,250.5c13.1-1.1,30.1-1.5,44.4.7,6,1.1,10.8,2.7,14.5,6.2,4.1,3.7,4,9.9-.3,13.1-6.3,4.9-16.3,4.6-24.2,5.2-12.7.7-26.1,1-38.4,0-4.2-.3-8.7-.8-12.7-2.2-7.6-2.3-11.4-10.3-5.4-16.4,5.4-5.3,14.9-5.9,22-6.6h.2Z"/>
  <path id="newsletter-eye_x5F_L" class="st4" d="M893.6,250.5c13.1-1.1,30.1-1.5,44.4.7,6,1.1,10.8,2.7,14.5,6.2,4.1,3.7,4,9.9-.3,13.1-6.3,4.9-16.3,4.6-24.2,5.2-12.7.7-26.1,1-38.4,0-4.2-.3-8.7-.8-12.7-2.2-7.6-2.3-11.4-10.3-5.4-16.4,5.4-5.3,14.9-5.9,22-6.6h.2Z"/>
  <g id="newsletter-pupils_x5F_mask">
    <g class="st11">
      <g id="newsletter-pupil_x5F_R">
        <path class="st9" d="M1029.7,287.8c8.3.6,21.1-4.1,21.9-14.3.8-10.2-11.5-16.2-20.7-16.9-9.1-.7-19.1,4.4-19.9,15.1-.8,10.6,10.4,15.5,18.7,16.1Z"/>
        <path class="st9" d="M1029.7,287.8c8.3.6,21.1-4.1,21.9-14.3.8-10.2-11.5-16.2-20.7-16.9-9.1-.7-19.1,4.4-19.9,15.1-.8,10.6,10.4,15.5,18.7,16.1Z"/>
      </g>
      <g id="newsletter-pupil_x5F_L">
        <path class="st9" d="M930.6,293c8.3.6,21.2-5.1,22.1-17.3.9-12.1-11.3-19-20.5-19.7-9.1-.7-19.2,5.5-20.2,18.2-.9,12.6,10.2,18.2,18.5,18.8Z"/>
        <path class="st9" d="M930.6,293c8.3.6,21.2-5.1,22.1-17.3.9-12.1-11.3-19-20.5-19.7-9.1-.7-19.2,5.5-20.2,18.2-.9,12.6,10.2,18.2,18.5,18.8Z"/>
      </g>
    </g>
  </g>
  <path id="newsletter-signup_x5F_toggle_x5F_switch_x5F_off" class="st6" d="M1124.4,422.7c-19.2-5-24.5-19.4-23.2-30.2,1.5-12.4,11.8-25,31.2-25h2.3c8.7,0,12.9-.9,27.7-.9s7.9,0,11,.2c17.9,2,27.4,15.5,28.9,27.2,1.5,12.2-4.7,23.5-17.5,27-20.1,5.6-53.5,3.5-60.4,1.7Z"/>
  <path id="newsletter-signup_x5F_toggle_x5F_switch_x5F_on" class="st5" d="M1180.1,422.7c-19.2-5-24.5-19.4-23.2-30.2,1.5-12.4,11.8-25,31.2-25h2.3c8.7,0,12.9-.9,27.7-.9s7.9,0,11,.2c17.9,2,27.4,15.5,28.9,27.2,1.5,12.2-4.7,23.5-17.5,27-20.1,5.6-53.5,3.5-60.4,1.7Z"/>
</svg>