<?xml version="1.0" encoding="UTF-8"?>
<svg id="Layer_1" xmlns="http://www.w3.org/2000/svg" xmlns:xlink="http://www.w3.org/1999/xlink" version="1.1" viewBox="0 0 1920 1080">
  <!-- Generator: Adobe Illustrator 30.4.0, SVG Export Plug-In . SVG Version: 2.1.4 Build 226)  -->
  <defs>
    <style>
      .st0, .st1 {
        fill: none;
      }

      .st1 {
        stroke-width: 5.2px;
      }

      .st1, .st2, .st3, .st4 {
        stroke-miterlimit: 10;
      }

      .st1, .st3, .st4 {
        stroke: #ff007a;
      }

      .st5, .st2 {
        fill: #ffa4f6;
      }

      .st2 {
        stroke: #ffa4f6;
      }

      .st2, .st3 {
        stroke-width: 5.2px;
      }

      .st6 {
        fill: #ff007a;
      }

      .st7, .st3, .st4 {
        fill: #fff;
      }

      .st8 {
        fill: #eee0da;
      }

      .st4 {
        stroke-width: 5.3px;
      }

      .st9 {
        clip-path: url(#clippath);
      }
    </style>
    <clipPath id="clippath">
      <path class="st0" d="M989.6,408.7c13.1-1.1,30.1-1.5,44.4.7,6,1.1,10.8,2.7,14.5,6.2,4.1,3.7,4,9.9-.3,13.1-6.3,4.9-16.3,4.6-24.2,5.2-12.7.7-26.1,1-38.4,0-4.2-.3-8.7-.8-12.7-2.2-7.6-2.3-11.4-10.3-5.4-16.4,5.4-5.3,14.9-5.9,22-6.6h.2ZM893.5,408.7c-7,.8-16.6,1.3-22,6.6-6,6.1-2.2,14.1,5.4,16.4,3.9,1.4,8.4,1.9,12.7,2.2,12.2.9,25.6.6,38.4,0,7.9-.6,17.9-.3,24.2-5.2,4.3-3.3,4.4-9.4.3-13.1-3.7-3.5-8.5-5-14.5-6.2-14.2-2.2-31.3-1.7-44.4-.7h-.2Z"/>
    </clipPath>
  </defs>
  <path id="ok-body" class="st1" d="M1284.2,417.7c.7,0,2.4,0,4.3.7,4.7,1.8,7.7,6.3,8.4,9.9,5.7,29.9,6.8,198.4-1.1,222.8-2,6.3-11.3,8.9-22.4,9.9-13.2,1.2-572.8.3-582.6.9-18.4,1.1-21-.5-36.2,0,0,0-5.7.2-13.5-1-3.9-.6-5.7-1.1-7.4-1.9-.8-.4-4.8-2.4-7.6-6.5-3-4.5-3-9.1-3.1-12.1-.1-8.1-1.9-16.1-2.3-24.2-.8-15.7-4.9-178.7.7-186.4,7.1-9.8,8.6-11.5,44.9-11.8,16.4-.2,583.6,0,617.8-.3Z"/>
  <g id="ok-press_x5F_ok_x5F_txt">
    <path class="st5" d="M756.6,491.8c-1.4-.6-3-1-4.7-1-2.5,0-4.4.4-5.9,1.1-1.5.7-2.5,1.7-3.2,3-.7,1.3-1,2.8-1,4.6s0,1.9.2,2.7c.2.8.3,1.7.5,2.6.2.9.4,1.9.6,3.1.2,1.1.2,2.5.2,4.1s.3,2.8,1,3.5,1.4,1,2.3,1,1.6-.3,1.9-.9c.3-.6.4-1.4.4-2.4,0-1.5,0-2.9-.3-4.2.5,0,1,.2,1.6.2,1.5,0,2.9-.3,4.2-.8s2.5-1.3,3.5-2.2c1-.9,1.8-2,2.4-3.3.6-1.2.9-2.5.9-3.9s-.4-3.2-1.3-4.4c-.8-1.2-2-2.1-3.4-2.8ZM755.1,501.3c-.5.8-1.2,1.4-2.1,1.9s-1.8.7-2.9.7-1.2,0-1.6-.2c-.3,0-.5-.2-.7-.2,0-.4-.2-.8-.2-1.2-.2-1-.3-1.9-.3-2.9s.4-1.8,1.2-2.4c.8-.5,2-.8,3.5-.8s1.3,0,1.9.3c.6.2,1.1.5,1.5.9.4.4.6.9.6,1.5s-.3,1.6-.8,2.4Z"/>
    <path class="st5" d="M785.1,511.5c-1.6-.4-3.2-1-4.8-1.6-1.6-.6-3.1-1.3-4.5-2.1,1.8-.6,3.4-1.2,4.7-2,1.4-.8,2.5-1.6,3.5-2.5.9-.9,1.7-1.9,2.1-3,.5-1,.7-2.1.7-3.2s-.1-1.7-.4-2.5c-.2-.8-.6-1.4-1.1-2-.5-.6-1.2-1-1.9-1.3-.8-.3-1.7-.5-2.9-.5s-2.8.3-4.1.8c-1.3.6-2.5,1.4-3.7,2.4-.8.8-1.6,1.6-2.2,2.6-.4-1.5-.8-2.5-1.4-3.2-.7-.8-1.6-1.2-2.8-1.2s-1.7.3-2,.8c-.3.5-.4,1.3,0,2.2.4,1.1.7,2.1.9,3.1.3.9.5,1.9.6,2.8.2,1,.2,2,.2,3.2-.6,1.5-1.1,2.8-1.4,4.1-.3,1.2-.4,2.3-.4,3.3,0,1.6.3,2.8,1,3.6.7.8,1.5,1.2,2.4,1.2s1,0,1.3-.3.6-.5.8-.9c.2-.4.3-1,.3-1.6,0-1.3,0-2.5.2-3.7.3.3.7.6,1.1.9,1,.7,2.1,1.4,3.4,2.1,1.2.7,2.5,1.3,3.7,1.8,1.3.5,2.4.9,3.5,1.2,1.1.3,1.9.4,2.6.4,1.2,0,2.1-.2,2.6-.7.6-.5.9-1.2.9-2s-.2-1-.6-1.3c-.4-.3-1.2-.7-2.3-.9ZM771.5,504.5c.2-.5.4-.9.6-1.3.6-1.3,1.3-2.4,2.1-3.3.8-.9,1.5-1.6,2.3-2.2.8-.5,1.5-.9,2.1-1.2.6-.3,1.1-.4,1.5-.4s.8.1,1,.3c.2.2.3.5.3.9s-.2.9-.6,1.6c-.4.6-1,1.3-1.9,2-.9.7-2.1,1.4-3.5,2.1-1.1.5-2.4,1-3.8,1.4Z"/>
    <path class="st5" d="M797.8,496.8c.5,0,1.1-.1,1.7-.2,1.2-.2,2.6-.3,4-.5,1.5-.1,3-.2,4.5-.2s1.4-.2,1.8-.7c.4-.5.6-1,.6-1.7s-.3-1.6-1-2.1c-.7-.5-1.8-.8-3.4-.8s-2.5,0-4.1.2c-1.6.1-3.3.3-5.1.6s-3.4.6-5,1c-.7.2-1.2.4-1.4.8-.2.4-.3.8-.3,1.1,0,.8.3,1.5,1,2,.3.3.7.5,1.1.6,0,0,0,0,0,0-.5,1.5-.9,3-1.2,4.5-.3,1.5-.4,2.9-.4,4.1,0,2,.4,3.8,1.2,5.4.8,1.6,1.9,2.9,3.5,3.9,1.5,1,3.5,1.4,5.8,1.4s3.6-.2,5-.6c1.4-.4,2.4-.9,3.2-1.6.7-.7,1.1-1.5,1.1-2.5s-.2-1.2-.5-1.5c-.3-.3-.8-.5-1.5-.5s-.7,0-1.1.2-.9.3-1.5.5c-.6.2-1.2.3-2,.4-.8.1-1.7.2-2.7.2s-1.9-.2-2.6-.7c-.7-.5-1.3-1.1-1.7-1.9-.2-.4-.4-.9-.5-1.5.5,0,.9-.2,1.4-.3.9-.2,2-.3,3.1-.4,1.2-.1,2.5-.2,4-.3.9,0,1.7-.4,2.3-.9.6-.5.9-1.3.9-2.3s-.2-1.1-.6-1.5c-.4-.4-1.1-.6-2.2-.6-1.1,0-2.1.1-3.1.2-.9,0-1.8.2-2.6.3-.8.1-1.6.2-2.3.3-.3,0-.5,0-.8.1.2-1.1.4-2.1.7-3,.2-.7.4-1.3.5-1.9Z"/>
    <path class="st5" d="M827.6,505.4c-.9-.6-1.9-1.1-2.9-1.6-1-.4-2-.9-2.9-1.2-.9-.4-1.7-.8-2.2-1.1s-.9-.8-.9-1.2.4-1,1.2-1.6c.8-.5,1.9-1,3.4-1.5,1.4-.5,3.1-.9,5-1.3.6-.1,1.1-.4,1.4-.8.3-.4.4-.9.4-1.4s0-1-.3-1.5c-.2-.5-.5-.8-1-1.1-.5-.3-1.1-.4-1.8-.4s-1.9.1-3.1.4c-1.2.3-2.4.7-3.7,1.2s-2.4,1.2-3.5,2c-1.1.8-2,1.6-2.6,2.6-.7,1-1,2-1,3.2s.3,2.1.8,3c.5.8,1.2,1.5,2.1,2.1.8.6,1.8,1.1,2.7,1.6,1,.4,1.9.9,2.8,1.2.9.4,1.7.8,2.3,1.1.6.4,1.1.8,1.3,1.2-.5.2-1,.3-1.6.5-.5.1-1.1.2-1.8.3-.7,0-1.4.1-2.3.1s-1.1,0-1.6-.1c-.4,0-.8-.2-1.1-.3-.3-.1-.6-.2-.9-.3-.3,0-.6-.1-.9-.1-.5,0-1,.2-1.2.5-.3.3-.4.8-.4,1.3,0,1.2.6,2.2,1.7,3s2.8,1.3,5,1.3,3.2-.1,4.6-.4c1.3-.2,2.5-.6,3.4-1.1.9-.5,1.6-1.1,2.1-1.9.5-.8.7-1.7.7-2.7s-.3-2.1-.9-2.9-1.3-1.5-2.2-2.1Z"/>
    <path class="st5" d="M847.8,505.4c-.9-.6-1.9-1.1-2.9-1.6-1-.4-2-.9-2.9-1.2-.9-.4-1.7-.8-2.2-1.1s-.9-.8-.9-1.2.4-1,1.2-1.6c.8-.5,1.9-1,3.4-1.5,1.4-.5,3.1-.9,5-1.3.6-.1,1.1-.4,1.4-.8.3-.4.4-.9.4-1.4s0-1-.3-1.5c-.2-.5-.5-.8-1-1.1-.5-.3-1.1-.4-1.8-.4s-1.9.1-3.1.4c-1.2.3-2.4.7-3.7,1.2s-2.4,1.2-3.5,2c-1.1.8-2,1.6-2.6,2.6-.7,1-1,2-1,3.2s.3,2.1.8,3c.5.8,1.2,1.5,2.1,2.1.8.6,1.8,1.1,2.7,1.6,1,.4,1.9.9,2.8,1.2.9.4,1.7.8,2.3,1.1.6.4,1.1.8,1.3,1.2-.5.2-1,.3-1.6.5-.5.1-1.1.2-1.8.3-.7,0-1.4.1-2.3.1s-1.1,0-1.6-.1c-.4,0-.8-.2-1.1-.3-.3-.1-.6-.2-.9-.3-.3,0-.6-.1-.9-.1-.5,0-1,.2-1.2.5-.3.3-.4.8-.4,1.3,0,1.2.6,2.2,1.7,3s2.8,1.3,5,1.3,3.2-.1,4.6-.4c1.3-.2,2.5-.6,3.4-1.1.9-.5,1.6-1.1,2.1-1.9.5-.8.7-1.7.7-2.7s-.3-2.1-.9-2.9-1.3-1.5-2.2-2.1Z"/>
    <path class="st5" d="M886,495.2c-1.1-1.4-2.3-2.5-3.8-3.3-1.5-.8-3.1-1.2-4.9-1.2s-2,.2-2.7.6c-.8.4-1.3.9-1.7,1.4-.4.6-.6,1.2-.6,1.9-.6.4-1.2.8-1.8,1.4-.8.7-1.5,1.5-2.1,2.5-.7,1-1.2,2.1-1.6,3.3-.4,1.2-.6,2.6-.6,4s.3,3.1.8,4.4c.5,1.3,1.3,2.5,2.3,3.4,1,1,2.2,1.7,3.5,2.2,1.3.5,2.8.8,4.4.8s3.3-.3,4.7-.8c1.5-.6,2.8-1.3,3.9-2.3,1.1-1,2-2.2,2.6-3.5s.9-2.8.9-4.4-.3-3.7-.9-5.4c-.6-1.7-1.4-3.3-2.5-4.7ZM882.9,508.4c-.6.9-1.4,1.6-2.4,2.1-1,.5-2.1.8-3.3.8s-2.1-.2-2.9-.7c-.9-.4-1.5-1.1-2-1.9-.5-.8-.7-1.8-.7-3s.1-2.1.4-3c.3-.9.8-1.7,1.4-2.4.5-.5,1-1.1,1.6-1.6.2,0,.5,0,.7,0,.5,0,.8-.1,1.1-.4.3-.3.4-.7.4-1.2s0-.6.2-.8c.1-.2.3-.3.6-.3.8,0,1.5.3,2.2.8.7.5,1.3,1.3,1.8,2.2s1,1.9,1.3,3c.3,1.1.5,2.2.5,3.3s-.3,2.1-.9,3Z"/>
    <path class="st5" d="M912.8,511c-1.2-.4-2.4-.8-3.6-1.4-1.1-.6-2.2-1.1-3.1-1.8-.9-.6-1.6-1.2-2.1-1.8-.5-.6-.8-1.1-.8-1.4s.2-1,.5-1.6c.4-.6.8-1.3,1.5-2.1.6-.7,1.3-1.5,2.2-2.2.8-.7,1.7-1.4,2.6-2,.9-.7,1.6-1.3,2-1.8.4-.5.6-1.1.6-1.8s-.2-1.4-.7-1.8c-.5-.4-1.1-.6-1.9-.6s-1,.1-1.5.3c-.5.2-1.1.6-1.8,1.1-1,.8-2.1,1.7-3.1,2.8-1,1.1-2,2.2-2.8,3.4-.7,1-1.3,2-1.7,3,0-.5,0-.9.1-1.4.1-1.3.2-2.5.2-3.6s0-1.2-.1-1.9c0-.7-.2-1.3-.5-1.9s-.6-1-1.1-1.4c-.5-.4-1.1-.6-1.9-.6s-1.3.2-1.7.5c-.3.3-.5.8-.5,1.5s0,.7,0,1.1.1.8.2,1.2c0,.5,0,1.1,0,1.8s0,1.8-.2,3.1c-.1,1.3-.3,2.7-.4,4.3-.1,1.6-.2,3.4-.2,5.2s.1,3.1.3,4.2c.2,1,.6,1.8,1.1,2.3s1.2.7,2.1.7,1.3-.2,1.8-.6c.4-.4.6-.9.6-1.6s0-.8,0-1.1c0-.4,0-.7-.1-1.1,0-.4-.1-.8-.1-1.3,0-.5,0-1.1,0-1.8s0-.8,0-1.3c0,0,0,.2.2.3.5.9,1.2,1.7,2.1,2.5.9.8,1.8,1.6,2.9,2.3,1,.7,2.1,1.3,3.2,1.9,1.1.5,2.1,1,3.1,1.3,1,.3,1.8.5,2.5.5s1.6-.2,2-.7c.4-.5.6-1.1.6-1.8s-.2-1.4-.6-1.9c-.4-.5-1-.8-1.8-1.1Z"/>
    <path class="st5" d="M949,491.3c-.3-.3-.9-.5-1.6-.5s-1.6,0-2.3,0c-.7,0-1.3.1-2,.2-.7,0-1.4,0-2.2,0s-1.7,0-2.6,0c-.8,0-1.7,0-2.5-.1-.8,0-1.7,0-2.6-.1s-1.9,0-3,0-1.3.2-1.6.6c-.3.4-.5.8-.5,1.4s.1,1.2.4,1.7c.2.5.6.8,1.2,1.1.5.3,1.3.4,2.3.5,1,0,2,.1,3,.2.2,0,.5,0,.8,0-.2,2.2-.3,4.1-.4,5.7-.1,1.8-.2,3.4-.2,4.7s0,2.5.2,3.5c.1,1,.3,2,.5,2.9.4,1.4.8,2.3,1.5,2.8s1.3.7,2,.7,1.4-.2,1.8-.5c.4-.3.6-1,.6-1.8s0-.9-.1-1.4-.1-1.1-.2-1.8c0-.7-.1-1.7-.2-2.8,0-1.1,0-2.6,0-4.3,0-1.7.1-3.8.3-6.3,0-.4,0-.8,0-1.1h3.2c.8,0,1.6-.1,2.3-.4.8-.3,1.4-.7,1.9-1.2.5-.5.7-1.3.7-2.1s-.2-1-.5-1.4Z"/>
    <path class="st5" d="M968.9,495.2c-1.1-1.4-2.3-2.5-3.8-3.3-1.5-.8-3.1-1.2-4.9-1.2s-2,.2-2.7.6c-.8.4-1.3.9-1.7,1.4-.4.6-.6,1.2-.6,1.9-.6.4-1.2.8-1.8,1.4-.8.7-1.5,1.5-2.1,2.5-.7,1-1.2,2.1-1.6,3.3-.4,1.2-.6,2.6-.6,4s.3,3.1.8,4.4c.5,1.3,1.3,2.5,2.3,3.4,1,1,2.2,1.7,3.5,2.2,1.3.5,2.8.8,4.4.8s3.3-.3,4.7-.8c1.5-.6,2.8-1.3,3.9-2.3,1.1-1,2-2.2,2.6-3.5s.9-2.8.9-4.4-.3-3.7-.9-5.4c-.6-1.7-1.4-3.3-2.5-4.7ZM965.7,508.4c-.6.9-1.4,1.6-2.4,2.1-1,.5-2.1.8-3.3.8s-2.1-.2-2.9-.7c-.9-.4-1.5-1.1-2-1.9-.5-.8-.7-1.8-.7-3s.1-2.1.4-3c.3-.9.8-1.7,1.4-2.4.5-.5,1-1.1,1.6-1.6.2,0,.5,0,.7,0,.5,0,.8-.1,1.1-.4.3-.3.4-.7.4-1.2s0-.6.2-.8c.1-.2.3-.3.6-.3.8,0,1.5.3,2.2.8.7.5,1.3,1.3,1.8,2.2s1,1.9,1.3,3c.3,1.1.5,2.2.5,3.3s-.3,2.1-.9,3Z"/>
    <path class="st5" d="M1004.6,508.7c-.4,0-.8,0-1.1.3-.3.2-.6.4-.9.6-.3.2-.6.5-.9.7-.3.3-.8.5-1.3.6-.5.2-1.2.3-2.1.3-1.6,0-2.9-.5-3.8-1.5-.9-1-1.4-2.5-1.4-4.3s.2-2.2.5-3.2.8-2,1.4-2.8c.6-.8,1.3-1.5,2.2-2s1.8-.8,2.8-.8.7,0,.9.1c.2,0,.3.2.4.4s.1.4.1.6,0,.6.2.8c.1.3.3.4.5.6s.5.2.9.2c.7,0,1.3-.2,1.7-.6.5-.4.8-.9,1-1.6.2-.6.3-1.3.3-2.1,0-1.3-.4-2.4-1.2-3.1s-2.1-1.1-3.9-1.1-3.5.4-5.1,1.2c-1.6.8-3,1.9-4.3,3.3-1.2,1.4-2.2,2.9-2.9,4.7-.7,1.8-1.1,3.6-1.1,5.5s.4,4.1,1.2,5.7c.8,1.7,2,3,3.5,4,1.5,1,3.4,1.4,5.7,1.4s2.5-.2,3.6-.5c1-.3,1.9-.8,2.7-1.3.7-.5,1.3-1.2,1.6-1.8.4-.7.6-1.3.6-2s-.1-1.2-.4-1.6c-.3-.4-.8-.6-1.4-.6Z"/>
    <path class="st5" d="M1028.8,495.2c-1.1-1.4-2.3-2.5-3.8-3.3-1.5-.8-3.1-1.2-4.9-1.2s-2,.2-2.7.6c-.8.4-1.3.9-1.7,1.4-.4.6-.6,1.2-.6,1.9-.6.4-1.2.8-1.8,1.4-.8.7-1.5,1.5-2.1,2.5-.7,1-1.2,2.1-1.6,3.3-.4,1.2-.6,2.6-.6,4s.3,3.1.8,4.4c.5,1.3,1.3,2.5,2.3,3.4,1,1,2.2,1.7,3.5,2.2,1.3.5,2.8.8,4.4.8s3.3-.3,4.7-.8c1.5-.6,2.8-1.3,3.9-2.3,1.1-1,2-2.2,2.6-3.5s.9-2.8.9-4.4-.3-3.7-.9-5.4c-.6-1.7-1.4-3.3-2.5-4.7ZM1025.7,508.4c-.6.9-1.4,1.6-2.4,2.1-1,.5-2.1.8-3.3.8s-2.1-.2-2.9-.7c-.9-.4-1.5-1.1-2-1.9-.5-.8-.7-1.8-.7-3s.1-2.1.4-3c.3-.9.8-1.7,1.4-2.4.5-.5,1-1.1,1.6-1.6.2,0,.5,0,.7,0,.5,0,.8-.1,1.1-.4.3-.3.4-.7.4-1.2s0-.6.2-.8c.1-.2.3-.3.6-.3.8,0,1.5.3,2.2.8.7.5,1.3,1.3,1.8,2.2s1,1.9,1.3,3c.3,1.1.5,2.2.5,3.3s-.3,2.1-.9,3Z"/>
    <path class="st5" d="M1058.3,491.3c-.4-.4-1.1-.7-2-.7s-1.1.2-1.4.6c-.4.4-.7,1-.9,1.8-.3,1.2-.5,2.4-.5,3.5,0,1.2,0,2.3,0,3.5,0,1.2.1,2.5.2,3.8,0,1.3.1,2.7.1,4.1s0,1.7-.3,2.3c-.2-.2-.3-.3-.5-.5-.6-.7-1.1-1.6-1.7-2.6-.5-1-1.1-2.1-1.7-3.3-.6-1.2-1.2-2.4-1.8-3.6-.6-1.2-1.3-2.4-1.9-3.5-.7-1.1-1.4-2.1-2.2-3-.8-.9-1.6-1.6-2.5-2.1-.9-.5-1.9-.8-2.9-.8s-1.5.2-2,.8-.7,1.1-.7,1.8,0,.8,0,1.6c0,.8.1,1.6.2,2.6,0,1,.1,2.1.2,3.2s0,2.2,0,3.2c0,1.9,0,3.4-.1,4.5,0,1.2-.2,2.1-.3,2.8-.1.7-.2,1.3-.3,1.8,0,.5-.1,1-.1,1.5s.2,1.1.6,1.5c.4.4,1,.6,1.9.6s1.4-.2,1.8-.5c.4-.3.7-.8.9-1.4.4-1.3.7-2.9.9-4.7.2-1.8.3-3.9.3-6.1s0-1.3,0-1.9c0-.6,0-1.2-.1-1.9,0-.2,0-.4,0-.6.4.5.7,1.1,1,1.7.7,1.2,1.3,2.4,1.9,3.6.6,1.2,1.1,2.4,1.7,3.6.5,1.2,1.1,2.2,1.6,3.2.5,1,1.1,1.9,1.8,2.6.6.8,1.3,1.4,2,1.8s1.6.6,2.5.6c1.4,0,2.5-.4,3.2-1.2.7-.8,1.2-1.9,1.4-3.3.2-1.4.3-3,.3-4.8s0-2.5,0-3.6c0-1.1-.1-2.1-.1-3.1,0-1,0-2,0-3,0-1,.2-2.1.4-3.2.1-.5.1-1,0-1.6-.1-.6-.4-1.1-.8-1.6Z"/>
    <path class="st5" d="M1081,490.8c-.9,0-1.6,0-2.3,0-.7,0-1.3.1-2,.2-.7,0-1.4,0-2.2,0s-1.7,0-2.6,0c-.8,0-1.7,0-2.5-.1-.8,0-1.7,0-2.6-.1s-1.9,0-3,0-1.3.2-1.6.6c-.3.4-.5.8-.5,1.4s.1,1.2.4,1.7c.2.5.6.8,1.2,1.1.5.3,1.3.4,2.3.5,1,0,2,.1,3,.2.2,0,.5,0,.8,0-.2,2.2-.3,4.1-.4,5.7-.1,1.8-.2,3.4-.2,4.7s0,2.5.2,3.5c.1,1,.3,2,.5,2.9.4,1.4.8,2.3,1.5,2.8s1.3.7,2,.7,1.4-.2,1.8-.5c.4-.3.6-1,.6-1.8s0-.9-.1-1.4-.1-1.1-.2-1.8c0-.7-.1-1.7-.2-2.8,0-1.1,0-2.6,0-4.3,0-1.7.1-3.8.3-6.3,0-.4,0-.8,0-1.1h3.2c.8,0,1.6-.1,2.3-.4.8-.3,1.4-.7,1.9-1.2.5-.5.7-1.3.7-2.1s-.2-1-.5-1.4c-.3-.3-.9-.5-1.6-.5Z"/>
    <path class="st5" d="M1101.2,511.3c-.6-.2-1.4-.3-2.5-.3s-1.9,0-2.6,0c0,0,0,0,0,0,0-.2,0-.5,0-.7,0-1.9,0-3.6.2-5.2.1-1.6.2-3,.3-4.3,0-1.2.1-2.3.1-3s-.1-.9-.3-1.3c.5,0,1,0,1.6,0,1.4,0,2.5-.3,3.3-.9.9-.6,1.3-1.4,1.3-2.4s-.3-1.4-.9-1.8c-.6-.3-1.5-.5-2.9-.5s-2.2,0-3.5.1c-1.3,0-2.6.2-4,.3-1.4.1-2.8.3-4.1.5-.8,0-1.5.4-2,.8-.5.4-.7,1-.7,1.7s.3,1.4.8,1.9c.5.5,1.3.8,2.5.8s.8,0,1.3,0c.4,0,.9,0,1.5-.1.2,0,.5,0,.7,0,0,.2,0,.4,0,.6,0,1.1,0,2.3-.1,3.7,0,1.3-.2,2.8-.3,4.2,0,1.5-.1,3-.1,4.5s.1,1,.4,1.4c-.5,0-1.1,0-1.7.1-.8,0-1.8.2-2.8.3-.7,0-1.2.3-1.6.6-.3.4-.5.8-.5,1.4,0,.9.4,1.6,1.1,2.2s1.9.9,3.6.9,1.2,0,2.1-.1c.9,0,1.9-.1,3.1-.2,1.2,0,2.5,0,3.8,0s2.6-.3,3.3-.9c.7-.6,1-1.3,1-2s-.1-.8-.3-1.2c-.2-.3-.6-.6-1.1-.8Z"/>
    <path class="st5" d="M1128.7,491.3c-.4-.4-1.1-.7-2-.7s-1.1.2-1.4.6c-.4.4-.7,1-.9,1.8-.3,1.2-.5,2.4-.5,3.5,0,1.2,0,2.3,0,3.5,0,1.2.1,2.5.2,3.8,0,1.3.1,2.7.1,4.1s0,1.7-.3,2.3c-.2-.2-.3-.3-.5-.5-.6-.7-1.1-1.6-1.7-2.6-.5-1-1.1-2.1-1.7-3.3-.6-1.2-1.2-2.4-1.8-3.6-.6-1.2-1.3-2.4-1.9-3.5-.7-1.1-1.4-2.1-2.2-3-.8-.9-1.6-1.6-2.5-2.1-.9-.5-1.9-.8-2.9-.8s-1.5.2-2,.8-.7,1.1-.7,1.8,0,.8,0,1.6c0,.8.1,1.6.2,2.6,0,1,.1,2.1.2,3.2s0,2.2,0,3.2c0,1.9,0,3.4-.1,4.5,0,1.2-.2,2.1-.3,2.8-.1.7-.2,1.3-.3,1.8,0,.5-.1,1-.1,1.5s.2,1.1.6,1.5c.4.4,1,.6,1.9.6s1.4-.2,1.8-.5c.4-.3.7-.8.9-1.4.4-1.3.7-2.9.9-4.7.2-1.8.3-3.9.3-6.1s0-1.3,0-1.9c0-.6,0-1.2-.1-1.9,0-.2,0-.4,0-.6.4.5.7,1.1,1,1.7.7,1.2,1.3,2.4,1.9,3.6.6,1.2,1.1,2.4,1.7,3.6.5,1.2,1.1,2.2,1.6,3.2.5,1,1.1,1.9,1.8,2.6.6.8,1.3,1.4,2,1.8s1.6.6,2.5.6c1.4,0,2.5-.4,3.2-1.2.7-.8,1.2-1.9,1.4-3.3.2-1.4.3-3,.3-4.8s0-2.5,0-3.6c0-1.1-.1-2.1-.1-3.1,0-1,0-2,0-3,0-1,.2-2.1.4-3.2.1-.5.1-1,0-1.6-.1-.6-.4-1.1-.8-1.6Z"/>
    <path class="st5" d="M1154.1,494.2c0-.4.1-.8.1-1.2,0-.8-.2-1.4-.7-1.8-.5-.4-1.1-.6-1.8-.6-1.2,0-2,.4-2.6,1.3s-.8,2-.8,3.4,0,2.4,0,3.4c0,1,0,2,.1,3,0,1,0,2.2,0,3.5,0,2.1-.4,3.6-1.1,4.5-.7.9-1.8,1.3-3.2,1.3s-1.8-.2-2.5-.6c-.7-.4-1.2-1-1.6-2-.4-1-.5-2.4-.5-4.2s0-1.6,0-2.4.1-1.7.2-2.6c0-.9,0-1.7,0-2.3,0-1.6-.2-2.9-.5-3.8-.4-.9-.8-1.6-1.4-1.9s-1.2-.5-2-.5-1.4.2-1.9.5-.7.9-.7,1.8,0,.8,0,1.1.1.7.2,1.1c0,.4.2.8.2,1.4s0,1.3,0,2.3,0,1.5,0,2.4c0,.9,0,1.9,0,2.8,0,2.6.4,4.8,1.1,6.7.7,1.9,1.8,3.4,3.4,4.4,1.5,1,3.6,1.5,6.2,1.5s4-.5,5.4-1.4c1.4-.9,2.5-2.2,3.1-3.9.7-1.7,1-3.6,1-5.8s0-2.8-.1-4.1c0-1.3-.1-2.5-.1-3.8s0-1.5,0-2c0-.5.1-1,.2-1.4Z"/>
    <path class="st5" d="M1176.3,509.6c-.3,0-.7,0-1.1.2s-.9.3-1.5.5c-.6.2-1.2.3-2,.4-.8.1-1.7.2-2.7.2s-1.9-.2-2.6-.7c-.7-.5-1.3-1.1-1.7-1.9-.2-.4-.4-.9-.5-1.5.2,0,.5-.1.7-.2.7-.1,1.4-.3,2.2-.4.8-.1,1.7-.2,2.6-.3.9,0,1.9-.2,3-.2.9,0,1.7-.4,2.3-.9.6-.5.9-1.3.9-2.3s-.2-1.1-.6-1.5c-.4-.4-1.1-.6-2.2-.6-1.1,0-2.1.1-3.1.2-.9,0-1.8.2-2.6.3-.8.1-1.6.2-2.3.3-.3,0-.5,0-.8.1.2-1.1.4-2.1.7-3,.2-.7.4-1.3.5-1.9.5,0,1.1-.1,1.7-.2,1.2-.2,2.6-.3,4-.5,1.5-.1,3-.2,4.5-.2s1.4-.2,1.8-.7c.4-.5.6-1,.6-1.7s-.3-1.6-1-2.1c-.7-.5-1.8-.8-3.4-.8s-2.5,0-4.1.2c-1.6.1-3.3.3-5.1.6s-3.4.6-5,1c-.7.2-1.2.4-1.4.8-.2.4-.3.8-.3,1.1,0,.8.3,1.5,1,2,.3.3.7.5,1.1.6,0,0,0,0,0,0-.3,1-.6,2-.9,3-.3,1-.4,2-.6,2.9-.1.9-.2,1.8-.2,2.6,0,1.5.2,2.9.6,4.2.4,1.3,1.1,2.4,1.9,3.4.9,1,2,1.8,3.3,2.3,1.3.5,2.8.8,4.6.8s3.6-.2,5-.6c1.4-.4,2.4-.9,3.2-1.6.7-.7,1.1-1.5,1.1-2.5s-.2-1.2-.5-1.5c-.3-.3-.8-.5-1.5-.5Z"/>
  </g>
  <path id="ok-button_x5F_body" class="st3" d="M1024.9,559.3c.7,0,2.3,0,4.1.7,4.5,1.7,7.9,5.9,7.9,9.4-.1,29.1,0,34.8-1,57.7-.3,6.3-10.6,8.4-21.2,9.4-12.4,1.1-57.1.3-66.3.8-17.4,1-19.8-.5-34.2,0,0,0-5.4.2-12.7-.9-3.7-.6-5.4-1.1-7-1.8-.8-.4-4.6-2.3-7.2-6.2-2.8-4.2-2.8-8.6-2.9-11.4-.1-7.7-1.1-32.4-1.4-41.9-.3-11.4,8-15,42.3-15.4,15.5-.2,67.3,0,99.6-.3Z"/>
  <path id="ok-button_x5F_fill" class="st2" d="M937.2,627.6c-3.1,0-5.6-.1-8.2-.2-2.7-.1-5.6-.2-9.2-.2s-3.8,0-5.9.1c0,0-.3,0-.6,0-1.5,0-5.4,0-10.3-.8-3.1-.5-3.8-.8-4.1-1-.2-.1-2.1-1-3.2-2.7-1.1-1.7-1.1-3.7-1.2-5.8v-.3c0-4.4-.4-14-.8-23.4-.3-7.5-.5-14.5-.6-18.7,0-.8,0-1.2,0-1.4,1.3-1.1,7.2-3.4,32.3-3.7,7.2,0,22.2,0,39.5-.1,20,0,42.8,0,60.1-.2h0c.1,0,.3,0,.4,0,.6.2,1.2.7,1.5,1,0,3.7,0,7,0,10,0,19.2,0,26.2-.9,43.9-1.6.6-5,1.6-12.2,2.2-5.6.5-19.5.6-30.9.6s-6.6,0-9.8,0c-3,0-5.9,0-8.6,0-9.3,0-14.1,0-16.7.2-4,.2-7.4.4-10.6.4Z"/>
  <g id="ok-ok_x5F_txt">
    <g>
      <path class="st8" d="M946.5,611.3c-1.6,0-3.1-.3-4.4-.8-1.3-.5-2.5-1.2-3.5-2.2-1-1-1.8-2.1-2.3-3.4-.5-1.3-.8-2.8-.8-4.4s.2-2.7.6-4c.4-1.2,1-2.3,1.6-3.3s1.4-1.8,2.1-2.5c.8-.7,1.5-1.2,2.2-1.6.7-.4,1.2-.6,1.7-.6s.9,0,1.3.2c.3.2.6.4.9.9.5.7.6,1.3.4,1.8-.2.6-.6,1-1.2,1.4-1,.7-1.8,1.4-2.4,2.2-.6.8-1.1,1.6-1.4,2.4s-.4,1.9-.4,3,.2,2.1.7,3c.5.8,1.1,1.5,2,1.9.9.4,1.8.7,2.9.7s2.3-.3,3.3-.8c1-.5,1.8-1.2,2.4-2.1.6-.9.9-1.9.9-3s-.2-2.2-.5-3.3-.7-2.1-1.3-3-1.2-1.6-1.8-2.2c-.7-.5-1.4-.8-2.2-.8s-.5.1-.6.3c-.1.2-.2.5-.2.8,0,.5-.1.9-.4,1.2s-.6.4-1.1.4-1.1-.2-1.6-.5c-.5-.3-1-.8-1.3-1.4s-.5-1.4-.5-2.3.2-1.3.6-1.9c.4-.6,1-1.1,1.7-1.4.8-.4,1.7-.6,2.7-.6,1.8,0,3.4.4,4.9,1.2,1.5.8,2.7,1.9,3.8,3.3,1.1,1.4,1.9,3,2.5,4.7.6,1.7.9,3.6.9,5.4s-.3,3-.9,4.4c-.6,1.3-1.5,2.5-2.6,3.5-1.1,1-2.4,1.8-3.9,2.3-1.5.6-3,.8-4.7.8Z"/>
      <path class="st8" d="M966,611.4c-.9,0-1.6-.2-2.1-.7-.5-.5-.9-1.2-1.1-2.3-.2-1-.3-2.4-.3-4.2s0-3.6.2-5.2c.1-1.6.3-3.1.4-4.3.1-1.3.2-2.3.2-3.1s0-1.3,0-1.8c0-.5-.1-.9-.2-1.2,0-.3,0-.7,0-1.1,0-.6.2-1.1.5-1.5.3-.3.9-.5,1.7-.5s1.5.2,1.9.6c.5.4.9.8,1.1,1.4s.4,1.2.5,1.9.1,1.3.1,1.9c0,1,0,2.2-.2,3.6-.1,1.3-.3,2.8-.4,4.3-.1,1.5-.2,3.1-.2,4.7s0,1.3,0,1.8c0,.5,0,.9.1,1.3,0,.4.1.8.1,1.1s0,.7,0,1.1c0,.7-.2,1.2-.6,1.6-.4.4-1,.6-1.8.6ZM982,611.3c-.7,0-1.5-.2-2.5-.5-1-.3-2.1-.7-3.1-1.3-1.1-.5-2.2-1.2-3.2-1.9-1.1-.7-2-1.5-2.9-2.3-.9-.8-1.6-1.7-2.1-2.5-.5-.9-.8-1.7-.8-2.5,0-1.2.2-2.4.8-3.6.5-1.2,1.2-2.4,2-3.6s1.8-2.3,2.8-3.4c1-1.1,2.1-2,3.1-2.8.7-.5,1.3-.9,1.8-1.1.5-.2,1-.3,1.5-.3.8,0,1.4.2,1.9.6s.7,1,.7,1.8-.2,1.3-.6,1.8c-.4.5-1.1,1.1-2,1.8-.9.6-1.8,1.3-2.6,2s-1.5,1.5-2.2,2.2c-.6.7-1.1,1.4-1.5,2.1-.4.6-.5,1.2-.5,1.6s.3.8.8,1.4c.5.6,1.2,1.2,2.1,1.8s1.9,1.2,3.1,1.8c1.1.6,2.3,1,3.6,1.4.8.2,1.4.6,1.8,1.1.4.5.6,1.1.6,1.9s-.2,1.4-.6,1.8c-.4.5-1.1.7-2,.7Z"/>
    </g>
    <g>
      <path class="st7" d="M946.5,611.3c-1.6,0-3.1-.3-4.4-.8-1.3-.5-2.5-1.2-3.5-2.2-1-1-1.8-2.1-2.3-3.4-.5-1.3-.8-2.8-.8-4.4s.2-2.7.6-4c.4-1.2,1-2.3,1.6-3.3s1.4-1.8,2.1-2.5c.8-.7,1.5-1.2,2.2-1.6.7-.4,1.2-.6,1.7-.6s.9,0,1.3.2c.3.2.6.4.9.9.5.7.6,1.3.4,1.8-.2.6-.6,1-1.2,1.4-1,.7-1.8,1.4-2.4,2.2-.6.8-1.1,1.6-1.4,2.4s-.4,1.9-.4,3,.2,2.1.7,3c.5.8,1.1,1.5,2,1.9.9.4,1.8.7,2.9.7s2.3-.3,3.3-.8c1-.5,1.8-1.2,2.4-2.1.6-.9.9-1.9.9-3s-.2-2.2-.5-3.3-.7-2.1-1.3-3-1.2-1.6-1.8-2.2c-.7-.5-1.4-.8-2.2-.8s-.5.1-.6.3c-.1.2-.2.5-.2.8,0,.5-.1.9-.4,1.2s-.6.4-1.1.4-1.1-.2-1.6-.5c-.5-.3-1-.8-1.3-1.4s-.5-1.4-.5-2.3.2-1.3.6-1.9c.4-.6,1-1.1,1.7-1.4.8-.4,1.7-.6,2.7-.6,1.8,0,3.4.4,4.9,1.2,1.5.8,2.7,1.9,3.8,3.3,1.1,1.4,1.9,3,2.5,4.7.6,1.7.9,3.6.9,5.4s-.3,3-.9,4.4c-.6,1.3-1.5,2.5-2.6,3.5-1.1,1-2.4,1.8-3.9,2.3-1.5.6-3,.8-4.7.8Z"/>
      <path class="st7" d="M966,611.4c-.9,0-1.6-.2-2.1-.7-.5-.5-.9-1.2-1.1-2.3-.2-1-.3-2.4-.3-4.2s0-3.6.2-5.2c.1-1.6.3-3.1.4-4.3.1-1.3.2-2.3.2-3.1s0-1.3,0-1.8c0-.5-.1-.9-.2-1.2,0-.3,0-.7,0-1.1,0-.6.2-1.1.5-1.5.3-.3.9-.5,1.7-.5s1.5.2,1.9.6c.5.4.9.8,1.1,1.4s.4,1.2.5,1.9.1,1.3.1,1.9c0,1,0,2.2-.2,3.6-.1,1.3-.3,2.8-.4,4.3-.1,1.5-.2,3.1-.2,4.7s0,1.3,0,1.8c0,.5,0,.9.1,1.3,0,.4.1.8.1,1.1s0,.7,0,1.1c0,.7-.2,1.2-.6,1.6-.4.4-1,.6-1.8.6ZM982,611.3c-.7,0-1.5-.2-2.5-.5-1-.3-2.1-.7-3.1-1.3-1.1-.5-2.2-1.2-3.2-1.9-1.1-.7-2-1.5-2.9-2.3-.9-.8-1.6-1.7-2.1-2.5-.5-.9-.8-1.7-.8-2.5,0-1.2.2-2.4.8-3.6.5-1.2,1.2-2.4,2-3.6s1.8-2.3,2.8-3.4c1-1.1,2.1-2,3.1-2.8.7-.5,1.3-.9,1.8-1.1.5-.2,1-.3,1.5-.3.8,0,1.4.2,1.9.6s.7,1,.7,1.8-.2,1.3-.6,1.8c-.4.5-1.1,1.1-2,1.8-.9.6-1.8,1.3-2.6,2s-1.5,1.5-2.2,2.2c-.6.7-1.1,1.4-1.5,2.1-.4.6-.5,1.2-.5,1.6s.3.8.8,1.4c.5.6,1.2,1.2,2.1,1.8s1.9,1.2,3.1,1.8c1.1.6,2.3,1,3.6,1.4.8.2,1.4.6,1.8,1.1.4.5.6,1.1.6,1.9s-.2,1.4-.6,1.8c-.4.5-1.1.7-2,.7Z"/>
    </g>
  </g>
  <path id="ok-eye_x5F_L" class="st4" d="M989.6,408.7c13.1-1.1,30.1-1.5,44.4.7,6,1.1,10.8,2.7,14.5,6.2,4.1,3.7,4,9.9-.3,13.1-6.3,4.9-16.3,4.6-24.2,5.2-12.7.7-26.1,1-38.4,0-4.2-.3-8.7-.8-12.7-2.2-7.6-2.3-11.4-10.3-5.4-16.4,5.4-5.3,14.9-5.9,22-6.6h.2Z"/>
  <path id="ok-eye_x5F_R" class="st4" d="M893.6,408.7c13.1-1.1,30.1-1.5,44.4.7,6,1.1,10.8,2.7,14.5,6.2,4.1,3.7,4,9.9-.3,13.1-6.3,4.9-16.3,4.6-24.2,5.2-12.7.7-26.1,1-38.4,0-4.2-.3-8.7-.8-12.7-2.2-7.6-2.3-11.4-10.3-5.4-16.4,5.4-5.3,14.9-5.9,22-6.6h.2Z"/>
  <g id="ok-">
    <g class="st9">
      <g id="ok-pupil_x5F_R">
        <path class="st6" d="M998.3,440c8.3.6,21.1-4.1,21.9-14.3.8-10.2-11.5-16.2-20.7-16.9-9.1-.7-19.1,4.4-19.9,15.1-.8,10.6,10.4,15.5,18.7,16.1Z"/>
        <path class="st6" d="M998.3,440c8.3.6,21.1-4.1,21.9-14.3.8-10.2-11.5-16.2-20.7-16.9-9.1-.7-19.1,4.4-19.9,15.1-.8,10.6,10.4,15.5,18.7,16.1Z"/>
      </g>
      <g id="ok-pupil_x5F_L">
        <path class="st6" d="M920.8,444.3c8.3.6,21.2-5.1,22.1-17.3.9-12.1-11.3-19-20.5-19.7-9.1-.7-19.2,5.5-20.2,18.2-.9,12.6,10.2,18.2,18.5,18.8Z"/>
        <path class="st6" d="M920.8,444.3c8.3.6,21.2-5.1,22.1-17.3.9-12.1-11.3-19-20.5-19.7-9.1-.7-19.2,5.5-20.2,18.2-.9,12.6,10.2,18.2,18.5,18.8Z"/>
      </g>
    </g>
  </g>
</svg>