<?xml version="1.0" encoding="UTF-8"?>
<svg id="Layer_1" xmlns="http://www.w3.org/2000/svg" xmlns:xlink="http://www.w3.org/1999/xlink" version="1.1" viewBox="0 0 1920 1080">
  <!-- Generator: Adobe Illustrator 30.4.0, SVG Export Plug-In . SVG Version: 2.1.4 Build 226)  -->
  <defs>
    <style>
      .st0, .st1 {
        fill: none;
      }

      .st1, .st2 {
        stroke-width: 5.2px;
      }

      .st1, .st2, .st3, .st4 {
        stroke-miterlimit: 10;
      }

      .st1, .st3, .st4 {
        stroke: #ff007a;
      }

      .st5, .st2 {
        fill: #ffa4f6;
      }

      .st6 {
        fill: #e31c78;
      }

      .st2 {
        stroke: #ffa4f6;
      }

      .st7 {
        fill: #ff007a;
      }

      .st8, .st3, .st4 {
        fill: #fff;
      }

      .st3 {
        stroke-width: 5.4px;
      }

      .st4 {
        stroke-width: 5.2px;
      }

      .st9 {
        clip-path: url(#clippath);
      }
    </style>
    <clipPath id="clippath">
      <path class="st0" d="M1073.9,352.8c-8.9,1.3-21.6,1.1-36.3.9-21.7-.8-45.9,1.1-63-3.9-8.5-2.8-9.3-8.7-1.9-11.8,15.6-5.5,34.3-3,57-3.2,23.7.3,44.2.2,53.2,4.4,9.8,4.3,4.7,11.8-8.1,13.4h-.9ZM845.9,352.4c8.9,1.4,21.6,1.3,36.3,1.2,21.7-.6,45.9,1.5,63-3.3,8.6-2.7,9.5-8.6,2.2-11.8-15.5-5.6-34.2-3.3-56.9-3.7-23.7.1-44.2-.2-53.3,4-9.9,4.3-5,11.8,7.7,13.5h.9Z"/>
    </clipPath>
  </defs>
  <path id="update-body" class="st4" d="M1284.2,342.7c.7,0,2.4,0,4.3.7,4.7,1.8,7.7,6.3,8.4,9.9,5.7,29.9,6.8,348.4-1.1,372.8-2,6.3-11.3,8.9-22.4,9.9-13.2,1.2-572.8.3-582.6.9-18.4,1.1-21-.5-36.2,0,0,0-5.7.2-13.5-1-3.9-.6-5.7-1.1-7.4-1.9-.8-.4-4.8-2.4-7.6-6.5-3-4.5-3-9.1-3.1-12.1-.1-8.1-1.9-16.1-2.3-24.2-.8-15.7-4.9-328.7.7-336.4,7.1-9.8,8.6-11.5,44.9-11.8,16.4-.2,583.6,0,617.8-.3Z"/>
  <path id="update-now_x5F_button_x5F_fill" class="st2" d="M809.4,565.9c-3.4,0-6.1-.1-8.8-.2-3-.1-6-.3-9.8-.3s-3.9,0-6.3.1h-.7c-1.6,0-5.7,0-11-.9-3.3-.5-4-.8-4.5-1-.2-.1-2.2-1.1-3.5-3-1.2-1.8-1.2-4-1.3-6.2,0-4.9-.5-15.3-.8-25.3-.3-7.8-.5-15.3-.7-19.7,0-1.3.1-1.7.1-1.7,1-.9,6.6-3.6,34.4-3.8,7.6,0,78.8,0,154.1-.1,87.2,0,186.1,0,204.6-.2,0,0,.5,0,.6,0,.7.3,1.3.8,1.7,1.2v10.7c-.1,20.4-.1,27.9-1,46.7-1.7.7-5.4,1.7-13.1,2.4-7.1.6-109.6.6-148.2.6h-101.9c-50.3,0-70,0-72.9.2-4.2.3-7.9.4-11.3.4Z"/>
  <path id="update-now_x5F_button_x5F_body" class="st1" d="M1155.5,493c.7,0,2.4,0,4.3.7,4.7,1.8,8.5,6.3,8.4,10-.1,30.9,0,37-1.1,61.3-.3,6.7-11.3,9-22.5,10-13.2,1.2-313.5.3-323.4.9-18.5,1.1-21.1-.5-36.4,0,0,0-5.7.2-13.6-1-3.9-.6-5.7-1.1-7.4-1.9-.8-.4-4.9-2.4-7.7-6.6-3-4.5-3-9.2-3.1-12.2-.1-8.1-1.2-34.5-1.5-44.6-.3-12.1,8.5-16,44.9-16.3,16.4-.2,324.4,0,358.8-.3Z"/>
  <g id="update-now_x5F_txt">
    <g>
      <path class="st6" d="M832,548.8c-.9,0-1.7-.4-2.4-1.1s-1-1.8-1-3.3.1-1.9.4-3c.3-1.1.8-2.4,1.4-3.7,0-1.1,0-2.1-.2-2.9-.2-.9-.4-1.7-.6-2.6-.3-.9-.6-1.8-.9-2.8-.3-.9-.2-1.5,0-2,.3-.5,1-.7,2-.7s2.1.4,2.8,1.1,1.2,2.1,1.6,4h-1c.9-1.4,1.9-2.5,3-3.5,1.1-1,2.3-1.7,3.7-2.2,1.3-.5,2.7-.8,4.1-.8s2.1.1,2.9.4c.8.3,1.4.7,2,1.2.5.5.9,1.1,1.1,1.8.2.7.4,1.5.4,2.3s-.2,2-.7,2.9c-.5,1-1.2,1.9-2.1,2.7-.9.8-2.1,1.6-3.5,2.3-1.4.7-2.9,1.3-4.7,1.8,1.4.7,2.9,1.4,4.5,1.9,1.6.6,3.2,1.1,4.8,1.5,1.1.3,1.9.5,2.3.9.4.3.6.7.6,1.2,0,.8-.3,1.4-.9,1.8s-1.5.7-2.6.7-1.5-.1-2.6-.4c-1.1-.3-2.2-.6-3.5-1.1-1.3-.5-2.5-1-3.7-1.6-1.2-.6-2.3-1.2-3.4-1.9-1-.7-1.8-1.3-2.4-2-.3-.3-.4-.8-.4-1.3s.1-1,.4-1.4c.3-.4.6-.7,1.1-.8,2.1-.5,3.9-1,5.4-1.6,1.5-.6,2.6-1.3,3.5-1.9.9-.7,1.5-1.3,1.9-1.9.4-.6.6-1.1.6-1.4s0-.7-.3-.9c-.2-.2-.5-.3-1-.3s-.9.1-1.5.3c-.6.2-1.3.6-2.1,1.1-.8.5-1.5,1.2-2.3,2-.8.8-1.5,1.8-2.1,3-.6,1.2-1.1,2.6-1.5,4.2-.4,1.6-.6,3.4-.6,5.5s0,1.1-.3,1.5c-.2.4-.4.7-.8.8s-.8.3-1.3.3Z"/>
      <path class="st6" d="M858.3,531.2c-1.2,0-2.1-.2-2.8-.7-.6-.5-1-1.1-1-1.8s.1-.7.3-1c.2-.3.7-.6,1.4-.8,1.5-.4,3.2-.7,5-.9,1.8-.2,3.5-.4,5.1-.5,1.6-.1,3-.2,4.1-.2,1.6,0,2.8.2,3.4.7.7.5,1,1.1,1,1.9s-.2,1.1-.6,1.5c-.4.4-1,.6-1.8.6-1.6,0-3.1,0-4.5.2-1.5.1-2.8.3-4,.4-1.2.2-2.3.3-3.3.4-.9.1-1.7.2-2.2.2ZM865.5,548.6c-1.8,0-3.3-.2-4.6-.8-1.3-.5-2.4-1.2-3.3-2.1-.9-.9-1.5-1.9-1.9-3.1-.4-1.2-.6-2.5-.6-3.8s0-1.5.2-2.4c.1-.9.3-1.7.6-2.7.2-.9.5-1.8.9-2.7.3-.8.7-1.5,1.4-2,.6-.5,1.3-.7,2.2-.7s.8,0,1.2.2c.3.2.6.4.7.7s.2.6.2,1.1c-.1.6-.4,1.3-.6,2.2-.3.9-.5,1.9-.8,3-.2,1.1-.3,2.2-.3,3.4s.2,1.8.6,2.5c.4.7,1,1.3,1.7,1.7.7.4,1.6.6,2.6.6s1.9,0,2.7-.2c.8-.1,1.4-.3,2-.4.6-.2,1.1-.3,1.5-.4.4-.1.8-.2,1.1-.2.7,0,1.2.2,1.5.5.3.3.5.8.5,1.4,0,.9-.4,1.6-1.1,2.3s-1.8,1.2-3.2,1.5c-1.4.3-3.1.5-5,.5ZM859.5,540.3c-.5.1-1,0-1.3-.1-.3-.2-.5-.5-.6-.9-.1-.4-.2-.8-.2-1.3s.2-1.1.7-1.6c.4-.5,1-.8,1.7-.9.6-.1,1.3-.2,2-.4.7-.1,1.5-.2,2.3-.3.8,0,1.7-.2,2.6-.2.9,0,2-.1,3.1-.2,1,0,1.7.2,2.2.5s.6.8.6,1.4c0,.9-.3,1.6-.9,2.1-.6.5-1.4.8-2.3.8-1.1,0-2.1.1-3,.2-.9,0-1.8.2-2.6.3-.8,0-1.5.2-2.2.3-.7.1-1.3.2-1.9.4Z"/>
      <path class="st6" d="M884.3,548.7c-2.2,0-3.9-.4-5-1.2-1.1-.8-1.7-1.7-1.7-2.8s.1-.9.4-1.2c.3-.3.7-.4,1.2-.4s.7,0,.9.1c.3,0,.6.2.9.3.3.1.7.2,1.1.3.4,0,1,.1,1.6.1.9,0,1.7,0,2.3,0,.7,0,1.2-.2,1.8-.3.5-.1,1-.2,1.6-.4-.2-.4-.6-.8-1.3-1.1-.6-.3-1.4-.7-2.3-1-.9-.3-1.8-.7-2.8-1.1s-1.9-.9-2.7-1.4c-.8-.5-1.5-1.2-2.1-1.9s-.8-1.6-.8-2.7.3-2,1-2.9c.7-.9,1.5-1.7,2.6-2.4s2.3-1.3,3.5-1.8c1.3-.5,2.5-.9,3.7-1.1,1.2-.3,2.2-.4,3.1-.4s1.4.1,1.8.4c.5.2.8.6,1,1,.2.4.3.9.3,1.3s-.1.9-.4,1.3c-.3.4-.8.6-1.4.7-1.9.3-3.6.7-5,1.2-1.4.4-2.6.9-3.4,1.4-.8.5-1.2.9-1.2,1.4s.3.8.9,1.1,1.3.7,2.2,1c.9.3,1.9.7,2.9,1.1s2,.9,2.9,1.4c.9.5,1.7,1.2,2.2,1.9.6.7.9,1.6.9,2.6s-.2,1.8-.7,2.5c-.5.7-1.2,1.3-2.1,1.7-.9.4-2.1.8-3.4,1-1.3.2-2.9.3-4.6.3Z"/>
      <path class="st6" d="M913.2,530.4h-3.5c-1.1,0-2.1,0-3.1,0-1,0-2,0-3-.1-1,0-2-.1-3-.2-1,0-1.8-.2-2.3-.5s-.9-.6-1.2-1-.4-.9-.4-1.5.2-.9.5-1.3c.3-.3.9-.5,1.6-.5s2.1,0,3,0c.9,0,1.8,0,2.6,0,.8,0,1.7,0,2.5,0s1.7,0,2.6,0,1.6,0,2.2,0c.7,0,1.3,0,2-.1.7,0,1.4,0,2.3,0s1.2.2,1.6.5.5.7.5,1.3c0,.8-.2,1.4-.7,1.9-.5.5-1.1.9-1.9,1.1s-1.5.4-2.3.4ZM908,548.8c-.7,0-1.4-.2-2-.7s-1.1-1.3-1.5-2.6c-.2-.8-.4-1.7-.5-2.7-.1-.9-.2-2-.2-3.2s0-2.6.2-4.3c.1-1.7.3-3.6.5-5.9,0-.6.3-1.1.7-1.5.4-.4.9-.6,1.6-.6,1.3,0,2.2.3,2.6.9.5.6.7,1.7.6,3.1-.1,2.3-.2,4.2-.3,5.8,0,1.6,0,2.9,0,3.9,0,1,.1,1.9.2,2.6,0,.7.1,1.2.2,1.7,0,.5.1.9.1,1.3,0,.8-.2,1.4-.6,1.7-.4.3-1,.5-1.8.5Z"/>
      <path class="st6" d="M920.3,542.9c-1.2,0-2-.2-2.5-.6-.5-.4-.8-1-.8-1.6s.2-.8.5-1.1c.3-.3.8-.6,1.5-.8,2.5-.7,5.4-1.2,8.7-1.6,3.3-.4,6.9-.6,11-.6s2.4.2,2.9.6c.5.4.8.9.8,1.6s-.4,1.5-1.1,2c-.7.5-1.7.8-3,.8-1.8,0-3.4,0-5,.1-1.5,0-2.9.2-4.1.4-1.3.1-2.4.3-3.5.4-1,.1-2,.3-2.9.4-.9,0-1.7.1-2.4.1ZM939.5,548.7c-.7,0-1.4-.2-2-.5s-1.1-.9-1.7-1.8c-.5-.7-1-1.7-1.4-2.8s-.7-2.4-1-3.6c-.2-1.3-.4-2.5-.6-3.6-.2-1.4-.3-2.5-.4-3.3-.1-.8-.3-1.4-.4-1.9s-.3-.7-.4-.8c-.2-.1-.3-.2-.6-.2-.6,0-1.2.4-1.8,1.1s-1.3,1.9-1.9,3.3c-.6,1.5-1.2,3.2-1.8,5.2-.5,2-1,4.3-1.4,6.8,0,.7-.3,1.2-.6,1.5-.3.3-.8.5-1.4.5-1,0-1.8-.4-2.4-1.1-.5-.7-.8-1.9-.8-3.6s.1-2.7.3-3.9c.2-1.2.4-2.4.7-3.5.3-1.1.5-2.2.7-3.3.2-1.1.3-2.2.3-3.3,0-.4.1-.7.4-.9.3-.2.7-.4,1.2-.4s1,.1,1.5.3c.5.2,1,.6,1.4,1.2l-2.1.7c1-1.7,2.1-3.1,3.5-4.1s2.9-1.5,4.5-1.5,3,.4,3.9,1.2,1.7,2,2.2,3.6c.5,1.7.9,3.8,1.3,6.5.2,1.6.4,2.9.8,4,.3,1.1.7,2.1,1.1,2.8.4.8.7,1.4.9,2,.2.6.4,1.1.4,1.6s-.2,1-.5,1.4c-.4.3-.9.5-1.6.5Z"/>
      <path class="st6" d="M948.7,548.8c-.9,0-1.7-.4-2.4-1.1s-1-1.8-1-3.3.1-1.9.4-3c.3-1.1.8-2.4,1.4-3.7,0-1.1,0-2.1-.2-2.9-.2-.9-.4-1.7-.6-2.6-.3-.9-.6-1.8-.9-2.8-.3-.9-.2-1.5,0-2,.3-.5,1-.7,2-.7s2.1.4,2.8,1.1,1.2,2.1,1.6,4h-1c1.3-2,2.9-3.6,4.8-4.7,1.9-1.1,3.9-1.7,6-1.7s2.1.1,2.9.4c.8.3,1.4.7,2,1.2.5.5.9,1.1,1.1,1.8.2.7.4,1.5.4,2.3s-.2,2-.7,2.9c-.5,1-1.2,1.9-2.1,2.7-.9.8-2.1,1.6-3.5,2.3-1.4.7-2.9,1.3-4.7,1.8,1.4.7,2.9,1.4,4.5,1.9,1.6.6,3.2,1.1,4.8,1.5,1.1.3,1.9.5,2.3.9.4.3.6.7.6,1.2,0,.8-.3,1.4-.9,1.8s-1.5.7-2.6.7-1.5-.1-2.6-.4c-1.1-.3-2.2-.6-3.5-1.1-1.3-.5-2.5-1-3.7-1.6-1.2-.6-2.3-1.2-3.4-1.9-1-.7-1.8-1.3-2.4-2-.3-.3-.4-.8-.4-1.3s.1-1,.4-1.4c.3-.4.6-.7,1.1-.8,2.1-.5,3.9-1,5.4-1.6,1.5-.6,2.6-1.3,3.5-1.9.9-.7,1.5-1.3,1.9-1.9.4-.6.6-1.1.6-1.4s0-.7-.3-.9c-.2-.2-.5-.3-1-.3s-.9.1-1.5.3c-.6.2-1.3.6-2.1,1.1-.8.5-1.5,1.2-2.3,2-.8.8-1.5,1.8-2.1,3-.6,1.2-1.1,2.6-1.5,4.2-.4,1.6-.6,3.4-.6,5.5s0,1.1-.3,1.5c-.2.4-.4.7-.8.8s-.8.3-1.3.3Z"/>
      <path class="st6" d="M986.1,530.4h-3.5c-1.1,0-2.1,0-3.1,0-1,0-2,0-3-.1-1,0-2-.1-3-.2-1,0-1.8-.2-2.3-.5s-.9-.6-1.2-1-.4-.9-.4-1.5.2-.9.5-1.3c.3-.3.9-.5,1.6-.5s2.1,0,3,0c.9,0,1.8,0,2.6,0,.8,0,1.7,0,2.5,0s1.7,0,2.6,0,1.6,0,2.2,0c.7,0,1.3,0,2-.1.7,0,1.4,0,2.3,0s1.2.2,1.6.5.5.7.5,1.3c0,.8-.2,1.4-.7,1.9-.5.5-1.1.9-1.9,1.1s-1.5.4-2.3.4ZM980.8,548.8c-.7,0-1.4-.2-2-.7s-1.1-1.3-1.5-2.6c-.2-.8-.4-1.7-.5-2.7-.1-.9-.2-2-.2-3.2s0-2.6.2-4.3c.1-1.7.3-3.6.5-5.9,0-.6.3-1.1.7-1.5.4-.4.9-.6,1.6-.6,1.3,0,2.2.3,2.6.9.5.6.7,1.7.6,3.1-.1,2.3-.2,4.2-.3,5.8,0,1.6,0,2.9,0,3.9,0,1,.1,1.9.2,2.6,0,.7.1,1.2.2,1.7,0,.5.1.9.1,1.3,0,.8-.2,1.4-.6,1.7-.4.3-1,.5-1.8.5Z"/>
      <path class="st6" d="M1008.3,548.9c-.9,0-1.5-.2-1.9-.6-.4-.4-.6-.9-.6-1.4s0-.9.1-1.4c0-.4.2-1,.3-1.6.1-.6.2-1.5.3-2.6,0-1.1.1-2.4.1-4.1s0-1.9,0-2.9-.1-2-.2-2.9-.1-1.7-.2-2.4,0-1.2,0-1.4c0-.7.2-1.2.7-1.7.4-.5,1.1-.7,2-.7s2,.2,2.9.7c.9.5,1.7,1.1,2.5,1.9.8.8,1.5,1.7,2.2,2.7.7,1,1.3,2.1,1.9,3.2.6,1.1,1.2,2.2,1.8,3.3.6,1.1,1.2,2.1,1.7,3,.5.9,1.1,1.7,1.7,2.4.6.7,1.1,1.2,1.7,1.4l-3,1.3c.3-.2.6-.4.9-.8.3-.3.6-.7.8-1.3.2-.6.3-1.3.3-2.3s0-2.5-.1-3.7c0-1.2-.2-2.3-.2-3.4s0-2.2,0-3.2c0-1.1.2-2.1.5-3.2.2-.8.5-1.3.9-1.7.4-.3.9-.5,1.4-.5.9,0,1.5.2,2,.6.4.4.7.9.8,1.4.1.5.1,1,0,1.5-.2,1-.4,2-.4,3,0,.9,0,1.8,0,2.7,0,.9,0,1.8.1,2.8,0,1,0,2.1,0,3.3s-.1,3.1-.3,4.3-.7,2.3-1.4,3c-.7.7-1.8,1.1-3.2,1.1s-1.7-.2-2.5-.6c-.7-.4-1.4-.9-2-1.6-.6-.7-1.2-1.5-1.8-2.4-.5-.9-1.1-1.9-1.6-3-.5-1.1-1.1-2.1-1.7-3.3-.6-1.1-1.2-2.2-1.9-3.3-.7-1.1-1.4-2.1-2.3-3.1l1-.2c.1.9.3,1.6.3,2.3,0,.6.1,1.2.1,1.8s0,1.1,0,1.7c0,2,0,3.9-.3,5.6-.2,1.7-.5,3.1-.9,4.3-.2.6-.5,1-.9,1.3-.4.3-1,.5-1.8.5Z"/>
      <path class="st6" d="M1044.4,548.7c-1.6,0-3.1-.2-4.4-.7-1.3-.5-2.5-1.1-3.5-2-1-.9-1.8-1.9-2.3-3.1-.5-1.2-.8-2.5-.8-4s.2-2.5.6-3.6c.4-1.1,1-2.1,1.6-3,.7-.9,1.4-1.7,2.1-2.3.8-.6,1.5-1.1,2.2-1.5s1.2-.5,1.7-.5.9,0,1.3.2c.3.1.6.4.9.8.5.6.6,1.2.4,1.7-.2.5-.6.9-1.2,1.3-1,.7-1.8,1.3-2.4,2-.6.7-1.1,1.4-1.4,2.2-.3.8-.4,1.7-.4,2.7s.2,1.9.7,2.7c.5.8,1.1,1.3,2,1.7.9.4,1.8.6,2.9.6s2.3-.2,3.3-.7c1-.5,1.8-1.1,2.4-1.9.6-.8.9-1.7.9-2.7s-.2-2-.5-3-.7-1.9-1.3-2.7c-.5-.8-1.2-1.5-1.8-2-.7-.5-1.4-.8-2.2-.8s-.5,0-.6.3c-.1.2-.2.4-.2.8,0,.5-.1.8-.4,1.1-.3.2-.6.4-1.1.4s-1.1-.1-1.6-.4c-.5-.3-1-.7-1.3-1.3-.3-.6-.5-1.3-.5-2.1s.2-1.2.6-1.8c.4-.5,1-1,1.7-1.3.8-.3,1.7-.5,2.7-.5,1.8,0,3.4.4,4.9,1.1,1.5.8,2.7,1.8,3.8,3,1.1,1.3,1.9,2.7,2.5,4.3.6,1.6.9,3.2.9,5s-.3,2.8-.9,4c-.6,1.2-1.5,2.3-2.6,3.2-1.1.9-2.4,1.6-3.9,2.1-1.5.5-3,.8-4.7.8Z"/>
      <path class="st6" d="M1084.8,548.8c-.5,0-1.1,0-1.5-.2-.5-.2-.9-.4-1.3-.7-.4-.3-.9-.8-1.3-1.4-.5-.6-.9-1.3-1.3-2.1-.4-.8-.7-1.6-1.1-2.5-.3-.9-.6-1.8-.9-2.7-.3-.9-.6-1.8-.9-2.6-.3-.8-.6-1.6-.9-2.3-.3-.7-.7-1.3-1.1-1.8l1.8.5c-.7.7-1.3,1.6-2,2.6-.6,1-1.2,2-1.7,3.2-.5,1.2-1,2.4-1.4,3.7-.4,1.3-.8,2.7-1.1,4-.2.7-.5,1.2-.9,1.6-.4.3-1.1.5-1.9.5s-.7,0-1.1-.2c-.4-.1-.8-.4-1.2-.8-.4-.4-.8-1-1.1-1.8-.5-1-.9-2.2-1.4-3.3-.4-1.2-.8-2.4-1.2-3.6-.4-1.2-.7-2.5-1-3.8-.3-1.3-.5-2.6-.7-3.8s-.4-2.5-.4-3.7c0-.7.1-1.2.5-1.7.4-.5,1.1-.7,2.2-.7s1.9.3,2.5,1,.9,1.5.9,2.4c0,1,.2,2,.3,3,.1,1,.3,1.9.5,2.9.2.9.4,1.9.7,2.9.3,1,.6,1.9,1,3l-1.2.4c.4-1.6.9-3.1,1.5-4.5.6-1.4,1.2-2.7,1.9-3.9.7-1.2,1.5-2.2,2.3-3.1.6-.7,1.2-1.2,1.9-1.6.7-.4,1.5-.6,2.4-.6s1.4.2,1.9.7c.6.4,1.1,1.2,1.7,2.4.4.7.7,1.6.9,2.6.3,1,.5,2,.9,3.1.3,1.1.7,2.1,1.1,3.1s.9,1.9,1.5,2.7h-1.9c.3-.8.6-1.7.9-2.7s.5-2.1.6-3.2c.2-1.1.4-2.2.6-3.3.2-1.1.4-2,.6-2.9.2-.9.4-1.6.7-2.2.3-.8.7-1.3,1.2-1.6.5-.3,1.1-.5,1.8-.5s1.6.2,2,.7c.5.4.7,1,.8,1.7,0,.7,0,1.4-.3,2.2-.3.9-.6,2-.8,3.1-.2,1.1-.5,2.3-.7,3.6-.2,1.2-.5,2.5-.8,3.8s-.6,2.5-.9,3.6-.7,2.2-1.1,3.2c-.3.7-.7,1.2-1.1,1.4-.4.2-.8.4-1.3.4Z"/>
    </g>
    <g>
      <path class="st8" d="M832,548.8c-.9,0-1.7-.4-2.4-1.1s-1-1.8-1-3.3.1-1.9.4-3c.3-1.1.8-2.4,1.4-3.7,0-1.1,0-2.1-.2-2.9-.2-.9-.4-1.7-.6-2.6-.3-.9-.6-1.8-.9-2.8-.3-.9-.2-1.5,0-2,.3-.5,1-.7,2-.7s2.1.4,2.8,1.1,1.2,2.1,1.6,4h-1c.9-1.4,1.9-2.5,3-3.5,1.1-1,2.3-1.7,3.7-2.2,1.3-.5,2.7-.8,4.1-.8s2.1.1,2.9.4c.8.3,1.4.7,2,1.2.5.5.9,1.1,1.1,1.8.2.7.4,1.5.4,2.3s-.2,2-.7,2.9c-.5,1-1.2,1.9-2.1,2.7-.9.8-2.1,1.6-3.5,2.3-1.4.7-2.9,1.3-4.7,1.8,1.4.7,2.9,1.4,4.5,1.9,1.6.6,3.2,1.1,4.8,1.5,1.1.3,1.9.5,2.3.9.4.3.6.7.6,1.2,0,.8-.3,1.4-.9,1.8s-1.5.7-2.6.7-1.5-.1-2.6-.4c-1.1-.3-2.2-.6-3.5-1.1-1.3-.5-2.5-1-3.7-1.6-1.2-.6-2.3-1.2-3.4-1.9-1-.7-1.8-1.3-2.4-2-.3-.3-.4-.8-.4-1.3s.1-1,.4-1.4c.3-.4.6-.7,1.1-.8,2.1-.5,3.9-1,5.4-1.6,1.5-.6,2.6-1.3,3.5-1.9.9-.7,1.5-1.3,1.9-1.9.4-.6.6-1.1.6-1.4s0-.7-.3-.9c-.2-.2-.5-.3-1-.3s-.9.1-1.5.3c-.6.2-1.3.6-2.1,1.1-.8.5-1.5,1.2-2.3,2-.8.8-1.5,1.8-2.1,3-.6,1.2-1.1,2.6-1.5,4.2-.4,1.6-.6,3.4-.6,5.5s0,1.1-.3,1.5c-.2.4-.4.7-.8.8s-.8.3-1.3.3Z"/>
      <path class="st8" d="M858.3,531.2c-1.2,0-2.1-.2-2.8-.7-.6-.5-1-1.1-1-1.8s.1-.7.3-1c.2-.3.7-.6,1.4-.8,1.5-.4,3.2-.7,5-.9,1.8-.2,3.5-.4,5.1-.5,1.6-.1,3-.2,4.1-.2,1.6,0,2.8.2,3.4.7.7.5,1,1.1,1,1.9s-.2,1.1-.6,1.5c-.4.4-1,.6-1.8.6-1.6,0-3.1,0-4.5.2-1.5.1-2.8.3-4,.4-1.2.2-2.3.3-3.3.4-.9.1-1.7.2-2.2.2ZM865.5,548.6c-1.8,0-3.3-.2-4.6-.8-1.3-.5-2.4-1.2-3.3-2.1-.9-.9-1.5-1.9-1.9-3.1-.4-1.2-.6-2.5-.6-3.8s0-1.5.2-2.4c.1-.9.3-1.7.6-2.7.2-.9.5-1.8.9-2.7.3-.8.7-1.5,1.4-2,.6-.5,1.3-.7,2.2-.7s.8,0,1.2.2c.3.2.6.4.7.7s.2.6.2,1.1c-.1.6-.4,1.3-.6,2.2-.3.9-.5,1.9-.8,3-.2,1.1-.3,2.2-.3,3.4s.2,1.8.6,2.5c.4.7,1,1.3,1.7,1.7.7.4,1.6.6,2.6.6s1.9,0,2.7-.2c.8-.1,1.4-.3,2-.4.6-.2,1.1-.3,1.5-.4.4-.1.8-.2,1.1-.2.7,0,1.2.2,1.5.5.3.3.5.8.5,1.4,0,.9-.4,1.6-1.1,2.3s-1.8,1.2-3.2,1.5c-1.4.3-3.1.5-5,.5ZM859.5,540.3c-.5.1-1,0-1.3-.1-.3-.2-.5-.5-.6-.9-.1-.4-.2-.8-.2-1.3s.2-1.1.7-1.6c.4-.5,1-.8,1.7-.9.6-.1,1.3-.2,2-.4.7-.1,1.5-.2,2.3-.3.8,0,1.7-.2,2.6-.2.9,0,2-.1,3.1-.2,1,0,1.7.2,2.2.5s.6.8.6,1.4c0,.9-.3,1.6-.9,2.1-.6.5-1.4.8-2.3.8-1.1,0-2.1.1-3,.2-.9,0-1.8.2-2.6.3-.8,0-1.5.2-2.2.3-.7.1-1.3.2-1.9.4Z"/>
      <path class="st8" d="M884.3,548.7c-2.2,0-3.9-.4-5-1.2-1.1-.8-1.7-1.7-1.7-2.8s.1-.9.4-1.2c.3-.3.7-.4,1.2-.4s.7,0,.9.1c.3,0,.6.2.9.3.3.1.7.2,1.1.3.4,0,1,.1,1.6.1.9,0,1.7,0,2.3,0,.7,0,1.2-.2,1.8-.3.5-.1,1-.2,1.6-.4-.2-.4-.6-.8-1.3-1.1-.6-.3-1.4-.7-2.3-1-.9-.3-1.8-.7-2.8-1.1s-1.9-.9-2.7-1.4c-.8-.5-1.5-1.2-2.1-1.9s-.8-1.6-.8-2.7.3-2,1-2.9c.7-.9,1.5-1.7,2.6-2.4s2.3-1.3,3.5-1.8c1.3-.5,2.5-.9,3.7-1.1,1.2-.3,2.2-.4,3.1-.4s1.4.1,1.8.4c.5.2.8.6,1,1,.2.4.3.9.3,1.3s-.1.9-.4,1.3c-.3.4-.8.6-1.4.7-1.9.3-3.6.7-5,1.2-1.4.4-2.6.9-3.4,1.4-.8.5-1.2.9-1.2,1.4s.3.8.9,1.1,1.3.7,2.2,1c.9.3,1.9.7,2.9,1.1s2,.9,2.9,1.4c.9.5,1.7,1.2,2.2,1.9.6.7.9,1.6.9,2.6s-.2,1.8-.7,2.5c-.5.7-1.2,1.3-2.1,1.7-.9.4-2.1.8-3.4,1-1.3.2-2.9.3-4.6.3Z"/>
      <path class="st8" d="M913.2,530.4h-3.5c-1.1,0-2.1,0-3.1,0-1,0-2,0-3-.1-1,0-2-.1-3-.2-1,0-1.8-.2-2.3-.5s-.9-.6-1.2-1-.4-.9-.4-1.5.2-.9.5-1.3c.3-.3.9-.5,1.6-.5s2.1,0,3,0c.9,0,1.8,0,2.6,0,.8,0,1.7,0,2.5,0s1.7,0,2.6,0,1.6,0,2.2,0c.7,0,1.3,0,2-.1.7,0,1.4,0,2.3,0s1.2.2,1.6.5.5.7.5,1.3c0,.8-.2,1.4-.7,1.9-.5.5-1.1.9-1.9,1.1s-1.5.4-2.3.4ZM908,548.8c-.7,0-1.4-.2-2-.7s-1.1-1.3-1.5-2.6c-.2-.8-.4-1.7-.5-2.7-.1-.9-.2-2-.2-3.2s0-2.6.2-4.3c.1-1.7.3-3.6.5-5.9,0-.6.3-1.1.7-1.5.4-.4.9-.6,1.6-.6,1.3,0,2.2.3,2.6.9.5.6.7,1.7.6,3.1-.1,2.3-.2,4.2-.3,5.8,0,1.6,0,2.9,0,3.9,0,1,.1,1.9.2,2.6,0,.7.1,1.2.2,1.7,0,.5.1.9.1,1.3,0,.8-.2,1.4-.6,1.7-.4.3-1,.5-1.8.5Z"/>
      <path class="st8" d="M920.3,542.9c-1.2,0-2-.2-2.5-.6-.5-.4-.8-1-.8-1.6s.2-.8.5-1.1c.3-.3.8-.6,1.5-.8,2.5-.7,5.4-1.2,8.7-1.6,3.3-.4,6.9-.6,11-.6s2.4.2,2.9.6c.5.4.8.9.8,1.6s-.4,1.5-1.1,2c-.7.5-1.7.8-3,.8-1.8,0-3.4,0-5,.1-1.5,0-2.9.2-4.1.4-1.3.1-2.4.3-3.5.4-1,.1-2,.3-2.9.4-.9,0-1.7.1-2.4.1ZM939.5,548.7c-.7,0-1.4-.2-2-.5s-1.1-.9-1.7-1.8c-.5-.7-1-1.7-1.4-2.8s-.7-2.4-1-3.6c-.2-1.3-.4-2.5-.6-3.6-.2-1.4-.3-2.5-.4-3.3-.1-.8-.3-1.4-.4-1.9s-.3-.7-.4-.8c-.2-.1-.3-.2-.6-.2-.6,0-1.2.4-1.8,1.1s-1.3,1.9-1.9,3.3c-.6,1.5-1.2,3.2-1.8,5.2-.5,2-1,4.3-1.4,6.8,0,.7-.3,1.2-.6,1.5-.3.3-.8.5-1.4.5-1,0-1.8-.4-2.4-1.1-.5-.7-.8-1.9-.8-3.6s.1-2.7.3-3.9c.2-1.2.4-2.4.7-3.5.3-1.1.5-2.2.7-3.3.2-1.1.3-2.2.3-3.3,0-.4.1-.7.4-.9.3-.2.7-.4,1.2-.4s1,.1,1.5.3c.5.2,1,.6,1.4,1.2l-2.1.7c1-1.7,2.1-3.1,3.5-4.1s2.9-1.5,4.5-1.5,3,.4,3.9,1.2,1.7,2,2.2,3.6c.5,1.7.9,3.8,1.3,6.5.2,1.6.4,2.9.8,4,.3,1.1.7,2.1,1.1,2.8.4.8.7,1.4.9,2,.2.6.4,1.1.4,1.6s-.2,1-.5,1.4c-.4.3-.9.5-1.6.5Z"/>
      <path class="st8" d="M948.7,548.8c-.9,0-1.7-.4-2.4-1.1s-1-1.8-1-3.3.1-1.9.4-3c.3-1.1.8-2.4,1.4-3.7,0-1.1,0-2.1-.2-2.9-.2-.9-.4-1.7-.6-2.6-.3-.9-.6-1.8-.9-2.8-.3-.9-.2-1.5,0-2,.3-.5,1-.7,2-.7s2.1.4,2.8,1.1,1.2,2.1,1.6,4h-1c1.3-2,2.9-3.6,4.8-4.7,1.9-1.1,3.9-1.7,6-1.7s2.1.1,2.9.4c.8.3,1.4.7,2,1.2.5.5.9,1.1,1.1,1.8.2.7.4,1.5.4,2.3s-.2,2-.7,2.9c-.5,1-1.2,1.9-2.1,2.7-.9.8-2.1,1.6-3.5,2.3-1.4.7-2.9,1.3-4.7,1.8,1.4.7,2.9,1.4,4.5,1.9,1.6.6,3.2,1.1,4.8,1.5,1.1.3,1.9.5,2.3.9.4.3.6.7.6,1.2,0,.8-.3,1.4-.9,1.8s-1.5.7-2.6.7-1.5-.1-2.6-.4c-1.1-.3-2.2-.6-3.5-1.1-1.3-.5-2.5-1-3.7-1.6-1.2-.6-2.3-1.2-3.4-1.9-1-.7-1.8-1.3-2.4-2-.3-.3-.4-.8-.4-1.3s.1-1,.4-1.4c.3-.4.6-.7,1.1-.8,2.1-.5,3.9-1,5.4-1.6,1.5-.6,2.6-1.3,3.5-1.9.9-.7,1.5-1.3,1.9-1.9.4-.6.6-1.1.6-1.4s0-.7-.3-.9c-.2-.2-.5-.3-1-.3s-.9.1-1.5.3c-.6.2-1.3.6-2.1,1.1-.8.5-1.5,1.2-2.3,2-.8.8-1.5,1.8-2.1,3-.6,1.2-1.1,2.6-1.5,4.2-.4,1.6-.6,3.4-.6,5.5s0,1.1-.3,1.5c-.2.4-.4.7-.8.8s-.8.3-1.3.3Z"/>
      <path class="st8" d="M986.1,530.4h-3.5c-1.1,0-2.1,0-3.1,0-1,0-2,0-3-.1-1,0-2-.1-3-.2-1,0-1.8-.2-2.3-.5s-.9-.6-1.2-1-.4-.9-.4-1.5.2-.9.5-1.3c.3-.3.9-.5,1.6-.5s2.1,0,3,0c.9,0,1.8,0,2.6,0,.8,0,1.7,0,2.5,0s1.7,0,2.6,0,1.6,0,2.2,0c.7,0,1.3,0,2-.1.7,0,1.4,0,2.3,0s1.2.2,1.6.5.5.7.5,1.3c0,.8-.2,1.4-.7,1.9-.5.5-1.1.9-1.9,1.1s-1.5.4-2.3.4ZM980.8,548.8c-.7,0-1.4-.2-2-.7s-1.1-1.3-1.5-2.6c-.2-.8-.4-1.7-.5-2.7-.1-.9-.2-2-.2-3.2s0-2.6.2-4.3c.1-1.7.3-3.6.5-5.9,0-.6.3-1.1.7-1.5.4-.4.9-.6,1.6-.6,1.3,0,2.2.3,2.6.9.5.6.7,1.7.6,3.1-.1,2.3-.2,4.2-.3,5.8,0,1.6,0,2.9,0,3.9,0,1,.1,1.9.2,2.6,0,.7.1,1.2.2,1.7,0,.5.1.9.1,1.3,0,.8-.2,1.4-.6,1.7-.4.3-1,.5-1.8.5Z"/>
      <path class="st8" d="M1008.3,548.9c-.9,0-1.5-.2-1.9-.6-.4-.4-.6-.9-.6-1.4s0-.9.1-1.4c0-.4.2-1,.3-1.6.1-.6.2-1.5.3-2.6,0-1.1.1-2.4.1-4.1s0-1.9,0-2.9-.1-2-.2-2.9-.1-1.7-.2-2.4,0-1.2,0-1.4c0-.7.2-1.2.7-1.7.4-.5,1.1-.7,2-.7s2,.2,2.9.7c.9.5,1.7,1.1,2.5,1.9.8.8,1.5,1.7,2.2,2.7.7,1,1.3,2.1,1.9,3.2.6,1.1,1.2,2.2,1.8,3.3.6,1.1,1.2,2.1,1.7,3,.5.9,1.1,1.7,1.7,2.4.6.7,1.1,1.2,1.7,1.4l-3,1.3c.3-.2.6-.4.9-.8.3-.3.6-.7.8-1.3.2-.6.3-1.3.3-2.3s0-2.5-.1-3.7c0-1.2-.2-2.3-.2-3.4s0-2.2,0-3.2c0-1.1.2-2.1.5-3.2.2-.8.5-1.3.9-1.7.4-.3.9-.5,1.4-.5.9,0,1.5.2,2,.6.4.4.7.9.8,1.4.1.5.1,1,0,1.5-.2,1-.4,2-.4,3,0,.9,0,1.8,0,2.7,0,.9,0,1.8.1,2.8,0,1,0,2.1,0,3.3s-.1,3.1-.3,4.3-.7,2.3-1.4,3c-.7.7-1.8,1.1-3.2,1.1s-1.7-.2-2.5-.6c-.7-.4-1.4-.9-2-1.6-.6-.7-1.2-1.5-1.8-2.4-.5-.9-1.1-1.9-1.6-3-.5-1.1-1.1-2.1-1.7-3.3-.6-1.1-1.2-2.2-1.9-3.3-.7-1.1-1.4-2.1-2.3-3.1l1-.2c.1.9.3,1.6.3,2.3,0,.6.1,1.2.1,1.8s0,1.1,0,1.7c0,2,0,3.9-.3,5.6-.2,1.7-.5,3.1-.9,4.3-.2.6-.5,1-.9,1.3-.4.3-1,.5-1.8.5Z"/>
      <path class="st8" d="M1044.4,548.7c-1.6,0-3.1-.2-4.4-.7-1.3-.5-2.5-1.1-3.5-2-1-.9-1.8-1.9-2.3-3.1-.5-1.2-.8-2.5-.8-4s.2-2.5.6-3.6c.4-1.1,1-2.1,1.6-3,.7-.9,1.4-1.7,2.1-2.3.8-.6,1.5-1.1,2.2-1.5s1.2-.5,1.7-.5.9,0,1.3.2c.3.1.6.4.9.8.5.6.6,1.2.4,1.7-.2.5-.6.9-1.2,1.3-1,.7-1.8,1.3-2.4,2-.6.7-1.1,1.4-1.4,2.2-.3.8-.4,1.7-.4,2.7s.2,1.9.7,2.7c.5.8,1.1,1.3,2,1.7.9.4,1.8.6,2.9.6s2.3-.2,3.3-.7c1-.5,1.8-1.1,2.4-1.9.6-.8.9-1.7.9-2.7s-.2-2-.5-3-.7-1.9-1.3-2.7c-.5-.8-1.2-1.5-1.8-2-.7-.5-1.4-.8-2.2-.8s-.5,0-.6.3c-.1.2-.2.4-.2.8,0,.5-.1.8-.4,1.1-.3.2-.6.4-1.1.4s-1.1-.1-1.6-.4c-.5-.3-1-.7-1.3-1.3-.3-.6-.5-1.3-.5-2.1s.2-1.2.6-1.8c.4-.5,1-1,1.7-1.3.8-.3,1.7-.5,2.7-.5,1.8,0,3.4.4,4.9,1.1,1.5.8,2.7,1.8,3.8,3,1.1,1.3,1.9,2.7,2.5,4.3.6,1.6.9,3.2.9,5s-.3,2.8-.9,4c-.6,1.2-1.5,2.3-2.6,3.2-1.1.9-2.4,1.6-3.9,2.1-1.5.5-3,.8-4.7.8Z"/>
      <path class="st8" d="M1084.8,548.8c-.5,0-1.1,0-1.5-.2-.5-.2-.9-.4-1.3-.7-.4-.3-.9-.8-1.3-1.4-.5-.6-.9-1.3-1.3-2.1-.4-.8-.7-1.6-1.1-2.5-.3-.9-.6-1.8-.9-2.7-.3-.9-.6-1.8-.9-2.6-.3-.8-.6-1.6-.9-2.3-.3-.7-.7-1.3-1.1-1.8l1.8.5c-.7.7-1.3,1.6-2,2.6-.6,1-1.2,2-1.7,3.2-.5,1.2-1,2.4-1.4,3.7-.4,1.3-.8,2.7-1.1,4-.2.7-.5,1.2-.9,1.6-.4.3-1.1.5-1.9.5s-.7,0-1.1-.2c-.4-.1-.8-.4-1.2-.8-.4-.4-.8-1-1.1-1.8-.5-1-.9-2.2-1.4-3.3-.4-1.2-.8-2.4-1.2-3.6-.4-1.2-.7-2.5-1-3.8-.3-1.3-.5-2.6-.7-3.8s-.4-2.5-.4-3.7c0-.7.1-1.2.5-1.7.4-.5,1.1-.7,2.2-.7s1.9.3,2.5,1,.9,1.5.9,2.4c0,1,.2,2,.3,3,.1,1,.3,1.9.5,2.9.2.9.4,1.9.7,2.9.3,1,.6,1.9,1,3l-1.2.4c.4-1.6.9-3.1,1.5-4.5.6-1.4,1.2-2.7,1.9-3.9.7-1.2,1.5-2.2,2.3-3.1.6-.7,1.2-1.2,1.9-1.6.7-.4,1.5-.6,2.4-.6s1.4.2,1.9.7c.6.4,1.1,1.2,1.7,2.4.4.7.7,1.6.9,2.6.3,1,.5,2,.9,3.1.3,1.1.7,2.1,1.1,3.1s.9,1.9,1.5,2.7h-1.9c.3-.8.6-1.7.9-2.7s.5-2.1.6-3.2c.2-1.1.4-2.2.6-3.3.2-1.1.4-2,.6-2.9.2-.9.4-1.6.7-2.2.3-.8.7-1.3,1.2-1.6.5-.3,1.1-.5,1.8-.5s1.6.2,2,.7c.5.4.7,1,.8,1.7,0,.7,0,1.4-.3,2.2-.3.9-.6,2-.8,3.1-.2,1.1-.5,2.3-.7,3.6-.2,1.2-.5,2.5-.8,3.8s-.6,2.5-.9,3.6-.7,2.2-1.1,3.2c-.3.7-.7,1.2-1.1,1.4-.4.2-.8.4-1.3.4Z"/>
    </g>
  </g>
  <path id="update-later_x5F_button_x5F_body" class="st1" d="M1155.5,591.6c.7,0,2.4,0,4.3.7,4.7,1.8,8.5,6.3,8.4,10-.1,30.9,0,37-1.1,61.3-.3,6.7-11.3,9-22.5,10-13.2,1.2-313.5.3-323.4.9-18.5,1.1-21.1-.5-36.4,0,0,0-5.7.2-13.6-1-3.9-.6-5.7-1.1-7.4-1.9-.8-.4-4.9-2.4-7.7-6.6-3-4.5-3-9.2-3.1-12.2-.1-8.1-1.2-34.5-1.5-44.6-.3-12.1,8.5-16,44.9-16.3,16.4-.2,324.4,0,358.8-.3Z"/>
  <g id="update-later_x5F_txt">
    <g>
      <path class="st6" d="M819.1,647.4c-.9,0-1.7-.4-2.4-1.1s-1-1.8-1-3.3.1-1.9.4-3c.3-1.1.8-2.4,1.4-3.7,0-1.1,0-2.1-.2-2.9-.2-.9-.4-1.7-.6-2.6-.3-.9-.6-1.8-.9-2.8-.3-.9-.2-1.5,0-2,.3-.5,1-.7,2-.7s2.1.4,2.8,1.1,1.2,2.1,1.6,4h-1c.9-1.4,1.9-2.5,3-3.5,1.1-1,2.3-1.7,3.7-2.2,1.3-.5,2.7-.8,4.1-.8s2.1.1,2.9.4c.8.3,1.4.7,2,1.2.5.5.9,1.1,1.1,1.8.2.7.4,1.5.4,2.3s-.2,2-.7,2.9c-.5,1-1.2,1.9-2.1,2.7-.9.8-2.1,1.6-3.5,2.3-1.4.7-2.9,1.3-4.7,1.8,1.4.7,2.9,1.4,4.5,1.9,1.6.6,3.2,1.1,4.8,1.5,1.1.3,1.9.5,2.3.9.4.3.6.7.6,1.2,0,.8-.3,1.4-.9,1.8s-1.5.7-2.6.7-1.5-.1-2.6-.4c-1.1-.3-2.2-.6-3.5-1.1-1.3-.5-2.5-1-3.7-1.6-1.2-.6-2.3-1.2-3.4-1.9-1-.7-1.8-1.3-2.4-2-.3-.3-.4-.8-.4-1.3s.1-1,.4-1.4c.3-.4.6-.7,1.1-.8,2.1-.5,3.9-1,5.4-1.6,1.5-.6,2.6-1.3,3.5-1.9.9-.7,1.5-1.3,1.9-1.9.4-.6.6-1.1.6-1.4s0-.7-.3-.9c-.2-.2-.5-.3-1-.3s-.9.1-1.5.3c-.6.2-1.3.6-2.1,1.1-.8.5-1.5,1.2-2.3,2-.8.8-1.5,1.8-2.1,3-.6,1.2-1.1,2.6-1.5,4.2-.4,1.6-.6,3.4-.6,5.5s0,1.1-.3,1.5c-.2.4-.4.7-.8.8s-.8.3-1.3.3Z"/>
      <path class="st6" d="M845.4,629.7c-1.2,0-2.1-.2-2.8-.7-.6-.5-1-1.1-1-1.8s.1-.7.3-1c.2-.3.7-.6,1.4-.8,1.5-.4,3.2-.7,5-.9,1.8-.2,3.5-.4,5.1-.5,1.6-.1,3-.2,4.1-.2,1.6,0,2.8.2,3.4.7.7.5,1,1.1,1,1.9s-.2,1.1-.6,1.5c-.4.4-1,.6-1.8.6-1.6,0-3.1,0-4.5.2-1.5.1-2.8.3-4,.4-1.2.2-2.3.3-3.3.4-.9.1-1.7.2-2.2.2ZM852.5,647.2c-1.8,0-3.3-.2-4.6-.8-1.3-.5-2.4-1.2-3.3-2.1-.9-.9-1.5-1.9-1.9-3.1-.4-1.2-.6-2.5-.6-3.8s0-1.5.2-2.4c.1-.9.3-1.7.6-2.7.2-.9.5-1.8.9-2.7.3-.8.7-1.5,1.4-2,.6-.5,1.3-.7,2.2-.7s.8,0,1.2.2c.3.2.6.4.7.7s.2.6.2,1.1c-.1.6-.4,1.3-.6,2.2-.3.9-.5,1.9-.8,3-.2,1.1-.3,2.2-.3,3.4s.2,1.8.6,2.5c.4.7,1,1.3,1.7,1.7.7.4,1.6.6,2.6.6s1.9,0,2.7-.2c.8-.1,1.4-.3,2-.4.6-.2,1.1-.3,1.5-.4.4-.1.8-.2,1.1-.2.7,0,1.2.2,1.5.5.3.3.5.8.5,1.4,0,.9-.4,1.6-1.1,2.3s-1.8,1.2-3.2,1.5c-1.4.3-3.1.5-5,.5ZM846.5,638.8c-.5.1-1,0-1.3-.1-.3-.2-.5-.5-.6-.9-.1-.4-.2-.8-.2-1.3s.2-1.1.7-1.6c.4-.5,1-.8,1.7-.9.6-.1,1.3-.2,2-.4.7-.1,1.5-.2,2.3-.3.8,0,1.7-.2,2.6-.2.9,0,2-.1,3.1-.2,1,0,1.7.2,2.2.5s.6.8.6,1.4c0,.9-.3,1.6-.9,2.1-.6.5-1.4.8-2.3.8-1.1,0-2.1.1-3,.2-.9,0-1.8.2-2.6.3-.8,0-1.5.2-2.2.3-.7.1-1.3.2-1.9.4Z"/>
      <path class="st6" d="M871.3,647.3c-2.2,0-3.9-.4-5-1.2-1.1-.8-1.7-1.7-1.7-2.8s.1-.9.4-1.2c.3-.3.7-.4,1.2-.4s.7,0,.9.1c.3,0,.6.2.9.3.3.1.7.2,1.1.3.4,0,1,.1,1.6.1.9,0,1.7,0,2.3,0,.7,0,1.2-.2,1.8-.3.5-.1,1-.2,1.6-.4-.2-.4-.6-.8-1.3-1.1-.6-.3-1.4-.7-2.3-1-.9-.3-1.8-.7-2.8-1.1s-1.9-.9-2.7-1.4c-.8-.5-1.5-1.2-2.1-1.9s-.8-1.6-.8-2.7.3-2,1-2.9c.7-.9,1.5-1.7,2.6-2.4s2.3-1.3,3.5-1.8c1.3-.5,2.5-.9,3.7-1.1,1.2-.3,2.2-.4,3.1-.4s1.4.1,1.8.4c.5.2.8.6,1,1,.2.4.3.9.3,1.3s-.1.9-.4,1.3c-.3.4-.8.6-1.4.7-1.9.3-3.6.7-5,1.2-1.4.4-2.6.9-3.4,1.4-.8.5-1.2.9-1.2,1.4s.3.8.9,1.1,1.3.7,2.2,1c.9.3,1.9.7,2.9,1.1s2,.9,2.9,1.4c.9.5,1.7,1.2,2.2,1.9.6.7.9,1.6.9,2.6s-.2,1.8-.7,2.5c-.5.7-1.2,1.3-2.1,1.7-.9.4-2.1.8-3.4,1-1.3.2-2.9.3-4.6.3Z"/>
      <path class="st6" d="M900.3,629h-3.5c-1.1,0-2.1,0-3.1,0-1,0-2,0-3-.1-1,0-2-.1-3-.2-1,0-1.8-.2-2.3-.5s-.9-.6-1.2-1-.4-.9-.4-1.5.2-.9.5-1.3c.3-.3.9-.5,1.6-.5s2.1,0,3,0c.9,0,1.8,0,2.6,0,.8,0,1.7,0,2.5,0s1.7,0,2.6,0,1.6,0,2.2,0c.7,0,1.3,0,2-.1.7,0,1.4,0,2.3,0s1.2.2,1.6.5.5.7.5,1.3c0,.8-.2,1.4-.7,1.9-.5.5-1.1.9-1.9,1.1s-1.5.4-2.3.4ZM895,647.4c-.7,0-1.4-.2-2-.7s-1.1-1.3-1.5-2.6c-.2-.8-.4-1.7-.5-2.7-.1-.9-.2-2-.2-3.2s0-2.6.2-4.3c.1-1.7.3-3.6.5-5.9,0-.6.3-1.1.7-1.5.4-.4.9-.6,1.6-.6,1.3,0,2.2.3,2.6.9.5.6.7,1.7.6,3.1-.1,2.3-.2,4.2-.3,5.8,0,1.6,0,2.9,0,3.9,0,1,.1,1.9.2,2.6,0,.7.1,1.2.2,1.7,0,.5.1.9.1,1.3,0,.8-.2,1.4-.6,1.7-.4.3-1,.5-1.8.5Z"/>
      <path class="st6" d="M907.4,641.5c-1.2,0-2-.2-2.5-.6-.5-.4-.8-1-.8-1.6s.2-.8.5-1.1c.3-.3.8-.6,1.5-.8,2.5-.7,5.4-1.2,8.7-1.6,3.3-.4,6.9-.6,11-.6s2.4.2,2.9.6c.5.4.8.9.8,1.6s-.4,1.5-1.1,2c-.7.5-1.7.8-3,.8-1.8,0-3.4,0-5,.1-1.5,0-2.9.2-4.1.4-1.3.1-2.4.3-3.5.4-1,.1-2,.3-2.9.4-.9,0-1.7.1-2.4.1ZM926.6,647.3c-.7,0-1.4-.2-2-.5s-1.1-.9-1.7-1.8c-.5-.7-1-1.7-1.4-2.8s-.7-2.4-1-3.6c-.2-1.3-.4-2.5-.6-3.6-.2-1.4-.3-2.5-.4-3.3-.1-.8-.3-1.4-.4-1.9s-.3-.7-.4-.8c-.2-.1-.3-.2-.6-.2-.6,0-1.2.4-1.8,1.1s-1.3,1.9-1.9,3.3c-.6,1.5-1.2,3.2-1.8,5.2-.5,2-1,4.3-1.4,6.8,0,.7-.3,1.2-.6,1.5-.3.3-.8.5-1.4.5-1,0-1.8-.4-2.4-1.1-.5-.7-.8-1.9-.8-3.6s.1-2.7.3-3.9c.2-1.2.4-2.4.7-3.5.3-1.1.5-2.2.7-3.3.2-1.1.3-2.2.3-3.3,0-.4.1-.7.4-.9.3-.2.7-.4,1.2-.4s1,.1,1.5.3c.5.2,1,.6,1.4,1.2l-2.1.7c1-1.7,2.1-3.1,3.5-4.1s2.9-1.5,4.5-1.5,3,.4,3.9,1.2,1.7,2,2.2,3.6c.5,1.7.9,3.8,1.3,6.5.2,1.6.4,2.9.8,4,.3,1.1.7,2.1,1.1,2.8.4.8.7,1.4.9,2,.2.6.4,1.1.4,1.6s-.2,1-.5,1.4c-.4.3-.9.5-1.6.5Z"/>
      <path class="st6" d="M935.7,647.4c-.9,0-1.7-.4-2.4-1.1s-1-1.8-1-3.3.1-1.9.4-3c.3-1.1.8-2.4,1.4-3.7,0-1.1,0-2.1-.2-2.9-.2-.9-.4-1.7-.6-2.6-.3-.9-.6-1.8-.9-2.8-.3-.9-.2-1.5,0-2,.3-.5,1-.7,2-.7s2.1.4,2.8,1.1,1.2,2.1,1.6,4h-1c1.3-2,2.9-3.6,4.8-4.7,1.9-1.1,3.9-1.7,6-1.7s2.1.1,2.9.4c.8.3,1.4.7,2,1.2.5.5.9,1.1,1.1,1.8.2.7.4,1.5.4,2.3s-.2,2-.7,2.9c-.5,1-1.2,1.9-2.1,2.7-.9.8-2.1,1.6-3.5,2.3-1.4.7-2.9,1.3-4.7,1.8,1.4.7,2.9,1.4,4.5,1.9,1.6.6,3.2,1.1,4.8,1.5,1.1.3,1.9.5,2.3.9.4.3.6.7.6,1.2,0,.8-.3,1.4-.9,1.8s-1.5.7-2.6.7-1.5-.1-2.6-.4c-1.1-.3-2.2-.6-3.5-1.1-1.3-.5-2.5-1-3.7-1.6-1.2-.6-2.3-1.2-3.4-1.9-1-.7-1.8-1.3-2.4-2-.3-.3-.4-.8-.4-1.3s.1-1,.4-1.4c.3-.4.6-.7,1.1-.8,2.1-.5,3.9-1,5.4-1.6,1.5-.6,2.6-1.3,3.5-1.9.9-.7,1.5-1.3,1.9-1.9.4-.6.6-1.1.6-1.4s0-.7-.3-.9c-.2-.2-.5-.3-1-.3s-.9.1-1.5.3c-.6.2-1.3.6-2.1,1.1-.8.5-1.5,1.2-2.3,2-.8.8-1.5,1.8-2.1,3-.6,1.2-1.1,2.6-1.5,4.2-.4,1.6-.6,3.4-.6,5.5s0,1.1-.3,1.5c-.2.4-.4.7-.8.8s-.8.3-1.3.3Z"/>
      <path class="st6" d="M973.1,629h-3.5c-1.1,0-2.1,0-3.1,0-1,0-2,0-3-.1-1,0-2-.1-3-.2-1,0-1.8-.2-2.3-.5s-.9-.6-1.2-1-.4-.9-.4-1.5.2-.9.5-1.3c.3-.3.9-.5,1.6-.5s2.1,0,3,0c.9,0,1.8,0,2.6,0,.8,0,1.7,0,2.5,0s1.7,0,2.6,0,1.6,0,2.2,0c.7,0,1.3,0,2-.1.7,0,1.4,0,2.3,0s1.2.2,1.6.5.5.7.5,1.3c0,.8-.2,1.4-.7,1.9-.5.5-1.1.9-1.9,1.1s-1.5.4-2.3.4ZM967.9,647.4c-.7,0-1.4-.2-2-.7s-1.1-1.3-1.5-2.6c-.2-.8-.4-1.7-.5-2.7-.1-.9-.2-2-.2-3.2s0-2.6.2-4.3c.1-1.7.3-3.6.5-5.9,0-.6.3-1.1.7-1.5.4-.4.9-.6,1.6-.6,1.3,0,2.2.3,2.6.9.5.6.7,1.7.6,3.1-.1,2.3-.2,4.2-.3,5.8,0,1.6,0,2.9,0,3.9,0,1,.1,1.9.2,2.6,0,.7.1,1.2.2,1.7,0,.5.1.9.1,1.3,0,.8-.2,1.4-.6,1.7-.4.3-1,.5-1.8.5Z"/>
      <path class="st6" d="M1001.1,647.3c-2.9,0-5-.7-6.5-2.1-1.5-1.4-2.2-3.5-2.2-6.3s.1-3.2.4-4.6c.3-1.4.6-2.8.9-4.2.3-1.3.4-2.6.4-3.7s.2-1.3.6-1.8c.4-.5,1-.7,1.9-.7s1.3.2,1.8.5c.5.3.8.8,1.1,1.3.2.5.4,1.1.4,1.6,0,1.1-.1,2.2-.3,3.4-.2,1.1-.4,2.2-.7,3.3-.3,1.1-.5,2-.7,2.9-.2.9-.3,1.7-.3,2.4,0,1,.3,1.8.8,2.3.5.5,1.4.8,2.6.8s1.8,0,2.4-.3c.6-.2,1.1-.4,1.5-.6.4-.2.8-.4,1.2-.6.4-.2.8-.3,1.3-.3s.9.2,1.3.6c.3.4.5.9.5,1.4s-.1,1.2-.4,1.7c-.2.5-.7,1-1.2,1.4-.8.6-1.9,1-3.1,1.2-1.2.3-2.4.4-3.6.4Z"/>
      <path class="st6" d="M1014.2,641.5c-1.2,0-2-.2-2.5-.6-.5-.4-.8-1-.8-1.6s.2-.8.5-1.1c.3-.3.8-.6,1.5-.8,2.5-.7,5.4-1.2,8.7-1.6,3.3-.4,6.9-.6,11-.6s2.4.2,2.9.6c.5.4.8.9.8,1.6s-.4,1.5-1.1,2c-.7.5-1.7.8-3,.8-1.8,0-3.4,0-5,.1-1.5,0-2.9.2-4.1.4-1.3.1-2.4.3-3.5.4-1,.1-2,.3-2.9.4-.9,0-1.7.1-2.4.1ZM1033.4,647.3c-.7,0-1.4-.2-2-.5s-1.1-.9-1.7-1.8c-.5-.7-1-1.7-1.4-2.8s-.7-2.4-1-3.6c-.2-1.3-.4-2.5-.6-3.6-.2-1.4-.3-2.5-.4-3.3-.1-.8-.3-1.4-.4-1.9s-.3-.7-.4-.8c-.2-.1-.3-.2-.6-.2-.6,0-1.2.4-1.8,1.1s-1.3,1.9-1.9,3.3c-.6,1.5-1.2,3.2-1.8,5.2-.5,2-1,4.3-1.4,6.8,0,.7-.3,1.2-.6,1.5-.3.3-.8.5-1.4.5-1,0-1.8-.4-2.4-1.1-.5-.7-.8-1.9-.8-3.6s.1-2.7.3-3.9c.2-1.2.4-2.4.7-3.5.3-1.1.5-2.2.7-3.3.2-1.1.3-2.2.3-3.3,0-.4.1-.7.4-.9.3-.2.7-.4,1.2-.4s1,.1,1.5.3c.5.2,1,.6,1.4,1.2l-2.1.7c1-1.7,2.1-3.1,3.5-4.1s2.9-1.5,4.5-1.5,3,.4,3.9,1.2,1.7,2,2.2,3.6c.5,1.7.9,3.8,1.3,6.5.2,1.6.4,2.9.8,4,.3,1.1.7,2.1,1.1,2.8.4.8.7,1.4.9,2,.2.6.4,1.1.4,1.6s-.2,1-.5,1.4c-.4.3-.9.5-1.6.5Z"/>
      <path class="st6" d="M1051.4,629h-3.5c-1.1,0-2.1,0-3.1,0-1,0-2,0-3-.1-1,0-2-.1-3-.2-1,0-1.8-.2-2.3-.5s-.9-.6-1.2-1-.4-.9-.4-1.5.2-.9.5-1.3c.3-.3.9-.5,1.6-.5s2.1,0,3,0c.9,0,1.8,0,2.6,0,.8,0,1.7,0,2.5,0s1.7,0,2.6,0,1.6,0,2.2,0c.7,0,1.3,0,2-.1.7,0,1.4,0,2.3,0s1.2.2,1.6.5.5.7.5,1.3c0,.8-.2,1.4-.7,1.9-.5.5-1.1.9-1.9,1.1s-1.5.4-2.3.4ZM1046.2,647.4c-.7,0-1.4-.2-2-.7s-1.1-1.3-1.5-2.6c-.2-.8-.4-1.7-.5-2.7-.1-.9-.2-2-.2-3.2s0-2.6.2-4.3c.1-1.7.3-3.6.5-5.9,0-.6.3-1.1.7-1.5.4-.4.9-.6,1.6-.6,1.3,0,2.2.3,2.6.9.5.6.7,1.7.6,3.1-.1,2.3-.2,4.2-.3,5.8,0,1.6,0,2.9,0,3.9,0,1,.1,1.9.2,2.6,0,.7.1,1.2.2,1.7,0,.5.1.9.1,1.3,0,.8-.2,1.4-.6,1.7-.4.3-1,.5-1.8.5Z"/>
      <path class="st6" d="M1061.8,629.7c-1.2,0-2.1-.2-2.8-.7-.6-.5-1-1.1-1-1.8s.1-.7.3-1c.2-.3.7-.6,1.4-.8,1.5-.4,3.2-.7,5-.9,1.8-.2,3.5-.4,5.1-.5,1.6-.1,3-.2,4.1-.2,1.6,0,2.8.2,3.4.7.7.5,1,1.1,1,1.9s-.2,1.1-.6,1.5c-.4.4-1,.6-1.8.6-1.6,0-3.1,0-4.5.2-1.5.1-2.8.3-4,.4-1.2.2-2.3.3-3.3.4-.9.1-1.7.2-2.2.2ZM1068.9,647.2c-1.8,0-3.3-.2-4.6-.8-1.3-.5-2.4-1.2-3.3-2.1-.9-.9-1.5-1.9-1.9-3.1-.4-1.2-.6-2.5-.6-3.8s0-1.5.2-2.4c.1-.9.3-1.7.6-2.7.2-.9.5-1.8.9-2.7.3-.8.7-1.5,1.4-2,.6-.5,1.3-.7,2.2-.7s.8,0,1.2.2c.3.2.6.4.7.7s.2.6.2,1.1c-.1.6-.4,1.3-.6,2.2-.3.9-.5,1.9-.8,3-.2,1.1-.3,2.2-.3,3.4s.2,1.8.6,2.5c.4.7,1,1.3,1.7,1.7.7.4,1.6.6,2.6.6s1.9,0,2.7-.2c.8-.1,1.4-.3,2-.4.6-.2,1.1-.3,1.5-.4.4-.1.8-.2,1.1-.2.7,0,1.2.2,1.5.5.3.3.5.8.5,1.4,0,.9-.4,1.6-1.1,2.3s-1.8,1.2-3.2,1.5c-1.4.3-3.1.5-5,.5ZM1062.9,638.8c-.5.1-1,0-1.3-.1-.3-.2-.5-.5-.6-.9-.1-.4-.2-.8-.2-1.3s.2-1.1.7-1.6c.4-.5,1-.8,1.7-.9.6-.1,1.3-.2,2-.4.7-.1,1.5-.2,2.3-.3.8,0,1.7-.2,2.6-.2.9,0,2-.1,3.1-.2,1,0,1.7.2,2.2.5s.6.8.6,1.4c0,.9-.3,1.6-.9,2.1-.6.5-1.4.8-2.3.8-1.1,0-2.1.1-3,.2-.9,0-1.8.2-2.6.3-.8,0-1.5.2-2.2.3-.7.1-1.3.2-1.9.4Z"/>
      <path class="st6" d="M1085,647.4c-.9,0-1.7-.4-2.4-1.1s-1-1.8-1-3.3.1-1.9.4-3c.3-1.1.8-2.4,1.4-3.7,0-1.1,0-2.1-.2-2.9-.2-.9-.4-1.7-.6-2.6-.3-.9-.6-1.8-.9-2.8-.3-.9-.2-1.5,0-2,.3-.5,1-.7,2-.7s2.1.4,2.8,1.1,1.2,2.1,1.6,4h-1c.9-1.4,1.9-2.5,3-3.5,1.1-1,2.3-1.7,3.7-2.2,1.3-.5,2.7-.8,4.1-.8s2.1.1,2.9.4c.8.3,1.4.7,2,1.2.5.5.9,1.1,1.1,1.8.2.7.4,1.5.4,2.3s-.2,2-.7,2.9c-.5,1-1.2,1.9-2.1,2.7-.9.8-2.1,1.6-3.5,2.3-1.4.7-2.9,1.3-4.7,1.8,1.4.7,2.9,1.4,4.5,1.9,1.6.6,3.2,1.1,4.8,1.5,1.1.3,1.9.5,2.3.9.4.3.6.7.6,1.2,0,.8-.3,1.4-.9,1.8s-1.5.7-2.6.7-1.5-.1-2.6-.4c-1.1-.3-2.2-.6-3.5-1.1-1.3-.5-2.5-1-3.7-1.6-1.2-.6-2.3-1.2-3.4-1.9-1-.7-1.8-1.3-2.4-2-.3-.3-.4-.8-.4-1.3s.1-1,.4-1.4c.3-.4.6-.7,1.1-.8,2.1-.5,3.9-1,5.4-1.6,1.5-.6,2.6-1.3,3.5-1.9.9-.7,1.5-1.3,1.9-1.9.4-.6.6-1.1.6-1.4s0-.7-.3-.9c-.2-.2-.5-.3-1-.3s-.9.1-1.5.3c-.6.2-1.3.6-2.1,1.1-.8.5-1.5,1.2-2.3,2-.8.8-1.5,1.8-2.1,3-.6,1.2-1.1,2.6-1.5,4.2-.4,1.6-.6,3.4-.6,5.5s0,1.1-.3,1.5c-.2.4-.4.7-.8.8s-.8.3-1.3.3Z"/>
    </g>
    <g>
      <path class="st7" d="M819.1,647.4c-.9,0-1.7-.4-2.4-1.1s-1-1.8-1-3.3.1-1.9.4-3c.3-1.1.8-2.4,1.4-3.7,0-1.1,0-2.1-.2-2.9-.2-.9-.4-1.7-.6-2.6-.3-.9-.6-1.8-.9-2.8-.3-.9-.2-1.5,0-2,.3-.5,1-.7,2-.7s2.1.4,2.8,1.1,1.2,2.1,1.6,4h-1c.9-1.4,1.9-2.5,3-3.5,1.1-1,2.3-1.7,3.7-2.2,1.3-.5,2.7-.8,4.1-.8s2.1.1,2.9.4c.8.3,1.4.7,2,1.2.5.5.9,1.1,1.1,1.8.2.7.4,1.5.4,2.3s-.2,2-.7,2.9c-.5,1-1.2,1.9-2.1,2.7-.9.8-2.1,1.6-3.5,2.3-1.4.7-2.9,1.3-4.7,1.8,1.4.7,2.9,1.4,4.5,1.9,1.6.6,3.2,1.1,4.8,1.5,1.1.3,1.9.5,2.3.9.4.3.6.7.6,1.2,0,.8-.3,1.4-.9,1.8s-1.5.7-2.6.7-1.5-.1-2.6-.4c-1.1-.3-2.2-.6-3.5-1.1-1.3-.5-2.5-1-3.7-1.6-1.2-.6-2.3-1.2-3.4-1.9-1-.7-1.8-1.3-2.4-2-.3-.3-.4-.8-.4-1.3s.1-1,.4-1.4c.3-.4.6-.7,1.1-.8,2.1-.5,3.9-1,5.4-1.6,1.5-.6,2.6-1.3,3.5-1.9.9-.7,1.5-1.3,1.9-1.9.4-.6.6-1.1.6-1.4s0-.7-.3-.9c-.2-.2-.5-.3-1-.3s-.9.1-1.5.3c-.6.2-1.3.6-2.1,1.1-.8.5-1.5,1.2-2.3,2-.8.8-1.5,1.8-2.1,3-.6,1.2-1.1,2.6-1.5,4.2-.4,1.6-.6,3.4-.6,5.5s0,1.1-.3,1.5c-.2.4-.4.7-.8.8s-.8.3-1.3.3Z"/>
      <path class="st7" d="M845.4,629.7c-1.2,0-2.1-.2-2.8-.7-.6-.5-1-1.1-1-1.8s.1-.7.3-1c.2-.3.7-.6,1.4-.8,1.5-.4,3.2-.7,5-.9,1.8-.2,3.5-.4,5.1-.5,1.6-.1,3-.2,4.1-.2,1.6,0,2.8.2,3.4.7.7.5,1,1.1,1,1.9s-.2,1.1-.6,1.5c-.4.4-1,.6-1.8.6-1.6,0-3.1,0-4.5.2-1.5.1-2.8.3-4,.4-1.2.2-2.3.3-3.3.4-.9.1-1.7.2-2.2.2ZM852.5,647.2c-1.8,0-3.3-.2-4.6-.8-1.3-.5-2.4-1.2-3.3-2.1-.9-.9-1.5-1.9-1.9-3.1-.4-1.2-.6-2.5-.6-3.8s0-1.5.2-2.4c.1-.9.3-1.7.6-2.7.2-.9.5-1.8.9-2.7.3-.8.7-1.5,1.4-2,.6-.5,1.3-.7,2.2-.7s.8,0,1.2.2c.3.2.6.4.7.7s.2.6.2,1.1c-.1.6-.4,1.3-.6,2.2-.3.9-.5,1.9-.8,3-.2,1.1-.3,2.2-.3,3.4s.2,1.8.6,2.5c.4.7,1,1.3,1.7,1.7.7.4,1.6.6,2.6.6s1.9,0,2.7-.2c.8-.1,1.4-.3,2-.4.6-.2,1.1-.3,1.5-.4.4-.1.8-.2,1.1-.2.7,0,1.2.2,1.5.5.3.3.5.8.5,1.4,0,.9-.4,1.6-1.1,2.3s-1.8,1.2-3.2,1.5c-1.4.3-3.1.5-5,.5ZM846.5,638.8c-.5.1-1,0-1.3-.1-.3-.2-.5-.5-.6-.9-.1-.4-.2-.8-.2-1.3s.2-1.1.7-1.6c.4-.5,1-.8,1.7-.9.6-.1,1.3-.2,2-.4.7-.1,1.5-.2,2.3-.3.8,0,1.7-.2,2.6-.2.9,0,2-.1,3.1-.2,1,0,1.7.2,2.2.5s.6.8.6,1.4c0,.9-.3,1.6-.9,2.1-.6.5-1.4.8-2.3.8-1.1,0-2.1.1-3,.2-.9,0-1.8.2-2.6.3-.8,0-1.5.2-2.2.3-.7.1-1.3.2-1.9.4Z"/>
      <path class="st7" d="M871.3,647.3c-2.2,0-3.9-.4-5-1.2-1.1-.8-1.7-1.7-1.7-2.8s.1-.9.4-1.2c.3-.3.7-.4,1.2-.4s.7,0,.9.1c.3,0,.6.2.9.3.3.1.7.2,1.1.3.4,0,1,.1,1.6.1.9,0,1.7,0,2.3,0,.7,0,1.2-.2,1.8-.3.5-.1,1-.2,1.6-.4-.2-.4-.6-.8-1.3-1.1-.6-.3-1.4-.7-2.3-1-.9-.3-1.8-.7-2.8-1.1s-1.9-.9-2.7-1.4c-.8-.5-1.5-1.2-2.1-1.9s-.8-1.6-.8-2.7.3-2,1-2.9c.7-.9,1.5-1.7,2.6-2.4s2.3-1.3,3.5-1.8c1.3-.5,2.5-.9,3.7-1.1,1.2-.3,2.2-.4,3.1-.4s1.4.1,1.8.4c.5.2.8.6,1,1,.2.4.3.9.3,1.3s-.1.9-.4,1.3c-.3.4-.8.6-1.4.7-1.9.3-3.6.7-5,1.2-1.4.4-2.6.9-3.4,1.4-.8.5-1.2.9-1.2,1.4s.3.8.9,1.1,1.3.7,2.2,1c.9.3,1.9.7,2.9,1.1s2,.9,2.9,1.4c.9.5,1.7,1.2,2.2,1.9.6.7.9,1.6.9,2.6s-.2,1.8-.7,2.5c-.5.7-1.2,1.3-2.1,1.7-.9.4-2.1.8-3.4,1-1.3.2-2.9.3-4.6.3Z"/>
      <path class="st7" d="M900.3,629h-3.5c-1.1,0-2.1,0-3.1,0-1,0-2,0-3-.1-1,0-2-.1-3-.2-1,0-1.8-.2-2.3-.5s-.9-.6-1.2-1-.4-.9-.4-1.5.2-.9.5-1.3c.3-.3.9-.5,1.6-.5s2.1,0,3,0c.9,0,1.8,0,2.6,0,.8,0,1.7,0,2.5,0s1.7,0,2.6,0,1.6,0,2.2,0c.7,0,1.3,0,2-.1.7,0,1.4,0,2.3,0s1.2.2,1.6.5.5.7.5,1.3c0,.8-.2,1.4-.7,1.9-.5.5-1.1.9-1.9,1.1s-1.5.4-2.3.4ZM895,647.4c-.7,0-1.4-.2-2-.7s-1.1-1.3-1.5-2.6c-.2-.8-.4-1.7-.5-2.7-.1-.9-.2-2-.2-3.2s0-2.6.2-4.3c.1-1.7.3-3.6.5-5.9,0-.6.3-1.1.7-1.5.4-.4.9-.6,1.6-.6,1.3,0,2.2.3,2.6.9.5.6.7,1.7.6,3.1-.1,2.3-.2,4.2-.3,5.8,0,1.6,0,2.9,0,3.9,0,1,.1,1.9.2,2.6,0,.7.1,1.2.2,1.7,0,.5.1.9.1,1.3,0,.8-.2,1.4-.6,1.7-.4.3-1,.5-1.8.5Z"/>
      <path class="st7" d="M907.4,641.5c-1.2,0-2-.2-2.5-.6-.5-.4-.8-1-.8-1.6s.2-.8.5-1.1c.3-.3.8-.6,1.5-.8,2.5-.7,5.4-1.2,8.7-1.6,3.3-.4,6.9-.6,11-.6s2.4.2,2.9.6c.5.4.8.9.8,1.6s-.4,1.5-1.1,2c-.7.5-1.7.8-3,.8-1.8,0-3.4,0-5,.1-1.5,0-2.9.2-4.1.4-1.3.1-2.4.3-3.5.4-1,.1-2,.3-2.9.4-.9,0-1.7.1-2.4.1ZM926.6,647.3c-.7,0-1.4-.2-2-.5s-1.1-.9-1.7-1.8c-.5-.7-1-1.7-1.4-2.8s-.7-2.4-1-3.6c-.2-1.3-.4-2.5-.6-3.6-.2-1.4-.3-2.5-.4-3.3-.1-.8-.3-1.4-.4-1.9s-.3-.7-.4-.8c-.2-.1-.3-.2-.6-.2-.6,0-1.2.4-1.8,1.1s-1.3,1.9-1.9,3.3c-.6,1.5-1.2,3.2-1.8,5.2-.5,2-1,4.3-1.4,6.8,0,.7-.3,1.2-.6,1.5-.3.3-.8.5-1.4.5-1,0-1.8-.4-2.4-1.1-.5-.7-.8-1.9-.8-3.6s.1-2.7.3-3.9c.2-1.2.4-2.4.7-3.5.3-1.1.5-2.2.7-3.3.2-1.1.3-2.2.3-3.3,0-.4.1-.7.4-.9.3-.2.7-.4,1.2-.4s1,.1,1.5.3c.5.2,1,.6,1.4,1.2l-2.1.7c1-1.7,2.1-3.1,3.5-4.1s2.9-1.5,4.5-1.5,3,.4,3.9,1.2,1.7,2,2.2,3.6c.5,1.7.9,3.8,1.3,6.5.2,1.6.4,2.9.8,4,.3,1.1.7,2.1,1.1,2.8.4.8.7,1.4.9,2,.2.6.4,1.1.4,1.6s-.2,1-.5,1.4c-.4.3-.9.5-1.6.5Z"/>
      <path class="st7" d="M935.7,647.4c-.9,0-1.7-.4-2.4-1.1s-1-1.8-1-3.3.1-1.9.4-3c.3-1.1.8-2.4,1.4-3.7,0-1.1,0-2.1-.2-2.9-.2-.9-.4-1.7-.6-2.6-.3-.9-.6-1.8-.9-2.8-.3-.9-.2-1.5,0-2,.3-.5,1-.7,2-.7s2.1.4,2.8,1.1,1.2,2.1,1.6,4h-1c1.3-2,2.9-3.6,4.8-4.7,1.9-1.1,3.9-1.7,6-1.7s2.1.1,2.9.4c.8.3,1.4.7,2,1.2.5.5.9,1.1,1.1,1.8.2.7.4,1.5.4,2.3s-.2,2-.7,2.9c-.5,1-1.2,1.9-2.1,2.7-.9.8-2.1,1.6-3.5,2.3-1.4.7-2.9,1.3-4.7,1.8,1.4.7,2.9,1.4,4.5,1.9,1.6.6,3.2,1.1,4.8,1.5,1.1.3,1.9.5,2.3.9.4.3.6.7.6,1.2,0,.8-.3,1.4-.9,1.8s-1.5.7-2.6.7-1.5-.1-2.6-.4c-1.1-.3-2.2-.6-3.5-1.1-1.3-.5-2.5-1-3.7-1.6-1.2-.6-2.3-1.2-3.4-1.9-1-.7-1.8-1.3-2.4-2-.3-.3-.4-.8-.4-1.3s.1-1,.4-1.4c.3-.4.6-.7,1.1-.8,2.1-.5,3.9-1,5.4-1.6,1.5-.6,2.6-1.3,3.5-1.9.9-.7,1.5-1.3,1.9-1.9.4-.6.6-1.1.6-1.4s0-.7-.3-.9c-.2-.2-.5-.3-1-.3s-.9.1-1.5.3c-.6.2-1.3.6-2.1,1.1-.8.5-1.5,1.2-2.3,2-.8.8-1.5,1.8-2.1,3-.6,1.2-1.1,2.6-1.5,4.2-.4,1.6-.6,3.4-.6,5.5s0,1.1-.3,1.5c-.2.4-.4.7-.8.8s-.8.3-1.3.3Z"/>
      <path class="st7" d="M973.1,629h-3.5c-1.1,0-2.1,0-3.1,0-1,0-2,0-3-.1-1,0-2-.1-3-.2-1,0-1.8-.2-2.3-.5s-.9-.6-1.2-1-.4-.9-.4-1.5.2-.9.5-1.3c.3-.3.9-.5,1.6-.5s2.1,0,3,0c.9,0,1.8,0,2.6,0,.8,0,1.7,0,2.5,0s1.7,0,2.6,0,1.6,0,2.2,0c.7,0,1.3,0,2-.1.7,0,1.4,0,2.3,0s1.2.2,1.6.5.5.7.5,1.3c0,.8-.2,1.4-.7,1.9-.5.5-1.1.9-1.9,1.1s-1.5.4-2.3.4ZM967.9,647.4c-.7,0-1.4-.2-2-.7s-1.1-1.3-1.5-2.6c-.2-.8-.4-1.7-.5-2.7-.1-.9-.2-2-.2-3.2s0-2.6.2-4.3c.1-1.7.3-3.6.5-5.9,0-.6.3-1.1.7-1.5.4-.4.9-.6,1.6-.6,1.3,0,2.2.3,2.6.9.5.6.7,1.7.6,3.1-.1,2.3-.2,4.2-.3,5.8,0,1.6,0,2.9,0,3.9,0,1,.1,1.9.2,2.6,0,.7.1,1.2.2,1.7,0,.5.1.9.1,1.3,0,.8-.2,1.4-.6,1.7-.4.3-1,.5-1.8.5Z"/>
      <path class="st7" d="M1001.1,647.3c-2.9,0-5-.7-6.5-2.1-1.5-1.4-2.2-3.5-2.2-6.3s.1-3.2.4-4.6c.3-1.4.6-2.8.9-4.2.3-1.3.4-2.6.4-3.7s.2-1.3.6-1.8c.4-.5,1-.7,1.9-.7s1.3.2,1.8.5c.5.3.8.8,1.1,1.3.2.5.4,1.1.4,1.6,0,1.1-.1,2.2-.3,3.4-.2,1.1-.4,2.2-.7,3.3-.3,1.1-.5,2-.7,2.9-.2.9-.3,1.7-.3,2.4,0,1,.3,1.8.8,2.3.5.5,1.4.8,2.6.8s1.8,0,2.4-.3c.6-.2,1.1-.4,1.5-.6.4-.2.8-.4,1.2-.6.4-.2.8-.3,1.3-.3s.9.2,1.3.6c.3.4.5.9.5,1.4s-.1,1.2-.4,1.7c-.2.5-.7,1-1.2,1.4-.8.6-1.9,1-3.1,1.2-1.2.3-2.4.4-3.6.4Z"/>
      <path class="st7" d="M1014.2,641.5c-1.2,0-2-.2-2.5-.6-.5-.4-.8-1-.8-1.6s.2-.8.5-1.1c.3-.3.8-.6,1.5-.8,2.5-.7,5.4-1.2,8.7-1.6,3.3-.4,6.9-.6,11-.6s2.4.2,2.9.6c.5.4.8.9.8,1.6s-.4,1.5-1.1,2c-.7.5-1.7.8-3,.8-1.8,0-3.4,0-5,.1-1.5,0-2.9.2-4.1.4-1.3.1-2.4.3-3.5.4-1,.1-2,.3-2.9.4-.9,0-1.7.1-2.4.1ZM1033.4,647.3c-.7,0-1.4-.2-2-.5s-1.1-.9-1.7-1.8c-.5-.7-1-1.7-1.4-2.8s-.7-2.4-1-3.6c-.2-1.3-.4-2.5-.6-3.6-.2-1.4-.3-2.5-.4-3.3-.1-.8-.3-1.4-.4-1.9s-.3-.7-.4-.8c-.2-.1-.3-.2-.6-.2-.6,0-1.2.4-1.8,1.1s-1.3,1.9-1.9,3.3c-.6,1.5-1.2,3.2-1.8,5.2-.5,2-1,4.3-1.4,6.8,0,.7-.3,1.2-.6,1.5-.3.3-.8.5-1.4.5-1,0-1.8-.4-2.4-1.1-.5-.7-.8-1.9-.8-3.6s.1-2.7.3-3.9c.2-1.2.4-2.4.7-3.5.3-1.1.5-2.2.7-3.3.2-1.1.3-2.2.3-3.3,0-.4.1-.7.4-.9.3-.2.7-.4,1.2-.4s1,.1,1.5.3c.5.2,1,.6,1.4,1.2l-2.1.7c1-1.7,2.1-3.1,3.5-4.1s2.9-1.5,4.5-1.5,3,.4,3.9,1.2,1.7,2,2.2,3.6c.5,1.7.9,3.8,1.3,6.5.2,1.6.4,2.9.8,4,.3,1.1.7,2.1,1.1,2.8.4.8.7,1.4.9,2,.2.6.4,1.1.4,1.6s-.2,1-.5,1.4c-.4.3-.9.5-1.6.5Z"/>
      <path class="st7" d="M1051.4,629h-3.5c-1.1,0-2.1,0-3.1,0-1,0-2,0-3-.1-1,0-2-.1-3-.2-1,0-1.8-.2-2.3-.5s-.9-.6-1.2-1-.4-.9-.4-1.5.2-.9.5-1.3c.3-.3.9-.5,1.6-.5s2.1,0,3,0c.9,0,1.8,0,2.6,0,.8,0,1.7,0,2.5,0s1.7,0,2.6,0,1.6,0,2.2,0c.7,0,1.3,0,2-.1.7,0,1.4,0,2.3,0s1.2.2,1.6.5.5.7.5,1.3c0,.8-.2,1.4-.7,1.9-.5.5-1.1.9-1.9,1.1s-1.5.4-2.3.4ZM1046.2,647.4c-.7,0-1.4-.2-2-.7s-1.1-1.3-1.5-2.6c-.2-.8-.4-1.7-.5-2.7-.1-.9-.2-2-.2-3.2s0-2.6.2-4.3c.1-1.7.3-3.6.5-5.9,0-.6.3-1.1.7-1.5.4-.4.9-.6,1.6-.6,1.3,0,2.2.3,2.6.9.5.6.7,1.7.6,3.1-.1,2.3-.2,4.2-.3,5.8,0,1.6,0,2.9,0,3.9,0,1,.1,1.9.2,2.6,0,.7.1,1.2.2,1.7,0,.5.1.9.1,1.3,0,.8-.2,1.4-.6,1.7-.4.3-1,.5-1.8.5Z"/>
      <path class="st7" d="M1061.8,629.7c-1.2,0-2.1-.2-2.8-.7-.6-.5-1-1.1-1-1.8s.1-.7.3-1c.2-.3.7-.6,1.4-.8,1.5-.4,3.2-.7,5-.9,1.8-.2,3.5-.4,5.1-.5,1.6-.1,3-.2,4.1-.2,1.6,0,2.8.2,3.4.7.7.5,1,1.1,1,1.9s-.2,1.1-.6,1.5c-.4.4-1,.6-1.8.6-1.6,0-3.1,0-4.5.2-1.5.1-2.8.3-4,.4-1.2.2-2.3.3-3.3.4-.9.1-1.7.2-2.2.2ZM1068.9,647.2c-1.8,0-3.3-.2-4.6-.8-1.3-.5-2.4-1.2-3.3-2.1-.9-.9-1.5-1.9-1.9-3.1-.4-1.2-.6-2.5-.6-3.8s0-1.5.2-2.4c.1-.9.3-1.7.6-2.7.2-.9.5-1.8.9-2.7.3-.8.7-1.5,1.4-2,.6-.5,1.3-.7,2.2-.7s.8,0,1.2.2c.3.2.6.4.7.7s.2.6.2,1.1c-.1.6-.4,1.3-.6,2.2-.3.9-.5,1.9-.8,3-.2,1.1-.3,2.2-.3,3.4s.2,1.8.6,2.5c.4.7,1,1.3,1.7,1.7.7.4,1.6.6,2.6.6s1.9,0,2.7-.2c.8-.1,1.4-.3,2-.4.6-.2,1.1-.3,1.5-.4.4-.1.8-.2,1.1-.2.7,0,1.2.2,1.5.5.3.3.5.8.5,1.4,0,.9-.4,1.6-1.1,2.3s-1.8,1.2-3.2,1.5c-1.4.3-3.1.5-5,.5ZM1062.9,638.8c-.5.1-1,0-1.3-.1-.3-.2-.5-.5-.6-.9-.1-.4-.2-.8-.2-1.3s.2-1.1.7-1.6c.4-.5,1-.8,1.7-.9.6-.1,1.3-.2,2-.4.7-.1,1.5-.2,2.3-.3.8,0,1.7-.2,2.6-.2.9,0,2-.1,3.1-.2,1,0,1.7.2,2.2.5s.6.8.6,1.4c0,.9-.3,1.6-.9,2.1-.6.5-1.4.8-2.3.8-1.1,0-2.1.1-3,.2-.9,0-1.8.2-2.6.3-.8,0-1.5.2-2.2.3-.7.1-1.3.2-1.9.4Z"/>
      <path class="st7" d="M1085,647.4c-.9,0-1.7-.4-2.4-1.1s-1-1.8-1-3.3.1-1.9.4-3c.3-1.1.8-2.4,1.4-3.7,0-1.1,0-2.1-.2-2.9-.2-.9-.4-1.7-.6-2.6-.3-.9-.6-1.8-.9-2.8-.3-.9-.2-1.5,0-2,.3-.5,1-.7,2-.7s2.1.4,2.8,1.1,1.2,2.1,1.6,4h-1c.9-1.4,1.9-2.5,3-3.5,1.1-1,2.3-1.7,3.7-2.2,1.3-.5,2.7-.8,4.1-.8s2.1.1,2.9.4c.8.3,1.4.7,2,1.2.5.5.9,1.1,1.1,1.8.2.7.4,1.5.4,2.3s-.2,2-.7,2.9c-.5,1-1.2,1.9-2.1,2.7-.9.8-2.1,1.6-3.5,2.3-1.4.7-2.9,1.3-4.7,1.8,1.4.7,2.9,1.4,4.5,1.9,1.6.6,3.2,1.1,4.8,1.5,1.1.3,1.9.5,2.3.9.4.3.6.7.6,1.2,0,.8-.3,1.4-.9,1.8s-1.5.7-2.6.7-1.5-.1-2.6-.4c-1.1-.3-2.2-.6-3.5-1.1-1.3-.5-2.5-1-3.7-1.6-1.2-.6-2.3-1.2-3.4-1.9-1-.7-1.8-1.3-2.4-2-.3-.3-.4-.8-.4-1.3s.1-1,.4-1.4c.3-.4.6-.7,1.1-.8,2.1-.5,3.9-1,5.4-1.6,1.5-.6,2.6-1.3,3.5-1.9.9-.7,1.5-1.3,1.9-1.9.4-.6.6-1.1.6-1.4s0-.7-.3-.9c-.2-.2-.5-.3-1-.3s-.9.1-1.5.3c-.6.2-1.3.6-2.1,1.1-.8.5-1.5,1.2-2.3,2-.8.8-1.5,1.8-2.1,3-.6,1.2-1.1,2.6-1.5,4.2-.4,1.6-.6,3.4-.6,5.5s0,1.1-.3,1.5c-.2.4-.4.7-.8.8s-.8.3-1.3.3Z"/>
    </g>
  </g>
  <g id="update-update_x5F_txt">
    <path class="st5" d="M798.2,450.4c-2.6,0-4.6-.5-6.2-1.5-1.6-1-2.7-2.5-3.4-4.4-.7-1.9-1.1-4.1-1.1-6.7s0-1.9,0-2.8c0-.9,0-1.7,0-2.4s0-1.7,0-2.3c0-.6-.1-1-.2-1.4,0-.4-.1-.7-.2-1.1,0-.3,0-.7,0-1.1,0-.8.2-1.4.7-1.8.4-.4,1.1-.5,1.9-.5s1.4.2,2,.5c.6.4,1,1,1.4,1.9.4.9.5,2.2.5,3.8s0,1.5,0,2.3c0,.9-.1,1.7-.2,2.6,0,.9,0,1.7,0,2.4,0,1.8.2,3.2.5,4.2.4,1,.9,1.7,1.6,2,.7.4,1.5.6,2.5.6,1.4,0,2.5-.4,3.2-1.3.7-.9,1.1-2.4,1.1-4.5s0-2.5,0-3.5c0-1,0-2-.1-3,0-1,0-2.1,0-3.4s.3-2.5.8-3.4c.5-.9,1.4-1.3,2.6-1.3s1.4.2,1.8.6c.5.4.7,1,.7,1.8s0,.8-.1,1.2c0,.4-.1.9-.2,1.4,0,.5,0,1.2,0,2,0,1.3,0,2.5.1,3.8,0,1.3.1,2.6.1,4.1,0,2.2-.3,4.1-1,5.8-.7,1.7-1.7,3-3.1,3.9-1.4.9-3.2,1.4-5.4,1.4Z"/>
    <path class="st5" d="M816.3,450.3c-.9,0-1.6-.3-2.3-1-.6-.7-1-1.9-1-3.5s0-2.9-.3-4.1c-.2-1.1-.4-2.2-.6-3.1-.2-.9-.4-1.8-.5-2.6-.2-.8-.2-1.7-.2-2.7,0-1.7.3-3.3,1-4.6.7-1.3,1.7-2.3,3.2-3,1.5-.7,3.4-1.1,5.9-1.1s2.5.2,3.6.5c1.1.4,2.1.9,3,1.6.9.7,1.5,1.6,2,2.6.5,1,.7,2.2.7,3.5s-.3,2.7-.9,3.9c-.6,1.2-1.4,2.3-2.4,3.3-1,.9-2.2,1.7-3.5,2.2-1.3.5-2.7.8-4.2.8s-2-.2-2.9-.6c-.8-.4-1.5-.8-2-1.4-.5-.6-.7-1.2-.7-1.9s.2-1.1.6-1.5c.4-.3.8-.5,1.4-.5s.6,0,.8.2.6.2.9.3c.4.1.9.2,1.6.2,1.1,0,2-.2,2.9-.7.9-.5,1.6-1.1,2.1-1.9.5-.8.8-1.6.8-2.4s-.2-1.1-.6-1.5c-.4-.4-.9-.7-1.5-.9-.6-.2-1.2-.3-1.9-.3-1.6,0-2.7.3-3.5.8-.8.5-1.2,1.3-1.2,2.4s0,1.9.3,2.9c.2,1,.4,2,.6,3,.2,1.1.4,2.2.6,3.5.2,1.3.3,2.7.3,4.3s-.1,1.8-.4,2.4-.9.9-1.9.9Z"/>
    <path class="st5" d="M840.2,450.3c-1,0-1.9-.3-2.6-.9-.7-.6-1.2-1.5-1.6-2.6-.4-1.1-.5-2.4-.5-3.8,0-2.2,0-4.3,0-6.3,0-2,.1-4,.2-6.1,0-.8.3-1.3.7-1.6.4-.3,1.1-.5,2-.5s1.4.2,1.9.7c.5.5.8,1,.8,1.7,0,1.1,0,2.3,0,3.6,0,1.3,0,2.6-.1,3.9,0,1.3,0,2.6,0,3.9s0,1.4.2,2.1.4,1.3.9,1.9l-3.8-.9c2-.3,3.7-.8,5.2-1.4,1.5-.7,2.8-1.5,3.8-2.4,1-.9,1.8-2,2.3-3.1.5-1.1.8-2.3.8-3.5s-.2-1.9-.6-2.6c-.4-.7-1-1.3-1.8-1.6-.8-.4-1.9-.6-3.2-.6s-2.1,0-2.9.2c-.8.1-1.5.3-2.1.5-.6.2-1.2.4-1.7.5-.5.1-1,.2-1.5.2-.8,0-1.5-.2-2.1-.5-.6-.3-1-.8-1.3-1.3s-.4-1.1-.4-1.6.1-.8.3-1.2.6-.7,1.1-.8c.8-.3,1.8-.5,2.9-.7s2.4-.4,3.7-.6c1.3-.2,2.6-.3,3.8-.3,2.4,0,4.5.4,6.2,1.3,1.7.9,3,2.1,3.8,3.6.9,1.5,1.3,3.2,1.3,5.1s-.3,3.5-.9,5.1c-.6,1.6-1.5,3-2.5,4.3-1.1,1.3-2.3,2.4-3.6,3.3-1.4.9-2.8,1.6-4.3,2.1-1.5.5-3,.8-4.4.8Z"/>
    <path class="st5" d="M861.3,444c-1.2,0-2-.2-2.5-.7-.5-.5-.8-1-.8-1.8s.2-.9.5-1.2c.3-.3.8-.6,1.5-.8,2.5-.7,5.4-1.3,8.7-1.8,3.3-.5,6.9-.7,11-.7s2.4.2,2.9.6c.5.4.8,1,.8,1.8s-.4,1.6-1.1,2.2c-.7.6-1.7.9-3,.9-1.8,0-3.4,0-5,.2-1.5.1-2.9.2-4.1.4-1.3.2-2.4.3-3.5.5-1,.2-2,.3-2.9.4-.9.1-1.7.2-2.4.2ZM880.5,450.4c-.7,0-1.4-.2-2-.6-.6-.4-1.1-1-1.7-1.9-.5-.8-1-1.8-1.4-3.1-.4-1.3-.7-2.6-1-4-.2-1.4-.4-2.7-.6-4-.2-1.5-.3-2.7-.4-3.6-.1-.9-.3-1.6-.4-2-.1-.5-.3-.8-.4-.9-.2-.2-.3-.2-.6-.2-.6,0-1.2.4-1.8,1.3-.6.8-1.3,2.1-1.9,3.6-.6,1.6-1.2,3.5-1.8,5.8-.5,2.2-1,4.7-1.4,7.5,0,.7-.3,1.3-.6,1.6-.3.3-.8.5-1.4.5-1,0-1.8-.4-2.4-1.2-.5-.8-.8-2.1-.8-4s.1-2.9.3-4.2.4-2.6.7-3.8c.3-1.2.5-2.4.7-3.6s.3-2.4.3-3.6c0-.4.1-.8.4-1s.7-.4,1.2-.4,1,.1,1.5.4c.5.2,1,.7,1.4,1.3l-2.1.7c1-1.9,2.1-3.4,3.5-4.5,1.4-1.1,2.9-1.7,4.5-1.7s3,.4,3.9,1.3c.9.8,1.7,2.2,2.2,4,.5,1.8.9,4.2,1.3,7.1.2,1.7.4,3.2.8,4.4.3,1.2.7,2.3,1.1,3.1.4.8.7,1.6.9,2.2.2.6.4,1.2.4,1.7s-.2,1.1-.5,1.5c-.4.3-.9.5-1.6.5Z"/>
    <path class="st5" d="M898.5,430.2h-3.5c-1.1,0-2.1,0-3.1,0-1,0-2,0-3-.1-1,0-2-.1-3-.2-1,0-1.8-.3-2.3-.5-.5-.3-.9-.6-1.2-1.1-.2-.5-.4-1-.4-1.7s.2-1,.5-1.4c.3-.4.9-.6,1.6-.6s2.1,0,3,0c.9,0,1.8,0,2.6.1.8,0,1.7,0,2.5.1.8,0,1.7,0,2.6,0s1.6,0,2.2,0c.7,0,1.3-.1,2-.2.7,0,1.4,0,2.3,0s1.2.2,1.6.5c.3.3.5.8.5,1.4,0,.9-.2,1.6-.7,2.1-.5.5-1.1,1-1.9,1.2-.8.3-1.5.4-2.3.4ZM893.3,450.4c-.7,0-1.4-.2-2-.7-.6-.5-1.1-1.4-1.5-2.8-.2-.9-.4-1.9-.5-2.9-.1-1-.2-2.2-.2-3.5s0-2.9.2-4.7c.1-1.8.3-4,.5-6.5,0-.7.3-1.3.7-1.7.4-.4.9-.7,1.6-.7,1.3,0,2.2.3,2.6,1,.5.7.7,1.8.6,3.4-.1,2.5-.2,4.6-.3,6.3,0,1.7,0,3.2,0,4.3,0,1.1.1,2.1.2,2.8,0,.7.1,1.3.2,1.8,0,.5.1,1,.1,1.4,0,.9-.2,1.5-.6,1.8-.4.3-1,.5-1.8.5Z"/>
    <path class="st5" d="M908.9,431.1c-1.2,0-2.1-.3-2.8-.8-.6-.5-1-1.2-1-2s.1-.8.3-1.1c.2-.4.7-.7,1.4-.8,1.5-.4,3.2-.7,5-1,1.8-.3,3.5-.4,5.1-.6,1.6-.1,3-.2,4.1-.2,1.6,0,2.8.3,3.4.8.7.5,1,1.2,1,2.1s-.2,1.2-.6,1.7c-.4.5-1,.7-1.8.7-1.6,0-3.1,0-4.5.2-1.5.1-2.8.3-4,.5-1.2.2-2.3.3-3.3.4-.9.1-1.7.2-2.2.2ZM916,450.2c-2.3,0-4.3-.5-5.8-1.4s-2.7-2.3-3.5-3.9c-.8-1.6-1.2-3.4-1.2-5.4s.1-2.6.4-4.1c.3-1.5.7-3,1.2-4.5.3-.9.7-1.7,1.4-2.2.6-.5,1.3-.8,2.2-.8s.8,0,1.2.2c.3.2.6.4.7.7.2.3.2.7.2,1.2-.1.6-.4,1.4-.6,2.4s-.5,2-.8,3.2-.3,2.4-.3,3.8.2,1.9.6,2.7c.4.8,1,1.4,1.7,1.9.7.5,1.6.7,2.6.7s1.9,0,2.7-.2c.8-.1,1.4-.3,2-.4.6-.2,1.1-.3,1.5-.5.4-.1.8-.2,1.1-.2.7,0,1.2.2,1.5.5s.5.8.5,1.5c0,1-.4,1.8-1.1,2.5-.7.7-1.8,1.3-3.2,1.6-1.4.4-3.1.6-5,.6ZM910,441.1c-.5.1-1,0-1.3-.1-.3-.2-.5-.5-.6-1-.1-.4-.2-.9-.2-1.4s.2-1.3.7-1.8c.4-.5,1-.8,1.7-1,.6-.1,1.3-.3,2-.4s1.5-.2,2.3-.3c.8-.1,1.7-.2,2.6-.3.9,0,2-.1,3.1-.2,1,0,1.7.2,2.2.6.4.4.6.9.6,1.5,0,1-.3,1.7-.9,2.3-.6.5-1.4.8-2.3.9-1.5,0-2.8.2-4,.3-1.2.1-2.2.3-3.1.4-.9.2-1.8.3-2.6.5Z"/>
    <path class="st5" d="M944.4,450.4c-.9,0-1.7-.4-2.4-1.2-.7-.8-1-2-1-3.6s.1-2.1.4-3.3c.3-1.2.8-2.6,1.4-4.1,0-1.2,0-2.3-.2-3.2-.2-1-.4-1.9-.6-2.8-.3-.9-.6-2-.9-3.1-.3-1-.2-1.7,0-2.2.3-.5,1-.8,2-.8s2.1.4,2.8,1.2c.7.8,1.2,2.3,1.6,4.4h-1c.9-1.5,1.9-2.8,3-3.8,1.1-1,2.3-1.9,3.7-2.4,1.3-.6,2.7-.8,4.1-.8s2.1.2,2.9.5,1.4.8,1.9,1.3c.5.6.9,1.2,1.1,2,.2.8.4,1.6.4,2.5s-.2,2.2-.7,3.2c-.5,1-1.2,2-2.1,3-.9.9-2.1,1.8-3.5,2.5-1.4.8-2.9,1.4-4.7,2,1.4.8,2.9,1.5,4.5,2.1s3.2,1.2,4.8,1.6c1.1.3,1.9.6,2.3.9.4.3.6.8.6,1.3,0,.9-.3,1.5-.9,2-.6.5-1.5.7-2.6.7s-1.5-.1-2.6-.4-2.2-.7-3.5-1.2c-1.3-.5-2.5-1.1-3.7-1.8-1.2-.7-2.3-1.4-3.4-2.1-1-.7-1.8-1.5-2.4-2.2-.3-.4-.4-.9-.4-1.4s.1-1.1.4-1.6c.3-.5.6-.8,1.1-.9,2.1-.5,3.9-1.1,5.4-1.8,1.5-.7,2.6-1.4,3.5-2.1.9-.7,1.5-1.4,1.9-2s.6-1.2.6-1.6,0-.7-.3-.9c-.2-.2-.5-.3-1-.3s-.9.1-1.5.4-1.3.6-2.1,1.2c-.8.5-1.5,1.3-2.3,2.2-.8.9-1.5,2-2.1,3.3s-1.1,2.8-1.5,4.6c-.4,1.8-.6,3.8-.6,6s0,1.2-.3,1.6c-.2.4-.4.7-.8.9-.3.2-.8.3-1.3.3Z"/>
    <path class="st5" d="M970.7,431.1c-1.2,0-2.1-.3-2.8-.8-.6-.5-1-1.2-1-2s.1-.8.3-1.1c.2-.4.7-.7,1.4-.8,1.5-.4,3.2-.7,5-1s3.5-.4,5.1-.6c1.6-.1,3-.2,4.1-.2,1.6,0,2.8.3,3.4.8.7.5,1,1.2,1,2.1s-.2,1.2-.6,1.7c-.4.5-1,.7-1.8.7-1.6,0-3.1,0-4.5.2-1.5.1-2.8.3-4,.5-1.2.2-2.3.3-3.3.4-.9.1-1.7.2-2.2.2ZM977.8,450.2c-1.8,0-3.3-.3-4.6-.8-1.3-.5-2.4-1.3-3.3-2.3-.9-1-1.5-2.1-1.9-3.4s-.6-2.7-.6-4.2,0-1.7.2-2.6c.1-.9.3-1.9.6-2.9.2-1,.5-2,.9-3,.3-.9.7-1.7,1.4-2.2.6-.5,1.3-.8,2.2-.8s.8,0,1.2.2c.3.2.6.4.7.7.2.3.2.7.2,1.2-.1.6-.4,1.4-.6,2.4-.3,1-.5,2-.8,3.2s-.3,2.4-.3,3.8.2,1.9.6,2.7c.4.8,1,1.4,1.7,1.9.7.5,1.6.7,2.6.7s1.9,0,2.7-.2,1.4-.3,2-.4c.6-.2,1.1-.3,1.5-.5.4-.1.8-.2,1.1-.2.7,0,1.2.2,1.5.5.3.3.5.8.5,1.5,0,1-.4,1.8-1.1,2.5s-1.8,1.3-3.2,1.6c-1.4.4-3.1.6-5,.6ZM971.8,441.1c-.5.1-1,0-1.3-.1-.3-.2-.5-.5-.6-1s-.2-.9-.2-1.4.2-1.3.7-1.8c.4-.5,1-.8,1.7-1,.6-.1,1.3-.3,2-.4.7-.1,1.5-.2,2.3-.3s1.7-.2,2.6-.3c.9,0,2-.1,3.1-.2,1,0,1.7.2,2.2.6.4.4.6.9.6,1.5,0,1-.3,1.7-.9,2.3-.6.5-1.4.8-2.3.9-1.1,0-2.1.1-3,.2-.9,0-1.8.2-2.6.3s-1.5.2-2.2.4c-.7.1-1.3.3-1.9.4Z"/>
    <path class="st5" d="M1001.4,450.3c-2.2,0-4.1-.3-5.6-.9-1.5-.6-2.8-1.5-3.7-2.6-1-1.1-1.6-2.3-2.1-3.7-.4-1.4-.6-2.8-.6-4.3s.3-3.3.9-4.8c.6-1.5,1.3-2.8,2.1-3.9.8-1.1,1.7-2,2.7-2.6.9-.6,1.8-.9,2.5-.9s.9.1,1.3.4c.5.2.9.6,1.2.9.3.4.5.8.5,1.3s-.1.8-.3,1.1c-.2.3-.7.7-1.5,1.1-.8.5-1.6,1.1-2.1,1.9-.6.8-1,1.7-1.4,2.7-.3,1-.5,1.9-.5,3s.2,2,.7,3c.4.9,1.2,1.7,2.1,2.2s2.3.9,3.9.9,2.4-.3,3.4-.9c1-.6,1.7-1.3,2.2-2.3.5-.9.8-1.9.8-3s-.1-2-.4-2.9c-.3-1-.7-1.9-1.2-2.7-.5-.8-1.1-1.5-1.8-2-.7-.5-1.4-.7-2.2-.7s-1.5.2-2.1.7c-.6.5-1.1,1.2-1.6,2.1-.3.5-.6.9-.9,1.1-.3.2-.7.3-1.1.3-.8,0-1.4-.2-1.8-.6-.4-.4-.6-1-.6-1.9s.2-1.7.7-2.5c.5-.9,1.1-1.7,2-2.5.8-.8,1.7-1.4,2.8-1.9,1-.5,2.1-.7,3.1-.7s2.8.3,4,1,2.4,1.6,3.3,2.9c1,1.2,1.7,2.7,2.3,4.3.5,1.7.8,3.5.8,5.4s-.3,3-.8,4.5c-.5,1.4-1.3,2.7-2.3,3.9-1,1.1-2.3,2-3.7,2.7-1.5.7-3.1,1-5,1ZM1009.1,453.9c-.6,0-1.1-.1-1.5-.3s-1-.7-1.6-1.4c-.5-.6-1-1.3-1.6-2.1-.5-.8-1-1.7-1.5-2.7-.5-.9-1-1.9-1.5-2.7-.5-.9-1-1.7-1.4-2.3-.8-1.1-1.1-2.1-.8-2.8.3-.8.9-1.2,2.1-1.2s1.6.2,2.1.6c.6.4,1.1,1,1.7,1.8.2.3.5.8.8,1.3.3.6.7,1.2,1.1,2,.4.7.8,1.5,1.3,2.2.5.8,1,1.4,1.5,2.1.7.9,1.2,1.8,1.3,2.7.2.8.1,1.5-.2,2.1-.3.6-.9.8-1.8.8Z"/>
    <path class="st5" d="M1027.8,450.4c-2.6,0-4.6-.5-6.2-1.5-1.6-1-2.7-2.5-3.4-4.4s-1.1-4.1-1.1-6.7,0-1.9,0-2.8c0-.9,0-1.7,0-2.4s0-1.7,0-2.3c0-.6-.1-1-.2-1.4,0-.4-.1-.7-.2-1.1,0-.3,0-.7,0-1.1,0-.8.2-1.4.7-1.8.4-.4,1.1-.5,1.9-.5s1.4.2,2,.5c.6.4,1,1,1.4,1.9.4.9.5,2.2.5,3.8s0,1.5,0,2.3c0,.9-.1,1.7-.2,2.6,0,.9,0,1.7,0,2.4,0,1.8.2,3.2.5,4.2.4,1,.9,1.7,1.6,2,.7.4,1.5.6,2.5.6,1.4,0,2.5-.4,3.2-1.3s1.1-2.4,1.1-4.5,0-2.5,0-3.5c0-1,0-2-.1-3,0-1,0-2.1,0-3.4s.3-2.5.8-3.4,1.4-1.3,2.6-1.3,1.4.2,1.8.6c.5.4.7,1,.7,1.8s0,.8-.1,1.2c0,.4-.1.9-.2,1.4,0,.5,0,1.2,0,2,0,1.3,0,2.5.1,3.8,0,1.3.1,2.6.1,4.1,0,2.2-.3,4.1-1,5.8-.7,1.7-1.7,3-3.1,3.9-1.4.9-3.2,1.4-5.4,1.4Z"/>
    <path class="st5" d="M1045.1,450.4c-1.7,0-2.9-.3-3.6-.9-.7-.6-1.1-1.3-1.1-2.2s.2-1,.5-1.4c.3-.4.9-.6,1.6-.6,1.1-.1,2-.2,2.8-.3.8,0,1.6-.1,2.3-.1.7,0,1.4,0,2.1,0,.7,0,1.4,0,2.2,0,.8,0,1.7,0,2.6,0s1.9,0,2.5.3c.6.2.9.5,1.1.8.2.3.3.7.3,1.2,0,.8-.3,1.5-1,2-.7.6-1.8.9-3.3.9s-2.7,0-3.8,0c-1.2,0-2.2.1-3.1.2-.9,0-1.6.1-2.1.1ZM1043.7,430.7c-1.2,0-2-.3-2.5-.8-.5-.5-.8-1.2-.8-1.9s.2-1.3.7-1.7c.5-.4,1.1-.7,1.9-.8,1.4-.2,2.7-.3,4.1-.5,1.4-.1,2.7-.2,4-.3s2.5-.1,3.5-.1,2.3.2,2.9.5c.6.3.9.9.9,1.8s-.4,1.8-1.3,2.4c-.9.6-2,.9-3.3.9s-2.2,0-3.1,0c-.9,0-1.7,0-2.4.1-.7,0-1.3.1-1.9.2-.5,0-1,0-1.5.1-.4,0-.8,0-1.3,0ZM1050,446.3c-1,0-1.8-.2-2.5-.8-.6-.5-.9-1.2-.9-2,0-1.5,0-3,.1-4.5,0-1.5.2-2.9.3-4.2,0-1.3.1-2.6.1-3.7s.1-1.5.4-2c.3-.4.9-.6,1.7-.6s1.7.3,2.4.9c.7.6,1,1.3,1,2.2s0,1.8-.1,3c0,1.2-.2,2.7-.3,4.3-.1,1.6-.2,3.3-.2,5.2s-.7,2.2-2,2.2Z"/>
    <path class="st5" d="M1065.2,450.4c-.9,0-1.7-.4-2.4-1.2s-1-2-1-3.6.1-2.1.4-3.3c.3-1.2.8-2.6,1.4-4.1,0-1.2,0-2.3-.2-3.2-.2-1-.4-1.9-.6-2.8-.3-.9-.6-2-.9-3.1-.3-1-.2-1.7,0-2.2.3-.5,1-.8,2-.8s2.1.4,2.8,1.2c.7.8,1.2,2.3,1.6,4.4h-1c1.3-2.2,2.9-4,4.8-5.2,1.9-1.3,3.9-1.9,6-1.9s2.1.2,2.9.5,1.4.8,1.9,1.3.9,1.2,1.1,2c.2.8.4,1.6.4,2.5s-.2,2.2-.7,3.2c-.5,1-1.2,2-2.1,3-.9.9-2.1,1.8-3.5,2.5-1.4.8-2.9,1.4-4.7,2,1.4.8,2.9,1.5,4.5,2.1s3.2,1.2,4.8,1.6c1.1.3,1.9.6,2.3.9.4.3.6.8.6,1.3,0,.9-.3,1.5-.9,2-.6.5-1.5.7-2.6.7s-1.5-.1-2.6-.4c-1.1-.3-2.2-.7-3.5-1.2-1.3-.5-2.5-1.1-3.7-1.8-1.2-.7-2.3-1.4-3.4-2.1-1-.7-1.8-1.5-2.4-2.2-.3-.4-.4-.9-.4-1.4s.1-1.1.4-1.6c.3-.5.6-.8,1.1-.9,2.1-.5,3.9-1.1,5.4-1.8,1.5-.7,2.6-1.4,3.5-2.1.9-.7,1.5-1.4,1.9-2s.6-1.2.6-1.6,0-.7-.3-.9-.5-.3-1-.3-.9.1-1.5.4-1.3.6-2.1,1.2c-.8.5-1.5,1.3-2.3,2.2-.8.9-1.5,2-2.1,3.3-.6,1.3-1.1,2.8-1.5,4.6-.4,1.8-.6,3.8-.6,6s0,1.2-.3,1.6c-.2.4-.4.7-.8.9-.3.2-.8.3-1.3.3Z"/>
    <path class="st5" d="M1091.5,431.1c-1.2,0-2.1-.3-2.8-.8-.6-.5-1-1.2-1-2s.1-.8.3-1.1c.2-.4.7-.7,1.4-.8,1.5-.4,3.2-.7,5-1,1.8-.3,3.5-.4,5.1-.6,1.6-.1,3-.2,4.1-.2,1.6,0,2.8.3,3.4.8.7.5,1,1.2,1,2.1s-.2,1.2-.6,1.7c-.4.5-1,.7-1.8.7-1.5,0-3.1,0-4.5.2-1.5.1-2.8.3-4,.5-1.2.2-2.3.3-3.3.4-.9.1-1.7.2-2.2.2ZM1098.7,450.2c-1.8,0-3.3-.3-4.6-.8-1.3-.5-2.4-1.3-3.3-2.3-.9-1-1.5-2.1-1.9-3.4-.4-1.3-.6-2.7-.6-4.2s0-1.7.2-2.6c.1-.9.3-1.9.6-2.9.2-1,.5-2,.9-3,.3-.9.7-1.7,1.4-2.2.6-.5,1.3-.8,2.2-.8s.8,0,1.2.2c.3.2.6.4.7.7.2.3.2.7.2,1.2-.1.6-.4,1.4-.6,2.4s-.5,2-.8,3.2-.3,2.4-.3,3.8.2,1.9.6,2.7c.4.8,1,1.4,1.7,1.9.7.5,1.6.7,2.6.7s1.9,0,2.7-.2c.8-.1,1.4-.3,2-.4.6-.2,1.1-.3,1.5-.5.4-.1.8-.2,1.1-.2.7,0,1.2.2,1.5.5s.5.8.5,1.5c0,1-.4,1.8-1.1,2.5-.7.7-1.8,1.3-3.2,1.6-1.4.4-3.1.6-5,.6ZM1092.6,441.1c-.5.1-1,0-1.3-.1-.3-.2-.5-.5-.6-1s-.2-.9-.2-1.4.2-1.3.7-1.8c.4-.5,1-.8,1.7-1,.6-.1,1.3-.3,2-.4s1.5-.2,2.3-.3c.8-.1,1.7-.2,2.6-.3.9,0,2-.1,3.1-.2,1,0,1.7.2,2.2.6s.6.9.6,1.5c0,1-.3,1.7-.9,2.3-.6.5-1.4.8-2.3.9-1.1,0-2.1.1-3,.2-.9,0-1.8.2-2.6.3s-1.5.2-2.2.4c-.7.1-1.3.3-1.9.4Z"/>
    <path class="st5" d="M1117.5,450.3c-1,0-1.9-.3-2.6-.9-.7-.6-1.2-1.5-1.6-2.6s-.5-2.4-.5-3.8c0-2.2,0-4.3,0-6.3,0-2,.1-4,.2-6.1,0-.8.3-1.3.7-1.6.4-.3,1.1-.5,2-.5s1.4.2,1.9.7c.5.5.8,1,.8,1.7,0,1.1,0,2.3,0,3.6,0,1.3,0,2.6-.1,3.9,0,1.3,0,2.6,0,3.9s0,1.4.2,2.1c.1.6.4,1.3.9,1.9l-3.8-.9c2-.3,3.7-.8,5.2-1.4,1.5-.7,2.8-1.5,3.8-2.4,1-.9,1.8-2,2.3-3.1.5-1.1.8-2.3.8-3.5s-.2-1.9-.6-2.6c-.4-.7-1-1.3-1.8-1.6-.8-.4-1.9-.6-3.2-.6s-2.1,0-2.9.2c-.8.1-1.5.3-2.1.5-.6.2-1.2.4-1.7.5-.5.1-1,.2-1.5.2-.8,0-1.5-.2-2.1-.5-.6-.3-1-.8-1.3-1.3-.3-.5-.4-1.1-.4-1.6s.1-.8.3-1.2.6-.7,1.1-.8c.6-.2,1.3-.4,2.1-.6s1.7-.3,2.6-.5c.9-.2,1.9-.3,2.8-.4,1,0,1.9-.1,2.8-.1,2.4,0,4.5.4,6.2,1.3,1.7.9,3,2.1,3.8,3.6.9,1.5,1.3,3.2,1.3,5.1s-.3,3.5-.9,5.1c-.6,1.6-1.5,3-2.5,4.3-1.1,1.3-2.3,2.4-3.6,3.3-1.4.9-2.8,1.6-4.3,2.1-1.5.5-3,.8-4.4.8Z"/>
  </g>
  <path id="update-eye_x5F_R" class="st3" d="M1073.9,352.8c-8.9,1.3-21.6,1.1-36.3.9-21.7-.8-45.9,1.1-63-3.9-8.5-2.8-9.3-8.7-1.9-11.8,15.6-5.5,34.3-3,57-3.2,23.7.3,44.2.2,53.2,4.4,9.8,4.3,4.7,11.8-8.1,13.4h-.9Z"/>
  <path id="update-eye_x5F_L" class="st3" d="M845.9,352.4c8.9,1.4,21.6,1.3,36.3,1.2,21.7-.6,45.9,1.5,63-3.3,8.6-2.7,9.5-8.6,2.2-11.8-15.5-5.6-34.2-3.3-56.9-3.7-23.7.1-44.2-.2-53.3,4-9.9,4.3-5,11.8,7.7,13.5h.9Z"/>
  <g id="update-pupils_x5F_mask">
    <g class="st9">
      <g id="update-pupil_x5F_R">
        <path class="st7" d="M997.7,359.8c8.3.6,21.1-4.1,21.9-14.3.8-10.2-11.5-16.2-20.7-16.9-9.1-.7-19.1,4.4-19.9,15.1-.8,10.6,10.4,15.5,18.7,16.1Z"/>
        <path class="st7" d="M997.7,359.8c8.3.6,21.1-4.1,21.9-14.3.8-10.2-11.5-16.2-20.7-16.9-9.1-.7-19.1,4.4-19.9,15.1-.8,10.6,10.4,15.5,18.7,16.1Z"/>
      </g>
      <g id="update-pupil_x5F_L">
        <path class="st7" d="M916.2,362.7c8.3.6,21.2-5.1,22.1-17.3.9-12.1-11.3-19-20.5-19.7-9.1-.7-19.2,5.5-20.2,18.2-.9,12.6,10.2,18.2,18.5,18.8Z"/>
        <path class="st7" d="M916.2,362.7c8.3.6,21.2-5.1,22.1-17.3.9-12.1-11.3-19-20.5-19.7-9.1-.7-19.2,5.5-20.2,18.2-.9,12.6,10.2,18.2,18.5,18.8Z"/>
      </g>
    </g>
  </g>
</svg>